<svg xmlns="http://www.w3.org/2000/svg" xmlns:xlink="http://www.w3.org/1999/xlink" width="1238" height="513" viewBox="0 0 1238 513">
  <defs>
    <clipPath id="clip-path">
      <path id="Path_180842" data-name="Path 180842" d="M17.928,0H1220.072A17.964,17.964,0,0,1,1238,18V495a17.964,17.964,0,0,1-17.928,18H17.928A17.964,17.964,0,0,1,0,495V18A17.964,17.964,0,0,1,17.928,0Z" transform="translate(181 1454)" fill="#e6fffb"/>
    </clipPath>
    <filter id="Path_180835" x="479.564" y="-262.835" width="1037.898" height="829.214" filterUnits="userSpaceOnUse">
      <feOffset dy="12" input="SourceAlpha"/>
      <feGaussianBlur stdDeviation="5" result="blur"/>
      <feFlood flood-color="#007a64" flood-opacity="0.09"/>
      <feComposite operator="in" in2="blur"/>
      <feComposite in="SourceGraphic"/>
    </filter>
    <filter id="Path_180836" x="747.051" y="-531.714" width="1037.898" height="829.214" filterUnits="userSpaceOnUse">
      <feOffset dy="12" input="SourceAlpha"/>
      <feGaussianBlur stdDeviation="5" result="blur-2"/>
      <feFlood flood-color="#007a64" flood-opacity="0.102"/>
      <feComposite operator="in" in2="blur-2"/>
      <feComposite in="SourceGraphic"/>
    </filter>
    <filter id="Path_180837" x="-391.264" y="294.936" width="993.391" height="767.239" filterUnits="userSpaceOnUse">
      <feOffset dy="-12" input="SourceAlpha"/>
      <feGaussianBlur stdDeviation="5" result="blur-3"/>
      <feFlood flood-color="#007a64" flood-opacity="0.071"/>
      <feComposite operator="in" in2="blur-3"/>
      <feComposite in="SourceGraphic"/>
    </filter>
  </defs>
  <g id="bg-sliders" transform="translate(7636 10096)">
    <path id="Path_180834" data-name="Path 180834" d="M17.928,0H1220.072A17.964,17.964,0,0,1,1238,18V495a17.964,17.964,0,0,1-17.928,18H17.928A17.964,17.964,0,0,1,0,495V18A17.964,17.964,0,0,1,17.928,0Z" transform="translate(-7636 -10096)" fill="#e6fffb"/>
    <g id="Mask_Group_118" data-name="Mask Group 118" transform="translate(-7817 -11550)" clip-path="url(#clip-path)">
      <g transform="matrix(1, 0, 0, 1, 181, 1454)" filter="url(#Path_180835)">
        <path id="Path_180835-2" data-name="Path 180835" d="M.367,190.321c3.358,41.362,29.4,79.751,64.269,102.892C97,314.689,136.526,324.867,165.9,350.287c52.121,45.1,43.529,113.224,64.451,172.676,20.941,59.5,79.666,102.868,143.41,101.747,46.986-.825,91.471-23.845,138.457-24.595a148.787,148.787,0,0,1,89.745,28.643c32.484,23.877,55.282,56.141,95.228,68.757,43.9,13.864,93.572,7.781,133.457-14.966C884.918,651.589,920.778,593.8,933.859,532.7c12.359-57.712,4.718-121.873-31.2-168.7-48.665-63.448-141.885-88.62-173.112-162.236-17.9-42.192-10.848-91.95-29.726-133.715C679.946,24.094,630.32-4.417,582.335.564,531.077,5.883,490.226,43.647,445.909,69.95a331.21,331.21,0,0,1-203.157,44.073c-52.787-5.741-104.28-34.393-158.033-31.461-47.7,2.6-83.278,48.763-84.671,95.463a110.706,110.706,0,0,0,.319,12.3" transform="matrix(0.99, 0.1, -0.1, 0.99, 568.25, -259.84)" fill="#e6fffb"/>
      </g>
      <g transform="matrix(1, 0, 0, 1, 181, 1454)" filter="url(#Path_180836)">
        <path id="Path_180836-2" data-name="Path 180836" d="M.368,514.565c3.358-41.362,29.4-79.751,64.269-102.892C97,390.2,136.526,380.019,165.9,354.6c52.121-45.1,43.529-113.224,64.451-172.676,20.941-59.5,79.666-102.868,143.41-101.747,46.986.825,91.471,23.845,138.457,24.595a148.787,148.787,0,0,0,89.745-28.643c32.484-23.877,55.282-56.141,95.228-68.757,43.9-13.864,93.572-7.781,133.457,14.966,54.274,30.959,90.135,88.746,103.215,149.844,12.359,57.712,4.718,121.873-31.2,168.7-48.665,63.448-141.885,88.62-173.112,162.236-17.9,42.192-10.848,91.95-29.726,133.715-19.872,43.96-69.5,72.472-117.483,67.491-51.258-5.319-92.109-43.083-136.426-69.386a331.209,331.209,0,0,0-203.157-44.073c-52.787,5.741-104.28,34.393-158.033,31.461-47.7-2.6-83.278-48.763-84.671-95.463a110.705,110.705,0,0,1,.319-12.3" transform="matrix(-0.99, 0.1, -0.1, -0.99, 1769.95, 172.31)" fill="#e6fffb"/>
      </g>
      <g transform="matrix(1, 0, 0, 1, 181, 1454)" filter="url(#Path_180837)">
        <path id="Path_180837-2" data-name="Path 180837" d="M.368,514.565c3.358-41.362,29.4-79.751,64.269-102.892C97,390.2,136.526,380.019,165.9,354.6c52.121-45.1,43.529-113.224,64.451-172.676,20.941-59.5,79.666-102.868,143.41-101.747,46.986.825,91.471,23.845,138.457,24.595a148.787,148.787,0,0,0,89.745-28.643c32.484-23.877,55.282-56.141,95.228-68.757,43.9-13.864,93.572-7.781,133.457,14.966,54.274,30.959,90.135,88.746,103.215,149.844,12.359,57.712,4.718,121.873-31.2,168.7-48.665,63.448-141.885,88.62-173.112,162.236-17.9,42.192-10.848,91.95-29.726,133.715-19.872,43.96-69.5,72.472-117.483,67.491-51.258-5.319-92.109-43.083-136.426-69.386a331.209,331.209,0,0,0-203.157-44.073c-52.787,5.741-104.28,34.393-158.033,31.461-47.7-2.6-83.278-48.763-84.671-95.463a110.705,110.705,0,0,1,.319-12.3" transform="matrix(-1, -0.03, 0.03, -1, 562.53, 1059.17)" fill="#e6fffb"/>
      </g>
      <path id="Path_180838" data-name="Path 180838" d="M.275,137.135c2.469,29.946,21.314,57.765,46.511,74.555,23.391,15.582,51.937,22.992,73.168,41.427,37.679,32.709,31.549,82.012,46.719,125.073C181.857,421.284,224.3,452.743,270.321,452c33.921-.547,66.014-17.163,99.935-17.655a107.494,107.494,0,0,1,64.824,20.832c23.478,17.32,39.973,40.7,68.826,49.878,31.709,10.084,67.565,5.734,96.336-10.69C639.392,472.013,665.22,430.218,674.6,386c8.86-41.765,3.274-88.221-22.711-122.158-35.2-45.984-102.533-64.307-125.157-117.633-12.967-30.563-7.932-66.576-21.606-96.831C490.73,17.536,454.87-3.158,420.232.4c-37,3.795-66.453,31.089-98.42,50.082A238.166,238.166,0,0,1,175.187,82.163C137.07,77.95,99.863,57.153,61.058,59.216,26.62,61.046.987,94.427.032,128.232a80.377,80.377,0,0,0,.244,8.9" transform="matrix(0.914, 0.407, -0.407, 0.914, 1339.367, 1308.028)" fill="#ff8628"/>
      <path id="Path_180839" data-name="Path 180839" d="M539.539,511.548a117.78,117.78,0,0,1-35.747-5.455,82.772,82.772,0,0,1-13.8-5.821,103.124,103.124,0,0,1-12.2-7.654c-7.7-5.564-14.862-12.086-21.787-18.393a271.923,271.923,0,0,0-21.437-18.2,106.288,106.288,0,0,0-62.638-20.608c-.483,0-.972,0-1.454.01a139.651,139.651,0,0,0-24.981,2.867c-8.288,1.63-16.676,3.8-24.787,5.906s-16.517,4.281-24.851,5.923a142.6,142.6,0,0,1-25.344,2.928c-.529.008-1.064.013-1.592.013a103.29,103.29,0,0,1-33.413-5.613,111.6,111.6,0,0,1-29.789-15.568A115.192,115.192,0,0,1,181.7,408.252a110.61,110.61,0,0,1-16.09-29.841c-4.951-14.036-7.677-28.866-10.314-43.207-1.36-7.4-2.767-15.05-4.452-22.4a166.83,166.83,0,0,0-6.265-21.436,99.074,99.074,0,0,0-9.925-19.83,85.371,85.371,0,0,0-6.915-9.128,86.41,86.41,0,0,0-8.535-8.51A116.8,116.8,0,0,0,99.5,240.377c-7.012-3.925-14.48-7.465-21.7-10.889C67.128,224.43,56.1,219.2,46.13,212.563a112.3,112.3,0,0,1-32.158-32.708,100.845,100.845,0,0,1-10.1-20.54,88.447,88.447,0,0,1-4.84-22.23,81.938,81.938,0,0,1-.25-9.038,73.574,73.574,0,0,1,1.507-12.81,77.8,77.8,0,0,1,3.669-12.386A79.057,79.057,0,0,1,9.6,91.25,76.665,76.665,0,0,1,17.029,80.8a71.372,71.372,0,0,1,9.038-8.941A64.929,64.929,0,0,1,36.532,64.8,57.668,57.668,0,0,1,61,57.857c1.805-.1,3.659-.144,5.508-.144a121.624,121.624,0,0,1,15.569,1.039c4.855.621,9.892,1.515,15.4,2.73,10.2,2.253,20.49,5.3,30.439,8.242,7.78,2.3,15.825,4.684,23.737,6.657a180.218,180.218,0,0,0,23.725,4.449,232.118,232.118,0,0,0,25.442,1.4,237.889,237.889,0,0,0,62.45-8.376,234,234,0,0,0,58-24.492c8.253-4.9,16.491-10.456,24.458-15.831,11.454-7.727,23.3-15.717,35.515-21.985A131.009,131.009,0,0,1,400.1,3.526,94.148,94.148,0,0,1,420.216-.85a77.9,77.9,0,0,1,7.894-.4A83.223,83.223,0,0,1,452.2,2.377a89.759,89.759,0,0,1,22.205,10.212,88.639,88.639,0,0,1,18.637,15.818,81.073,81.073,0,0,1,13.371,20.461A112.387,112.387,0,0,1,513.928,73.2c1.674,8.317,2.752,16.944,3.794,25.287,1,7.982,2.029,16.237,3.579,24.173a114.9,114.9,0,0,0,6.763,23.036,95.51,95.51,0,0,0,12.01,20.552,131.928,131.928,0,0,0,16.119,17.484c11.856,10.894,25.86,20.618,39.4,30.022,10.343,7.182,21.037,14.608,30.873,22.6,5.309,4.314,9.938,8.434,14.151,12.6a135.73,135.73,0,0,1,12.515,14.1,122.868,122.868,0,0,1,15.932,27.808,142.915,142.915,0,0,1,8.753,30.874,166.112,166.112,0,0,1,2.157,32.313,180.811,180.811,0,0,1-3.864,32.145,185.949,185.949,0,0,1-10.133,32.648,175.738,175.738,0,0,1-16.057,30.139,156.5,156.5,0,0,1-21.7,26.033,137.847,137.847,0,0,1-27.066,20.315,123.146,123.146,0,0,1-29.727,12.09A125.625,125.625,0,0,1,539.539,511.548Zm-167.61-78.625a108.92,108.92,0,0,1,64.121,21.1,273.82,273.82,0,0,1,21.636,18.359c14.257,12.983,27.723,25.246,46.863,31.333a115.286,115.286,0,0,0,34.989,5.337A123.123,123.123,0,0,0,570.793,505a120.641,120.641,0,0,0,29.124-11.843,135.34,135.34,0,0,0,26.574-19.947,153.994,153.994,0,0,0,21.354-25.617,179.52,179.52,0,0,0,25.823-61.918,171.985,171.985,0,0,0,1.687-63.526,140.415,140.415,0,0,0-8.6-30.334,120.373,120.373,0,0,0-15.606-27.243c-15.054-19.648-36.368-34.448-56.98-48.761-13.612-9.452-27.687-19.226-39.669-30.235a134.385,134.385,0,0,1-16.42-17.815,97.979,97.979,0,0,1-12.319-21.084,117.351,117.351,0,0,1-6.915-23.534c-1.567-8.021-2.6-16.318-3.606-24.343-1.037-8.3-2.109-16.877-3.765-25.1a109.937,109.937,0,0,0-7.339-23.8C491.176,21.255,459.912,1.25,428.11,1.25a75.373,75.373,0,0,0-7.639.387A91.683,91.683,0,0,0,400.881,5.9a128.551,128.551,0,0,0-18.5,7.868c-12.083,6.2-23.864,14.147-35.258,21.833-8,5.394-16.266,10.973-24.58,15.908a236.5,236.5,0,0,1-58.619,24.754,240.392,240.392,0,0,1-63.106,8.464A234.648,234.648,0,0,1,175.1,83.315c-16.1-1.782-32.265-6.566-47.9-11.193-9.907-2.932-20.152-5.964-30.269-8.2-5.433-1.2-10.4-2.08-15.178-2.692A119.142,119.142,0,0,0,66.5,60.213c-1.806,0-3.614.047-5.376.14-15.871.839-30.855,8.672-42.19,22.058A75.329,75.329,0,0,0,1.281,128.117a79.393,79.393,0,0,0,.242,8.761,92.116,92.116,0,0,0,14.556,41.631,109.776,109.776,0,0,0,31.437,31.973c9.819,6.538,20.764,11.727,31.349,16.746,7.259,3.442,14.766,7,21.852,10.967a119.248,119.248,0,0,1,20.129,13.814,88.92,88.92,0,0,1,8.782,8.758,87.871,87.871,0,0,1,7.118,9.4,101.538,101.538,0,0,1,10.176,20.324,169.277,169.277,0,0,1,6.362,21.757c1.7,7.405,3.109,15.083,4.474,22.509,2.619,14.246,5.327,28.977,10.213,42.828,15.161,42.975,56.673,72.99,100.95,72.991.514,0,1.036,0,1.552-.012a140.173,140.173,0,0,0,24.9-2.881c8.262-1.628,16.622-3.795,24.707-5.89,8.147-2.111,16.571-4.295,24.932-5.939a142.1,142.1,0,0,1,25.427-2.914C370.933,432.927,371.434,432.923,371.929,432.923Z" transform="translate(1761.101 2112.973) rotate(-150)" fill="#fcf300"/>
      <path id="Path_180840" data-name="Path 180840" d="M217.892,533.3c-36.063,17.062-85.537,13.1-108.276-19.574-19.109-27.458-13.784-64.548-5.4-96.9s19.031-66.723,8.266-98.367c-14.237-41.856-60.17-63.409-87.109-98.52C-8.534,175.753-7.883,109.627,23.882,63.871S114.863-5.778,170.257,1.194,275.668,44.146,303.349,92.436s33.689,107.582,20.328,161.589c-7.71,31.173-21.512,60.746-27.251,92.342-6.447,35.474,14.121,77.349,3.443,109.334-10.137,30.363-54.308,64.507-81.977,77.6" transform="matrix(-0.208, 0.978, -0.978, -0.208, 1131.75, 1918.473)" fill="#ff8628"/>
      <path id="Path_180841" data-name="Path 180841" d="M98.5,583.105a115.127,115.127,0,0,1-17.764-1.342,99.04,99.04,0,0,1-17.294-4.308,92.6,92.6,0,0,1-16.556-7.692,96.667,96.667,0,0,1-15.542-11.479,90.877,90.877,0,0,1-17.18-21.129,106.449,106.449,0,0,1-10.694-25.07,124.142,124.142,0,0,1-4.52-27.195A132.533,132.533,0,0,1,.3,457.358a164.339,164.339,0,0,1,6.444-26.452,206.546,206.546,0,0,1,10.325-25.2c7.11-14.635,16.41-29.924,28.432-46.739,2.365-3.306,4.808-6.64,7.17-9.865,8.215-11.213,16.71-22.808,23.372-35.2,23.922-44.5,22.876-99.956-2.665-141.287-3.066-4.962-6.528-9.822-9.876-14.522-5.386-7.562-10.955-15.381-15.092-23.9A87.779,87.779,0,0,1,42.074,116.4a98.645,98.645,0,0,1-2.6-18.691A110.251,110.251,0,0,1,40.3,78.772,118.022,118.022,0,0,1,44.25,60.238,101.259,101.259,0,0,1,54.839,36.111,70.648,70.648,0,0,1,72.275,16.552a71.836,71.836,0,0,1,14.8-8.491,105.027,105.027,0,0,1,16.2-5.371,135.008,135.008,0,0,1,32.6-3.94A148.746,148.746,0,0,1,219.69,25.021a153.555,153.555,0,0,1,23.14,19.72A163.6,163.6,0,0,1,261.765,68.51,169.716,169.716,0,0,1,285.376,124.3a194.654,194.654,0,0,1,3.578,21.81,212.812,212.812,0,0,1,1.169,21.666,268.821,268.821,0,0,1-3.5,42.942c-2,12.764-4.936,26.674-8.971,42.523-3.593,14.113-7.7,28.41-11.677,42.237-4.3,14.966-8.75,30.442-12.533,45.656a416.644,416.644,0,0,0-8.99,45.633,270.016,270.016,0,0,0-2.381,32.65,237.4,237.4,0,0,0,1.9,32.653c.7,5.453,1.808,11.113,2.977,17.105,1.645,8.435,3.347,17.158,3.975,25.759a79.373,79.373,0,0,1-.011,12.823,52.386,52.386,0,0,1-2.519,12.365,38.36,38.36,0,0,1-3.543,7.6,40.457,40.457,0,0,1-4.9,6.456,54.99,54.99,0,0,1-12.864,10.029c-9.578,5.589-20.8,9.351-31.655,12.989-6.81,2.283-13.242,4.439-18.938,6.932A257.328,257.328,0,0,1,138.325,577.6a181.316,181.316,0,0,1-19.872,4.03A142.09,142.09,0,0,1,98.5,583.105ZM135.876,1.25a132.507,132.507,0,0,0-31.992,3.866c-12.36,3.077-22.207,7.47-30.1,13.431C58.34,30.2,50.5,48.04,46.645,60.953a115.522,115.522,0,0,0-3.862,18.14,107.747,107.747,0,0,0-.81,18.506,89.764,89.764,0,0,0,8.686,35.5c4.046,8.335,9.553,16.068,14.88,23.546,3.371,4.733,6.857,9.627,9.966,14.658a133.179,133.179,0,0,1,14.929,34.318A145.717,145.717,0,0,1,95.7,242.675a151.38,151.38,0,0,1-4.141,37.315,145.8,145.8,0,0,1-13.314,35.095c-6.744,12.544-15.291,24.21-23.557,35.492-2.358,3.219-4.8,6.548-7.153,9.842-25.879,36.2-40.1,67.122-44.764,97.321-5.967,38.624,5.624,76.44,30.25,98.69,17.753,16.042,39.784,24.176,65.48,24.176,22.645,0,48.547-6.312,76.986-18.762,5.8-2.538,12.282-4.712,19.146-7.013,10.734-3.6,21.833-7.318,31.19-12.778,10.478-6.114,17.085-13.55,20.2-22.732,5.177-15.275,1.767-32.758-1.531-49.666-1.177-6.033-2.288-11.731-3-17.264a239.886,239.886,0,0,1-1.918-33,272.517,272.517,0,0,1,2.4-32.954,419.1,419.1,0,0,1,9.042-45.907c3.793-15.258,8.248-30.756,12.556-45.743,15.866-55.2,32.273-112.276,19.366-169.941-8.921-39.873-32.491-75.509-64.668-97.771A146.223,146.223,0,0,0,135.876,1.25Z" transform="translate(1157.304 1847.161) rotate(79)" fill="#fcf300"/>
    </g>
  </g>
</svg>
