<svg xmlns="http://www.w3.org/2000/svg" xmlns:xlink="http://www.w3.org/1999/xlink" width="1320" height="506.835" viewBox="0 0 1320 506.835">
  <defs>
    <clipPath id="clip-path">
      <path id="Rectangle_652" data-name="Rectangle 652" d="M20.787,0H1299.213C1310.693,0,1320,8.4,1320,18.772V488.063c0,10.367-9.307,18.772-20.787,18.772H20.787C9.307,506.835,0,498.431,0,488.063V18.772C0,8.4,9.307,0,20.787,0Z" transform="translate(140.333 70)" fill="#afafaf"/>
    </clipPath>
    <linearGradient id="linear-gradient" x1="0.621" y1="0.67" x2="0.486" y2="1.179" gradientUnits="objectBoundingBox">
      <stop offset="0" stop-color="#007a64"/>
      <stop offset="1" stop-color="#009e83"/>
    </linearGradient>
    <filter id="Path_114055" x="-274.462" y="-464.445" width="1298.417" height="1075.814" filterUnits="userSpaceOnUse">
      <feOffset dy="12" input="SourceAlpha"/>
      <feGaussianBlur stdDeviation="5" result="blur"/>
      <feFlood flood-opacity="0.129"/>
      <feComposite operator="in" in2="blur"/>
      <feComposite in="SourceGraphic"/>
    </filter>
    <filter id="Path_114054" x="244.25" y="-629.058" width="1298.417" height="1075.814" filterUnits="userSpaceOnUse">
      <feOffset dy="12" input="SourceAlpha"/>
      <feGaussianBlur stdDeviation="5" result="blur-2"/>
      <feFlood flood-opacity="0.129"/>
      <feComposite operator="in" in2="blur-2"/>
      <feComposite in="SourceGraphic"/>
    </filter>
  </defs>
  <g id="fondo-banner-principal" transform="translate(-140.333 -70)" clip-path="url(#clip-path)">
    <rect id="Rectangle_5259" data-name="Rectangle 5259" width="1347.612" height="532.688" transform="translate(125.388 59.607)" fill="#007a64"/>
    <g transform="matrix(1, 0, 0, 1, 140.33, 70)" filter="url(#Path_114055)">
      <path id="Path_114055-2" data-name="Path 114055" d="M.441,228.474c4.031,49.654,35.3,95.738,77.152,123.518,38.855,25.781,86.3,38,121.559,68.515,62.57,54.147,52.255,135.922,77.372,207.292,25.139,71.426,95.637,123.49,172.158,122.144,56.4-.991,109.808-28.625,166.213-29.525A178.614,178.614,0,0,1,722.631,754.8c39,28.664,66.365,67.395,114.318,82.54,52.7,16.643,112.331,9.341,160.211-17.966,65.154-37.166,108.2-106.537,123.906-179.883,14.836-69.281,5.664-146.3-37.458-202.517-58.42-76.167-170.328-106.385-207.815-194.759-21.485-50.65-13.023-110.382-35.685-160.52-23.856-52.773-83.43-87-141.034-81.02C637.54,7.062,588.5,52.4,535.3,83.972A397.606,397.606,0,0,1,291.416,136.88C228.047,129.989,166.231,95.593,101.7,99.112,44.436,102.231,1.73,157.65.058,213.712a132.9,132.9,0,0,0,.383,14.763" transform="translate(-98 -461.45) rotate(11)" fill="url(#linear-gradient)"/>
    </g>
    <g transform="matrix(1, 0, 0, 1, 140.33, 70)" filter="url(#Path_114054)">
      <path id="Path_114054-2" data-name="Path 114054" d="M.441,228.474c4.031,49.654,35.3,95.738,77.152,123.518,38.855,25.781,86.3,38,121.559,68.515,62.57,54.147,52.255,135.922,77.372,207.292,25.139,71.426,95.637,123.49,172.158,122.144,56.4-.991,109.808-28.625,166.213-29.525A178.614,178.614,0,0,1,722.631,754.8c39,28.664,66.365,67.395,114.318,82.54,52.7,16.643,112.331,9.341,160.211-17.966,65.154-37.166,108.2-106.537,123.906-179.883,14.836-69.281,5.664-146.3-37.458-202.517-58.42-76.167-170.328-106.385-207.815-194.759-21.485-50.65-13.023-110.382-35.685-160.52-23.856-52.773-83.43-87-141.034-81.02C637.54,7.062,588.5,52.4,535.3,83.972A397.606,397.606,0,0,1,291.416,136.88C228.047,129.989,166.231,95.593,101.7,99.112,44.436,102.231,1.73,157.65.058,213.712a132.9,132.9,0,0,0,.383,14.763" transform="translate(420.71 -626.06) rotate(11)" fill="url(#linear-gradient)"/>
    </g>
    <path id="Path_114049" data-name="Path 114049" d="M217.948,17.852C181.887.727,132.412,4.711,109.67,37.521c-19.112,27.571-13.793,64.81-5.41,97.3s19.021,66.99,8.252,98.763c-14.243,42.027-60.179,63.673-87.124,98.93C-8.529,376.873-7.887,443.266,23.871,489.2s90.971,69.917,146.367,62.909,105.417-43.14,133.1-91.629,33.7-108.021,20.351-162.244c-7.706-31.3-21.5-60.988-27.238-92.711-6.442-35.616,14.132-77.663,3.458-109.775-10.133-30.484-54.3-64.76-81.966-77.9" transform="translate(1153.45 453.67) rotate(88)" fill="#ff8628"/>
    <path id="Path_114050" data-name="Path 114050" d="M110.6-.99h.006A141.535,141.535,0,0,1,130.59.493,180.851,180.851,0,0,1,150.5,4.555a257.135,257.135,0,0,1,38.247,13.573c5.7,2.509,12.135,4.679,18.949,6.977,10.86,3.662,22.089,7.449,31.675,13.068a55.179,55.179,0,0,1,12.876,10.078,40.706,40.706,0,0,1,4.9,6.484,38.649,38.649,0,0,1,3.55,7.635,52.8,52.8,0,0,1,2.531,12.412,79.951,79.951,0,0,1,.023,12.87c-.62,8.633-2.313,17.387-3.951,25.852-1.163,6.014-2.262,11.694-2.961,17.168a239.08,239.08,0,0,0-1.867,32.776,272.114,272.114,0,0,0,2.412,32.778,420.011,420.011,0,0,0,9.036,45.816c3.8,15.276,8.262,30.814,12.579,45.842,3.988,13.883,8.113,28.239,11.72,42.409,4.051,15.913,7,29.877,9.014,42.692a270.907,270.907,0,0,1,3.543,43.107,214.3,214.3,0,0,1-1.148,21.746,195.82,195.82,0,0,1-3.559,21.889,170.336,170.336,0,0,1-23.563,55.98,163.668,163.668,0,0,1-18.916,23.84,153.313,153.313,0,0,1-23.127,19.774,148.206,148.206,0,0,1-83.678,26.292,134.7,134.7,0,0,1-32.741-3.986,104.972,104.972,0,0,1-16.211-5.407,71.966,71.966,0,0,1-14.815-8.537,71.024,71.024,0,0,1-17.457-19.649A102.028,102.028,0,0,1,56.95,523.809,118.964,118.964,0,0,1,52.986,505.2a111.064,111.064,0,0,1-.846-19.008,99.257,99.257,0,0,1,2.581-18.758,88.157,88.157,0,0,1,6.321-17.848c4.13-8.551,9.693-16.395,15.073-23.98,3.344-4.715,6.8-9.591,9.865-14.568,25.509-41.466,26.5-97.137,2.532-141.83-6.675-12.444-15.183-24.092-23.411-35.355-2.366-3.239-4.813-6.589-7.181-9.909C45.878,207.055,36.562,191.7,29.437,177A208.144,208.144,0,0,1,19.086,151.7a165.658,165.658,0,0,1-6.47-26.557A133.537,133.537,0,0,1,11.239,97.5a124.9,124.9,0,0,1,4.5-27.292A106.831,106.831,0,0,1,26.407,45.055,90.909,90.909,0,0,1,43.571,23.862,96.457,96.457,0,0,1,59.079,12.37,92.267,92.267,0,0,1,75.6,4.668,98.585,98.585,0,0,1,92.867.354,114.558,114.558,0,0,1,110.6-.99Zm38.191,584.1a145.683,145.683,0,0,0,82.253-25.846c32.163-22.316,55.706-58.066,64.591-98.083C308.488,401.31,292.023,344,276.1,288.574c-4.323-15.049-8.794-30.609-12.6-45.929a422.456,422.456,0,0,1-9.088-46.09,274.613,274.613,0,0,1-2.434-33.08,241.568,241.568,0,0,1,1.887-33.12c.709-5.553,1.815-11.272,2.987-17.326,3.283-16.97,6.677-34.518,1.483-49.858-3.122-9.222-9.738-16.694-20.226-22.842C228.744,34.84,217.638,31.1,206.9,27.474c-6.868-2.316-13.356-4.5-19.157-7.057C159.237,7.872,133.284,1.511,110.6,1.51H110.6c-25.647,0-47.633,8.143-65.348,24.2C20.638,48.027,9.08,85.977,15.086,124.755c4.691,30.321,18.948,61.378,44.869,97.738,2.36,3.309,4.8,6.652,7.164,9.886,8.278,11.333,16.838,23.051,23.6,35.648a146.942,146.942,0,0,1,13.35,35.238,152.557,152.557,0,0,1,4.178,37.458,146.634,146.634,0,0,1-5.233,37.192,133.653,133.653,0,0,1-14.9,34.433c-3.105,5.047-6.587,9.957-9.955,14.7-5.321,7.5-10.822,15.258-14.861,23.621A90.255,90.255,0,0,0,54.638,486.3a108.563,108.563,0,0,0,.827,18.579,116.455,116.455,0,0,0,3.881,18.215c3.87,12.967,11.728,30.883,27.184,42.6,7.9,5.992,17.758,10.411,30.124,13.511A132.2,132.2,0,0,0,148.787,583.113Z" transform="matrix(-0.242, 0.97, -0.97, -0.242, 1155.032, 572.835)" fill="#fcf300"/>
    <path id="Path_114051" data-name="Path 114051" d="M121.875,19.268c28.682,29.756,42.72,73.011,36.974,113.942-4.977,35.44-23.749,71.137-12.889,105.239,10.33,32.452,44.961,52.975,54.049,85.795,9.406,33.951-12.77,70.077-42.473,89.021-30.079,19.179-70.421,24.761-101.689,7.589-25.2-13.839-41.434-40.3-49.563-67.875-5.9-20.028-8.084-41.337-4.65-61.93,3.381-20.284,12.04-39.246,18.313-58.832a242.4,242.4,0,0,0,10.635-98.233c-2.573-25.084-9.309-50.1-6.555-75.164,5.728-52.241,59-79.854,97.848-39.551" transform="translate(24.289 85.049)" fill="#ff8628"/>
    <path id="Path_114052" data-name="Path 114052" d="M104.537-.653a37.924,37.924,0,0,1,19.52,4.934C130.1,7.84,134.986,13.33,138.583,20.6a44.71,44.71,0,0,1,4.357,14.767,54.744,54.744,0,0,1-.409,14.684c-1.481,9.666-5.011,19.223-8.424,28.465-1.582,4.283-3.076,8.328-4.382,12.39-9.329,29-4.333,60.3,13.364,83.717,7.233,9.575,16.431,17.727,25.326,25.611,5.466,4.845,11.119,9.854,16.3,15.174A146.089,146.089,0,0,1,209.5,249.78a158.7,158.7,0,0,1,17.649,82.193,143.832,143.832,0,0,1-28.7,78.758A158.712,158.712,0,0,1,132.049,462.3a146.082,146.082,0,0,1-41.086,10.369c-4.24.423-8.379.637-12.3.637a91.538,91.538,0,0,1-18.015-1.69,66.4,66.4,0,0,1-17.059-5.831,65.648,65.648,0,0,1-14.31-10.015,84.41,84.41,0,0,1-11.57-13.1A99.466,99.466,0,0,1,6.234,349.6,194.7,194.7,0,0,1,16.66,328.5c3.061-5.61,6.226-11.411,8.832-17.327,16.5-37.442,10.69-78.685,2.914-106.69-2.8-10.075-6.277-20.462-9.642-30.508-5.919-17.669-12.04-35.94-14.949-53.826A121.06,121.06,0,0,1,2.21,93.391,92,92,0,0,1,3.945,80.157,84.585,84.585,0,0,1,7.78,67.077c2.48-6.458,7.4-13.98,14.237-21.753A158.965,158.965,0,0,1,46.07,23.354a160.86,160.86,0,0,1,14.208-9.48A131.358,131.358,0,0,1,75.147,6.267C85.827,1.675,95.715-.653,104.537-.653ZM78.659,470.8c3.841,0,7.9-.21,12.055-.625,55.89-5.572,106.362-44.773,125.595-97.545s5.815-115.256-33.384-155.481c-5.12-5.254-10.737-10.233-16.17-15.048-8.987-7.965-18.279-16.2-25.663-25.975A90.1,90.1,0,0,1,129.8,156.408a93.438,93.438,0,0,1-6.043-21.607,96.822,96.822,0,0,1-.813-22.438,98.174,98.174,0,0,1,4.4-22.223c1.323-4.113,2.9-8.372,4.417-12.491,6.779-18.354,13.789-37.333,4.581-55.942-6.52-13.179-17.221-19.861-31.805-19.861-16.165,0-36.93,8.569-56.972,23.511C29.618,38.737,14.917,55.465,10.114,67.974c-12.937,33.693-.758,70.05,11.021,105.21,3.375,10.076,6.866,20.495,9.68,30.633a200.477,200.477,0,0,1,7.758,54.773c-.133,19.608-3.764,37.639-10.793,53.593-2.649,6.013-5.84,11.861-8.926,17.517a192.807,192.807,0,0,0-10.3,20.825c-11.682,29.4-7.295,65,11.177,90.685,7.241,10.063,15.648,17.58,24.987,22.344C54.15,468.365,65.569,470.8,78.659,470.8Z" transform="matrix(0.996, 0.087, -0.087, 0.996, 43.057, 26.211)" fill="#fcf300"/>
    <path id="Path_100835" data-name="Path 100835" d="M.3,156.926c2.769,34.1,24.243,65.757,52.991,84.837,26.687,17.708,59.275,26.1,83.491,47.059,42.975,37.19,35.891,93.356,53.142,142.376,17.267,49.058,65.687,84.818,118.245,83.894,38.741-.681,75.421-19.66,114.162-20.279a122.68,122.68,0,0,1,74,23.617c26.784,19.688,45.582,46.29,78.518,56.692,36.2,11.431,77.153,6.416,110.039-12.34,44.75-25.527,74.319-73.174,85.1-123.551,10.19-47.585,3.89-100.487-25.728-139.1-40.125-52.315-116.988-73.069-142.736-133.768-14.757-34.789-8.945-75.815-24.51-110.252C560.635,19.867,519.716-3.642,480.152.465c-42.264,4.385-75.947,35.523-112.487,57.21A273.092,273.092,0,0,1,200.156,94.015c-43.525-4.733-85.982-28.358-130.3-25.941C30.52,70.217,1.188,108.281.04,146.786A91.28,91.28,0,0,0,.3,156.926" transform="matrix(0.914, 0.407, -0.407, 0.914, 1376.413, -120.333)" fill="#ff8628"/>
    <path id="Path_114053" data-name="Path 114053" d="M614.975,582.449a134.3,134.3,0,0,1-40.5-6.136,94.1,94.1,0,0,1-15.717-6.592,117.075,117.075,0,0,1-13.892-8.684c-8.772-6.319-16.932-13.732-24.823-20.9-7.729-7.022-15.721-14.283-24.451-20.7a121.348,121.348,0,0,0-71.371-23.389c-.62,0-1.248.005-1.866.015a160.115,160.115,0,0,0-28.558,3.32c-9.471,1.875-19.054,4.369-28.321,6.781s-18.86,4.909-28.373,6.8a163.14,163.14,0,0,1-28.908,3.383c-.68.012-1.339.017-2.014.018a117.8,117.8,0,0,1-38.016-6.368,126.828,126.828,0,0,1-33.873-17.666A130.545,130.545,0,0,1,207,465.5a125.224,125.224,0,0,1-18.256-33.883c-5.62-15.97-8.7-32.854-11.682-49.183-1.538-8.429-3.129-17.146-5.039-25.523a189.414,189.414,0,0,0-7.117-24.433A112.483,112.483,0,0,0,153.6,309.867a96.953,96.953,0,0,0-7.89-10.4,98.2,98.2,0,0,0-9.744-9.7,132.878,132.878,0,0,0-22.505-15.386c-8-4.461-16.524-8.481-24.765-12.369C76.537,256.274,63.962,250.341,52.6,242.8A127.239,127.239,0,0,1,16,205.651,114.166,114.166,0,0,1,4.53,182.3,100.212,100.212,0,0,1-.943,157.027a92.986,92.986,0,0,1-.267-10.278A83.594,83.594,0,0,1,.532,132.181a88.6,88.6,0,0,1,4.2-14.092,90.192,90.192,0,0,1,6.451-13.2,87.6,87.6,0,0,1,8.486-11.9A81.635,81.635,0,0,1,29.987,82.8,74.309,74.309,0,0,1,41.92,74.762a65.935,65.935,0,0,1,27.865-7.935c2.128-.116,4.313-.175,6.495-.175a139.262,139.262,0,0,1,17.694,1.172c5.52.7,11.245,1.709,17.505,3.08,11.6,2.543,23.3,5.98,34.617,9.3,8.879,2.609,18.061,5.306,27.094,7.539a205.93,205.93,0,0,0,27.1,5.026,265.5,265.5,0,0,0,28.6,1.543,272.619,272.619,0,0,0,71.6-9.613,268.635,268.635,0,0,0,66.536-28.1c9.436-5.6,18.855-11.951,27.964-18.091,13.088-8.824,26.621-17.948,40.571-25.108a150.111,150.111,0,0,1,21.523-9.162A107.73,107.73,0,0,1,480.023-.778a88.983,88.983,0,0,1,9.151-.471,94.921,94.921,0,0,1,27.4,4.111,102,102,0,0,1,25.241,11.58,100.441,100.441,0,0,1,21.169,17.942A91.744,91.744,0,0,1,578.159,55.6a108.782,108.782,0,0,1,5.054,13.616c1.308,4.349,2.44,8.948,3.463,14.059,1.893,9.467,3.107,19.291,4.28,28.791,1.123,9.1,2.285,18.5,4.04,27.547a130.523,130.523,0,0,0,7.685,26.266,105.365,105.365,0,0,0,6.168,12.231,115.662,115.662,0,0,0,7.523,11.2,149.807,149.807,0,0,0,18.388,19.911,270.187,270.187,0,0,0,21.612,17.614c7.581,5.627,15.588,11.169,23.332,16.528,11.791,8.16,23.983,16.6,35.192,25.681,6.048,4.9,11.321,9.583,16.118,14.312a153.788,153.788,0,0,1,14.244,16.02,139.13,139.13,0,0,1,18.112,31.614,161.976,161.976,0,0,1,9.921,35.123,188.593,188.593,0,0,1,2.4,36.779,205.7,205.7,0,0,1-4.471,36.6,212.006,212.006,0,0,1-11.623,37.188,200.776,200.776,0,0,1-18.375,34.341,179.128,179.128,0,0,1-24.8,29.674,157.958,157.958,0,0,1-30.905,23.173,141.086,141.086,0,0,1-34.037,13.847A143.676,143.676,0,0,1,614.975,582.449Zm-190.754-88.9a122.06,122.06,0,0,1,19.4,1.566A124.755,124.755,0,0,1,480.506,507.2a121.675,121.675,0,0,1,16.566,10.226c8.835,6.494,16.875,13.8,24.651,20.864,8.2,7.45,15.945,14.487,24.6,20.723a114.568,114.568,0,0,0,13.6,8.5,91.607,91.607,0,0,0,15.3,6.42,131.806,131.806,0,0,0,39.748,6.02,141.173,141.173,0,0,0,35.861-4.653,138.576,138.576,0,0,0,33.434-13.6,155.454,155.454,0,0,0,30.415-22.807,176.627,176.627,0,0,0,24.455-29.26,205.253,205.253,0,0,0,29.631-70.66,195.8,195.8,0,0,0,2.053-72.447,159.47,159.47,0,0,0-9.766-34.581,136.632,136.632,0,0,0-17.785-31.047c-17.163-22.377-41.478-39.205-64.993-55.479-15.517-10.739-31.562-21.844-45.211-34.355a152.275,152.275,0,0,1-18.69-20.243,118.155,118.155,0,0,1-7.686-11.44,107.885,107.885,0,0,1-6.315-12.523,132.967,132.967,0,0,1-7.838-26.766c-1.771-9.13-2.938-18.579-4.067-27.717-1.167-9.455-2.375-19.231-4.25-28.607-1.006-5.033-2.12-9.556-3.405-13.829a106.328,106.328,0,0,0-4.938-13.306C561.142,24.023,525.487,1.251,489.174,1.251a86.485,86.485,0,0,0-8.893.458,105.265,105.265,0,0,0-22.411,4.9A147.644,147.644,0,0,0,436.7,15.625c-13.817,7.093-27.288,16.175-40.315,24.957C387.25,46.743,377.8,53.113,368.3,58.751a271.131,271.131,0,0,1-67.155,28.364,275.118,275.118,0,0,1-72.26,9.7,268.01,268.01,0,0,1-28.867-1.558,208.355,208.355,0,0,1-27.43-5.084c-9.086-2.246-18.294-4.951-27.2-7.567-11.274-3.312-22.932-6.737-34.448-9.261C104.758,71.99,99.1,70.994,93.659,70.3A136.789,136.789,0,0,0,76.28,69.151c-2.136,0-4.276.058-6.359.171-18.172.99-35.34,9.968-48.341,25.281a86.2,86.2,0,0,0-20.291,52.22,90.477,90.477,0,0,0,.259,10,97.711,97.711,0,0,0,5.338,24.645A111.662,111.662,0,0,0,18.109,204.3a124.72,124.72,0,0,0,35.876,36.416c11.208,7.437,23.7,13.33,35.779,19.03,8.278,3.906,16.838,7.945,24.915,12.447A135.324,135.324,0,0,1,137.6,287.877a100.718,100.718,0,0,1,9.993,9.944,99.474,99.474,0,0,1,8.095,10.673,114.948,114.948,0,0,1,11.561,23.1,191.871,191.871,0,0,1,7.213,24.755c1.922,8.43,3.518,17.174,5.061,25.63,2.963,16.233,6.026,33.018,11.581,48.8,17.215,48.911,64.535,83.073,115.074,83.076.661,0,1.3-.006,1.97-.017a160.688,160.688,0,0,0,28.466-3.336c9.441-1.873,18.992-4.359,28.229-6.763,9.3-2.421,18.922-4.925,28.465-6.814a162.562,162.562,0,0,1,29-3.367C422.946,493.552,423.588,493.547,424.221,493.547Z" transform="translate(1858.082 797.501) rotate(-150)" fill="#fcf300"/>
    <g id="Group_54065" data-name="Group 54065" transform="translate(22730.777 23899.949)">
      <path id="Path_100854" data-name="Path 100854" d="M81.226,24.973a8.922,8.922,0,0,0,5.174-2.52c1.246-1.2.211-3.161-1.229-3.506A6.973,6.973,0,0,0,78.7,20.875a2.159,2.159,0,0,0,.681,3.322c1.852,1.018,5.129,1.592,6.653-.3,1.717-2.134-.233-4.9-2.408-5.627s-4.923.471-4.654,3.08c.242,2.363,3.327,3.829,4.99,1.825,1.758-2.121-1.48-4.918-3.242-2.8.614-.735,2.524-.686,2.5.534l-.35,1.036a1.02,1.02,0,0,1-.551.336c-.2-.013-.215-.009-.054.018s.139.031-.031-.009a.36.36,0,0,1,.233.121.161.161,0,0,1-.058-.139,1.5,1.5,0,0,1,.968-1.489,2.65,2.65,0,0,0-.547.054,3.251,3.251,0,0,1-1.574-.493c.229,1.107.453,2.215.682,3.322a2.684,2.684,0,0,1,1.179-.587,2.738,2.738,0,0,1,1.278.072c-.408-1.17-.821-2.336-1.228-3.5a4.272,4.272,0,0,1-2.3,1.054,2.14,2.14,0,0,0,.368,4.264" transform="translate(-22237.084 -23798.068)" fill="#00ad90"/>
      <path id="Path_100855" data-name="Path 100855" d="M81.508,16.628c-3.251-.529-4.049,4.4-.87,5.075,2.125.453,4.95-1.291,5.232-3.5.354-2.775-2.551-4.2-4.869-3.233A7.415,7.415,0,0,0,77.007,20.3a2.167,2.167,0,0,0,2.282,2.52,6.913,6.913,0,0,0,6.465-4.506,2.194,2.194,0,0,0-.986-2.856,4.5,4.5,0,0,0-5.878,1.856,2.148,2.148,0,0,0,.986,2.856,2.184,2.184,0,0,0,2.86-.986l-.058.108c-.121.094-.121.094,0,.009,0,0,.022-.054.2-.072-.269.027.072.072.1.027-.058.1-.587-.2-.081.049-.327-.955-.659-1.905-.986-2.86a2.776,2.776,0,0,1-2.981,2.112c.762.843,1.524,1.681,2.287,2.524a3.8,3.8,0,0,1,.525-1.273,3.579,3.579,0,0,1,.538-.65c0,.009.569-.372.282-.206.5-.287.027.094-.063-.063-.551-.148-.829-.605-.834-1.367a.934.934,0,0,1,.09-.273c.175,0-.278.175-.35.22.112-.081.054-.067-.17.04a1.382,1.382,0,0,1,.538.058c.278.238.551.48.829.713-.036.628-.067,1.251-.1,1.874-.3.2-.6.408-.9.614l.112-.045-1.116.094.13.018c2.713.439,3.506-3.762.78-4.205" transform="translate(-22241.285 -23809.906)" fill="#00ad90"/>
      <path id="Path_100856" data-name="Path 100856" d="M76.176,13.786a2.77,2.77,0,0,0,1.282,4.327,4.879,4.879,0,0,0,4.515-.664,3.591,3.591,0,0,0,1.336-4.214,3.648,3.648,0,0,0-3.564-2.121,3.494,3.494,0,0,0-3.291,2.721,4.05,4.05,0,0,0,2.031,4.255c3.1,1.78,6.591-1.592,5.878-4.784a3.458,3.458,0,0,0-4.681-2.367,8.2,8.2,0,0,0-4.093,3.116,2.206,2.206,0,0,0,.224,3.017,2.157,2.157,0,0,0,3.017-.22,5.546,5.546,0,0,1,.986-1.157,4.509,4.509,0,0,1,.735-.5,2.893,2.893,0,0,0,.578-.233c-.148.184-.955-.785-.937-.785.04-.175.031-.126-.022.139l.018-.094c-.2.448.045-.206.238.076.018.027.121,0,.152.036.224.229-.045.686-.211.838a.917.917,0,0,1-.448.2.379.379,0,0,1-.26-.085q.37.2-.027-.094a.6.6,0,0,1-.278-.341.627.627,0,0,1,.031-.673c-.022-.43.381-.139-.018-.139.108,0-.314.072-.309.067-.152,0-.17.009-.058.027a.96.96,0,0,1,.668.632c.031.372.063.744.09,1.116l.027-.161L79.3,16.731l.112-.148c1.7-2.166-1.533-4.968-3.237-2.8" transform="translate(-22247.734 -23823.648)" fill="#00ad90"/>
      <path id="Path_100857" data-name="Path 100857" d="M79.891,13.967a5.024,5.024,0,0,0,5.779-3.932,2.17,2.17,0,0,0-1.713-2.493A8.484,8.484,0,0,0,74.2,13.59,2.133,2.133,0,0,0,75.367,15.9c3.753,1.52,8.572-.906,8.868-5.174.085-1.242-.776-2.8-2.287-2.524a4.469,4.469,0,0,0-3.86,4.578,2.157,2.157,0,0,0,2.313,1.95,2.194,2.194,0,0,0,1.95-2.318c0,.269.112.027-.04.054q-1.143-1.258-2.287-2.524c-.085,1.3-1.381,2.681-2.784,2.112.39.771.776,1.542,1.166,2.313a4.147,4.147,0,0,1,4.77-2.623c-.574-.829-1.143-1.663-1.717-2.493a.65.65,0,0,1-.789.507c-2.713-.448-3.5,3.757-.78,4.205" transform="translate(-22251.068 -23835.33)" fill="#00ad90"/>
      <path id="Path_100858" data-name="Path 100858" d="M79.829,15.916a10.314,10.314,0,0,0,2.313,4.017,3.33,3.33,0,0,0,4.25.269,4.027,4.027,0,0,0,1.614-3.739,7.2,7.2,0,0,0-2.215-3.8,2.157,2.157,0,0,0-3.327.686,6.927,6.927,0,0,0-.193,5.533A2.14,2.14,0,0,0,86.3,17.427a2.578,2.578,0,0,1,.018-2.21q-1.661.343-3.322.681a9.918,9.918,0,0,1,.731.991c.314.48-.09.166.049.031.081-.206.067-.193-.045.04a.306.306,0,0,1,.112-.175.46.46,0,0,1,.188-.13.988.988,0,0,1,1.085.224c.009-.013-.48-.7-.5-.735a8.69,8.69,0,0,1-.758-1.677c-.91-2.6-4.936-1.157-4.026,1.448" transform="translate(-22231.729 -23818.756)" fill="#00ad90"/>
      <path id="Path_100859" data-name="Path 100859" d="M83.382,21.287c1.448-.215,2.9-.426,4.344-.641a2.171,2.171,0,0,0,1.834-2.856,4.287,4.287,0,0,0-6.138-2.264,4.153,4.153,0,0,0-1.892,2.937,4.4,4.4,0,0,0,1.255,3.694,2.167,2.167,0,0,0,3.026-.22,2.2,2.2,0,0,0-.229-3.022c.157.17.117.161.2.368-.013-.229-.022-.269-.031-.121s-.013.108.018-.121c-.179.345.09-.17-.013.031a.316.316,0,0,1-.161.143c.188-.13.224-.157.1-.072-.372.211-.063-.013-.045.067-.22-.009-.247,0-.09.022s.13.022-.085-.031l.175.085c-.188-.13-.188-.121,0,.036-.121-.072-.265-.5-.117-.081.61-.955,1.22-1.905,1.834-2.86-1.457.215-2.905.426-4.353.641a2.187,2.187,0,0,0-1.95,2.313,2.158,2.158,0,0,0,2.318,1.95" transform="translate(-22226.992 -23808.947)" fill="#00ad90"/>
      <path id="Path_100860" data-name="Path 100860" d="M78.657,13.37a3.417,3.417,0,0,0,2.3,1.964,3.562,3.562,0,0,0,2.242-.184,3.315,3.315,0,0,0,1.363-5.013,3.494,3.494,0,0,0-5.331-.507,3.771,3.771,0,0,0-.386,4.775,2.141,2.141,0,0,0,3.528-2.426c-.233-.309.157.5.009.04-.045-.161-.027-.072.063.265-.013-.229-.022-.152-.031.229a1.11,1.11,0,0,1,.022-.17c.036-.166,0-.076-.1.269a1.713,1.713,0,0,1,.094-.206c-.063.09-.121.179-.184.269a1.31,1.31,0,0,1,.143-.17c-.274.229-.323.282-.143.157-.094.049-.188.1-.282.152-.354.054-.417.072-.193.045-.35-.031-.439-.036-.269,0s.081.009-.256-.085c.2.108.148.067-.148-.112.13.117.126.1,0-.036-.233-.484.309.695-.1-.179l.04.117a1.049,1.049,0,0,1-.054-.641c-.04.175-.031.161.027-.045a.854.854,0,0,1,.247-.453c-.148.161-.085.108.184-.152-.135.085-.112.076.067-.022s.2-.1.054-.04c.372-.067.448-.085.233-.049-.377.013.538.1.152.018s.471.233.152.054q.471.343.215.134a1.177,1.177,0,0,1,.377.56,2.348,2.348,0,0,0-1.076-1.2,2.206,2.206,0,0,0-1.663-.09,2.164,2.164,0,0,0-1.287,2.739" transform="translate(-22237.068 -23830.957)" fill="#00ad90"/>
      <path id="Path_100861" data-name="Path 100861" d="M83.848,19a4.8,4.8,0,0,0,7.375,3.242,2.173,2.173,0,0,0,.551-2.977c-1.045-1.48-2.7-2.784-4.6-2.018A2.983,2.983,0,0,0,85.726,21.7a2.193,2.193,0,0,0,2.977.551,2.162,2.162,0,0,0,.551-2.973,1.362,1.362,0,0,1-.3,1.834,1.261,1.261,0,0,1-.991.13c-.067.054.22.35.282.444.184-.991.368-1.986.551-2.977-.287.2.085.054-.1.058-.117.04-.121.04,0,.009s.112-.027-.009-.009c-.157,0-.126.013.1.027L88.6,18.77c-.063-.009-.126-.022-.188-.036.206.081.238.09.09.031-.036-.009-.4-.184-.2-.072.224.126-.179-.148-.224-.188.211.193,0,.094,0-.022.081.184.094.211.036.067s-.049-.117,0,.081A2.2,2.2,0,0,0,85.8,16.686,2.15,2.15,0,0,0,83.848,19" transform="translate(-22217.365 -23802.904)" fill="#00ad90"/>
      <path id="Path_100862" data-name="Path 100862" d="M88.112,16.909c.453-.211-.4-.1.13-.036.314.036.628.067.946.076a3.478,3.478,0,0,0,2.273-.619,3.3,3.3,0,0,0,.973-3.914,3.792,3.792,0,0,0-3.511-2.376,6.274,6.274,0,0,0-3.82,1.529,2.235,2.235,0,0,0-.8,2.488A6.818,6.818,0,0,0,85.61,16.68a2.2,2.2,0,0,0,2.977.551A3.771,3.771,0,0,0,89.7,12.062a2.14,2.14,0,1,0-3.529,2.421.655.655,0,0,1-.1-.578c.054-.161.453-.435.094-.2l2.973.551a3.434,3.434,0,0,1-.811-1.645c-.269.829-.538,1.654-.8,2.484a3.508,3.508,0,0,1,1.39-.812c-.161.04-.117.049.139.009a.379.379,0,0,1-.309-.036.516.516,0,0,1-.274-.224c.135.215.135.215,0,.009a1.346,1.346,0,0,1,.713-1.3.325.325,0,0,1,.273-.027c-.143-.018-.291-.031-.439-.058a4.44,4.44,0,0,0-2.358.224,2.211,2.211,0,0,0-1.291,2.744,2.153,2.153,0,0,0,2.739,1.282" transform="translate(-22216.014 -23826.025)" fill="#00ad90"/>
      <path id="Path_100863" data-name="Path 100863" d="M81.769,14.437a4.588,4.588,0,0,0,5.286.35A3.928,3.928,0,0,0,88.3,9.734a3.405,3.405,0,0,0-4.941-1.341,3.482,3.482,0,0,0-1.018,4.869,2.14,2.14,0,0,0,3.529-2.421c-.108-.152-.112-.143-.018.018a.855.855,0,0,1,.139.417l-.013.314c.045-.175.036-.17-.013.022-.067.184-.058.193.018.022-.049.081-.1.161-.148.238.242-.341-.336.233,0,.009a1,1,0,0,1-.677.175c-.152-.013-.587-.238-.282-.054-.072-.045-.529-.5-.3-.215-.04-.076-.076-.148-.112-.224.058.184.067.188.027.018-.135-.287.085.108,0,.184l0-.269c-.045.193-.04.2.009.018s.054-.175-.027,0L84.6,11.3c.188-.152.224-.179.1-.09s-.085.067.126-.054c-.39.085.229-.054-.013.027s-.309-.018-.018.036c-.215-.04-.466-.193-.112.009-.108-.063-.516-.327-.117-.031a2.139,2.139,0,1,0-2.8,3.237" transform="translate(-22227.033 -23833.773)" fill="#00ad90"/>
      <path id="Path_100864" data-name="Path 100864" d="M78.187,9.72c1.48,1.211,3.663,2,5.416.843a3.458,3.458,0,0,0,.242-5.438A3.22,3.22,0,0,0,78.77,6.169a3.508,3.508,0,0,0,1.605,4.663,2.14,2.14,0,0,0,1.874-3.847c-.161-.076-.152-.063.018.04a.848.848,0,0,1,.341.336c-.229-.332.175.462.045.072l.067.309c-.013-.229-.027-.157-.031.215.009-.094.1-.444-.013-.081a.889.889,0,0,1-.148.282c.063-.076-.336.269-.475.318a1.17,1.17,0,0,1-.879-.04c-.242-.184-.3-.224-.179-.117s.076.054-.126-.152c.256.3-.135-.386,0,.018-.018-.094-.04-.184-.063-.269.036-.327.04-.4.013-.238s-.013.09.067-.229c.143-.17.282-.336.426-.5-.2.13-.17.117.09-.04.081-.018.166-.036.251-.058-.372.076.332.121-.045-.009-.507-.17.4.233-.085-.027-.152-.085-.3-.157-.453-.242.3.179.076.04-.081-.09a2.139,2.139,0,1,0-2.8,3.237" transform="translate(-22239.506 -23846.033)" fill="#00ad90"/>
      <path id="Path_100865" data-name="Path 100865" d="M76.621,1.416A4.709,4.709,0,0,0,75.393,4.9,2.666,2.666,0,0,0,76.823,7a3.74,3.74,0,0,0,5.134-4.654A3.788,3.788,0,0,0,76.3.716c-1.771,1.417-1.991,4.524-.036,5.923a2.187,2.187,0,0,0,3.017-.224,2.17,2.17,0,0,0-.22-3.017c-.453-.323.126.26-.049-.018.045.09.094.184.143.273-.072-.211-.067-.148.018.2a2.2,2.2,0,0,1-.027-.242c-.009.112-.018.22-.022.327a1.454,1.454,0,0,1,.036-.238q-.195.525-.067.2c.184-.341-.336.359-.045.063-.269.224-.314.269-.134.139l-.265.135c.215-.067.157-.054-.179.036.233-.009.161-.013-.206-.013.386.045-.43-.233-.067-.027.4.224-.412-.3-.04-.027.161.152.126.112-.112-.135.094.148.1.139,0-.031s-.09-.179-.022-.018q-.094-.518-.054-.175a.71.71,0,0,1,.063-.453c.072-.184.072-.193,0-.022.193-.269.22-.314.076-.135.233-.188.282-.233.157-.135-.4.3.314-.072-.058.031.3-.054.372-.067.211-.049a1.525,1.525,0,0,1-.2.013c.17-.179.91.314.354-.018l1.076,1.2c-.072-.179-.09-.188-.045-.013a.784.784,0,0,1,0,.395c.049-.386-.152.229-.022.013.072-.112.134-.256.193-.372-.157.314-.054.09.076-.085a2.178,2.178,0,0,0-.22-3.017,2.17,2.17,0,0,0-3.017.22" transform="translate(-22248.486 -23861.004)" fill="#00ad90"/>
      <path id="Path_100866" data-name="Path 100866" d="M76.22,9.509a4.65,4.65,0,0,0,2.278.314,2.878,2.878,0,0,0,2.515-1.758,2.479,2.479,0,0,0-.789-2.677,2.421,2.421,0,0,0-3.372.247,2.154,2.154,0,0,0,.22,3.017,2.184,2.184,0,0,0,3.017-.22l.04-.045c-.135.121-.269.242-.408.363l.049-.027-.489.247.054-.013-.542.121.054,0-.574-.027.054.009c-.184-.058-.363-.117-.547-.179a.4.4,0,0,1,.108.054c-.152-.1-.309-.2-.462-.3a.5.5,0,0,1,.09.081c-.121-.135-.242-.273-.363-.408a.51.51,0,0,1,.067.1c-.085-.161-.166-.327-.251-.489l.022.054-.121-.538a.172.172,0,0,1,.009.108c.013-.193.022-.386.031-.574l-.013.049.175-.547-.027.049c.1-.152.2-.309.3-.462l-.045.04c.3-.206.6-.408.892-.614a2.786,2.786,0,0,1-.5.179l.543-.121a2.793,2.793,0,0,1-.641.049l.574.027a2.353,2.353,0,0,1-.525-.1c.184.063.363.121.547.179l-.1-.031a2.329,2.329,0,0,0-1.659-.09,2.129,2.129,0,0,0-1.287,2.735,2.05,2.05,0,0,0,1.076,1.2" transform="translate(-22248.035 -23844.219)" fill="#00ad90"/>
      <path id="Path_100867" data-name="Path 100867" d="M89.5,17.176a3.929,3.929,0,1,0,6.066,3.932c.556-2.811-2.439-5.2-5.062-4.412a3.787,3.787,0,0,0-1.551,6.147c2.376,2.376,6.636-.426,5.524-3.542a2.139,2.139,0,0,0-4.026,1.448,1.225,1.225,0,0,1,.018-.74c.031-.076.265-.457.166-.341-.161.193.4-.318.031-.058a1.015,1.015,0,0,1,.5-.179c-.3.031.063.009.161.027a1.111,1.111,0,0,1,.614.345c.049.054.251.43.188.278-.108-.265.152.493.027.5l.049-.278-.076.273c.081-.166.076-.17-.014-.018-.09.4.018-.282-.09.081-.139.112-.134.112.018,0l-.229.121c-.126.045-.372.067-.094.022l-.26-.013c.193.045.206.045.036,0-.395-.184.269.166-.081-.036-.251-.148.211.3-.112-.135.013.018.17.26.175.26-.085.018-.143-.39-.152-.435.085.471.054-.287.013-.022-.022.211.108-.229.117-.269.108-.139.09-.134-.027.022.049-.049.108-.1.166-.152-.193.027-.112.067.076,0-.1.04-.426.076-.193.081.35,0-.287-.126.09-.018q.276.02-.027-.027l.247.067c.143.067.265.224.09.036.058.063.341.52.247.327-.058-.112-.036-.327-.049-.094.031.148.045.161.027.045q-.013-.249-.027.188a1.318,1.318,0,0,1,.058-.3c-.058.022-.126.444-.009.121-.166.229-.188.282-.09.161s.067-.076-.121.112A2.137,2.137,0,0,0,89.5,17.176" transform="translate(-22203.354 -23803.369)" fill="#00ad90"/>
      <path id="Path_100868" data-name="Path 100868" d="M84.058,11.256a6.708,6.708,0,0,0,4.694,3.9,2.154,2.154,0,0,0,2.318-1.17,6.554,6.554,0,0,0,.363-4.721A4.124,4.124,0,0,0,87.8,6.634a3.5,3.5,0,0,0-3.528,2.923,6.589,6.589,0,0,0,1.1,4.318,2.14,2.14,0,0,0,3.528-2.421c-.058-.1-.143-.256-.045-.058-.076-.161-.148-.327-.211-.493-.049-.135-.094-.269-.135-.408-.094-.323.018.26-.009-.063-.027-.345.094-.247-.027-.094.013-.058.027-.117.036-.175l-.049.215a1.079,1.079,0,0,1-.543.484c-.09.027-.592-.036-.359.018.3.072-.359-.063-.049-.009.108.058.108.054,0-.009s-.112-.067-.018.013.094.081.009,0c-.1-.112-.09-.085.036.085a.35.35,0,0,1-.1-.247c.009.152.04.3.036.457,0-.233-.013.049-.031.126a6.755,6.755,0,0,1-.224.825l2.318-1.17a2.18,2.18,0,0,1-.834-.4c-.072-.058-.5-.525-.318-.287-.063-.081-.417-.708-.3-.448A2.193,2.193,0,0,0,85.35,8.517a2.159,2.159,0,0,0-1.291,2.739" transform="translate(-22217.051 -23837.9)" fill="#00ad90"/>
      <path id="Path_100869" data-name="Path 100869" d="M82.481,22.827a4,4,0,0,0,2.036,2.9,3.82,3.82,0,0,0,3.2.211,2.227,2.227,0,0,0,1.408-2.2,4.351,4.351,0,0,0-2.358-3.659,2.152,2.152,0,0,0-3.04,1.533,2.864,2.864,0,0,0,1.363,3.156,2.494,2.494,0,0,0,3.349-1.1,2.345,2.345,0,0,0-1.686-3.251,2.31,2.31,0,0,0-2.757,2.426,2.162,2.162,0,0,0,2.318,1.95,2.189,2.189,0,0,0,1.946-2.318V22.41c-.17.525-.341,1.054-.511,1.583l.031-.049-.9.614c-.6-.112-1.2-.229-1.793-.341-.206-.3-.408-.6-.614-.892l.031.058-.094-1.116c.045-.126.085-.256.126-.381.238-.278.475-.551.713-.829.686.022,1.367.045,2.053.063.2.3.408.6.614.9-.1-.238-.112-.17-.036.2.009.386.027.444.049.179l-3.04,1.533c.408.22-.3-.3.022.031-.179-.211-.22-.256-.121-.13a1.328,1.328,0,0,1,.126.184c-.04-.076-.076-.152-.117-.224a1.855,1.855,0,0,1,.1.278c-.018-.085-.036-.17-.058-.256a1.638,1.638,0,0,1,.013.3c.471-.731.942-1.466,1.412-2.2-.287.117.126-.036.188-.009,0,0-.542.013-.081.031.359.013.067,0-.013-.027-.251-.09.551.193.139.031-.291-.112.139.036.148.108l-.188-.161.206.22c-.094-.143-.094-.13,0,.036s.09.184.049.081c-.058-.157-.045-.072.036.247a2.192,2.192,0,0,0-2.313-1.95,2.158,2.158,0,0,0-1.95,2.313" transform="translate(-22222.143 -23791.83)" fill="#00ad90"/>
      <path id="Path_100870" data-name="Path 100870" d="M86.543,22.973a3.908,3.908,0,1,0,7.487-.722c-.915-2.313-4.206-3.237-5.954-1.273-1.614,1.807-.655,5.152,1.861,5.488a2.141,2.141,0,0,0,.78-4.21c-.251-.049-.188,0,.193.139a.783.783,0,0,1,.511.377c.117.273.148.336.09.184s-.04-.081.036.206c-.058-.336-.013.148-.063.291a1.043,1.043,0,0,1-.421.547,1.026,1.026,0,0,1-.722.143c.534.04-.48-.049.045.022l-.2-.13c.143.135.157.143.036.027a.564.564,0,0,1-.179-.291q-.054-.39-.027-.148c.009.278.022-.426-.009,0,.09-.256.1-.309.036-.161s-.045.1.081-.112c-.291.291.332-.117-.081.076.09-.04.556-.135.341-.13s.278.072.359.1c-.551-.166.4.148-.121-.076.148.175.175.2.085.076s-.067-.094.049.1c-.148-.332.018.081,0,.26a2.139,2.139,0,1,0-4.205-.78" transform="translate(-22207.973 -23791.652)" fill="#00ad90"/>
      <path id="Path_100871" data-name="Path 100871" d="M88.89,15.02a5.046,5.046,0,0,0,5.385.269,3.982,3.982,0,0,0,1.511-4.649,3.111,3.111,0,0,0-4.757-1.363c-1.551,1.112-2.031,3.587-.39,4.86a2.139,2.139,0,1,0,2.8-3.237c-.188-.161-.148-.081.121.238a.986.986,0,0,1,.3.655c0,.121,0,.242,0,.363-.13.345-.152.435-.076.282.1-.224-.309.395-.058.126-.251.206-.309.26-.175.17s.063-.054-.224.112a1.276,1.276,0,0,1-1.412-.444c-.126-.278-.157-.341-.1-.193s.036.081-.045-.211c.072.372.049-.336,0-.09s.233-.475.022-.067c-.179.35.2-.238.031-.04s.3-.314.027-.036c.22-.108.251-.135.094-.076s-.121.04.081-.018c-.412-.022.166.085-.09.013-.157-.04-.323-.054-.475-.1.439.13-.135-.09-.188-.117a5.261,5.261,0,0,1-.511-.3,2.15,2.15,0,0,0-2.86.991,2.211,2.211,0,0,0,.991,2.86" transform="translate(-22203.852 -23830.803)" fill="#00ad90"/>
      <path id="Path_100872" data-name="Path 100872" d="M85.242,17.059A4.253,4.253,0,0,0,91.671,20.3c2.52-1.7,2.13-6.169-.816-7.223A2.234,2.234,0,0,0,88.3,13.6a5.791,5.791,0,0,0-1.018,5.918,2.139,2.139,0,0,0,4.026-1.448,1.38,1.38,0,0,1,.229-1.672l-2.556.525a2.428,2.428,0,0,1,.318.135c-.04.081-.448-.4-.269-.211.2.22-.161-.3,0-.045.031.054.117.4.063.143-.058-.291,0,.179,0,.242,0-.166-.036-.318-.036-.063,0-.161.139-.309,0-.076.04-.072.372-.408.193-.278-.161.126.179-.067.238-.09.157-.058-.09-.081.076,0,.224.117-.085-.036-.2-.054.143.022.341.076.076,0-.247-.067-.054-.1.049.036-.184-.247,0-.022.018.058-.1-.5.036.291-.018-.009s.04.516.018-.018a2.14,2.14,0,0,0-4.264.363" transform="translate(-22212.42 -23816.086)" fill="#00ad90"/>
      <path id="Path_100873" data-name="Path 100873" d="M86.882,29.681a6.783,6.783,0,0,0,7.694-3.551,2.159,2.159,0,0,0-1.533-3.04,6.389,6.389,0,0,0-6.649,3.381,2.113,2.113,0,0,0,.161,2.148A3.909,3.909,0,0,0,90.3,30.273a2.181,2.181,0,0,0,1.95-2.313,4.987,4.987,0,0,0-1.749-3.389c-2.1-1.789-4.891,1.448-2.8,3.237.242.211.251.2.282.516l1.95-2.313c-.547.09-.031-.045.139.184.054.717.108,1.435.161,2.148A1.982,1.982,0,0,1,92.258,27.3q-.767-1.52-1.533-3.035a2.536,2.536,0,0,1-3.062,1.215,2.155,2.155,0,0,0-2.493,1.713,2.182,2.182,0,0,0,1.713,2.493" transform="translate(-22212.797 -23780.807)" fill="#00ad90"/>
      <path id="Path_100874" data-name="Path 100874" d="M91.716,18.892a4.09,4.09,0,0,0,5.923-3.017,2.232,2.232,0,0,0-1.166-2.313,4.935,4.935,0,0,0-6.851,3.246A2.185,2.185,0,0,0,91.335,19.3a5.108,5.108,0,0,0,5.932-2.8,2.165,2.165,0,0,0-1.533-3.04,5.1,5.1,0,0,0-5.873,3.811,2.148,2.148,0,0,0,1.713,2.493,2.19,2.19,0,0,0,2.493-1.713c-.054.2-.081.2.013,0s.126-.175,0-.018a3.075,3.075,0,0,1,.256-.287c-.22.211-.013.04.121-.045.251-.166-.264.085.027-.009.045-.013.412-.108.184-.067s.161,0,.2,0c.287-.036-.439-.072.09.036l-1.533-3.04c-.054.117-.1.233-.166.341.2-.345-.027-.013-.1.058-.206.22.233-.152-.027,0-.094.058-.435.2-.094.072-.117.04-.233.09-.359.126.2-.058.179-.036-.013-.018-.39.031.126.076-.085,0-.143-.054-.314-.072-.462-.117q.861,1.251,1.713,2.493c-.121.444-.022.085.045-.027.076-.135.054-.1-.063.1l.117-.13c0,.117-.256.188.058-.036.139-.1.39-.13.058-.049a2.981,2.981,0,0,0,.336-.117c-.408.148-.058-.013.067.018.247.063-.377-.031.036.009.435.045-.309-.152.117.058q-.578-1.163-1.166-2.318c-.04.5-.054.22.152-.081-.161.175-.143.175.054,0a1.935,1.935,0,0,1-.282.188c.233-.121.238-.139.018-.049q.4-.081.04-.04c.363.009.61.2.17-.063a2.149,2.149,0,0,0-2.86.986,2.2,2.2,0,0,0,.991,2.86" transform="translate(-22197.373 -23815.447)" fill="#00ad90"/>
      <path id="Path_100875" data-name="Path 100875" d="M92.668,25.719a3.788,3.788,0,0,0-1.049,2.26,2.215,2.215,0,0,0,1.17,2.318c2.9,1.269,6.461-1.7,5.228-4.829-1.2-3.035-5.69-2.789-7,.013a3.334,3.334,0,0,0,1.515,4.394,3.451,3.451,0,0,0,4.344-1.484,3.762,3.762,0,0,0-.982-4.524,4.858,4.858,0,0,0-4.9-.578c-2.569.973-1.134,5,1.453,4.026.076-.031.8-.265.767-.148s-.22-.372-.224-.412a1.024,1.024,0,0,1,.655-.852c.332-.094.489.063.771.251.587.395.538.569.444,1.2-.152.184-.175.215-.072.094s.072-.09-.081.067l-.166.072c.2-.067.229-.085.076-.054s-.121.018.09-.009l-.211-.018c.058.009.117.018.175.031a.594.594,0,0,1-.3-.121,1,1,0,0,1-.4-.686.465.465,0,0,1,.063-.3c.067-.152.054-.126-.036.076.031-.045.063-.094.1-.139-.152.161-.17.193-.067.09.085-.072.081-.072-.018,0-.13.085-.1.072.067-.036a1.171,1.171,0,0,1,.583.022c.39.771.78,1.547,1.166,2.318.04-.448-.233.085.081-.247a2.139,2.139,0,0,0-3.237-2.8" transform="translate(-22197.078 -23781.26)" fill="#00ad90"/>
      <path id="Path_100876" data-name="Path 100876" d="M91.406,23.822a4.463,4.463,0,0,0,6.156,1,4.345,4.345,0,0,0,.713-6.048,4.237,4.237,0,0,0-6.384-.1,4.045,4.045,0,0,0-1,3.188,4.409,4.409,0,0,0,2.2,3.21,2.151,2.151,0,0,0,2.856-.991,2.19,2.19,0,0,0-.986-2.86c.206.13.233.265.108.009.126.251.013.318.063.067-.022.2-.022.224,0,.067s.027-.135-.022.094c-.13.175-.143.2-.045.081s.081-.094-.063.049c.184-.112.211-.135.081-.063s-.094.058.1-.022c-.2.036-.229.045-.076.031s.121-.018-.108-.027c.215.049.242.049.09,0a.4.4,0,0,1-.247-.143c.157.139.184.157.076.04s-.09-.094.036.076c-.031-.058-.063-.112-.09-.17.072.233.081.229.022-.022l.022.179c.009.251.009.242.009-.031l-.031.175c.094-.26.09-.273-.009-.045l.108-.166c-.161.175-.161.179,0,0l.157-.072q-.35.114,0,.027l-.188.018c.229.027.26.031.1.009a1.45,1.45,0,0,1-.278-.054c.215.076.247.081.1.018s-.112-.054.067.054c-.179-.161-.188-.161-.018,0a2.189,2.189,0,0,0-2.977-.551,2.16,2.16,0,0,0-.551,2.973" transform="translate(-22192.84 -23800.852)" fill="#00ad90"/>
    </g>
    <g id="Group_54066" data-name="Group 54066" transform="matrix(0.875, -0.485, 0.485, 0.875, 31180.158, 10635.271)">
      <path id="Path_100854-2" data-name="Path 100854" d="M81.3,25.147a9.147,9.147,0,0,0,5.3-2.583c1.278-1.232.216-3.24-1.259-3.594a7.149,7.149,0,0,0-6.637,1.976,2.213,2.213,0,0,0,.7,3.406c1.9,1.043,5.258,1.632,6.821-.3,1.76-2.188-.239-5.019-2.468-5.768s-5.047.483-4.771,3.158c.248,2.422,3.411,3.925,5.116,1.871,1.8-2.174-1.517-5.042-3.323-2.868.63-.754,2.588-.7,2.56.547l-.359,1.062a1.046,1.046,0,0,1-.565.345c-.2-.014-.221-.009-.055.018s.143.032-.032-.009a.369.369,0,0,1,.239.124.165.165,0,0,1-.06-.142,1.542,1.542,0,0,1,.993-1.526,2.717,2.717,0,0,0-.561.055,3.333,3.333,0,0,1-1.613-.506c.234,1.135.464,2.271.7,3.406a2.752,2.752,0,0,1,1.209-.6,2.807,2.807,0,0,1,1.31.074c-.418-1.2-.841-2.395-1.259-3.59a4.38,4.38,0,0,1-2.363,1.08,2.194,2.194,0,0,0,.377,4.371" transform="translate(-22236.631 -23796.029)" fill="#00ad90"/>
      <path id="Path_100855-2" data-name="Path 100855" d="M81.623,16.677c-3.332-.542-4.15,4.514-.892,5.2,2.179.464,5.074-1.324,5.364-3.59.363-2.845-2.615-4.3-4.992-3.314a7.6,7.6,0,0,0-4.1,5.465,2.221,2.221,0,0,0,2.34,2.583,7.087,7.087,0,0,0,6.628-4.619,2.249,2.249,0,0,0-1.011-2.928,4.615,4.615,0,0,0-6.026,1.9,2.2,2.2,0,0,0,1.011,2.928A2.239,2.239,0,0,0,82.882,19.3l-.06.11c-.124.1-.124.1,0,.009,0,0,.023-.055.2-.074-.276.028.074.074.1.028-.06.1-.6-.2-.083.051-.336-.979-.676-1.953-1.011-2.932a2.846,2.846,0,0,1-3.057,2.165c.781.864,1.563,1.724,2.344,2.588a3.894,3.894,0,0,1,.538-1.305,3.668,3.668,0,0,1,.552-.666c0,.009.584-.381.29-.211.51-.294.028.1-.064-.064-.565-.152-.85-.621-.855-1.4a.958.958,0,0,1,.092-.28c.179,0-.285.179-.359.225.115-.083.055-.069-.175.041a1.417,1.417,0,0,1,.552.06c.285.244.565.492.85.731-.037.643-.069,1.282-.1,1.921-.308.207-.611.418-.919.63l.115-.046-1.145.1.133.018c2.781.45,3.594-3.856.8-4.311" transform="translate(-22240.967 -23808.25)" fill="#00ad90"/>
      <path id="Path_100856-2" data-name="Path 100856" d="M76.2,13.863A2.839,2.839,0,0,0,77.518,18.3a5,5,0,0,0,4.629-.68,3.681,3.681,0,0,0,1.37-4.321,3.74,3.74,0,0,0-3.654-2.174,3.582,3.582,0,0,0-3.374,2.79,4.152,4.152,0,0,0,2.082,4.362c3.176,1.825,6.757-1.632,6.026-4.9a3.545,3.545,0,0,0-4.8-2.427,8.4,8.4,0,0,0-4.2,3.194,2.261,2.261,0,0,0,.23,3.093,2.212,2.212,0,0,0,3.093-.225,5.686,5.686,0,0,1,1.011-1.186,4.623,4.623,0,0,1,.754-.51,2.966,2.966,0,0,0,.593-.239c-.152.188-.979-.8-.961-.8.041-.179.032-.129-.023.142l.018-.1c-.2.46.046-.211.244.078.018.028.124,0,.156.037.23.234-.046.7-.216.86a.94.94,0,0,1-.46.2.389.389,0,0,1-.267-.087q.379.207-.028-.1a.611.611,0,0,1-.285-.349.642.642,0,0,1,.032-.689c-.023-.441.391-.142-.018-.142.11,0-.322.074-.317.069-.156,0-.175.009-.06.028a.984.984,0,0,1,.685.648c.032.381.064.763.092,1.144l.028-.165-.5,1.034.115-.152c1.742-2.22-1.572-5.093-3.319-2.868" transform="translate(-22247.627 -23822.438)" fill="#00ad90"/>
      <path id="Path_100857-2" data-name="Path 100857" d="M80.035,14.133A5.151,5.151,0,0,0,85.96,10.1,2.225,2.225,0,0,0,84.2,7.546a8.7,8.7,0,0,0-10,6.2,2.187,2.187,0,0,0,1.2,2.372c3.847,1.558,8.788-.928,9.092-5.3.087-1.273-.8-2.873-2.344-2.588a4.581,4.581,0,0,0-3.957,4.693,2.211,2.211,0,0,0,2.372,2,2.249,2.249,0,0,0,2-2.376c0,.276.115.028-.041.055q-1.172-1.289-2.344-2.588c-.087,1.333-1.416,2.749-2.854,2.165.4.791.8,1.581,1.2,2.372a4.251,4.251,0,0,1,4.89-2.689c-.588-.85-1.172-1.705-1.76-2.556a.667.667,0,0,1-.809.519c-2.781-.46-3.59,3.852-.8,4.311" transform="translate(-22251.068 -23834.498)" fill="#00ad90"/>
      <path id="Path_100858-2" data-name="Path 100858" d="M79.833,16.011A10.574,10.574,0,0,0,82.2,20.13a3.414,3.414,0,0,0,4.357.276,4.129,4.129,0,0,0,1.655-3.833,7.38,7.38,0,0,0-2.271-3.9,2.212,2.212,0,0,0-3.41.7,7.1,7.1,0,0,0-.2,5.672,2.194,2.194,0,0,0,4.127-1.489,2.643,2.643,0,0,1,.018-2.266q-1.7.352-3.406.7a10.168,10.168,0,0,1,.749,1.016c.322.492-.092.17.051.032.083-.211.069-.2-.046.041a.313.313,0,0,1,.115-.179.472.472,0,0,1,.193-.133,1.013,1.013,0,0,1,1.112.23c.009-.014-.492-.717-.515-.754a8.909,8.909,0,0,1-.777-1.719c-.933-2.666-5.061-1.186-4.128,1.485" transform="translate(-22231.102 -23817.389)" fill="#00ad90"/>
      <path id="Path_100859-2" data-name="Path 100859" d="M83.441,21.446c1.485-.221,2.969-.437,4.454-.657a2.225,2.225,0,0,0,1.88-2.928,4.394,4.394,0,0,0-6.292-2.321,4.257,4.257,0,0,0-1.94,3.011,4.51,4.51,0,0,0,1.287,3.787,2.222,2.222,0,0,0,3.1-.225,2.256,2.256,0,0,0-.234-3.1c.161.175.12.165.2.377-.014-.234-.023-.276-.032-.124s-.014.11.018-.124c-.184.354.092-.175-.014.032a.324.324,0,0,1-.165.147c.193-.133.23-.161.1-.074-.381.216-.064-.014-.046.069-.225-.009-.253,0-.092.023s.133.023-.087-.032l.179.087c-.193-.133-.193-.124,0,.037-.124-.074-.271-.515-.119-.083.625-.979,1.25-1.953,1.88-2.932-1.494.221-2.978.437-4.463.657a2.242,2.242,0,0,0-2,2.372,2.212,2.212,0,0,0,2.376,2" transform="translate(-22226.213 -23807.26)" fill="#00ad90"/>
      <path id="Path_100860-2" data-name="Path 100860" d="M78.669,13.489A3.5,3.5,0,0,0,81.023,15.5a3.651,3.651,0,0,0,2.3-.188,3.4,3.4,0,0,0,1.4-5.139,3.582,3.582,0,0,0-5.465-.519,3.866,3.866,0,0,0-.4,4.9,2.195,2.195,0,0,0,3.617-2.487c-.239-.317.161.515.009.041-.046-.165-.028-.074.064.271-.014-.234-.023-.156-.032.234a1.138,1.138,0,0,1,.023-.175c.037-.17,0-.078-.106.276a1.756,1.756,0,0,1,.1-.211c-.064.092-.124.184-.188.276a1.342,1.342,0,0,1,.147-.175c-.28.234-.331.29-.147.161-.1.051-.193.106-.29.156-.363.055-.427.074-.2.046-.359-.032-.45-.037-.276,0s.083.009-.262-.087c.2.11.152.069-.152-.115.133.12.129.106,0-.037-.239-.5.317.712-.1-.184l.041.12A1.075,1.075,0,0,1,81.046,12c-.041.179-.032.165.028-.046a.875.875,0,0,1,.253-.464c-.152.165-.087.11.188-.156-.138.087-.115.078.069-.023s.207-.1.055-.041c.381-.069.46-.087.239-.051-.386.014.552.1.156.018s.483.239.156.055q.483.352.221.138A1.207,1.207,0,0,1,82.8,12a2.407,2.407,0,0,0-1.1-1.232,2.261,2.261,0,0,0-1.705-.092,2.219,2.219,0,0,0-1.319,2.808" transform="translate(-22236.613 -23829.982)" fill="#00ad90"/>
      <path id="Path_100861-2" data-name="Path 100861" d="M83.849,19.058a4.921,4.921,0,0,0,7.561,3.323,2.228,2.228,0,0,0,.565-3.052c-1.071-1.517-2.772-2.854-4.72-2.068a3.058,3.058,0,0,0-1.48,4.569,2.249,2.249,0,0,0,3.052.565,2.216,2.216,0,0,0,.565-3.047,1.4,1.4,0,0,1-.308,1.88,1.293,1.293,0,0,1-1.016.133c-.069.055.225.359.29.455.188-1.016.377-2.036.565-3.052-.294.2.087.055-.1.06-.119.041-.124.041,0,.009s.115-.028-.009-.009c-.161,0-.129.014.1.028l-.193-.028c-.064-.009-.129-.023-.193-.037.211.083.244.092.092.032-.037-.009-.409-.188-.2-.074.23.129-.184-.152-.23-.193.216.2,0,.1,0-.023.083.188.1.216.037.069s-.051-.12,0,.083a2.257,2.257,0,0,0-2.372-1.995,2.2,2.2,0,0,0-2,2.372" transform="translate(-22216.273 -23801.023)" fill="#00ad90"/>
      <path id="Path_100862-2" data-name="Path 100862" d="M88.21,17.082c.464-.216-.409-.106.133-.037.322.037.643.069.97.078a3.565,3.565,0,0,0,2.33-.634,3.384,3.384,0,0,0,1-4.013,3.887,3.887,0,0,0-3.6-2.436,6.432,6.432,0,0,0-3.916,1.567,2.291,2.291,0,0,0-.823,2.551,6.99,6.99,0,0,0,1.342,2.689,2.256,2.256,0,0,0,3.052.565,3.866,3.866,0,0,0,1.14-5.3A2.193,2.193,0,1,0,86.22,14.6a.672.672,0,0,1-.1-.593c.055-.165.464-.446.1-.207l3.047.565a3.52,3.52,0,0,1-.832-1.687c-.276.85-.552,1.7-.823,2.546a3.6,3.6,0,0,1,1.425-.832c-.165.041-.12.051.142.009a.389.389,0,0,1-.317-.037.529.529,0,0,1-.28-.23c.138.221.138.221,0,.009a1.38,1.38,0,0,1,.731-1.328.333.333,0,0,1,.28-.028c-.147-.018-.3-.032-.45-.06a4.551,4.551,0,0,0-2.418.23A2.266,2.266,0,0,0,85.4,15.767a2.207,2.207,0,0,0,2.808,1.315" transform="translate(-22214.879 -23824.891)" fill="#00ad90"/>
      <path id="Path_100863-2" data-name="Path 100863" d="M81.788,14.6a4.7,4.7,0,0,0,5.419.359,4.027,4.027,0,0,0,1.278-5.18,3.491,3.491,0,0,0-5.065-1.374A3.57,3.57,0,0,0,82.376,13.4a2.193,2.193,0,0,0,3.617-2.482c-.11-.156-.115-.147-.018.018a.876.876,0,0,1,.143.427l-.014.322c.046-.179.037-.175-.014.023-.069.188-.06.2.018.023-.051.083-.1.165-.152.244.248-.349-.345.239,0,.009a1.03,1.03,0,0,1-.694.179c-.156-.014-.6-.244-.29-.055-.074-.046-.542-.515-.313-.221-.041-.078-.078-.152-.115-.23.06.188.069.193.028.018-.138-.294.087.11,0,.188l0-.276c-.046.2-.041.2.009.018s.055-.179-.028,0l.129-.221c.193-.156.23-.184.1-.092s-.087.069.129-.055c-.4.087.234-.055-.014.028s-.317-.018-.018.037c-.221-.041-.478-.2-.115.009-.11-.064-.529-.336-.119-.032A2.193,2.193,0,1,0,81.788,14.6" transform="translate(-22226.254 -23832.891)" fill="#00ad90"/>
      <path id="Path_100864-2" data-name="Path 100864" d="M78.2,9.856c1.517,1.241,3.755,2.045,5.552.864a3.545,3.545,0,0,0,.248-5.575,3.3,3.3,0,0,0-5.2,1.071A3.6,3.6,0,0,0,80.448,11a2.193,2.193,0,0,0,1.921-3.944c-.165-.078-.156-.064.018.041a.869.869,0,0,1,.349.345c-.234-.34.179.473.046.074l.069.317c-.014-.234-.028-.161-.032.221.009-.1.106-.455-.014-.083a.911.911,0,0,1-.152.29c.064-.078-.345.276-.487.326a1.2,1.2,0,0,1-.9-.041c-.248-.188-.313-.23-.184-.12s.078.055-.129-.156c.262.308-.138-.4,0,.018-.018-.1-.041-.188-.064-.276.037-.336.041-.414.014-.244s-.014.092.069-.234c.147-.175.29-.345.437-.515-.2.133-.175.12.092-.041.083-.018.17-.037.257-.06-.381.078.34.124-.046-.009-.519-.175.414.239-.087-.028-.156-.087-.313-.161-.464-.248.313.184.078.041-.083-.092A2.193,2.193,0,1,0,78.2,9.856" transform="translate(-22239.131 -23845.549)" fill="#00ad90"/>
      <path id="Path_100865-2" data-name="Path 100865" d="M76.665,1.451a4.827,4.827,0,0,0-1.259,3.571,2.733,2.733,0,0,0,1.466,2.151A3.835,3.835,0,0,0,82.134,2.4a3.883,3.883,0,0,0-5.8-1.668C74.523,2.187,74.3,5.372,76.3,6.806a2.242,2.242,0,0,0,3.093-.23,2.225,2.225,0,0,0-.225-3.093c-.464-.331.129.267-.051-.018.046.092.1.188.147.28-.074-.216-.069-.152.018.2a2.256,2.256,0,0,1-.028-.248c-.009.115-.018.225-.023.336a1.492,1.492,0,0,1,.037-.244q-.2.538-.069.207c.188-.349-.345.368-.046.064-.276.23-.322.276-.138.142l-.271.138c.221-.069.161-.055-.184.037.239-.009.165-.014-.211-.014.4.046-.441-.239-.069-.028.409.23-.423-.308-.041-.028.166.156.129.115-.115-.138.1.152.1.142,0-.032s-.092-.184-.023-.018q-.1-.531-.055-.179a.728.728,0,0,1,.064-.464c.074-.188.074-.2,0-.023.2-.276.225-.322.078-.138.239-.193.29-.239.161-.138-.414.313.322-.074-.06.032.308-.055.381-.069.216-.051a1.564,1.564,0,0,1-.207.014c.175-.184.933.322.363-.018l1.1,1.227c-.074-.184-.092-.193-.046-.014a.8.8,0,0,1,0,.4c.051-.4-.156.234-.023.014.074-.115.138-.262.2-.381-.161.322-.055.092.078-.087a2.233,2.233,0,0,0-.225-3.093,2.225,2.225,0,0,0-3.093.225" transform="translate(-22248.402 -23861.004)" fill="#00ad90"/>
      <path id="Path_100866-2" data-name="Path 100866" d="M76.25,9.627a4.767,4.767,0,0,0,2.335.322,2.951,2.951,0,0,0,2.579-1.8A2.541,2.541,0,0,0,80.355,5.4a2.482,2.482,0,0,0-3.456.253,2.209,2.209,0,0,0,.225,3.093,2.239,2.239,0,0,0,3.093-.225l.041-.046c-.138.124-.276.248-.418.372l.051-.028-.5.253.055-.014-.556.124.055,0-.588-.028.055.009c-.188-.06-.372-.12-.561-.184a.413.413,0,0,1,.11.055c-.156-.106-.317-.207-.473-.313a.517.517,0,0,1,.092.083c-.124-.138-.248-.28-.372-.418a.523.523,0,0,1,.069.106c-.087-.165-.17-.336-.257-.5l.023.055-.124-.552a.177.177,0,0,1,.009.11c.014-.2.023-.4.032-.588l-.014.051.179-.561-.028.051c.1-.156.207-.317.313-.473l-.046.041c.3-.211.611-.418.915-.63a2.856,2.856,0,0,1-.515.184l.556-.124a2.863,2.863,0,0,1-.657.051l.588.028a2.412,2.412,0,0,1-.538-.1c.188.064.372.124.561.184l-.106-.032a2.388,2.388,0,0,0-1.7-.092,2.183,2.183,0,0,0-1.319,2.8,2.1,2.1,0,0,0,1.1,1.232" transform="translate(-22247.936 -23843.676)" fill="#00ad90"/>
      <path id="Path_100867-2" data-name="Path 100867" d="M89.542,17.192c-2.073,1.517-2.385,4.959-.179,6.554a4.131,4.131,0,0,0,6.4-2.523c.57-2.882-2.5-5.332-5.189-4.523a3.883,3.883,0,0,0-1.59,6.3c2.436,2.436,6.8-.437,5.663-3.631a2.193,2.193,0,0,0-4.128,1.485,1.255,1.255,0,0,1,.018-.758c.032-.078.271-.469.17-.349-.165.2.414-.326.032-.06a1.041,1.041,0,0,1,.515-.184c-.3.032.064.009.165.028a1.139,1.139,0,0,1,.63.354c.051.055.257.441.193.285-.11-.271.156.506.028.515l.051-.285-.078.28c.083-.17.078-.175-.014-.018-.092.409.018-.29-.092.083-.142.115-.138.115.018,0l-.234.124c-.129.046-.381.069-.1.023l-.267-.014c.2.046.211.046.037,0-.4-.188.276.17-.083-.037-.257-.152.216.308-.115-.138.014.018.175.267.179.267-.087.018-.147-.4-.156-.446.087.483.055-.294.014-.023-.023.216.11-.234.12-.276.11-.142.092-.138-.028.023.051-.051.11-.106.17-.156-.2.028-.115.069.078,0-.106.041-.437.078-.2.083.359,0-.294-.129.092-.018q.283.021-.028-.028l.253.069c.147.069.271.23.092.037.06.064.349.533.253.336-.06-.115-.037-.336-.051-.1.032.152.046.165.028.046q-.014-.255-.028.193a1.352,1.352,0,0,1,.06-.308c-.06.023-.129.455-.009.124-.17.234-.193.29-.092.165s.069-.078-.124.115a2.19,2.19,0,0,0-2.477-3.613" transform="translate(-22201.807 -23801.502)" fill="#00ad90"/>
      <path id="Path_100868-2" data-name="Path 100868" d="M84.062,11.373a6.877,6.877,0,0,0,4.812,4,2.208,2.208,0,0,0,2.376-1.2,6.719,6.719,0,0,0,.372-4.84,4.228,4.228,0,0,0-3.723-2.7,3.583,3.583,0,0,0-3.617,3,6.755,6.755,0,0,0,1.131,4.426,2.193,2.193,0,0,0,3.617-2.482c-.06-.106-.147-.262-.046-.06-.078-.165-.152-.336-.216-.506-.051-.138-.1-.276-.138-.418-.1-.331.018.267-.009-.064-.028-.354.1-.253-.028-.1.014-.06.028-.12.037-.179l-.051.221a1.106,1.106,0,0,1-.556.5c-.092.028-.607-.037-.368.018.313.074-.368-.064-.051-.009.11.06.11.055,0-.009s-.115-.069-.018.014.1.083.009,0c-.106-.115-.092-.087.037.087a.359.359,0,0,1-.106-.253c.009.156.041.313.037.469,0-.239-.014.051-.032.129a6.926,6.926,0,0,1-.23.846l2.376-1.2a2.235,2.235,0,0,1-.855-.414c-.074-.06-.515-.538-.326-.294-.064-.083-.427-.726-.308-.46a2.248,2.248,0,0,0-2.8-1.324,2.214,2.214,0,0,0-1.324,2.808" transform="translate(-22215.949 -23837.15)" fill="#00ad90"/>
      <path id="Path_100869-2" data-name="Path 100869" d="M82.481,22.9a4.1,4.1,0,0,0,2.087,2.969,3.916,3.916,0,0,0,3.277.216,2.283,2.283,0,0,0,1.443-2.252,4.46,4.46,0,0,0-2.418-3.751,2.206,2.206,0,0,0-3.116,1.572,2.937,2.937,0,0,0,1.4,3.236,2.556,2.556,0,0,0,3.433-1.126,2.4,2.4,0,0,0-1.728-3.332A2.368,2.368,0,0,0,84.03,22.92a2.216,2.216,0,0,0,2.376,2A2.244,2.244,0,0,0,88.4,22.543v-.069c-.175.538-.349,1.08-.524,1.623l.032-.051-.919.63c-.611-.115-1.227-.234-1.839-.349-.211-.3-.418-.611-.63-.915l.032.06-.1-1.145c.046-.129.087-.262.129-.391.244-.285.487-.565.731-.85.7.023,1.4.046,2.105.064.207.308.418.611.63.919-.1-.244-.115-.175-.037.2.009.4.028.455.051.184L84.95,24.028c.418.225-.308-.308.023.032-.184-.216-.225-.262-.124-.133a1.362,1.362,0,0,1,.129.188c-.041-.078-.078-.156-.12-.23a1.9,1.9,0,0,1,.1.285c-.018-.087-.037-.175-.06-.262a1.678,1.678,0,0,1,.014.3c.483-.749.965-1.5,1.448-2.252-.294.12.129-.037.193-.009,0,0-.556.014-.083.032.368.014.069,0-.014-.028-.257-.092.565.2.142.032-.3-.115.143.037.152.11l-.193-.165.211.225c-.1-.147-.1-.133,0,.037s.092.188.051.083c-.06-.161-.046-.074.037.253a2.247,2.247,0,0,0-2.372-2,2.213,2.213,0,0,0-2,2.372" transform="translate(-22221.205 -23789.59)" fill="#00ad90"/>
      <path id="Path_100870-2" data-name="Path 100870" d="M86.543,23.05a4.006,4.006,0,1,0,7.676-.74c-.938-2.372-4.311-3.319-6.1-1.305-1.655,1.852-.671,5.281,1.907,5.626a2.195,2.195,0,0,0,.8-4.316c-.257-.051-.193,0,.2.142a.8.8,0,0,1,.524.386c.12.28.152.345.092.188s-.041-.083.037.211c-.06-.345-.014.152-.064.3a1.069,1.069,0,0,1-.432.561,1.052,1.052,0,0,1-.74.147c.547.041-.492-.051.046.023l-.207-.133c.147.138.161.147.037.028a.579.579,0,0,1-.184-.3q-.055-.4-.028-.152c.009.285.023-.437-.009,0,.092-.262.106-.317.037-.165s-.046.106.083-.115c-.3.3.34-.12-.083.078.092-.041.57-.138.349-.133s.285.074.368.1c-.565-.17.409.152-.124-.078.152.179.179.2.087.078s-.069-.1.051.106c-.152-.34.018.083,0,.267a2.192,2.192,0,1,0-4.311-.8" transform="translate(-22206.576 -23789.406)" fill="#00ad90"/>
      <path id="Path_100871-2" data-name="Path 100871" d="M88.92,15.18a5.173,5.173,0,0,0,5.52.276A4.082,4.082,0,0,0,95.99,10.69a3.19,3.19,0,0,0-4.877-1.4c-1.59,1.14-2.082,3.677-.4,4.982a2.193,2.193,0,1,0,2.868-3.319c-.193-.165-.152-.083.124.244a1.011,1.011,0,0,1,.313.671c0,.124,0,.248,0,.372-.133.354-.156.446-.078.29.106-.23-.317.4-.06.129-.257.211-.317.267-.179.175s.064-.055-.23.115a1.308,1.308,0,0,1-1.448-.455c-.129-.285-.161-.349-.106-.2s.037.083-.046-.216c.074.381.051-.345,0-.092s.239-.487.023-.069c-.184.359.2-.244.032-.041s.313-.322.028-.037c.225-.11.257-.138.1-.078s-.124.041.083-.018c-.423-.023.17.087-.092.014-.161-.041-.331-.055-.487-.1.45.133-.138-.092-.193-.12a5.392,5.392,0,0,1-.524-.308A2.2,2.2,0,0,0,87.9,12.248,2.267,2.267,0,0,0,88.92,15.18" transform="translate(-22202.322 -23829.824)" fill="#00ad90"/>
      <path id="Path_100872-2" data-name="Path 100872" d="M85.242,17.164a4.36,4.36,0,0,0,6.591,3.319c2.583-1.742,2.183-6.325-.837-7.4a2.29,2.29,0,0,0-2.62.538,5.937,5.937,0,0,0-1.043,6.067A2.193,2.193,0,0,0,91.461,18.2a1.414,1.414,0,0,1,.234-1.714l-2.62.538a2.489,2.489,0,0,1,.326.138c-.041.083-.46-.414-.276-.216.207.225-.165-.3,0-.046.032.055.12.409.064.147-.06-.3,0,.184,0,.248,0-.17-.037-.326-.037-.064,0-.165.142-.317,0-.078.041-.074.381-.418.2-.285-.165.129.184-.069.244-.092.161-.06-.092-.083.078,0,.23.119-.087-.037-.2-.055.147.023.349.078.078,0-.253-.069-.055-.106.051.037-.188-.253,0-.023.018.06-.106-.51.037.3-.018-.009s.041.529.018-.018a2.193,2.193,0,0,0-4.371.372" transform="translate(-22211.168 -23814.631)" fill="#00ad90"/>
      <path id="Path_100873-2" data-name="Path 100873" d="M86.927,29.849a6.954,6.954,0,0,0,7.887-3.64,2.214,2.214,0,0,0-1.572-3.116,6.55,6.55,0,0,0-6.816,3.466,2.167,2.167,0,0,0,.165,2.2,4.008,4.008,0,0,0,3.843,1.7,2.236,2.236,0,0,0,2-2.372,5.113,5.113,0,0,0-1.793-3.475c-2.151-1.834-5.015,1.485-2.868,3.319.248.216.257.2.29.529l2-2.372c-.561.092-.032-.046.143.188.055.735.11,1.471.165,2.2A2.032,2.032,0,0,1,92.437,27.4q-.786-1.558-1.572-3.112a2.6,2.6,0,0,1-3.139,1.246,2.209,2.209,0,0,0-2.556,1.756,2.237,2.237,0,0,0,1.756,2.556" transform="translate(-22211.557 -23778.207)" fill="#00ad90"/>
      <path id="Path_100874-2" data-name="Path 100874" d="M91.771,19.039a4.193,4.193,0,0,0,6.072-3.093,2.288,2.288,0,0,0-1.2-2.372A5.059,5.059,0,0,0,89.624,16.9a2.24,2.24,0,0,0,1.756,2.556,5.237,5.237,0,0,0,6.081-2.868,2.22,2.22,0,0,0-1.572-3.116,5.23,5.23,0,0,0-6.021,3.907,2.2,2.2,0,0,0,1.756,2.556,2.246,2.246,0,0,0,2.556-1.756c-.055.2-.083.2.014,0s.129-.179,0-.018a3.152,3.152,0,0,1,.262-.294c-.225.216-.014.041.124-.046.257-.17-.271.087.028-.009.046-.014.423-.11.188-.069s.165,0,.207,0c.294-.037-.45-.074.092.037l-1.572-3.116c-.055.12-.106.239-.17.349.207-.354-.028-.014-.1.06-.211.225.239-.156-.028,0-.1.06-.446.2-.1.074-.12.041-.239.092-.368.129.207-.06.184-.037-.014-.018-.4.032.129.078-.087,0-.147-.055-.322-.074-.473-.12q.883,1.282,1.756,2.556c-.124.455-.023.087.046-.028.078-.138.055-.106-.064.1l.119-.133c0,.12-.262.193.06-.037.143-.106.4-.133.06-.051a3.056,3.056,0,0,0,.345-.12c-.418.152-.06-.014.069.018.253.064-.386-.032.037.009.446.046-.317-.156.119.06q-.593-1.193-1.2-2.376c-.041.51-.055.225.156-.083-.165.179-.147.179.055,0a1.984,1.984,0,0,1-.29.193c.239-.124.244-.142.018-.051q.407-.083.041-.041c.372.009.625.207.175-.064a2.2,2.2,0,0,0-2.932,1.011,2.257,2.257,0,0,0,1.016,2.932" transform="translate(-22195.633 -23813.971)" fill="#00ad90"/>
      <path id="Path_100875-2" data-name="Path 100875" d="M92.744,25.79a3.884,3.884,0,0,0-1.076,2.317,2.271,2.271,0,0,0,1.2,2.376c2.974,1.3,6.623-1.747,5.359-4.95-1.232-3.112-5.833-2.859-7.18.014a3.418,3.418,0,0,0,1.554,4.5,3.538,3.538,0,0,0,4.454-1.521,3.857,3.857,0,0,0-1.007-4.638,4.98,4.98,0,0,0-5.019-.593c-2.634,1-1.163,5.13,1.489,4.128.078-.032.823-.271.786-.152s-.225-.382-.23-.423a1.049,1.049,0,0,1,.671-.873c.34-.1.5.064.791.257.6.4.552.584.455,1.232-.156.188-.179.221-.074.1s.074-.092-.083.069l-.17.074c.207-.069.234-.087.078-.055s-.124.018.092-.009l-.216-.018c.06.009.119.018.179.032a.609.609,0,0,1-.308-.124,1.02,1.02,0,0,1-.414-.7.476.476,0,0,1,.064-.308c.069-.156.055-.129-.037.078.032-.046.064-.1.1-.142-.156.165-.175.2-.069.092.087-.074.083-.074-.018,0-.133.087-.106.074.069-.037a1.2,1.2,0,0,1,.6.023c.4.791.8,1.586,1.2,2.376.041-.46-.239.087.083-.253a2.193,2.193,0,0,0-3.319-2.868" transform="translate(-22195.328 -23778.676)" fill="#00ad90"/>
      <path id="Path_100876-2" data-name="Path 100876" d="M91.42,23.988a4.575,4.575,0,0,0,6.311,1.02,4.455,4.455,0,0,0,.731-6.2,4.344,4.344,0,0,0-6.545-.106,4.146,4.146,0,0,0-1.025,3.268,4.52,4.52,0,0,0,2.257,3.291,2.206,2.206,0,0,0,2.928-1.016,2.245,2.245,0,0,0-1.011-2.932c.211.133.239.271.11.009.129.257.014.326.064.069-.023.207-.023.23,0,.069s.028-.138-.023.1c-.133.179-.147.207-.046.083s.083-.1-.064.051c.188-.115.216-.138.083-.064s-.1.06.106-.023c-.207.037-.234.046-.078.032s.124-.018-.11-.028c.221.051.248.051.092,0a.411.411,0,0,1-.253-.147c.161.142.188.161.078.041s-.092-.1.037.078c-.032-.06-.064-.115-.092-.175.074.239.083.234.023-.023l.023.184c.009.257.009.248.009-.032L95,21.717c.1-.267.092-.28-.009-.046l.11-.17c-.165.179-.165.184,0,0l.161-.074q-.359.117,0,.028l-.193.018c.234.028.267.032.106.009a1.487,1.487,0,0,1-.285-.055c.221.078.253.083.106.018s-.115-.055.069.055c-.184-.165-.193-.165-.018,0a2.244,2.244,0,0,0-3.052-.565,2.215,2.215,0,0,0-.565,3.047" transform="translate(-22190.953 -23798.902)" fill="#00ad90"/>
    </g>
    <g id="Group_54067" data-name="Group 54067" transform="translate(1168.854 470.914)">
      <path id="Path_100854-3" data-name="Path 100854" d="M84.387,25.571a9.7,9.7,0,0,1-5.622-2.738c-1.354-1.306-.229-3.435,1.335-3.81a7.578,7.578,0,0,1,7.035,2.095c1.14,1.1.463,2.947-.741,3.61-2.012,1.106-5.573,1.73-7.23-.322-1.866-2.319.253-5.32,2.616-6.114s5.349.512,5.057,3.347c-.263,2.567-3.615,4.161-5.422,1.983-1.91-2.3,1.608-5.344,3.522-3.04-.667-.8-2.743-.745-2.714.58l.38,1.125a1.108,1.108,0,0,0,.6.365c.214-.015.234-.01.058.019s-.151.034.034-.01a.392.392,0,0,0-.253.132.175.175,0,0,0,.063-.151,1.634,1.634,0,0,0-1.052-1.617,2.879,2.879,0,0,1,.594.058,3.533,3.533,0,0,0,1.71-.536c-.248,1.2-.492,2.407-.741,3.61a2.917,2.917,0,0,0-1.281-.638,2.975,2.975,0,0,0-1.389.078c.443-1.272.892-2.538,1.335-3.8a4.642,4.642,0,0,0,2.5,1.145,2.325,2.325,0,0,1-.4,4.633" transform="translate(-16.797 69.952)" fill="#00ad90"/>
      <path id="Path_100855-3" data-name="Path 100855" d="M81.748,16.8c3.532-.575,4.4,4.784.945,5.515-2.309.492-5.379-1.4-5.685-3.8C76.623,15.492,79.78,13.948,82.3,15a8.057,8.057,0,0,1,4.341,5.793,2.354,2.354,0,0,1-2.48,2.738,7.512,7.512,0,0,1-7.025-4.9,2.384,2.384,0,0,1,1.072-3.1,4.892,4.892,0,0,1,6.387,2.017,2.334,2.334,0,0,1-1.072,3.1,2.373,2.373,0,0,1-3.108-1.072l.063.117c.132.1.132.1,0,.01,0,0-.024-.058-.214-.078.292.029-.078.078-.107.029.063.107.638-.214.088.054.356-1.038.716-2.071,1.072-3.108a3.017,3.017,0,0,0,3.24,2.295c-.828.916-1.656,1.827-2.485,2.743a4.127,4.127,0,0,0-.57-1.384,3.888,3.888,0,0,0-.585-.706c0,.01-.619-.4-.307-.224-.541-.312-.029.1.068-.068.6-.161.9-.658.906-1.486a1.015,1.015,0,0,0-.1-.3c-.19,0,.3.19.38.239-.122-.088-.058-.073.185.044a1.5,1.5,0,0,0-.585.063c-.3.258-.6.521-.9.775.039.682.073,1.359.107,2.036.326.219.648.443.974.667l-.122-.049,1.213.1-.141.019c-2.948.477-3.81-4.087-.848-4.57" transform="translate(-9.902 56.795)" fill="#00ad90"/>
      <path id="Path_100856-3" data-name="Path 100856" d="M84.1,14.051a3.01,3.01,0,0,1-1.393,4.7,5.3,5.3,0,0,1-4.906-.721,3.9,3.9,0,0,1-1.452-4.58,3.964,3.964,0,0,1,3.873-2.3A3.8,3.8,0,0,1,83.8,14.1a4.4,4.4,0,0,1-2.207,4.623c-3.366,1.934-7.162-1.73-6.387-5.2.531-2.363,2.9-3.284,5.086-2.572a8.909,8.909,0,0,1,4.448,3.386,2.4,2.4,0,0,1-.244,3.279,2.344,2.344,0,0,1-3.279-.239,6.027,6.027,0,0,0-1.072-1.257,4.9,4.9,0,0,0-.8-.541,3.143,3.143,0,0,1-.628-.253c.161.2,1.038-.853,1.018-.853-.044-.19-.034-.136.024.151l-.019-.1c.214.487-.049-.224-.258.083-.019.029-.132,0-.166.039-.244.248.049.745.229.911a1,1,0,0,0,.487.214.412.412,0,0,0,.283-.093q-.4.219.029-.1a.648.648,0,0,0,.3-.37.681.681,0,0,0-.034-.731c.024-.468-.414-.151.019-.151-.117,0,.341.078.336.073.166,0,.185.01.063.029a1.043,1.043,0,0,0-.726.687c-.034.4-.068.809-.1,1.213l-.029-.175.526,1.1-.122-.161c-1.846-2.353,1.666-5.4,3.517-3.04" transform="translate(0.55 41.521)" fill="#00ad90"/>
      <path id="Path_100857-3" data-name="Path 100857" d="M80.473,14.538a5.459,5.459,0,0,1-6.28-4.273,2.358,2.358,0,0,1,1.861-2.709,9.219,9.219,0,0,1,10.6,6.572,2.318,2.318,0,0,1-1.267,2.514c-4.078,1.652-9.315-.984-9.637-5.622-.093-1.35.843-3.045,2.485-2.743a4.856,4.856,0,0,1,4.195,4.974,2.344,2.344,0,0,1-2.514,2.119A2.384,2.384,0,0,1,77.8,12.853c0,.292-.122.029.044.058q1.242-1.367,2.485-2.743c.093,1.413,1.5,2.913,3.025,2.295-.424.838-.843,1.676-1.267,2.514a4.506,4.506,0,0,0-5.184-2.85c.624-.9,1.242-1.807,1.866-2.709a.707.707,0,0,0,.857.551c2.947-.487,3.8,4.083.848,4.57" transform="translate(3.762 28.537)" fill="#00ad90"/>
      <path id="Path_100858-3" data-name="Path 100858" d="M88.618,16.244A11.208,11.208,0,0,1,86.1,20.609a3.618,3.618,0,0,1-4.619.292,4.376,4.376,0,0,1-1.754-4.063,7.822,7.822,0,0,1,2.407-4.131,2.344,2.344,0,0,1,3.615.745,7.527,7.527,0,0,1,.209,6.012,2.325,2.325,0,0,1-4.375-1.578,2.8,2.8,0,0,0-.019-2.4q1.8.373,3.61.741a10.778,10.778,0,0,0-.794,1.077c-.341.521.1.18-.054.034-.088-.224-.073-.209.049.044a.332.332,0,0,0-.122-.19.5.5,0,0,0-.2-.141,1.074,1.074,0,0,0-1.179.244c-.01-.015.521-.76.546-.8a9.444,9.444,0,0,0,.823-1.822c.989-2.826,5.364-1.257,4.375,1.574" transform="translate(-25.331 46.957)" fill="#00ad90"/>
      <path id="Path_100859-3" data-name="Path 100859" d="M87.9,21.836c-1.574-.234-3.147-.463-4.721-.7a2.359,2.359,0,0,1-1.993-3.1,4.658,4.658,0,0,1,6.67-2.46,4.513,4.513,0,0,1,2.056,3.191,4.781,4.781,0,0,1-1.364,4.014,2.355,2.355,0,0,1-3.288-.239,2.391,2.391,0,0,1,.248-3.284c-.171.185-.127.175-.214.4.015-.248.024-.292.034-.132s.015.117-.02-.132c.195.375-.1-.185.015.034a.344.344,0,0,0,.175.156c-.2-.141-.244-.171-.107-.078.4.229.068-.015.049.073.239-.01.268,0,.1.024s-.141.024.093-.034l-.19.093c.2-.141.2-.132,0,.039.132-.078.287-.546.127-.088-.663-1.038-1.325-2.071-1.993-3.108,1.583.234,3.157.463,4.731.7a2.377,2.377,0,0,1,2.119,2.514A2.345,2.345,0,0,1,87.9,21.836" transform="translate(-33.625 57.862)" fill="#00ad90"/>
      <path id="Path_100860-3" data-name="Path 100860" d="M85.269,13.781a3.713,3.713,0,0,1-2.494,2.134,3.87,3.87,0,0,1-2.436-.2,3.6,3.6,0,0,1-1.481-5.447,3.8,3.8,0,0,1,5.793-.551,4.1,4.1,0,0,1,.419,5.189,2.326,2.326,0,0,1-3.834-2.636c.253-.336-.171.546-.01.044.049-.175.029-.078-.068.287.015-.248.024-.166.034.248a1.206,1.206,0,0,0-.024-.185c-.039-.18,0-.083.112.292a1.861,1.861,0,0,0-.1-.224c.068.1.132.195.2.292a1.423,1.423,0,0,0-.156-.185c.3.248.351.307.156.171.1.054.2.112.307.166.385.058.453.078.209.049.38-.034.477-.039.292,0s-.088.01.278-.093c-.214.117-.161.073.161-.122-.141.127-.136.112,0-.039.253-.526-.336.755.107-.195l-.044.127a1.14,1.14,0,0,0,.058-.7c.044.19.034.175-.029-.049a.928.928,0,0,0-.268-.492c.161.175.093.117-.2-.166.146.093.122.083-.073-.024s-.219-.107-.058-.044c-.4-.073-.487-.093-.253-.054.409.015-.585.107-.166.019s-.512.253-.166.058q-.512.373-.234.146a1.279,1.279,0,0,0-.409.609A2.551,2.551,0,0,1,82.064,10.9a2.4,2.4,0,0,1,1.807-.1,2.352,2.352,0,0,1,1.4,2.977" transform="translate(-14.907 33.398)" fill="#00ad90"/>
      <path id="Path_100861-3" data-name="Path 100861" d="M92.832,19.2a5.215,5.215,0,0,1-8.014,3.522,2.361,2.361,0,0,1-.6-3.235c1.135-1.608,2.938-3.025,5-2.192,1.842.741,2.884,3.167,1.569,4.843a2.383,2.383,0,0,1-3.235.6,2.349,2.349,0,0,1-.6-3.23,1.48,1.48,0,0,0,.326,1.993,1.37,1.37,0,0,0,1.077.141c.073.058-.239.38-.307.482-.2-1.077-.4-2.158-.6-3.235.312.214-.093.058.107.063.127.044.132.044,0,.01s-.122-.029.01-.01c.171,0,.136.015-.107.029l.2-.029c.068-.01.136-.024.2-.039-.224.088-.258.1-.1.034.039-.01.434-.2.214-.078-.244.136.195-.161.244-.2-.229.209,0,.1,0-.024-.088.2-.1.229-.039.073s.054-.127,0,.088a2.392,2.392,0,0,1,2.514-2.114A2.337,2.337,0,0,1,92.832,19.2" transform="translate(-49.519 64.576)" fill="#00ad90"/>
      <path id="Path_100862-3" data-name="Path 100862" d="M89.191,17.5c-.492-.229.434-.112-.141-.039-.341.039-.682.073-1.028.083a3.779,3.779,0,0,1-2.47-.672,3.587,3.587,0,0,1-1.057-4.253,4.12,4.12,0,0,1,3.815-2.582A6.818,6.818,0,0,1,92.46,11.7a2.429,2.429,0,0,1,.872,2.7,7.409,7.409,0,0,1-1.423,2.85,2.391,2.391,0,0,1-3.235.6,4.1,4.1,0,0,1-1.208-5.617A2.325,2.325,0,1,1,91.3,14.868a.712.712,0,0,0,.107-.628c-.058-.175-.492-.473-.1-.219l-3.23.6a3.731,3.731,0,0,0,.882-1.788c.292.9.585,1.8.872,2.7a3.812,3.812,0,0,0-1.51-.882c.175.044.127.054-.151.01a.412.412,0,0,0,.336-.039.561.561,0,0,0,.3-.244c-.146.234-.146.234,0,.01a1.462,1.462,0,0,0-.775-1.408.353.353,0,0,0-.3-.029c.156-.019.317-.034.477-.063a4.824,4.824,0,0,1,2.563.244,2.4,2.4,0,0,1,1.4,2.982A2.339,2.339,0,0,1,89.191,17.5" transform="translate(-51.979 38.879)" fill="#00ad90"/>
      <path id="Path_100863-3" data-name="Path 100863" d="M88.625,15.011a4.985,4.985,0,0,1-5.744.38A4.268,4.268,0,0,1,81.527,9.9,3.7,3.7,0,0,1,86.9,8.443,3.784,3.784,0,0,1,88,13.734,2.325,2.325,0,0,1,84.167,11.1c.117-.166.122-.156.02.019a.929.929,0,0,0-.151.453l.015.341c-.049-.19-.039-.185.015.024.073.2.063.209-.02.024.054.088.107.175.161.258-.263-.37.365.253,0,.01a1.091,1.091,0,0,0,.736.19c.166-.015.638-.258.307-.058.078-.049.575-.546.331-.234.044-.083.083-.161.122-.244-.063.2-.073.2-.029.019.146-.312-.093.117,0,.2l0-.292c.049.209.044.214-.01.019s-.058-.19.029,0l-.136-.234c-.2-.166-.244-.195-.107-.1s.093.073-.136-.058c.424.093-.249-.058.015.029s.336-.019.02.039c.234-.044.507-.209.122.01.117-.068.56-.356.127-.034a2.325,2.325,0,1,1,3.04,3.517" transform="translate(-32.549 30.266)" fill="#00ad90"/>
      <path id="Path_100864-3" data-name="Path 100864" d="M84.92,10.19c-1.608,1.315-3.98,2.168-5.885.916a3.757,3.757,0,0,1-.263-5.91,3.5,3.5,0,0,1,5.515,1.135A3.812,3.812,0,0,1,82.542,11.4a2.325,2.325,0,0,1-2.036-4.18c.175-.083.166-.068-.02.044a.921.921,0,0,0-.37.365c.248-.361-.19.5-.049.078l-.073.336c.015-.248.029-.171.034.234-.01-.1-.112-.482.015-.088a.966.966,0,0,0,.161.307c-.068-.083.365.292.516.346a1.272,1.272,0,0,0,.955-.044c.263-.2.331-.244.195-.127s-.083.058.136-.166c-.278.326.146-.419,0,.019.019-.1.044-.2.068-.292-.039-.356-.044-.438-.015-.258s.015.1-.073-.248c-.156-.185-.307-.365-.463-.546.214.141.185.127-.1-.044-.088-.019-.18-.039-.273-.063.4.083-.361.132.049-.01.551-.185-.438.253.093-.029.166-.093.331-.171.492-.263-.331.195-.083.044.088-.1a2.325,2.325,0,1,1,3.04,3.517" transform="translate(-11.397 16.639)" fill="#00ad90"/>
      <path id="Path_100865-3" data-name="Path 100865" d="M81,1.538a5.117,5.117,0,0,1,1.335,3.785A2.9,2.9,0,0,1,80.777,7.6a4.065,4.065,0,0,1-2.061.39c-2.6-.195-4.633-2.952-3.518-5.447C76.212.272,79.271-.868,81.342.778c1.924,1.54,2.163,4.916.039,6.436A2.377,2.377,0,0,1,78.1,6.97a2.358,2.358,0,0,1,.239-3.279c.492-.351-.136.283.054-.019-.049.1-.1.2-.156.3.078-.229.073-.161-.02.214a2.393,2.393,0,0,0,.029-.263c.01.122.019.239.024.356a1.58,1.58,0,0,0-.039-.258q.212.57.073.219c-.2-.37.365.39.049.068.292.244.341.292.146.151l.287.146c-.234-.073-.171-.058.195.039-.253-.01-.175-.015.224-.015-.419.049.468-.253.073-.029-.434.244.448-.326.044-.029-.175.166-.136.122.122-.146-.1.161-.107.151,0-.034s.1-.195.024-.019q.1-.563.058-.19a.772.772,0,0,0-.068-.492c-.078-.2-.078-.209,0-.024-.21-.292-.239-.341-.083-.146-.253-.2-.307-.253-.17-.146.438.331-.341-.078.063.034-.326-.058-.4-.073-.229-.054a1.658,1.658,0,0,0,.219.015c-.185-.195-.989.341-.385-.019L77.7,4.647c.078-.195.1-.2.049-.015a.852.852,0,0,0,0,.429c-.054-.419.166.248.024.015-.078-.122-.146-.278-.209-.4.171.341.058.1-.083-.093A2.367,2.367,0,0,1,77.717,1.3,2.358,2.358,0,0,1,81,1.538" transform="translate(3.986)" fill="#00ad90"/>
      <path id="Path_100866-3" data-name="Path 100866" d="M80.357,9.916a5.053,5.053,0,0,1-2.475.341,3.128,3.128,0,0,1-2.733-1.91,2.693,2.693,0,0,1,.857-2.909,2.631,2.631,0,0,1,3.664.268,2.341,2.341,0,0,1-.239,3.279,2.373,2.373,0,0,1-3.279-.239L76.108,8.7c.146.132.292.263.443.395L76.5,9.063l.531.268-.058-.015.589.132-.058,0,.624-.029-.058.01c.2-.063.395-.127.594-.195a.438.438,0,0,0-.117.058c.166-.112.336-.219.5-.331a.548.548,0,0,0-.1.088c.132-.146.263-.3.395-.443a.554.554,0,0,0-.073.112c.093-.175.18-.356.273-.531l-.024.058.132-.585a.187.187,0,0,0-.01.117c-.015-.209-.024-.419-.034-.624l.015.054-.19-.594.029.054c-.107-.166-.219-.336-.331-.5l.049.044c-.322-.224-.648-.443-.97-.667a3.028,3.028,0,0,0,.546.195l-.59-.132a3.035,3.035,0,0,0,.7.054l-.624.029a2.557,2.557,0,0,0,.57-.107c-.2.068-.395.132-.594.195l.112-.034a2.531,2.531,0,0,1,1.8-.1,2.314,2.314,0,0,1,1.4,2.972,2.227,2.227,0,0,1-1.169,1.306" transform="translate(4.571 18.656)" fill="#00ad90"/>
      <path id="Path_100867-3" data-name="Path 100867" d="M94.507,17.231c2.2,1.608,2.528,5.257.19,6.947A4.379,4.379,0,0,1,87.915,21.5c-.6-3.055,2.65-5.651,5.5-4.794A4.115,4.115,0,0,1,95.1,23.389c-2.582,2.582-7.21-.463-6-3.849a2.325,2.325,0,0,1,4.375,1.574,1.331,1.331,0,0,0-.019-.8c-.034-.083-.287-.5-.18-.37.175.209-.438-.346-.034-.063a1.1,1.1,0,0,0-.546-.195c.322.034-.068.01-.175.029a1.207,1.207,0,0,0-.667.375c-.054.058-.273.468-.2.3.117-.287-.166.536-.029.546l-.054-.3.083.3c-.088-.18-.083-.185.015-.019.1.434-.02-.307.1.088.151.122.146.122-.019,0l.248.132c.136.049.4.073.1.024l.283-.015c-.209.049-.224.049-.039,0,.429-.2-.292.18.088-.039.273-.161-.229.326.122-.146-.015.019-.185.283-.19.283.093.019.156-.424.166-.473-.093.512-.058-.312-.015-.024.024.229-.117-.248-.127-.292-.117-.151-.1-.146.029.024-.054-.054-.117-.112-.18-.166.209.029.122.073-.083,0,.112.044.463.083.209.088-.38,0,.312-.136-.1-.019q-.3.022.029-.029l-.268.073c-.156.073-.287.244-.1.039-.063.068-.37.565-.268.356.063-.122.039-.356.054-.1-.034.161-.049.175-.029.049q.015-.27.029.2a1.433,1.433,0,0,0-.063-.326c.063.024.136.482.01.132.18.248.2.307.1.175s-.073-.083.132.122a2.322,2.322,0,0,1,2.626-3.829" transform="translate(-72.563 64.061)" fill="#00ad90"/>
      <path id="Path_100868-3" data-name="Path 100868" d="M92.258,11.657a7.29,7.29,0,0,1-5.1,4.239,2.34,2.34,0,0,1-2.519-1.272,7.122,7.122,0,0,1-.395-5.13,4.481,4.481,0,0,1,3.946-2.86,3.8,3.8,0,0,1,3.834,3.176,7.16,7.16,0,0,1-1.2,4.692,2.325,2.325,0,0,1-3.834-2.631c.063-.112.156-.278.049-.063.083-.175.161-.356.229-.536.054-.146.1-.292.146-.443.1-.351-.02.283.01-.068.029-.375-.1-.268.029-.1-.015-.063-.029-.127-.039-.19l.054.234a1.172,1.172,0,0,0,.59.526c.1.029.643-.039.39.019-.331.078.39-.068.054-.01-.117.063-.117.058,0-.01s.122-.073.019.015-.1.088-.01,0c.112-.122.1-.093-.039.093a.38.38,0,0,0,.112-.268c-.01.166-.044.331-.039.5,0-.253.015.054.034.136a7.34,7.34,0,0,0,.244.9L86.3,11.321a2.369,2.369,0,0,0,.906-.438c.078-.063.546-.57.346-.312.068-.088.453-.77.326-.487a2.383,2.383,0,0,1,2.972-1.4,2.346,2.346,0,0,1,1.4,2.977" transform="translate(-49.516 25.68)" fill="#00ad90"/>
      <path id="Path_100869-3" data-name="Path 100869" d="M89.664,23.084a4.348,4.348,0,0,1-2.212,3.147,4.151,4.151,0,0,1-3.474.229,2.42,2.42,0,0,1-1.53-2.387A4.728,4.728,0,0,1,85.012,20.1a2.339,2.339,0,0,1,3.3,1.666,3.113,3.113,0,0,1-1.481,3.43A2.71,2.71,0,0,1,83.195,24a2.548,2.548,0,0,1,1.832-3.532,2.51,2.51,0,0,1,3,2.636A2.349,2.349,0,0,1,85.5,25.223,2.379,2.379,0,0,1,83.389,22.7v-.073c.185.57.37,1.145.555,1.72l-.034-.054.974.667c.648-.122,1.3-.248,1.949-.37.224-.322.443-.648.667-.97l-.034.063.1-1.213c-.049-.136-.093-.278-.136-.414-.258-.3-.516-.6-.775-.9-.745.024-1.486.049-2.231.068-.219.326-.443.648-.667.974.107-.258.122-.185.039.214-.01.419-.029.482-.054.195l3.3,1.666c-.443.239.326-.326-.024.034.195-.229.239-.278.132-.141a1.443,1.443,0,0,0-.136.2c.044-.083.083-.166.127-.244a2.015,2.015,0,0,0-.107.3c.02-.093.039-.185.063-.278a1.78,1.78,0,0,0-.015.322c-.512-.794-1.023-1.593-1.535-2.387.312.127-.136-.039-.2-.01,0,0,.59.015.088.034-.39.015-.073,0,.015-.029.273-.1-.6.209-.151.034.317-.122-.151.039-.161.117l.2-.175-.224.239c.1-.156.1-.141,0,.039s-.1.2-.054.088c.063-.171.049-.078-.039.268a2.382,2.382,0,0,1,2.514-2.119,2.345,2.345,0,0,1,2.119,2.514" transform="translate(-39.676 76.886)" fill="#00ad90"/>
      <path id="Path_100870-3" data-name="Path 100870" d="M94.925,23.238a4.246,4.246,0,1,1-8.136-.784c.994-2.514,4.57-3.517,6.47-1.384,1.754,1.963.711,5.6-2.022,5.963a2.326,2.326,0,0,1-.848-4.575c.273-.054.2,0-.209.151a.851.851,0,0,0-.555.409c-.127.3-.161.365-.1.2s.044-.088-.039.224c.063-.365.015.161.068.317a1.133,1.133,0,0,0,.458.594,1.115,1.115,0,0,0,.784.156c-.58.044.521-.054-.049.024l.219-.141c-.156.146-.171.156-.039.029a.613.613,0,0,0,.195-.317q.058-.424.029-.161c-.01.3-.024-.463.01,0-.1-.278-.112-.336-.039-.175s.049.112-.088-.122c.317.317-.36-.127.088.083-.1-.044-.6-.146-.37-.141s-.3.078-.39.107c.6-.18-.434.161.132-.083-.161.19-.19.214-.093.083s.073-.1-.054.112c.161-.361-.019.088,0,.283a2.324,2.324,0,1,1,4.57-.848" transform="translate(-64.747 77.083)" fill="#00ad90"/>
      <path id="Path_100871-3" data-name="Path 100871" d="M95.46,15.571a5.483,5.483,0,0,1-5.851.292,4.327,4.327,0,0,1-1.642-5.052A3.381,3.381,0,0,1,93.136,9.33c1.686,1.208,2.207,3.9.424,5.281a2.325,2.325,0,1,1-3.04-3.517c.2-.175.161-.088-.132.258a1.072,1.072,0,0,0-.331.711c0,.132,0,.263,0,.395.141.375.166.473.083.307-.112-.244.336.429.063.136.273.224.336.283.19.185s-.068-.058.244.122a1.387,1.387,0,0,0,1.535-.482c.136-.3.171-.37.112-.209s-.039.088.049-.229c-.078.4-.054-.365,0-.1s-.253-.516-.024-.073c.195.38-.214-.258-.034-.044s-.331-.341-.029-.039c-.239-.117-.273-.146-.1-.083s.132.044-.088-.019c.448-.024-.18.093.1.015.171-.044.351-.058.516-.107-.477.141.146-.1.2-.127a5.716,5.716,0,0,0,.555-.326,2.336,2.336,0,0,1,3.108,1.077,2.4,2.4,0,0,1-1.077,3.108" transform="translate(-72.31 33.568)" fill="#00ad90"/>
      <path id="Path_100872-3" data-name="Path 100872" d="M94.037,17.42a4.621,4.621,0,0,1-6.986,3.517c-2.738-1.846-2.314-6.7.887-7.849a2.427,2.427,0,0,1,2.777.57A6.293,6.293,0,0,1,91.82,20.09a2.325,2.325,0,0,1-4.375-1.574A1.5,1.5,0,0,0,87.2,16.7l2.777.57a2.639,2.639,0,0,0-.346.146c.044.088.487-.438.292-.229-.219.239.175-.322,0-.049-.034.058-.127.434-.068.156.063-.317,0,.195,0,.263,0-.18.039-.346.039-.068,0-.175-.151-.336,0-.083-.044-.078-.4-.443-.21-.3.175.136-.195-.073-.258-.1-.171-.063.1-.088-.083,0-.244.127.093-.039.214-.058-.156.024-.37.083-.083,0,.268-.073.058-.112-.054.039.2-.268,0-.024-.02.063.112-.541-.039.317.02-.01s-.044.56-.02-.019a2.325,2.325,0,0,1,4.633.395" transform="translate(-57.612 49.925)" fill="#00ad90"/>
      <path id="Path_100873-3" data-name="Path 100873" d="M93.718,30.258a7.371,7.371,0,0,1-8.36-3.859,2.346,2.346,0,0,1,1.666-3.3A6.942,6.942,0,0,1,94.25,26.77a2.3,2.3,0,0,1-.175,2.334A4.248,4.248,0,0,1,90,30.9a2.37,2.37,0,0,1-2.119-2.514,5.419,5.419,0,0,1,1.9-3.683c2.28-1.944,5.315,1.574,3.04,3.517-.263.229-.273.214-.307.56L90.4,26.268c.594.1.034-.049-.151.2-.058.779-.117,1.559-.175,2.334a2.154,2.154,0,0,0-2.192-1.135q.833-1.652,1.666-3.3a2.755,2.755,0,0,0,3.328,1.32A2.342,2.342,0,0,1,95.58,27.55a2.371,2.371,0,0,1-1.861,2.709" transform="translate(-58.668 89.139)" fill="#00ad90"/>
      <path id="Path_100874-3" data-name="Path 100874" d="M96,19.4a4.444,4.444,0,0,1-6.436-3.279A2.425,2.425,0,0,1,90.836,13.6a5.362,5.362,0,0,1,7.444,3.527,2.374,2.374,0,0,1-1.861,2.709,5.551,5.551,0,0,1-6.445-3.04,2.353,2.353,0,0,1,1.666-3.3,5.543,5.543,0,0,1,6.382,4.141,2.334,2.334,0,0,1-1.861,2.709,2.38,2.38,0,0,1-2.709-1.861c.058.214.088.214-.015,0s-.136-.19,0-.019a3.341,3.341,0,0,0-.278-.312c.239.229.015.044-.132-.049-.273-.18.287.093-.029-.01-.049-.015-.448-.117-.2-.073s-.175,0-.219,0c-.312-.039.477-.078-.1.039l1.666-3.3c.058.127.112.253.18.37-.219-.375.029-.015.107.063.224.239-.253-.166.029,0,.1.063.473.214.1.078.127.044.253.1.39.136-.219-.063-.195-.039.015-.019.424.034-.136.083.093,0,.156-.058.341-.078.5-.127q-.935,1.359-1.861,2.709c.132.482.024.093-.049-.029-.083-.146-.058-.112.068.107l-.127-.141c0,.127.278.2-.063-.039-.151-.112-.424-.141-.063-.054a3.239,3.239,0,0,1-.365-.127c.443.161.063-.015-.073.019-.268.068.409-.034-.039.01-.473.049.336-.166-.127.063q.628-1.264,1.267-2.519c.044.541.058.239-.166-.088.175.19.156.19-.058,0a2.1,2.1,0,0,0,.307.2c-.253-.132-.258-.151-.02-.054q-.431-.088-.044-.044c-.395.01-.663.219-.185-.068a2.336,2.336,0,0,1,3.108,1.072A2.392,2.392,0,0,1,96,19.4" transform="translate(-82.967 50.637)" fill="#00ad90"/>
      <path id="Path_100875-3" data-name="Path 100875" d="M95.728,25.964a4.117,4.117,0,0,1,1.14,2.455A2.407,2.407,0,0,1,95.6,30.938c-3.152,1.379-7.02-1.851-5.681-5.247,1.306-3.3,6.182-3.03,7.61.015a3.623,3.623,0,0,1-1.647,4.774,3.75,3.75,0,0,1-4.721-1.613,4.088,4.088,0,0,1,1.067-4.916,5.279,5.279,0,0,1,5.32-.628c2.792,1.057,1.233,5.437-1.578,4.375-.083-.034-.872-.287-.833-.161s.239-.4.244-.448a1.112,1.112,0,0,0-.711-.926c-.36-.1-.531.068-.838.273-.638.429-.585.619-.482,1.306.166.2.19.234.078.1s-.078-.1.088.073l.18.078c-.219-.073-.248-.093-.083-.058s.132.019-.1-.01l.229-.019c-.063.01-.127.019-.19.034a.646.646,0,0,0,.326-.132,1.081,1.081,0,0,0,.438-.745.5.5,0,0,0-.068-.326c-.073-.166-.058-.136.039.083-.034-.049-.068-.1-.107-.151.166.175.185.209.073.1-.093-.078-.088-.078.019,0,.141.093.112.078-.073-.039a1.272,1.272,0,0,0-.633.024c-.424.838-.848,1.681-1.267,2.519-.044-.487.253.093-.088-.268a2.325,2.325,0,0,1,3.518-3.04" transform="translate(-84.045 88.636)" fill="#00ad90"/>
      <path id="Path_100876-3" data-name="Path 100876" d="M99.31,24.39a4.849,4.849,0,0,1-6.689,1.082,4.722,4.722,0,0,1-.775-6.572,4.6,4.6,0,0,1,6.938-.112,4.395,4.395,0,0,1,1.086,3.464,4.791,4.791,0,0,1-2.392,3.488,2.338,2.338,0,0,1-3.1-1.077,2.38,2.38,0,0,1,1.072-3.108c-.224.141-.253.287-.117.01-.136.273-.015.346-.068.073.024.219.024.244,0,.073s-.029-.146.024.1c.141.19.156.219.049.088s-.088-.1.068.054c-.2-.122-.229-.146-.088-.068s.1.063-.112-.024c.219.039.248.049.083.034s-.132-.019.117-.029c-.234.054-.263.054-.1,0a.435.435,0,0,0,.268-.156c-.171.151-.2.171-.083.044s.1-.1-.039.083c.034-.063.068-.122.1-.185-.078.253-.088.248-.024-.024l-.024.195c-.01.273-.01.263-.01-.034l.034.19c-.1-.283-.1-.3.01-.049l-.117-.18c.175.19.175.195,0,0l-.171-.078q.38.124,0,.029l.2.019c-.248.029-.283.034-.112.01a1.576,1.576,0,0,0,.3-.058c-.234.083-.268.088-.112.019s.122-.058-.073.058c.195-.175.2-.175.019,0a2.379,2.379,0,0,1,3.235-.6,2.347,2.347,0,0,1,.6,3.23" transform="translate(-90.86 66.859)" fill="#00ad90"/>
    </g>
  </g>
</svg>
