<svg xmlns="http://www.w3.org/2000/svg" width="165.144" height="160" viewBox="0 0 165.144 160">
  <g id="t1-ic1" transform="translate(-11.16 -8.918)">
    <circle id="Ellipse_4427" data-name="Ellipse 4427" cx="8.834" cy="8.834" r="8.834" transform="translate(52.925 44.352)" fill="#fec093"/>
    <circle id="Ellipse_4428" data-name="Ellipse 4428" cx="8.834" cy="8.834" r="8.834" transform="translate(115.321 44.352)" fill="#fec9a3"/>
    <path id="Path_152234" data-name="Path 152234" d="M155.529,184.071H61.406v-12.76a38.122,38.122,0,0,1,38.122-38.122H115.86a38.122,38.122,0,0,1,38.122,38.122Z" transform="translate(-14.738 -36.45)" fill="#fff"/>
    <path id="Path_152235" data-name="Path 152235" d="M112.6,133.189H99.529a38.122,38.122,0,0,0-38.122,38.122v12.76H74.481v-12.76A38.122,38.122,0,0,1,112.6,133.189Z" transform="translate(-14.738 -36.45)" fill="#dee4f0" style="mix-blend-mode: multiply;isolation: isolate"/>
    <rect id="Rectangle_33282" data-name="Rectangle 33282" width="19.081" height="37.751" rx="9.54" transform="translate(83.416 71.296)" fill="#fec9a3"/>
    <path id="Path_152236" data-name="Path 152236" d="M113.406,106.762v18.67a9.579,9.579,0,0,0,8.258,9.454V97.309a9.578,9.578,0,0,0-8.258,9.453Z" transform="translate(-29.99 -25.926)" fill="#fec093"/>
    <rect id="Rectangle_33283" data-name="Rectangle 33283" width="62.397" height="77.789" rx="31.198" transform="translate(61.758 12.655)" fill="#fec9a3"/>
    <path id="Path_152237" data-name="Path 152237" d="M95.833,60.8V45.4a31.316,31.316,0,0,1,24.664-30.5A31.17,31.17,0,0,0,82.759,45.4V60.8a31.168,31.168,0,0,0,37.735,30.5A31.316,31.316,0,0,1,95.833,60.8Z" transform="translate(-21.001 -1.551)" fill="#fec093"/>
    <path id="Path_152238" data-name="Path 152238" d="M111.341,131.087l9.54,12.431-10.335,5.565-4.181-17.494,4.977-5.65Z" transform="translate(-27.924 -34.323)" fill="#fcf300"/>
    <path id="Path_152239" data-name="Path 152239" d="M136.446,131.087l-9.54,12.431,10.335,5.565,4.182-17.494-4.977-5.65Z" transform="translate(-33.949 -34.323)" fill="#fcf300"/>
    <path id="Path_152240" data-name="Path 152240" d="M114.817,82.876a1.963,1.963,0,1,1-3.926,0V80.12a1.963,1.963,0,1,1,3.926,0Z" transform="translate(-29.252 -20.308)"/>
    <path id="Path_152241" data-name="Path 152241" d="M139.966,10.421a15.779,15.779,0,0,0-12.3,5.874,30.905,30.905,0,0,0-13.71-3.2,31.29,31.29,0,0,0-31.2,31.2v6.911H87.9V47.036s10.4-2.625,10.5-14.108c0,0,13.238,11.752,37.092,8.472a15.812,15.812,0,1,0,4.474-30.978Z" transform="translate(-21.001 -0.441)" fill="#636363"/>
    <path id="Path_152242" data-name="Path 152242" d="M120.477,14.907a30.931,30.931,0,0,0-6.52-.707,31.29,31.29,0,0,0-31.2,31.2v6.911H87.9V48.144A15.289,15.289,0,0,0,95.99,42.29a31.349,31.349,0,0,1,24.488-27.384Z" transform="translate(-21.001 -1.549)" fill="#474747"/>
    <path id="Path_152243" data-name="Path 152243" d="M0,0H19.787V6.861H0Z" transform="matrix(0.941, -0.338, 0.338, 0.941, 113.646, 88.202)" fill="#fec9a3"/>
    <path id="Path_152244" data-name="Path 152244" d="M0,0H19.787V49.233A9.894,9.894,0,0,1,0,49.233V0Z" transform="matrix(0.941, -0.338, 0.338, 0.941, 115.961, 94.655)" fill="#fff"/>
    <path id="Path_152245" data-name="Path 152245" d="M0,0H19.787V5.832H0Z" transform="matrix(0.941, -0.338, 0.338, 0.941, 115.964, 94.658)" fill="#fefba6"/>
    <circle id="Ellipse_4429" data-name="Ellipse 4429" cx="11.883" cy="11.883" r="11.883" transform="translate(89.474 52.049) rotate(-31.671)" fill="#ccece6"/>
    <rect id="Rectangle_33284" data-name="Rectangle 33284" width="7.424" height="20.361" rx="3.712" transform="translate(111.226 71.75) rotate(-31.671)" fill="#007a64"/>
    <path id="Path_152246" data-name="Path 152246" d="M3.951,0H8.2a1.956,1.956,0,0,1,1.956,1.956V15.534A1.956,1.956,0,0,1,8.2,17.491H3.951A3.951,3.951,0,0,1,0,13.539V3.951A3.951,3.951,0,0,1,3.951,0Z" transform="translate(115.85 77.245) rotate(-53.909)" fill="#fec9a3"/>
    <path id="Path_152247" data-name="Path 152247" d="M157.55,121.869l-4.042-6.28a3.534,3.534,0,0,1-.516-2.48l.873-5.365a3.533,3.533,0,0,1,1.741-2.5l6.057-3.444a2.524,2.524,0,0,1,2.554,4.353l-6.1,3.693a17.558,17.558,0,0,1,7.251,9.224Z" transform="translate(-41.587 -27.146)" fill="#fec9a3"/>
    <path id="Path_152248" data-name="Path 152248" d="M147.29,82.876a1.964,1.964,0,1,1-3.928,0V80.12a1.964,1.964,0,1,1,3.928,0Z" transform="translate(-38.776 -20.308)"/>
    <path id="Path_152249" data-name="Path 152249" d="M162.453,224.277v2.013a4.748,4.748,0,0,1-4.735,4.735H49.39a4.748,4.748,0,0,1-4.735-4.735v-2.013Z" transform="translate(-9.824 -63.167)" fill="#0f6fe9"/>
    <path id="Path_152250" data-name="Path 152250" d="M55.816,145.033H157.839v62.748H55.816Z" transform="translate(-13.098 -39.924)" fill="#00dbb6"/>
    <path id="Path_152251" data-name="Path 152251" d="M55.816,145.033H68.89v62.748H55.816Z" transform="translate(-13.098 -39.924)" fill="#009e83"/>
    <path id="Path_152252" data-name="Path 152252" d="M181.684,145.033h13.074v62.748H181.684Z" transform="translate(-50.016 -39.924)" fill="#00f5cb"/>
    <circle id="Ellipse_4430" data-name="Ellipse 4430" cx="8.166" cy="8.166" r="8.166" transform="translate(85.565 128.318)" fill="#fefba6"/>
    <path id="Path_152253" data-name="Path 152253" d="M20.508,96.025v25.1H52.9v-25.1l-16.2-8.1Z" transform="translate(-2.742 -23.174)" fill="#fefba6"/>
    <path id="Path_152254" data-name="Path 152254" d="M54.714,90.012,35.563,80.434a2.592,2.592,0,0,0-2.318,0L14.087,90.012a2.591,2.591,0,1,0,2.318,4.635l1.542-.771L34.4,85.649l16.454,8.227,1.542.771a2.591,2.591,0,1,0,2.318-4.635Z" transform="translate(-0.438 -20.896)" fill="#fcf300"/>
    <path id="Path_152255" data-name="Path 152255" d="M197.508,107.876h7.448v19.1h-7.448Z" transform="translate(-54.658 -29.025)" fill="#fefba6"/>
    <path id="Path_152256" data-name="Path 152256" d="M215.157,98.468H222.6V124.22h-7.448Z" transform="translate(-59.834 -26.266)" fill="#fff600"/>
    <path id="Path_152257" data-name="Path 152257" d="M232.806,89.06h7.448v32.4h-7.448Z" transform="translate(-65.011 -23.506)" fill="#ff8628"/>
    <path id="Path_152258" data-name="Path 152258" d="M46.061,118.9H34.047l-2.12-10.262H48.181Z" transform="translate(-6.091 -29.249)" fill="#00dbb6"/>
    <rect id="Rectangle_33285" data-name="Rectangle 33285" width="4.019" height="10.247" rx="2.009" transform="translate(31.953 72.53)" fill="#009e83"/>
    <g id="Group_97223" data-name="Group 97223" transform="translate(11.16 8.918)">
      <path id="Path_152259" data-name="Path 152259" d="M64.81,63.038A32.335,32.335,0,0,0,86.237,89.705v1.509l-4.468,5.072a39.172,39.172,0,0,0-17.3,7.762H46.6a1.06,1.06,0,0,0-1.06,1.06V160.05H38.711a1.06,1.06,0,0,0-1.06,1.06v2.013a5.767,5.767,0,0,0,1.318,3.675H25.45a1.06,1.06,0,1,0,0,2.12H169.77a1.06,1.06,0,1,0,0-2.12H156.251a5.767,5.767,0,0,0,1.318-3.675V161.11a1.06,1.06,0,0,0-1.06-1.06h-6.827v-12.1a10.963,10.963,0,0,0,6.408-13.922l-6.37-17.758a.826.826,0,0,0-.038-.08V105.109a1.06,1.06,0,0,0-1.06-1.06h-3.285l-3.9-10.875-1.969-5.489L138,83.611l1.544-2.12a3.015,3.015,0,0,0-.662-4.215l-10.973-7.995a3.05,3.05,0,0,0-.362-.212,31.852,31.852,0,0,0,1.317-6.03,9.884,9.884,0,0,0,.216-19.68q-.015-.931-.083-1.861a16.87,16.87,0,1,0-18.727-26.951A31.746,31.746,0,0,0,96.839,11.6,32.289,32.289,0,0,0,64.592,43.358a9.884,9.884,0,0,0,.218,19.68ZM96.837,91.5a32.091,32.091,0,0,0,8.48-1.137V96.4l-5.866,7.645H94.227L88.361,96.4V90.364A32.17,32.17,0,0,0,96.837,91.5Zm18.072-2.488,3.977,6.176,1.264,3.526a38.909,38.909,0,0,0-8.244-2.432l-4.468-5.073V89.7a32.055,32.055,0,0,0,6.76-3.309,4.576,4.576,0,0,0,.712,2.625Zm.489-23.863a10.8,10.8,0,1,1,.007,0Zm3.435,5.574a2.662,2.662,0,0,1,3.652.862l.006.008-1.3,1.779a5.011,5.011,0,0,0-.881,2.124l-1.221.695-1.123-1.821a2.656,2.656,0,0,1,.864-3.649Zm-.411,8.289,6.056-3.444a1.464,1.464,0,0,1,1.484,2.524l-6.1,3.693a1.06,1.06,0,0,0,.044,1.837,16.509,16.509,0,0,1,6.372,7.663l-6,2.15-3.589-5.569a2.473,2.473,0,0,1-.362-1.736l.873-5.365a2.464,2.464,0,0,1,1.221-1.753Zm18.038,6.572.651,1.813-8.841,3.172a20.273,20.273,0,0,0-.875-1.831,4.676,4.676,0,0,0,3.628-2.175,4.947,4.947,0,0,0,1.96.419,5.08,5.08,0,0,0,.79-.062,4.975,4.975,0,0,0,2.689-1.333Zm-29.24,11.822a1.06,1.06,0,0,0,.22-.645V94.423l2.756,3.132-1.555,6.494h-6.521Zm4.933,1.084a36.784,36.784,0,0,1,8.993,3l.919,2.557H110.825Zm9.046-3.129,4.965-1.782L137.831,89.4l1.253,3.493-16.63,5.965Zm7.208-9.111a2.641,2.641,0,0,1-2.5.146,18.613,18.613,0,0,0-3.542-3.651L124.1,81.7l5.132,3.738a2.614,2.614,0,0,1-.826.817Zm-42.172,8.17v2.341a1.06,1.06,0,0,0,.219.645l5.1,6.643h-6.52l-1.555-6.5ZM81.525,98.5l1.326,5.547H68.1A37.021,37.021,0,0,1,81.525,98.5Zm-41.753,64.62v-.953h5.767V166.8H43.445a3.675,3.675,0,0,1-3.674-3.673Zm115.677-.953v.953a3.675,3.675,0,0,1-3.675,3.675h-2.093v-4.627Zm-1.355-27.428a8.843,8.843,0,0,1-4.412,10.9v-23.2ZM147.561,166.8h-99.9V106.169h99.9Zm-23.25-62.748-1.147-3.2,16.63-5.965,3.286,9.162Zm13.324-25.06a.9.9,0,0,1,.2,1.252l-2.5,3.436a2.89,2.89,0,0,1-4.039.636l-5.222-3.8.989-.6a3.58,3.58,0,0,0-3.422-6.282l1.774-2.436a.9.9,0,0,1,1.252-.2Zm-1.83-25.8a7.78,7.78,0,0,1-6.759,7.7c.028-.546.046-1.092.046-1.64V45.486a7.749,7.749,0,0,1,6.718,7.7Zm-8.834-9.333V59.245a29.843,29.843,0,0,1-1.57,9.562,2.977,2.977,0,0,0-1.6,1.02,4.77,4.77,0,0,0-5.112-1.356l-1.3-2.112a12.938,12.938,0,1,0-19.4-4.967v7.574a1.06,1.06,0,0,0,1.06,1.06c.015,0,.03,0,.045,0a2.218,2.218,0,1,1-.045,4.436,1.06,1.06,0,1,0,0,2.12,4.338,4.338,0,0,0,1.06-8.544V64.6a12.842,12.842,0,0,0,6.627,3.934,13.009,13.009,0,0,0,3.01.353,12.817,12.817,0,0,0,5.843-1.413l1.3,2.109a4.777,4.777,0,0,0-.719,5.905l1.088,1.767a4.567,4.567,0,0,0-2.14,3.175l-.509,3.126c-.01.006-.021.011-.03.018a29.829,29.829,0,0,1-17.738,5.812A30.171,30.171,0,0,1,66.7,59.246v-7.42h4.078a1.06,1.06,0,0,0,1.06-1.06v-3.4A15.586,15.586,0,0,0,82.213,34.545c4.259,3.013,16.648,10.094,36.081,7.491a16.867,16.867,0,0,0,8.629.124c.031.567.052,1.131.052,1.693Zm-60.276,0A30.171,30.171,0,0,1,96.833,13.716a29.673,29.673,0,0,1,13.243,3.09,1.06,1.06,0,0,0,1.293-.283,14.75,14.75,0,1,1,7.3,23.42,1.072,1.072,0,0,0-.444-.034c-23.049,3.171-36.112-8.1-36.243-8.215a1.06,1.06,0,0,0-1.767.784,13.372,13.372,0,0,1-9.7,13.09,1.06,1.06,0,0,0-.8,1.028V49.7H66.7V43.854Zm-2.12,1.632v13.76q0,.825.042,1.64a7.769,7.769,0,0,1-.042-15.4Z" transform="translate(-15.04 -8.918)"/>
      <path id="Path_152260" data-name="Path 152260" d="M120.689,109.059a4.517,4.517,0,0,1-1.33-3.213,1.06,1.06,0,1,0-2.12,0,6.665,6.665,0,0,0,11.374,4.711,1.06,1.06,0,1,0-1.5-1.5,4.55,4.55,0,0,1-6.425,0Z" transform="translate(-42.274 -37.037)"/>
      <path id="Path_152261" data-name="Path 152261" d="M117.1,72.879a1.06,1.06,0,0,0-.23-1.484,7.712,7.712,0,0,0-5.979-1.437,6.94,6.94,0,0,0-4.584,2.954,1.06,1.06,0,0,0,1.775,1.16,4.812,4.812,0,0,1,3.19-2.027,5.611,5.611,0,0,1,4.347,1.06A1.06,1.06,0,0,0,117.1,72.879Z" transform="translate(-39.015 -26.787)"/>
      <path id="Path_152262" data-name="Path 152262" d="M147.787,71.4a7.718,7.718,0,0,0-5.979-1.437,6.94,6.94,0,0,0-4.585,2.954A1.06,1.06,0,1,0,139,74.075a4.815,4.815,0,0,1,3.191-2.027,5.611,5.611,0,0,1,4.347,1.06,1.06,1.06,0,0,0,1.252-1.712Z" transform="translate(-48.084 -26.788)"/>
      <path id="Path_152268" data-name="Path 152268" d="M124.171,194.825a9.226,9.226,0,1,0-9.227-9.226,9.226,9.226,0,0,0,9.227,9.226Zm0-16.331a7.106,7.106,0,1,1-7.106,7.106A7.106,7.106,0,0,1,124.171,178.494Z" transform="translate(-41.601 -58.034)"/>
      <path id="Path_152269" data-name="Path 152269" d="M13.653,95.354a3.63,3.63,0,0,0,2.787-.2l.265-.132v23.387a1.06,1.06,0,0,0,1.06,1.06H50.159a1.06,1.06,0,0,0,1.06-1.06V95.023l.264.132a3.651,3.651,0,0,0,3.266-6.531L35.594,79.047a3.675,3.675,0,0,0-3.265,0L13.178,88.625a3.651,3.651,0,0,0,.478,6.729ZM49.1,93.963v23.387H18.826V93.963l15.137-7.571ZM14.124,90.521l19.151-9.578a1.542,1.542,0,0,1,1.37,0L53.8,90.521a1.53,1.53,0,0,1,.685,2.054,1.551,1.551,0,0,1-2.054.684l-17.994-9a1.06,1.06,0,0,0-.948,0l-18,9a1.531,1.531,0,0,1-1.369-2.738Z" transform="translate(-11.16 -29.375)"/>
      <path id="Path_152270" data-name="Path 152270" d="M197.068,127.6h7.448a1.06,1.06,0,0,0,1.06-1.06v-19.1a1.06,1.06,0,0,0-1.06-1.06h-7.448a1.06,1.06,0,0,0-1.06,1.06v19.1a1.06,1.06,0,0,0,1.06,1.06Zm1.06-19.1h5.328v16.982h-5.328Z" transform="translate(-65.377 -37.503)"/>
      <path id="Path_152271" data-name="Path 152271" d="M214.717,96.968a1.06,1.06,0,0,0-1.06,1.06v25.751a1.06,1.06,0,0,0,1.06,1.06h7.451a1.06,1.06,0,0,0,1.06-1.06V98.028a1.06,1.06,0,0,0-1.06-1.06Zm6.388,25.751h-5.328V99.088h5.331Z" transform="translate(-70.554 -34.744)"/>
      <path id="Path_152272" data-name="Path 152272" d="M231.306,88.621v32.4a1.06,1.06,0,0,0,1.06,1.06h7.449a1.06,1.06,0,0,0,1.06-1.06v-32.4a1.06,1.06,0,0,0-1.06-1.06h-7.449a1.06,1.06,0,0,0-1.06,1.06Zm2.12,1.06h5.328v30.28h-5.328Z" transform="translate(-75.731 -31.984)"/>
      <path id="Path_152273" data-name="Path 152273" d="M32.569,115.831a1.06,1.06,0,0,0,1.038.848H45.621a1.06,1.06,0,0,0,1.038-.848l2.12-10.262a1.06,1.06,0,0,0-1.038-1.272H42.684v-3.79a3.07,3.07,0,1,0-6.139,0v3.79H31.487a1.06,1.06,0,0,0-1.038,1.272Zm6.1-15.327a.95.95,0,0,1,1.9,0v6.228a.95.95,0,1,1-1.9,0Zm-2.12,5.91v.317a3.07,3.07,0,1,0,6.14,0v-.317h3.755l-1.682,8.142H34.47l-1.682-8.142Z" transform="translate(-16.811 -34.881)"/>
    </g>
  </g>
</svg>
