<svg id="t4-ico2" xmlns="http://www.w3.org/2000/svg" width="50" height="50" viewBox="0 0 50 50">
  <path id="Path_151208" data-name="Path 151208" d="M49.266,48.532H46.525V34.52h.882a1.714,1.714,0,0,0,1.712-1.712V30.979a1.714,1.714,0,0,0-1.712-1.712H44.263v-1.8A1.667,1.667,0,0,0,42.6,25.8H30.9a1.667,1.667,0,0,0-1.665,1.665v1.8H26.085l-1.1-12.234a.734.734,0,0,0-.558-.647V12.308a4.895,4.895,0,0,0,.462-.638,4.862,4.862,0,1,0,3.269-8.461h-.012a4.339,4.339,0,0,0-6.77-1.477A5.086,5.086,0,0,0,14.6,1.469,5.022,5.022,0,0,0,9,.435a.734.734,0,0,0,.6,1.34,3.524,3.524,0,0,1,1.449-.308,3.562,3.562,0,0,1,2.9,1.5.739.739,0,0,0,1.152.056,3.621,3.621,0,0,1,5.658.23.738.738,0,0,0,1.171.015A2.852,2.852,0,0,1,24.2,2.152a2.888,2.888,0,0,1,2.746,2.036c.151.558.746.544,1.208.489a3.394,3.394,0,1,1-2.849,5.237.739.739,0,0,0-1.32.193,3.406,3.406,0,0,1-.823,1.406.734.734,0,0,0-.207.511v4.341h-2.1V13.23a.734.734,0,0,0-.627-.726,3.41,3.41,0,0,1-2.254-1.374.739.739,0,0,0-1.248.095,3.235,3.235,0,0,1-4.256,1.455.734.734,0,0,0-1.046.664v3.021h-2.1V12.986a.739.739,0,0,0-1.01-.68,3.235,3.235,0,0,1-4.448-3,3.25,3.25,0,0,1,2.97-3.223A.824.824,0,0,0,7.5,5.021a3.519,3.519,0,0,1,.356-1.553.734.734,0,1,0-1.32-.642,4.96,4.96,0,0,0-.5,1.9,4.7,4.7,0,0,0,1.82,9.221v2.437a.733.733,0,0,0-.558.647L6.2,29.267h-3.6A1.714,1.714,0,0,0,.881,30.979v1.829A1.714,1.714,0,0,0,2.593,34.52h.882V48.532H.734A.734.734,0,0,0,.734,50H49.266a.734.734,0,1,0,0-1.468Zm-29.034-30.7H23.58l.214,2.372H20.018Zm-.346,3.84h4.041l.685,7.595H19.2Zm-6.038-7.217a4.681,4.681,0,0,0,3.622-1.7,4.9,4.9,0,0,0,1.918,1.068v2.566a.733.733,0,0,0-.558.647l-1.1,12.234H14.555l-1.1-12.234a.733.733,0,0,0-.558-.647V14.358A4.7,4.7,0,0,0,13.848,14.455ZM8.7,17.832H12.05l.214,2.372H8.488Zm-.346,3.84H12.4l.685,7.595H7.671ZM4.943,34.52H16.708a.734.734,0,0,0,0-1.468H2.593a.245.245,0,0,1-.245-.245V30.979a.245.245,0,0,1,.245-.245H36.609a.734.734,0,1,0,0-1.468H30.7v-1.8a.2.2,0,0,1,.2-.2H42.6a.2.2,0,0,1,.2.2v1.8H39.544a.734.734,0,1,0,0,1.468h7.862a.245.245,0,0,1,.245.245v1.829a.245.245,0,0,1-.245.245H19.644a.734.734,0,0,0,0,1.468H45.057V48.532H4.943Z" transform="translate(0 0)" fill="#ff8628"/>
  <path id="Path_151209" data-name="Path 151209" d="M103.829,387.216H102.21a1.714,1.714,0,0,0-1.712,1.712v2.906a1.714,1.714,0,0,0,1.712,1.712h1.619a1.714,1.714,0,0,0,1.712-1.712v-2.906A1.714,1.714,0,0,0,103.829,387.216Zm.245,4.618a.245.245,0,0,1-.245.245H102.21a.245.245,0,0,1-.245-.245v-2.906a.245.245,0,0,1,.245-.245h1.619a.245.245,0,0,1,.245.245Z" transform="translate(-90.684 -349.402)" fill="#ff8628"/>
  <path id="Path_151210" data-name="Path 151210" d="M190.282,387.216h-1.619a1.714,1.714,0,0,0-1.712,1.712v2.906a1.714,1.714,0,0,0,1.712,1.712h1.619a1.714,1.714,0,0,0,1.712-1.712v-2.906A1.714,1.714,0,0,0,190.282,387.216Zm.245,4.618a.245.245,0,0,1-.245.245h-1.619a.245.245,0,0,1-.245-.245v-2.906a.245.245,0,0,1,.245-.245h1.619a.245.245,0,0,1,.245.245Z" transform="translate(-168.694 -349.402)" fill="#ff8628"/>
  <path id="Path_151211" data-name="Path 151211" d="M276.734,387.216h-1.619a1.714,1.714,0,0,0-1.712,1.712v2.906a1.714,1.714,0,0,0,1.712,1.712h1.619a1.714,1.714,0,0,0,1.712-1.712v-2.906A1.714,1.714,0,0,0,276.734,387.216Zm.245,4.618a.245.245,0,0,1-.245.245h-1.619a.245.245,0,0,1-.245-.245v-2.906a.245.245,0,0,1,.245-.245h1.619a.245.245,0,0,1,.245.245Z" transform="translate(-246.703 -349.402)" fill="#ff8628"/>
  <path id="Path_151212" data-name="Path 151212" d="M363.187,387.216h-1.619a1.714,1.714,0,0,0-1.712,1.712v2.906a1.714,1.714,0,0,0,1.712,1.712h1.619a1.714,1.714,0,0,0,1.712-1.712v-2.906A1.714,1.714,0,0,0,363.187,387.216Zm.245,4.618a.245.245,0,0,1-.245.245h-1.619a.245.245,0,0,1-.245-.245v-2.906a.245.245,0,0,1,.245-.245h1.619a.245.245,0,0,1,.245.245Z" transform="translate(-324.714 -349.402)" fill="#ff8628"/>
  <path id="Path_151213" data-name="Path 151213" d="M313.431,118.046a4.295,4.295,0,0,0,4.749,4.271,3.731,3.731,0,0,0,6.661.018,3.732,3.732,0,0,0,.482-7.394,3.733,3.733,0,0,0-6.983-1.146,4.3,4.3,0,0,0-4.908,4.251Zm4.295-2.827a2.826,2.826,0,0,1,.836.126.734.734,0,0,0,.917-.482,2.264,2.264,0,0,1,4.424.677.741.741,0,0,0,.743.805,2.264,2.264,0,0,1-.009,4.527.816.816,0,0,0-.975.488,2.263,2.263,0,0,1-4.319-.079.735.735,0,0,0-.892-.5,2.827,2.827,0,1,1-.725-5.56Z" transform="translate(-282.823 -100.89)" fill="#ff8628"/>
</svg>
