<svg xmlns="http://www.w3.org/2000/svg" xmlns:xlink="http://www.w3.org/1999/xlink" width="190" height="100" viewBox="0 0 190 100">
  <defs>
    <clipPath id="clip-path">
      <rect id="Rectangle_37691" data-name="Rectangle 37691" width="190" height="100" fill="none"/>
    </clipPath>
  </defs>
  <g id="t4-ic1" transform="translate(-180 -2457)">
    <g id="t4-ic1-2" data-name="t4-ic1" transform="translate(180 2457)">
      <g id="Group_117637" data-name="Group 117637" clip-path="url(#clip-path)">
        <path id="Path_179611" data-name="Path 179611" d="M228.678,60.115c4.97-10.786,3.181-25.3-7.345-31.657-8.845-5.34-20.451-3.392-30.536-.592s-20.775,6.285-30.845,3.443c-13.32-3.759-20.6-17.052-31.941-24.618-14.265-9.524-35.055-8.653-49.1,1.164a44.8,44.8,0,0,0-18.1,43.712c2.8,16.227,14.666,30.574,30.157,38.221s34.2,8.806,51.042,4.321c9.72-2.589,18.868-6.952,28.742-8.967,11.085-2.261,24.481,3.36,34.423-.11,9.438-3.295,19.691-16.642,23.5-24.917" transform="translate(-41.328 0)" fill="#e6fffb"/>
        <path id="Path_179612" data-name="Path 179612" d="M143.342,119.453c-4.664,0-9.209-2.094-13.616-4.124-1.646-.758-3.2-1.474-4.718-2.06a75.24,75.24,0,0,0-18.852-4.491c-9.1-1.015-18.682-.68-27.948-.357-17.274.6-35.135,1.227-51.159-6.694A49.291,49.291,0,0,1,2.858,75.7,42.765,42.765,0,0,1,4.821,40.558a25.211,25.211,0,0,1,6.351-7.981c3.741-2.981,8.891-4.7,14.893-4.971,8.1-.365,15.893,2.021,21.372,6.541A50.619,50.619,0,0,1,53.309,40.2c1.117,1.288,2.272,2.62,3.481,3.842C66.825,54.189,82.673,58.4,97.166,54.77A92.043,92.043,0,0,0,109,50.619c1.105-.445,2.248-.906,3.378-1.346,12.519-4.876,22.667-6.759,31.934-5.922C156.3,44.432,166.757,50.658,171.6,59.6c6.579,12.152,3.609,26.373-8.828,42.267-1.124,1.436-2.209,3.113-3.358,4.888-3.664,5.661-7.816,12.078-14.847,12.649-.408.034-.815.049-1.222.049M92.132,106.625a128.349,128.349,0,0,1,14.185.689,76.741,76.741,0,0,1,19.227,4.582c1.566.6,3.141,1.33,4.809,2.1,4.615,2.127,9.385,4.323,14.089,3.943,6.3-.512,10.069-6.34,13.716-11.976,1.168-1.8,2.27-3.508,3.435-5,12.045-15.393,14.97-29.077,8.693-40.67-4.607-8.51-14.611-14.441-26.107-15.478-9.029-.816-18.959,1.037-31.255,5.826-1.122.437-2.261.9-3.362,1.339A93.164,93.164,0,0,1,97.531,56.2a44.694,44.694,0,0,1-10.852,1.328c-11.619,0-23.029-4.442-30.951-12.454-1.243-1.256-2.414-2.607-3.547-3.913a49.491,49.491,0,0,0-5.7-5.879c-5.2-4.288-12.614-6.542-20.353-6.2-3.963.179-9.614,1.13-14.028,4.647A23.777,23.777,0,0,0,6.133,41.25,41.287,41.287,0,0,0,4.248,75.175a47.8,47.8,0,0,0,23.465,25.235c15.685,7.753,33.354,7.137,50.442,6.539,4.612-.161,9.3-.325,13.978-.325" transform="translate(0 -19.453)" fill="#fefba6"/>
      </g>
    </g>
    <g id="guardar" transform="translate(233.001 2464.999)">
      <path id="Path_151059" data-name="Path 151059" d="M28.661,301.429H43.714l-.992-10.783A8.276,8.276,0,0,0,38.1,283.96l-7.768-3.774-6.905-7.3a2.017,2.017,0,0,0-2.506-.342,1.978,1.978,0,0,0-.689,2.624l2.211,3.435-1.16-.565a18.173,18.173,0,0,1-8.584-8.818l-1.623-3.572a1.868,1.868,0,0,0-3.5,1.272l1.708,6.146c.721,2.273,3.437,7.6,5.135,9.27,3.711,3.661,10.421,7.307,12.368,9.411,2.089,2.258,1.878,9.68,1.878,9.68Zm0,0" transform="translate(-6.259 -220.634)" fill="#fcd7c3"/>
      <path id="Path_151060" data-name="Path 151060" d="M105.427,329.329a8.276,8.276,0,0,0-4.625-6.686l-7.768-3.774-6.905-7.3a2.017,2.017,0,0,0-2.506-.342,1.978,1.978,0,0,0-.689,2.624l2.211,3.435,5.269,5.353s4.5,5.328,4.766,8.212l.851,9.257h10.388Zm0,0" transform="translate(-68.965 -259.317)" fill="#f9c7ac"/>
      <path id="Path_151061" data-name="Path 151061" d="M125.375,459.234h15.248a1.641,1.641,0,0,1,1.641,1.641v4.232a1.641,1.641,0,0,1-1.641,1.641H125.375a1.641,1.641,0,0,1-1.641-1.641v-4.232A1.641,1.641,0,0,1,125.375,459.234Zm0,0" transform="translate(-103.193 -382.993)" fill="#ff8628"/>
      <path id="Path_151062" data-name="Path 151062" d="M293.365,301.429H278.312l.992-10.783a8.276,8.276,0,0,1,4.625-6.686l7.768-3.774,6.905-7.3a2.017,2.017,0,0,1,2.506-.342,1.978,1.978,0,0,1,.689,2.624l-2.211,3.435,1.159-.565a18.173,18.173,0,0,0,8.584-8.818l1.623-3.572a1.868,1.868,0,0,1,3.5,1.272l-1.708,6.146c-.721,2.273-3.437,7.6-5.135,9.27-3.711,3.661-10.421,7.307-12.368,9.411-2.089,2.258-1.878,9.68-1.878,9.68Zm0,0" transform="translate(-232.109 -220.634)" fill="#fcd7c3"/>
      <path id="Path_151063" data-name="Path 151063" d="M336.126,264.832l-4.553,11.249c-4.654,6.316-21.777,13.795-23.723,15.9-2.089,2.258-1.879,9.68-1.879,9.68h10.456s-.211-7.421,1.879-9.68c1.947-2.1,8.656-5.751,12.368-9.411,1.7-1.674,4.414-7,5.135-9.27l1.707-6.146a1.868,1.868,0,0,0-1.39-2.322Zm0,0" transform="translate(-255.171 -220.865)" fill="#f9c7ac"/>
      <path id="Path_151064" data-name="Path 151064" d="M285.464,459.234H270.216a1.641,1.641,0,0,0-1.641,1.641v4.232a1.641,1.641,0,0,0,1.641,1.641h15.248a1.641,1.641,0,0,0,1.641-1.641v-4.232A1.641,1.641,0,0,0,285.464,459.234Zm0,0" transform="translate(-223.988 -382.993)" fill="#ff8628"/>
      <path id="Path_151065" data-name="Path 151065" d="M119.926,8.207A27.509,27.509,0,1,0,140.557,41.19,27.51,27.51,0,0,0,119.926,8.207Zm0,0" transform="translate(-71.919 -6.253)" fill="#00dbb6"/>
      <path id="Path_151066" data-name="Path 151066" d="M231.6,8.212a27.414,27.414,0,0,0-11.458-.2c.31.06.62.125.931.2a27.512,27.512,0,0,1-.892,53.809A27.508,27.508,0,0,0,231.6,8.212Zm0,0" transform="translate(-183.594 -6.258)" fill="#00b68f"/>
      <path id="Path_151067" data-name="Path 151067" d="M119.513,44.012c-3.175-.809-5.318-10.984-12.247-9.265-2.217.55-8.267-4.474-7.63-5.915,1.545-3.5-1.619-4.718.023-6.774.893-1.118,2-2.353,3.441-1.136s.91,3.749,2.2,3.994,2.168-2.748,2.942-4.44c2.786-6.091,10.642-4.116,13.2-6.548,1.944-1.85,2.737-4.089,2.423-5.734A27.507,27.507,0,0,0,91.055,28.461c2.46,4.057,8.191,7.455,10.037,8.717a1.389,1.389,0,0,1,.418,1.852c-1.053,1.788-2.5,5.375.726,8.038,4.467,3.687,4.464,5.4,2.648,9.209-.459.964-.8,1.772-1.066,2.458a27.428,27.428,0,0,0,6.407,2.739,18.015,18.015,0,0,1,6.4-5.436c2.669-1.183,7.974-.835,9.277-6.49.619-2.687-3.211-4.726-6.386-5.536Zm0,0" transform="translate(-75.939 -6.258)" fill="#feac66"/>
      <path id="Path_151068" data-name="Path 151068" d="M221.081,8.215a27.434,27.434,0,0,1,9.375,4.106A5.806,5.806,0,0,0,231.528,8.2a27.4,27.4,0,0,0-11.376-.178c.309.06.619.124.929.2Zm0,0" transform="translate(-183.604 -6.261)" fill="#ff8628"/>
      <path id="Path_151069" data-name="Path 151069" d="M340.392,59.932a27.521,27.521,0,0,0-12.97-29.959c-1.71,4.337,3.536,6.121,2.98,7.549a3,3,0,0,0,.156,2.009,2.47,2.47,0,0,1-.747,2.769c-1.411,1.145-3.325,3.01-3.7,4.951-.913,4.765.717,6.761,2.484,8.22,2.738,2.26,4.811,1.468,5.927,3.128,2.417,3.595-8.787,13.114-5.016,17.587a27.4,27.4,0,0,0,10.883-16.255Zm0,0" transform="translate(-271.756 -24.996)" fill="#feac66"/>
      <path id="Path_151070" data-name="Path 151070" d="M346.55,59.932a27.521,27.521,0,0,0-12.97-29.959c-1.71,4.337,3.536,6.121,2.98,7.549a3,3,0,0,0,.156,2.009,2.47,2.47,0,0,1-.747,2.769c-.395.32-.829.7-1.259,1.119a27.358,27.358,0,0,1,1.866,13.212c1.841.862,3.254.7,4.107,1.968,2.417,3.595-8.787,13.114-5.016,17.588A27.4,27.4,0,0,0,346.55,59.932Zm0,0" transform="translate(-277.914 -24.996)" fill="#ff8628"/>
      <path id="Path_151071" data-name="Path 151071" d="M124.264,52.1a28.768,28.768,0,0,0-2.226-48.15,1.169,1.169,0,0,0-.176-.1,28.792,28.792,0,0,0-33.62,3.539,1.245,1.245,0,1,0,1.665,1.851A26.321,26.321,0,0,1,112.395,2.95,6.571,6.571,0,0,1,110.3,6.758c-2.028,1.929-10.425.265-13.475,6.933A34.59,34.59,0,0,1,95.286,17.1a6.14,6.14,0,0,0-1.663-3.4,2.972,2.972,0,0,0-2.246-.785A4.751,4.751,0,0,0,88.4,15.013a3.54,3.54,0,0,0-.285,3.951,3.425,3.425,0,0,1,.1,3.1c-.572,1.3.616,2.709,1.006,3.173,1.6,1.9,5.617,5.061,8.064,4.455,5.973-1.485,7.665,8.25,11.641,9.264,2.978.759,5.842,2.482,5.481,4.051-1.113,4.83-5.7,4.358-8.569,5.632a19.528,19.528,0,0,0-6.372,5.13A26.25,26.25,0,0,1,95.1,51.928q.282-.658.624-1.379c2.081-4.368,1.944-6.643-2.979-10.706C90.388,37.9,91.2,35.263,92.3,33.4a2.641,2.641,0,0,0-.789-3.512c-1.776-1.215-6.975-4.327-9.4-7.91a26,26,0,0,1,4.523-9.205,1.245,1.245,0,1,0-1.975-1.517,28.754,28.754,0,0,0,39.322,41.04,1.146,1.146,0,0,0,.281-.2Zm-.361-2.849c-.213-1.923,1.53-4.807,3.1-7.41,2.062-3.411,4.008-6.633,2.46-8.936-1.468-2.182-3.634-1.3-6.169-3.394-1.486-1.226-2.868-2.779-2.054-7.026.23-1.2,1.388-2.7,3.259-4.22a3.724,3.724,0,0,0,1.134-4.159,1.959,1.959,0,0,1-.167-1.134c.894-2.294-2.891-3.528-3.219-5.96A26.275,26.275,0,0,1,123.9,49.246ZM81.468,25.165c2.839,3.143,6.737,5.474,8.641,6.776a.143.143,0,0,1,.048.191c-2.217,3.763-1.85,7.274,1.006,9.632,4.724,3.9,3.6,4.738,1.784,8.878A26.285,26.285,0,0,1,81.468,25.165Zm20.678,29.305a17.064,17.064,0,0,1,4.7-3.557c2.373-1.051,8.505-.916,9.987-7.35.776-3.369-3.1-5.955-7.292-7.023-2.283-.582-5.075-11.2-12.857-9.268a4.567,4.567,0,0,1-2.368-.951,11.45,11.45,0,0,1-3.733-3.469,5.868,5.868,0,0,0-.149-4.8c-.381-.963-.388-1.1-.086-1.481.224-.281.907-1.135,1.269-1.171a.686.686,0,0,1,.395.208c1.027.869.5,3.836,2.771,4.267,2.425.46,3.39-3.141,4.307-5.146,2.482-5.426,9.91-3.294,12.927-6.165a8.979,8.979,0,0,0,2.811-5.029,26.326,26.326,0,0,1,5.02,2.032c-.761,3.626,2.385,5.709,3.2,6.782a4.339,4.339,0,0,0,.238,2.6,1.232,1.232,0,0,1-.36,1.379c-1.646,1.335-3.7,3.4-4.136,5.685-1.021,5.333.9,7.752,2.915,9.416,4.682,3.864,8.691-.029,3.162,9.12-2.074,3.432-4.39,7.266-3.138,10.257a26.188,26.188,0,0,1-19.589,3.666Zm0,0" transform="translate(-65.655 0)"/>
      <path id="Path_151072" data-name="Path 151072" d="M19.755,286.5a1.245,1.245,0,1,0,2.019-1.458c-1.635-2.265-8.877-6.05-12.742-9.862-1.5-1.479-4.127-6.587-4.816-8.74l-1.7-6.124a.624.624,0,0,1,1.192-.368c1.982,4.227,2.152,5.089,3.147,6.37a25.116,25.116,0,0,0,8.588,7.037l5.3,5.332a1.245,1.245,0,0,0,1.766-1.756l-5.351-5.381-2.11-3.278a.734.734,0,0,1,1.214-.8c7.239,7.611,6.893,7.381,7.266,7.563L31.3,278.8c4.241,2.06,3.938,6.552,4.039,6.872a1.245,1.245,0,0,0,2.481-.228l-.11-1.192a9.576,9.576,0,0,0-5.322-7.693l-7.565-3.675-6.759-7.143A3.271,3.271,0,0,0,14,265.214a3.231,3.231,0,0,0-1.457,3.345,22.545,22.545,0,0,1-3.724-3.772c-.715-.921-.737-1.34-2.846-5.873a3.166,3.166,0,0,0-3.538-1.807,3.115,3.115,0,0,0-2.322,3.872c2.292,8.249,1.564,5.693,1.72,6.19.785,2.475,3.6,7.956,5.448,9.781a57.692,57.692,0,0,0,7.679,5.883c1.083.739,4.157,2.783,4.794,3.665Zm0,0" transform="translate(0 -214.361)"/>
      <path id="Path_151073" data-name="Path 151073" d="M311.845,257.176a3.108,3.108,0,0,0-3.829,1.662c-2.131,4.582-2.154,5.006-2.872,5.93a22.524,22.524,0,0,1-3.724,3.773,3.231,3.231,0,0,0-1.457-3.345,3.275,3.275,0,0,0-4.071.541l-6.75,7.133-7.565,3.675c-5.645,2.742-5.322,8.588-5.436,8.936a1.245,1.245,0,0,0,2.48.228c.1-.318-.2-4.861,4.045-6.924,8.131-3.98,7.836-3.728,8.13-4.038l6.9-7.289a.734.734,0,0,1,1.222.791l-2.109,3.278-5.351,5.381a1.247,1.247,0,0,0,.883,2.123c.945,0,.984-.646,6.185-5.7,4.84-2.414,8.551-6.4,9.6-8.716l2.158-4.747a.624.624,0,0,1,1.15.482l-1.685,6.065c-.689,2.154-3.317,7.262-4.816,8.74-3.856,3.8-11.085,7.582-12.732,9.847a1.245,1.245,0,1,0,2.014,1.466c1.253-1.72,8.508-5.635,12.467-9.539,1.85-1.825,4.663-7.306,5.448-9.781.157-.5-.486,1.752,1.7-6.132a3.144,3.144,0,0,0-1.989-3.842Zm0,0" transform="translate(-230.294 -214.343)"/>
      <path id="Path_151074" data-name="Path 151074" d="M134.383,451.727h-15.25a2.89,2.89,0,0,0-2.887,2.887v4.233a2.89,2.89,0,0,0,2.887,2.886h15.25a2.89,2.89,0,0,0,2.886-2.886v-4.233A2.89,2.89,0,0,0,134.383,451.727Zm.4,7.12a.4.4,0,0,1-.4.4h-15.25a.4.4,0,0,1-.4-.4v-4.233a.4.4,0,0,1,.4-.4h15.25a.4.4,0,0,1,.4.4Zm0,0" transform="translate(-96.948 -376.732)"/>
      <path id="Path_151075" data-name="Path 151075" d="M279.246,451.727H264a2.89,2.89,0,0,0-2.886,2.887v4.233A2.89,2.89,0,0,0,264,461.733h15.251a2.89,2.89,0,0,0,2.886-2.886v-4.233A2.89,2.89,0,0,0,279.246,451.727Zm.4,7.12a.4.4,0,0,1-.4.4H264a.4.4,0,0,1-.4-.4v-4.233a.4.4,0,0,1,.4-.4h15.251a.4.4,0,0,1,.4.4Zm0,0" transform="translate(-217.761 -376.732)"/>
    </g>
  </g>
</svg>
