<svg id="t4-ico3" xmlns="http://www.w3.org/2000/svg" width="50.004" height="50" viewBox="0 0 50.004 50">
  <path id="Path_151137" data-name="Path 151137" d="M.815,436.354a12.3,12.3,0,0,1,5.981,2.3l2.356,1.758c3.761,2.807,9.988,2.284,13.881-1.166a12.3,12.3,0,0,1,8.2-2.948,12.131,12.131,0,0,1,8.851,3.567.733.733,0,0,1-1.065,1.006,10.665,10.665,0,0,0-7.785-3.108A10.836,10.836,0,0,0,24,440.347a13.864,13.864,0,0,1-7.685,3.28q-.673.067-1.332.066a11.157,11.157,0,0,1-6.713-2.1L5.92,439.833A10.837,10.837,0,0,0,.65,437.81a.733.733,0,0,1,.165-1.456Z" transform="translate(9.718 -393.693)" fill="#ff8628"/>
  <path id="Path_151138" data-name="Path 151138" d="M439.419,437.5a.733.733,0,0,1,.224,1.448,10.33,10.33,0,0,0-5.883,2.914.732.732,0,1,1-1.056-1.015,11.8,11.8,0,0,1,6.716-3.347Z" transform="translate(-432.499 -394.766)" fill="#ff8628"/>
  <path id="Path_151139" data-name="Path 151139" d="M16.509,39.711l.6.439a7.178,7.178,0,0,1,.36-.767,3.573,3.573,0,0,0,.5-2.027l-2.331-1.739c-4.249-3.171-10.832-2.734-14.377.956A.732.732,0,0,1,.2,35.557c4.03-4.195,11.5-4.705,16.309-1.115l.642.479a4.825,4.825,0,0,1-.357-1.939,4.912,4.912,0,0,1,.669-2.585,3.48,3.48,0,0,0,.5-1.907,4.507,4.507,0,0,0-.035-.587,2.688,2.688,0,0,1-2.651-2.685V22.875a2.69,2.69,0,0,1,2.1-2.621s0-3.85,0-3.936a.732.732,0,1,1,1.465.026c0,.077,0,3.845,0,3.845H31.057V17.553a1.711,1.711,0,0,1,1.709-1.709h9.522V9.1a.732.732,0,1,1,1.465,0v7.667a1.222,1.222,0,0,0,1.221,1.221h2.344a1.222,1.222,0,0,0,1.221-1.221V2.708a1.222,1.222,0,0,0-1.221-1.221H44.974a1.222,1.222,0,0,0-1.221,1.221V5.687a.732.732,0,1,1-1.465,0V3.636H40.823V6.321A1.222,1.222,0,0,1,39.6,7.542H32.962a1.222,1.222,0,0,1-1.221-1.221V3.636a12.975,12.975,0,0,0-12.422,9.473.733.733,0,1,1-1.412-.392A14.444,14.444,0,0,1,31.79,2.171H42.342A2.69,2.69,0,0,1,44.974.022h2.344A2.689,2.689,0,0,1,50,2.708V16.771a2.689,2.689,0,0,1-2.686,2.686H44.974a2.69,2.69,0,0,1-2.632-2.149H32.766a.244.244,0,0,0-.244.244v2.682a2.69,2.69,0,0,1,2.2,2.64v2.344A2.69,2.69,0,0,1,33.058,27.7a5.954,5.954,0,0,1,.05.789,4.912,4.912,0,0,1-.669,2.585,3.48,3.48,0,0,0-.5,1.907,3.936,3.936,0,0,0,.649,2.194c.055-.047.111-.094.165-.142,4.692-4.16,12.82-3.865,17.054.619a.733.733,0,0,1-1.065,1.006c-3.723-3.943-10.881-4.2-15.017-.528-.212.188-.435.371-.665.547a5.945,5.945,0,0,1,.051.8,5.767,5.767,0,0,1-.653,2.7c-.084.182-.166.359-.238.545.228-.163.409-.3.534-.414,4.692-4.16,12.821-3.864,17.054.62a.733.733,0,0,1-1.065,1.006c-3.723-3.944-10.881-4.2-15.017-.529a12.119,12.119,0,0,1-1.266.929,1.229,1.229,0,0,1-1.868-1.272,6.653,6.653,0,0,1,.536-1.5,4.344,4.344,0,0,0,.519-2.086,3.481,3.481,0,0,0-.5-1.908,5.328,5.328,0,0,1,0-5.17,3.48,3.48,0,0,0,.5-1.907,4.512,4.512,0,0,0-.035-.586h-2.8a.732.732,0,1,1,0-1.465s3.347-.016,3.4-.015a1.222,1.222,0,0,0,1.042-1.206V22.876a1.222,1.222,0,0,0-1.221-1.221H17.97a1.222,1.222,0,0,0-1.221,1.221v2.344A1.222,1.222,0,0,0,17.97,26.44h7.422a.732.732,0,1,1,0,1.465H19.408c.018.187.027.382.027.586a4.912,4.912,0,0,1-.669,2.585,3.869,3.869,0,0,0,0,3.815,5.162,5.162,0,0,1,.669,2.585,4.912,4.912,0,0,1-.669,2.585,4.516,4.516,0,0,0-.365.832c-.636,1.5-1.869.765-2.763,0-4.249-3.171-10.833-2.733-14.377.957A.732.732,0,0,1,.2,40.831c4.03-4.2,11.5-4.707,16.3-1.119ZM39.359,6.077V3.636H33.206V6.077Z" transform="translate(0 -0.022)" fill="#ff8628"/>
</svg>
