<svg xmlns="http://www.w3.org/2000/svg" width="80" height="84.929" viewBox="0 0 80 84.929">
  <g id="t4-p8" transform="translate(-14.856)">
    <g id="Group_96848" data-name="Group 96848" transform="translate(16.108 1.244)">
      <path id="Path_151463" data-name="Path 151463" d="M94.971,74.742V38.716a2.293,2.293,0,0,0-2.293-2.293H89.2l-2.739,1.625h-56.4l-1.894-1.625H24.7a2.293,2.293,0,0,0-2.293,2.293V76.131a6.5,6.5,0,0,0,6.5,6.5H49.952a4.124,4.124,0,0,1,3.637,2.189,5.777,5.777,0,0,0,10.2,0,4.124,4.124,0,0,1,3.637-2.189h2.556l8.161,3.013,17.694-6.715V76.175Z" transform="translate(-22.406 -31.625)" fill="#ff8628"/>
      <g id="Group_96845" data-name="Group 96845" transform="translate(0 4.798)" style="mix-blend-mode: multiply;isolation: isolate">
        <path id="Path_151464" data-name="Path 151464" d="M29.87,76.131V38.716a2.285,2.285,0,0,1,.122-.733l-1.819-1.561H24.7a2.293,2.293,0,0,0-2.293,2.293V76.131a6.5,6.5,0,0,0,6.5,6.5h7.464A6.5,6.5,0,0,1,29.87,76.131Z" transform="translate(-22.406 -36.423)" fill="#ff8628"/>
      </g>
      <path id="Path_151465" data-name="Path 151465" d="M150.538,7.5H124.522l-.422.281h-1.762l-.3-.281H103.1a3.256,3.256,0,0,0-3.256,3.256v39.7a2.293,2.293,0,0,0,2.293,2.293h19.9l.334-.273h1.845l.308.273h18.21l1.079.435,9.261-1.355.557-.526a2.284,2.284,0,0,0,.164-.848v-39.7A3.256,3.256,0,0,0,150.538,7.5Z" transform="translate(-86.996 -7.5)" fill="#dbedff"/>
      <g id="Group_96846" data-name="Group 96846" transform="translate(5.767 0)">
        <path id="Path_151466" data-name="Path 151466" d="M64.637,50.456v-39.7A3.256,3.256,0,0,1,67.893,7.5H60.429a3.256,3.256,0,0,0-3.256,3.256v39.7a2.293,2.293,0,0,0,2.293,2.293h7.464A2.293,2.293,0,0,1,64.637,50.456Z" transform="translate(-57.173 -7.501)" fill="#b5dcff"/>
      </g>
      <path id="Path_151467" data-name="Path 151467" d="M333.057,195.495A2.721,2.721,0,0,0,330.5,197.2a.211.211,0,0,1-.4,0,2.719,2.719,0,0,0-5.048,0,.214.214,0,0,1-.2.138h0a.214.214,0,0,1-.2-.138,2.72,2.72,0,0,0-2.524-1.708,2.493,2.493,0,0,0-2.365,1.725.184.184,0,0,1-.356-.063V185.3a2.722,2.722,0,0,0-2.815-2.72,2.769,2.769,0,0,0-2.629,2.792v18.25a.676.676,0,0,1-1.141.491l-2.95-2.792a2.928,2.928,0,0,0-4.239.226,2.173,2.173,0,0,0,0,2.8l1.238,1.481a9.276,9.276,0,0,1,1.651,2.887,12.512,12.512,0,0,0,3.641,5.376,5.075,5.075,0,0,1,1.8,3.866v2.858l.464.93h18.827l.67-.756v-4.045a10.929,10.929,0,0,1,.861-4.335,11.641,11.641,0,0,0,.954-4.615v-9.7A2.775,2.775,0,0,0,333.057,195.495Z" transform="translate(-258.233 -153.537)" fill="#ffdecf"/>
      <g id="Group_96847" data-name="Group 96847" transform="translate(46.897 29.041)">
        <path id="Path_151468" data-name="Path 151468" d="M354.468,204.4a2.226,2.226,0,0,0,3.757-1.617V185.371a2.829,2.829,0,0,1,1.134-2.266,2.708,2.708,0,0,0-1.7-.526,2.769,2.769,0,0,0-2.629,2.792v18.25a.675.675,0,0,1-.674.677Z" transform="translate(-346.192 -182.578)" fill="#ffcebe"/>
        <path id="Path_151469" data-name="Path 151469" d="M317.161,308.186a5.076,5.076,0,0,0-1.8-3.866,12.511,12.511,0,0,1-3.641-5.377,9.274,9.274,0,0,0-1.651-2.886l-1.149-1.374a2.349,2.349,0,0,1-.32-2.553c.311-.619.727-.772,1.19-.651a2.925,2.925,0,0,0-4.154.3,2.173,2.173,0,0,0,0,2.8l1.238,1.481a9.275,9.275,0,0,1,1.651,2.887,12.512,12.512,0,0,0,3.641,5.376,5.075,5.075,0,0,1,1.8,3.866v2.858l.464.93h3.193l-.464-.93Z" transform="translate(-305.128 -272.808)" fill="#ffcebe"/>
      </g>
      <path id="Path_151470" data-name="Path 151470" d="M411.2,446.572H398.782l-.884.652v6.764a2.306,2.306,0,0,0,1.614,2.192H410.03a2.255,2.255,0,0,0,2.248-2.248v-6.62Z" transform="translate(-335.613 -373.741)" fill="#00dbb6"/>
      <path id="Path_151471" data-name="Path 151471" d="M358.656,453.933v-6.62l1-.741H351.8l-1,.741v6.62a2.254,2.254,0,0,0,2.248,2.248H360.9A2.254,2.254,0,0,1,358.656,453.933Z" transform="translate(-296.322 -373.741)" fill="#00b68f"/>
      <path id="Path_151472" data-name="Path 151472" d="M410.054,411.7H399.691a2.3,2.3,0,0,0-1.764,2.228v4.3H412.3v-4.277A2.254,2.254,0,0,0,410.054,411.7Z" transform="translate(-335.637 -344.654)" fill="#dbedff"/>
      <path id="Path_151473" data-name="Path 151473" d="M360.9,411.7h-7.863a2.255,2.255,0,0,0-2.248,2.248v4.277h7.863v-4.277A2.254,2.254,0,0,1,360.9,411.7Z" transform="translate(-296.322 -344.654)" fill="#b5dcff"/>
    </g>
    <g id="Group_96849" data-name="Group 96849" transform="translate(14.856 0)">
      <path id="Path_151474" data-name="Path 151474" d="M79.642,0H25.123a4.505,4.505,0,0,0-4.5,4.5v.3h-2.23a3.541,3.541,0,0,0-3.537,3.537V45.749A7.756,7.756,0,0,0,22.6,53.5h5.8a1.244,1.244,0,0,0,0-2.488H22.6a5.265,5.265,0,0,1-5.259-5.259V8.335a1.051,1.051,0,0,1,1.049-1.049h2.23V44.2a3.541,3.541,0,0,0,3.537,3.537H63.344a3.506,3.506,0,0,0-1.575,3.273h-.649a5.359,5.359,0,0,0-4.735,2.848,4.532,4.532,0,0,1-8,0,5.359,5.359,0,0,0-4.735-2.848H34.208a1.244,1.244,0,1,0,0,2.488h9.439a2.876,2.876,0,0,1,2.54,1.53,7.02,7.02,0,0,0,12.393,0,2.876,2.876,0,0,1,2.54-1.53h1.975l.7.835a8.007,8.007,0,0,1,1.431,2.5,13.69,13.69,0,0,0,4.01,5.915,3.826,3.826,0,0,1,1.359,2.918v2.188a3.486,3.486,0,0,0-1.265,2.687v10.9a3.5,3.5,0,0,0,3.492,3.492h17.7a3.5,3.5,0,0,0,3.492-3.492v-10.9a3.477,3.477,0,0,0-.968-2.406V64.65a9.633,9.633,0,0,1,.759-3.842A12.812,12.812,0,0,0,94.856,55.7v-1.51a1.244,1.244,0,0,0-2.488,0V55.7a10.338,10.338,0,0,1-.852,4.122,12.1,12.1,0,0,0-.963,4.829v2.4H73.081V65.663a6.31,6.31,0,0,0-2.236-4.814,11.2,11.2,0,0,1-3.272-4.839A10.485,10.485,0,0,0,65.7,52.736l-1.238-1.48a.935.935,0,0,1-.01-1.194,1.682,1.682,0,0,1,2.437-.13l2.95,2.792a1.922,1.922,0,0,0,3.24-1.395V33.079a1.527,1.527,0,0,1,1.426-1.548,1.477,1.477,0,0,1,1.53,1.477V44.864a1.428,1.428,0,0,0,2.762.508,1.275,1.275,0,0,1,1.2-.925,1.471,1.471,0,0,1,1.369.927,1.457,1.457,0,0,0,2.611.192,1.585,1.585,0,0,1,1.463-1.119,1.471,1.471,0,0,1,1.369.927,1.455,1.455,0,0,0,2.7,0,1.837,1.837,0,0,1,.138-.258,1.48,1.48,0,0,1,2.71.888v2.38a1.244,1.244,0,1,0,2.488,0V46a3.993,3.993,0,0,0-4.947-3.92V8.335A3.541,3.541,0,0,0,86.372,4.8h-2.23V4.5a4.505,4.505,0,0,0-4.5-4.5ZM71.816,70.539a1.006,1.006,0,0,1,1-1h17.7a1.008,1.008,0,0,1,1,1v3.033H71.816Zm0,5.521H91.521v5.376a1,1,0,0,1-1,1h-17.7a1,1,0,0,1-1-1ZM51.139,45.248H24.16A1.05,1.05,0,0,1,23.111,44.2V4.5a2.014,2.014,0,0,1,2.012-2.012H51.139Zm19.454,4.761L68.6,48.124a4.768,4.768,0,0,0-.474-.388h2.466Zm11.062-7.693a3.921,3.921,0,0,0-3.13-.061V33.007a3.95,3.95,0,0,0-7.552-1.637H60.012a1.244,1.244,0,0,0,0,2.488H70.593V37.2H60.012a1.244,1.244,0,0,0,0,2.488H70.593v5.56H53.627V2.488H79.642A2.014,2.014,0,0,1,81.654,4.5Zm4.718-35.03a1.051,1.051,0,0,1,1.049,1.049V42.482a4.024,4.024,0,0,0-3.279-.305V7.286Z" transform="translate(-14.856 0)"/>
      <path id="Path_151475" data-name="Path 151475" d="M96.859,51.005h15.258a1.244,1.244,0,1,0,0-2.488H96.859a1.244,1.244,0,1,0,0,2.488Z" transform="translate(-82.219 -40.469)"/>
      <path id="Path_151476" data-name="Path 151476" d="M96.859,86.155h15.258a1.244,1.244,0,1,0,0-2.488H96.859a1.244,1.244,0,1,0,0,2.488Z" transform="translate(-82.219 -69.789)"/>
      <path id="Path_151477" data-name="Path 151477" d="M96.859,121.3h15.258a1.244,1.244,0,1,0,0-2.488H96.859a1.244,1.244,0,1,0,0,2.488Z" transform="translate(-82.219 -99.107)"/>
      <path id="Path_151478" data-name="Path 151478" d="M96.859,156.454h15.258a1.244,1.244,0,1,0,0-2.488H96.859a1.244,1.244,0,1,0,0,2.488Z" transform="translate(-82.219 -128.427)"/>
      <path id="Path_151479" data-name="Path 151479" d="M96.859,191.6h15.258a1.244,1.244,0,0,0,0-2.488H96.859a1.244,1.244,0,0,0,0,2.488Z" transform="translate(-82.219 -157.746)"/>
      <path id="Path_151480" data-name="Path 151480" d="M96.859,226.754h15.258a1.244,1.244,0,1,0,0-2.488H96.859a1.244,1.244,0,1,0,0,2.488Z" transform="translate(-82.219 -187.066)"/>
      <path id="Path_151481" data-name="Path 151481" d="M296.084,48.517H280.826a1.244,1.244,0,1,0,0,2.488h15.258a1.244,1.244,0,0,0,0-2.488Z" transform="translate(-235.67 -40.469)"/>
      <path id="Path_151482" data-name="Path 151482" d="M296.084,83.667H280.826a1.244,1.244,0,1,0,0,2.488h15.258a1.244,1.244,0,0,0,0-2.488Z" transform="translate(-235.67 -69.789)"/>
      <path id="Path_151483" data-name="Path 151483" d="M296.084,118.816H280.826a1.244,1.244,0,1,0,0,2.488h15.258a1.244,1.244,0,0,0,0-2.488Z" transform="translate(-235.67 -99.107)"/>
      <path id="Path_151484" data-name="Path 151484" d="M296.084,153.966H280.826a1.244,1.244,0,1,0,0,2.488h15.258a1.244,1.244,0,0,0,0-2.488Z" transform="translate(-235.67 -128.427)"/>
    </g>
  </g>
</svg>
