<svg id="t4-p7" xmlns="http://www.w3.org/2000/svg" width="80" height="80.002" viewBox="0 0 80 80.002">
  <path id="Path_152024" data-name="Path 152024" d="M86.875,371.551H78.438v5.393a14.99,14.99,0,1,1-29.98,0v-5.393H10v20.383H86.875Zm0,0" transform="translate(-8.437 -313.495)" fill="#ff8628"/>
  <path id="Path_152025" data-name="Path 152025" d="M272.1,255.418l-4.965,4.965h-7.022a7.022,7.022,0,1,0,11.988-4.965Zm0,0" transform="translate(-219.47 -215.508)" fill="#fcf300"/>
  <path id="Path_152026" data-name="Path 152026" d="M99.285,26.79l27.878-16.1a5.081,5.081,0,0,1,5.081,8.8L105.856,34.73" transform="translate(-83.772 -8.448)" fill="#fcf300"/>
  <path id="Path_152027" data-name="Path 152027" d="M41.413,125.4v-4.663a4.649,4.649,0,0,0-1.362-3.288L20.724,98.124a4.653,4.653,0,0,0-3.289-1.362H14.654A4.651,4.651,0,0,0,10,101.412V125.4a4.651,4.651,0,0,0,4.651,4.651H36.762a4.651,4.651,0,0,0,4.651-4.652Zm0,0" transform="translate(-8.44 -81.642)" fill="#fcf300"/>
  <path id="Path_152028" data-name="Path 152028" d="M84.036,120.864a4.648,4.648,0,0,0-1.362-3.288L63.347,98.249A4.656,4.656,0,0,0,60.52,96.91v22.133a3.1,3.1,0,0,0,3.1,3.1H84.036Zm0,0" transform="translate(-51.063 -81.767)" fill="#bde4ff"/>
  <path id="Path_152029" data-name="Path 152029" d="M293.838,41.66V70.272a3.023,3.023,0,0,1-6.046,0V48.914" transform="translate(-242.824 -35.151)" fill="#fcf300"/>
  <path id="Path_152030" data-name="Path 152030" d="M321.22,424.234l5.668.22a4.6,4.6,0,0,1,3.073,7.844l-2.74,2.74a4.6,4.6,0,0,1-7.844-3.073l-.22-5.668Zm0,0" transform="translate(-269.287 -357.946)" fill="#009e83"/>
  <path id="Path_152031" data-name="Path 152031" d="M289.656,399.576l4.3,2.127,2.679-2.679-2.123-4.3Zm0,0" transform="translate(-244.396 -333.043)" fill="#009e83"/>
  <path id="Path_152032" data-name="Path 152032" d="M409.176,310.438l-2.593,5.245,3.267,3.267,5.249-2.589Zm0,0" transform="translate(-343.052 -261.931)" fill="#009e83"/>
  <path id="Path_152033" data-name="Path 152033" d="M358.032,349.919l-.22,5.668a4.6,4.6,0,0,1-7.844,3.072l-2.74-2.74a4.6,4.6,0,0,1,3.072-7.844l5.668-.22Zm0,0" transform="translate(-291.835 -293.501)" fill="#009e83"/>
  <path id="Path_152034" data-name="Path 152034" d="M52.082,129.883a1.563,1.563,0,1,0-1.1-.458A1.575,1.575,0,0,0,52.082,129.883Zm0,0" transform="translate(-42.626 -106.952)"/>
  <path id="Path_152035" data-name="Path 152035" d="M318.047,135.68a1.563,1.563,0,1,0,1.1.458A1.566,1.566,0,0,0,318.047,135.68Zm0,0" transform="translate(-267.032 -114.479)"/>
  <path id="Path_152036" data-name="Path 152036" d="M44.608,414.691a1.563,1.563,0,0,0-2.21,0l-.69.69a1.562,1.562,0,1,0,2.21,2.21l.69-.69A1.563,1.563,0,0,0,44.608,414.691Zm0,0" transform="translate(-34.805 -349.508)"/>
  <path id="Path_152037" data-name="Path 152037" d="M146.445,413.805a1.562,1.562,0,1,0-2.21,2.209l.712.712a1.563,1.563,0,0,0,2.21-2.21Zm0,0" transform="translate(-121.312 -348.76)"/>
  <path id="Path_152038" data-name="Path 152038" d="M64.709,471.547l-.417.417a1.563,1.563,0,0,0,2.21,2.21l.416-.416a1.563,1.563,0,1,0-2.21-2.21Zm0,0" transform="translate(-53.861 -397.48)"/>
  <path id="Path_152039" data-name="Path 152039" d="M196.643,469.235a1.563,1.563,0,1,0-2.21,2.21l.723.723a1.563,1.563,0,0,0,2.21-2.21Zm0,0" transform="translate(-163.666 -395.529)"/>
  <path id="Path_152040" data-name="Path 152040" d="M78.437,56.493H71.395l1.342-.662a1.562,1.562,0,0,0,.414-2.506L67.228,47.4a1.563,1.563,0,0,0-2.506.413l-2.5,5.05-3.823.148a6.16,6.16,0,0,0-4.116,10.511l1.344,1.344-2.241-.087-1.872-3.8a1.563,1.563,0,0,0-2.506-.414l-4.857,4.857a1.563,1.563,0,0,0,.413,2.506l3.795,1.876.166,4.271A6.17,6.17,0,0,0,48.7,75.3a13.439,13.439,0,0,1-7.115-11.847V58.055a1.563,1.563,0,0,0-1.563-1.563H33.638a6.37,6.37,0,0,0-1.253-8.033c.114-.1.225-.2.331-.306a6.173,6.173,0,0,0,1.819-4.394V39.1a6.174,6.174,0,0,0-1.82-4.393l-8.087-8.086L43.407,15.775V35.122a4.583,4.583,0,0,0,6.414,4.2l.6.59-3.4,3.4H40.644a1.563,1.563,0,0,0-1.563,1.563,8.584,8.584,0,1,0,14.654-6.07l0,0,0,0L52.09,37.175a4.56,4.56,0,0,0,.487-2.053V29.013a1.563,1.563,0,0,0-3.125,0v6.109a1.46,1.46,0,1,1-2.92,0V13.971L49.255,12.4c.067-.039.132-.08.2-.121v4.234a1.563,1.563,0,0,0,3.125,0v-10a1.574,1.574,0,0,0-.011-.179A6.64,6.64,0,0,0,42.611.893l-27.709,16-1.513-1.514A6.173,6.173,0,0,0,9,13.558H6.214A6.221,6.221,0,0,0,0,19.771V43.76a6.2,6.2,0,0,0,2.153,4.7A6.369,6.369,0,0,0,.97,56.611a1.562,1.562,0,0,0,.593,3.007H38.457v3.831A16.573,16.573,0,0,0,54.275,79.985c.133.009.267.015.4.015h.041c.1,0,.2,0,.294,0A16.571,16.571,0,0,0,71.563,63.449V59.618h6.875a1.563,1.563,0,0,0,0-3.125ZM47.666,50.334a5.469,5.469,0,0,1-5.232-3.9h5.232a1.562,1.562,0,0,0,1.1-.458l3.7-3.7a5.464,5.464,0,0,1-4.805,8.055ZM44.173,3.6a3.518,3.518,0,0,1,3.518,6.094L22.341,24.329,17.19,19.178ZM6.214,46.848A3.092,3.092,0,0,1,3.125,43.76V19.77a3.092,3.092,0,0,1,3.089-3.088H9a3.071,3.071,0,0,1,2.184.9l9.806,9.806.007.007,9.513,9.513a3.066,3.066,0,0,1,.891,1.9H12.556a1.539,1.539,0,0,1-1.537-1.537V27.619a1.563,1.563,0,1,0-3.125,0v9.657a4.667,4.667,0,0,0,4.662,4.662H31.41v1.822a3.088,3.088,0,0,1-3.088,3.089Zm.171,9.644a3.26,3.26,0,0,1,0-6.519H28.15a3.26,3.26,0,1,1,0,6.519Zm60.174-5.341L69.4,53.993,67.11,55.122l-1.683-1.683ZM55.9,57.874a3.024,3.024,0,0,1,2.627-1.739l4.986-.193,1.1,1.1-.193,4.986a3.035,3.035,0,0,1-5.178,2.028L58.21,63.027h0L56.5,61.314a3.041,3.041,0,0,1-.6-3.439ZM49.68,64.323l.663,1.345-1.094,1.094L47.9,66.1ZM53.39,76.587a3.025,3.025,0,0,1-1.739-2.628l-.194-4.985,1.1-1.1,4.985.194a3.035,3.035,0,0,1,2.028,5.178l-2.74,2.74a3.041,3.041,0,0,1-2.03.884c-.128,0-.256,0-.383-.01a3.012,3.012,0,0,1-1.026-.274ZM68.438,63.449A13.425,13.425,0,0,1,62.5,74.589a6.178,6.178,0,0,0,.5-6.113c-.09-.191-.192-.374-.3-.552a6.155,6.155,0,0,0,4.841-5.778l.148-3.825.757-.373c0,.035-.005.07-.005.106v5.394Zm0,0" transform="translate(0 0)"/>
  <path id="Path_152041" data-name="Path 152041" d="M31.895,330.684a1.561,1.561,0,1,0,1.106.458A1.574,1.574,0,0,0,31.895,330.684Zm0,0" transform="translate(-25.592 -279.013)"/>
  <path id="Path_152042" data-name="Path 152042" d="M172.121,332.247a1.563,1.563,0,1,0-.458,1.1A1.575,1.575,0,0,0,172.121,332.247Zm0,0" transform="translate(-142.59 -279.013)"/>
</svg>
