<svg xmlns="http://www.w3.org/2000/svg" width="80" height="77.419" viewBox="0 0 80 77.419">
  <g id="t4-p1" transform="translate(0 -0.309)">
    <path id="Path_152644" data-name="Path 152644" d="M15.114,10.262H71.888a5.161,5.161,0,0,1,5.161,5.161V72.2a5.161,5.161,0,0,1-5.161,5.161H15.114A5.161,5.161,0,0,1,9.953,72.2V15.423A5.161,5.161,0,0,1,15.114,10.262Zm0,0" transform="translate(-8.663 -8.663)" fill="#f3f9ff"/>
    <path id="Path_152645" data-name="Path 152645" d="M69.66,129.324h54.194a5.161,5.161,0,0,0,5.161-5.161V69.969Zm0,0" transform="translate(-60.628 -60.628)" fill="#fefba6"/>
    <circle id="Ellipse_4853" data-name="Ellipse 4853" cx="5.839" cy="5.839" r="5.839" transform="translate(5.839 18.803)" fill="#00dbb6"/>
    <circle id="Ellipse_4854" data-name="Ellipse 4854" cx="5.839" cy="5.839" r="5.839" transform="translate(5.839 34.859)" fill="#00dbb6"/>
    <circle id="Ellipse_4855" data-name="Ellipse 4855" cx="5.839" cy="5.839" r="5.839" transform="translate(5.839 50.186)" fill="#00dbb6"/>
    <path id="Path_152646" data-name="Path 152646" d="M39.8,40.117h2.581V42.7H39.8Zm0,0" transform="translate(-34.644 -34.647)" fill="#5eb3d1"/>
    <path id="Path_152647" data-name="Path 152647" d="M79.613,40.117h2.581V42.7H79.613Zm0,0" transform="translate(-69.291 -34.647)" fill="#5eb3d1"/>
    <path id="Path_152648" data-name="Path 152648" d="M119.418,40.117H122V42.7h-2.581Zm0,0" transform="translate(-103.934 -34.647)" fill="#5eb3d1"/>
    <path id="Path_152649" data-name="Path 152649" d="M39.8,79.922H99.16V82.5H39.8Zm0,0" transform="translate(-34.644 -69.291)" fill="#5eb3d1"/>
    <path id="Path_152650" data-name="Path 152650" d="M169.176,159.535h21.936v2.581H169.176Zm0,0" transform="translate(-147.241 -138.581)" fill="#5eb3d1"/>
    <path id="Path_152651" data-name="Path 152651" d="M169.176,199.34h9.033v2.581h-9.033Zm0,0" transform="translate(-147.241 -173.225)" fill="#5eb3d1"/>
    <path id="Path_152652" data-name="Path 152652" d="M258.742,199.34h18.065v2.581H258.742Zm0,0" transform="translate(-225.194 -173.225)" fill="#5eb3d1"/>
    <path id="Path_152653" data-name="Path 152653" d="M358.258,159.535h12.9v2.581h-12.9Zm0,0" transform="translate(-311.806 -138.581)" fill="#5eb3d1"/>
    <path id="Path_152654" data-name="Path 152654" d="M46.26,152.536a6.452,6.452,0,1,1,6.452-6.451A6.452,6.452,0,0,1,46.26,152.536Zm0-10.323a3.871,3.871,0,1,0,3.871,3.871A3.871,3.871,0,0,0,46.26,142.213Zm0,0" transform="translate(-34.647 -121.26)" fill="#5eb3d1"/>
    <path id="Path_152655" data-name="Path 152655" d="M169.176,278.953h21.936v2.581H169.176Zm0,0" transform="translate(-147.241 -242.515)" fill="#5eb3d1"/>
    <path id="Path_152656" data-name="Path 152656" d="M169.176,318.762h9.033v2.58h-9.033Zm0,0" transform="translate(-147.241 -277.163)" fill="#5eb3d1"/>
    <path id="Path_152659" data-name="Path 152659" d="M46.26,271.954a6.452,6.452,0,1,1,6.452-6.451A6.452,6.452,0,0,1,46.26,271.954Zm0-10.323a3.871,3.871,0,1,0,3.871,3.871A3.871,3.871,0,0,0,46.26,261.631Zm0,0" transform="translate(-34.647 -225.194)" fill="#5eb3d1"/>
    <path id="Path_152661" data-name="Path 152661" d="M169.176,438.18h9.033v2.581h-9.033Zm0,0" transform="translate(-147.241 -381.097)" fill="#5eb3d1"/>
    <path id="Path_152663" data-name="Path 152663" d="M358.258,398.375h12.9v2.581h-12.9Zm0,0" transform="translate(-311.806 -346.453)" fill="#5eb3d1"/>
    <path id="Path_152664" data-name="Path 152664" d="M46.26,391.376a6.452,6.452,0,1,1,6.452-6.452A6.452,6.452,0,0,1,46.26,391.376Zm0-10.323a3.871,3.871,0,1,0,3.871,3.871A3.87,3.87,0,0,0,46.26,381.053Zm0,0" transform="translate(-34.647 -329.132)" fill="#5eb3d1"/>
    <path id="Path_152665" data-name="Path 152665" d="M82.531,130.39l7.742-7.742,1.825,1.825-7.742,7.742Zm0,0" transform="translate(-71.83 -106.477)" fill="#e34b87"/>
    <path id="Path_152666" data-name="Path 152666" d="M82.519,249.8l7.742-7.741,1.824,1.824-7.742,7.742Zm0,0" transform="translate(-71.82 -210.409)" fill="#e34b87"/>
    <path id="Path_152667" data-name="Path 152667" d="M82.516,369.222l7.742-7.742,1.825,1.825-7.742,7.742Zm0,0" transform="translate(-71.817 -314.342)" fill="#e34b87"/>
    <path id="Path_152668" data-name="Path 152668" d="M364.531,326.874a18.064,18.064,0,1,1-18.064-18.065A18.064,18.064,0,0,1,364.531,326.874Zm0,0" transform="translate(-285.821 -268.5)" fill="#00dbb6"/>
    <path id="Path_152669" data-name="Path 152669" d="M392.892,389.124a1.22,1.22,0,0,1-.207-.017,1.285,1.285,0,0,1-.948-.7l-2.581-5.162,2.31-1.153,1.78,3.56,14.218-14.218,1.824,1.824L393.8,388.746A1.286,1.286,0,0,1,392.892,389.124Zm0,0" transform="translate(-338.698 -323.009)" fill="#bf3d75"/>
    <path id="Path_152670" data-name="Path 152670" d="M397.367,402.47a18.041,18.041,0,0,0,24.7-24.7Zm0,0" transform="translate(-345.845 -328.523)" fill="#00dbb6" opacity="0.78" style="mix-blend-mode: multiply;isolation: isolate"/>
    <path id="Path_152671" data-name="Path 152671" d="M6.452,69.986H40v-2.58H6.452a3.871,3.871,0,0,1-3.871-3.871V6.76A3.871,3.871,0,0,1,6.452,2.89H63.226A3.871,3.871,0,0,1,67.1,6.76V36.438h2.581V6.76A6.459,6.459,0,0,0,63.226.309H6.452A6.459,6.459,0,0,0,0,6.76V63.534A6.459,6.459,0,0,0,6.452,69.986Zm0,0" transform="translate(0 0)"/>
    <path id="Path_152672" data-name="Path 152672" d="M39.8,40.117h2.581V42.7H39.8Zm0,0" transform="translate(-34.644 -34.647)"/>
    <path id="Path_152673" data-name="Path 152673" d="M79.613,40.117h2.581V42.7H79.613Zm0,0" transform="translate(-69.291 -34.647)"/>
    <path id="Path_152674" data-name="Path 152674" d="M119.418,40.117H122V42.7h-2.581Zm0,0" transform="translate(-103.934 -34.647)"/>
    <path id="Path_152675" data-name="Path 152675" d="M39.8,79.922H99.16V82.5H39.8Zm0,0" transform="translate(-34.644 -69.291)"/>
    <path id="Path_152676" data-name="Path 152676" d="M52.82,122.645l-3.277,3.277a6.47,6.47,0,1,0,1.825,1.824l3.277-3.277ZM45.991,135.17a3.871,3.871,0,1,1,0-7.742,3.81,3.81,0,0,1,1.658.387l-2.57,2.57L46.9,132.21l2.571-2.569a3.8,3.8,0,0,1,.387,1.658A3.871,3.871,0,0,1,45.991,135.17Zm0,0" transform="translate(-34.378 -106.474)"/>
    <path id="Path_152677" data-name="Path 152677" d="M169.176,159.535h21.936v2.581H169.176Zm0,0" transform="translate(-147.241 -138.581)"/>
    <path id="Path_152678" data-name="Path 152678" d="M169.176,199.34h9.033v2.581h-9.033Zm0,0" transform="translate(-147.241 -173.225)"/>
    <path id="Path_152679" data-name="Path 152679" d="M258.742,199.34h18.065v2.581H258.742Zm0,0" transform="translate(-225.194 -173.225)"/>
    <path id="Path_152680" data-name="Path 152680" d="M358.258,159.535h12.9v2.581h-12.9Zm0,0" transform="translate(-311.806 -138.581)"/>
    <path id="Path_152681" data-name="Path 152681" d="M52.82,242.063l-3.277,3.277a6.471,6.471,0,1,0,1.825,1.825l3.277-3.277Zm-6.829,12.525a3.871,3.871,0,1,1,0-7.742,3.8,3.8,0,0,1,1.658.387l-2.57,2.57,1.824,1.824,2.571-2.569a3.8,3.8,0,0,1,.387,1.658A3.871,3.871,0,0,1,45.991,254.588Zm0,0" transform="translate(-34.378 -210.409)"/>
    <path id="Path_152682" data-name="Path 152682" d="M169.176,278.953h21.936v2.581H169.176Zm0,0" transform="translate(-147.241 -242.515)"/>
    <path id="Path_152683" data-name="Path 152683" d="M169.176,318.762h9.033v2.58h-9.033Zm0,0" transform="translate(-147.241 -277.163)"/>
    <path id="Path_152684" data-name="Path 152684" d="M258.742,318.762h10.323v2.58H258.742Zm0,0" transform="translate(-225.194 -277.163)"/>
    <path id="Path_152685" data-name="Path 152685" d="M358.258,278.953h5.161v2.581h-5.161Zm0,0" transform="translate(-311.806 -242.515)"/>
    <path id="Path_152686" data-name="Path 152686" d="M52.82,361.484l-3.277,3.278a6.47,6.47,0,1,0,1.825,1.824l3.277-3.277Zm-6.829,12.525a3.871,3.871,0,0,1,0-7.742,3.812,3.812,0,0,1,1.658.387l-2.57,2.57,1.824,1.824,2.571-2.569a3.805,3.805,0,0,1,.387,1.658A3.871,3.871,0,0,1,45.991,374.009Zm0,0" transform="translate(-34.378 -314.346)"/>
    <path id="Path_152687" data-name="Path 152687" d="M169.176,398.375H185.95v2.581H169.176Zm0,0" transform="translate(-147.241 -346.453)"/>
    <path id="Path_152688" data-name="Path 152688" d="M169.176,438.18h9.033v2.581h-9.033Zm0,0" transform="translate(-147.241 -381.097)"/>
    <path id="Path_152689" data-name="Path 152689" d="M258.742,438.18H263.9v2.581h-5.161Zm0,0" transform="translate(-225.194 -381.097)"/>
    <path id="Path_152690" data-name="Path 152690" d="M337.808,337.568a19.355,19.355,0,1,0-19.355-19.355A19.355,19.355,0,0,0,337.808,337.568Zm0-36.129a16.774,16.774,0,1,1-16.774,16.774A16.774,16.774,0,0,1,337.808,301.44Zm0,0" transform="translate(-277.162 -259.84)"/>
    <path id="Path_152691" data-name="Path 152691" d="M391.517,382.092l-2.31,1.153,2.58,5.162a1.29,1.29,0,0,0,.949.7,1.267,1.267,0,0,0,.2.017,1.287,1.287,0,0,0,.912-.378l15.484-15.484-1.825-1.824L393.29,385.652Zm0,0" transform="translate(-338.743 -323.005)"/>
  </g>
</svg>
