<svg id="t4-p3" xmlns="http://www.w3.org/2000/svg" width="80" height="84.214" viewBox="0 0 80 84.214">
  <path id="Path_155668" data-name="Path 155668" d="M55.854,28.43H53.1a1.6,1.6,0,0,1-1.54-1.2,19.694,19.694,0,0,0-1.919-4.618,1.569,1.569,0,0,1,.238-1.9l1.965-1.965a1.556,1.556,0,0,0,0-2.2l-3.492-3.492a1.556,1.556,0,0,0-2.2,0l-1.965,1.965a1.569,1.569,0,0,1-1.9.238,19.683,19.683,0,0,0-4.618-1.919,1.6,1.6,0,0,1-1.194-1.54V9.056A1.556,1.556,0,0,0,34.924,7.5H29.986a1.556,1.556,0,0,0-1.556,1.556v2.752a1.6,1.6,0,0,1-1.194,1.54,19.671,19.671,0,0,0-4.618,1.919,1.569,1.569,0,0,1-1.9-.238l-1.966-1.965a1.556,1.556,0,0,0-2.2,0l-3.491,3.492a1.556,1.556,0,0,0,0,2.2l1.965,1.965a1.57,1.57,0,0,1,.238,1.9,19.656,19.656,0,0,0-1.919,4.618,1.6,1.6,0,0,1-1.54,1.194H9.056A1.556,1.556,0,0,0,7.5,29.986v4.938A1.556,1.556,0,0,0,9.056,36.48h2.752a1.6,1.6,0,0,1,1.54,1.2,19.678,19.678,0,0,0,1.919,4.617,1.57,1.57,0,0,1-.238,1.9l-1.965,1.965a1.556,1.556,0,0,0,0,2.2l3.491,3.492a1.556,1.556,0,0,0,2.2,0l1.966-1.965a1.569,1.569,0,0,1,1.9-.238,19.694,19.694,0,0,0,4.618,1.918,1.6,1.6,0,0,1,1.2,1.541v2.752a1.556,1.556,0,0,0,1.555,1.556h4.939a1.556,1.556,0,0,0,1.555-1.556V53.1a1.6,1.6,0,0,1,1.2-1.541,19.693,19.693,0,0,0,4.618-1.918,1.569,1.569,0,0,1,1.9.238l1.965,1.965a1.556,1.556,0,0,0,2.2,0l3.492-3.492a1.556,1.556,0,0,0,0-2.2l-1.965-1.965a1.57,1.57,0,0,1-.238-1.9,19.682,19.682,0,0,0,1.919-4.618A1.6,1.6,0,0,1,53.1,36.48h2.752a1.556,1.556,0,0,0,1.556-1.556V29.986a1.555,1.555,0,0,0-1.555-1.556Zm-23.4,14.418A10.393,10.393,0,1,1,42.848,32.455,10.393,10.393,0,0,1,32.455,42.848Zm0,0" transform="translate(-6.266 -6.266)" fill="#b0c0d2"/>
  <path id="Path_155669" data-name="Path 155669" d="M243.8,284.323l-4.443-8.8v-9.632H225.654v9.632l-4.443,8.8Zm0,0" transform="translate(-184.827 -222.157)" fill="#ffba9a"/>
  <path id="Path_155670" data-name="Path 155670" d="M301.547,265.891v18.433h9.377l-4.443-8.8v-9.632Zm0,0" transform="translate(-251.949 -222.157)" fill="#ffa799"/>
  <path id="Path_155671" data-name="Path 155671" d="M222.557,109.6h-.869v-3.463a11.893,11.893,0,0,0-4.028-9.037,13.065,13.065,0,0,0-17.461,0,11.894,11.894,0,0,0-4.028,9.037V109.6H195.3a2.309,2.309,0,0,0-2.309,2.309v2.558a2.309,2.309,0,0,0,2.309,2.309h.873a11.872,11.872,0,0,0,4.024,8.768,13.065,13.065,0,0,0,17.461,0,11.867,11.867,0,0,0,4.024-8.768h.874a2.309,2.309,0,0,0,2.309-2.309v-2.558a2.31,2.31,0,0,0-2.31-2.309Zm0,0" transform="translate(-161.249 -78.337)" fill="#ffba9a"/>
  <path id="Path_155672" data-name="Path 155672" d="M314.777,122.333h-.869V118.87a11.894,11.894,0,0,0-4.028-9.037c-.335-.288-.694-.569-1.073-.84l0,22.581a11.872,11.872,0,0,1-4.024,8.768,14.7,14.7,0,0,1-1.414,1.075,13.512,13.512,0,0,0,6.513-3.139,11.872,11.872,0,0,0,4.024-8.768h.874a2.309,2.309,0,0,0,2.309-2.309v-2.558a2.31,2.31,0,0,0-2.31-2.309Zm0,0" transform="translate(-253.469 -91.065)" fill="#ffa799"/>
  <path id="Path_155673" data-name="Path 155673" d="M212.508,70.328h-1.336a14.7,14.7,0,0,0-14.7,14.7v4.231H227.2V85.024a14.7,14.7,0,0,0-14.7-14.7Zm0,0" transform="translate(-164.16 -58.761)" fill="#fcf300"/>
  <path id="Path_155674" data-name="Path 155674" d="M277.783,70.328h-1.336a14.829,14.829,0,0,0-1.846.117,14.7,14.7,0,0,1,12.833,14.579v4.231h5.044V85.024a14.7,14.7,0,0,0-14.7-14.7Zm0,0" transform="translate(-229.435 -58.76)" fill="#d4cc00"/>
  <path id="Path_155675" data-name="Path 155675" d="M214.473,176.852H182.8a2.127,2.127,0,1,1,0-4.254h31.671a2.127,2.127,0,0,1,0,4.254Zm0,0" transform="translate(-150.958 -144.209)" fill="#d4ce20"/>
  <path id="Path_155676" data-name="Path 155676" d="M153.628,327.332l-14.805-2.879c0,3.785-6.853,6.853-6.853,6.853s-6.853-3.068-6.853-6.853l-14.805,2.879c-5.59,1.646-9.429,4.566-9.429,10.394v12.547a3.793,3.793,0,0,0,3.793,3.793h54.587a3.793,3.793,0,0,0,3.793-3.793V337.726C163.056,331.9,159.218,328.978,153.628,327.332Zm0,0" transform="translate(-84.29 -271.087)" fill="#deecf1"/>
  <path id="Path_155677" data-name="Path 155677" d="M438.008,347.836a9.358,9.358,0,0,1,1.789,5.809V373.6h1.142a3.793,3.793,0,0,0,3.793-3.793V357.263c0-4.83-2.638-7.662-6.723-9.427Zm0,0" transform="translate(-365.965 -290.624)" fill="#a8d3d8"/>
  <path id="Path_155678" data-name="Path 155678" d="M220.041,324.453l-5.548,1.079c.33,3.074,3.058,5.855,5.872,7.945a2.429,2.429,0,0,0,2.7.127l3.833-2.3s-6.852-3.068-6.852-6.853Zm0,0" transform="translate(-179.213 -271.087)" fill="#8ebac5"/>
  <path id="Path_155679" data-name="Path 155679" d="M296.736,324.453c0,3.785-6.853,6.853-6.853,6.853l3.833,2.3a2.427,2.427,0,0,0,2.7-.127c2.814-2.091,5.542-4.871,5.872-7.945Zm0,0" transform="translate(-242.203 -271.087)" fill="#8ebac5"/>
  <path id="Path_155680" data-name="Path 155680" d="M145.773,333.513l.826,2.761a51.223,51.223,0,0,1,2.031,14.281v8.994h20.846V352.1a10.155,10.155,0,0,0-1.85-5.845c-3.457-4.913-10.55-15.241-10.55-15.241l-7.937,1.543a20.005,20.005,0,0,0-3.365.955Zm0,0" transform="translate(-121.796 -276.57)" fill="#ff994a"/>
  <path id="Path_155681" data-name="Path 155681" d="M313.587,333.513l-.826,2.761a51.227,51.227,0,0,0-2.032,14.281v8.994H289.883V352.1a10.155,10.155,0,0,1,1.85-5.845c3.457-4.913,10.55-15.241,10.55-15.241l7.937,1.543a20.025,20.025,0,0,1,3.365.955Zm0,0" transform="translate(-242.203 -276.57)" fill="#ff8628"/>
  <path id="Path_155682" data-name="Path 155682" d="M333.576,445.5h-7.255a.876.876,0,0,1-.876-.876v-2.472a.876.876,0,0,1,.876-.876h7.255a.876.876,0,0,1,.876.876v2.472A.876.876,0,0,1,333.576,445.5Zm0,0" transform="translate(-271.916 -368.7)" fill="#fcf300"/>
  <path id="Path_155683" data-name="Path 155683" d="M327.31,440.472h-7.255a2.112,2.112,0,0,1-2.109-2.109v-2.472a2.112,2.112,0,0,1,2.109-2.109h7.255a2.112,2.112,0,0,1,2.109,2.109v2.472A2.112,2.112,0,0,1,327.31,440.472Zm-6.9-2.467h6.539v-1.756h-6.539Zm0,0" transform="translate(-265.65 -362.433)"/>
  <path id="Path_155684" data-name="Path 155684" d="M28.658,52.377H23.719a2.793,2.793,0,0,1-2.79-2.79V46.835a.37.37,0,0,0-.285-.35,20.908,20.908,0,0,1-4.907-2.039.336.336,0,0,0-.41.04l-1.966,1.966a2.791,2.791,0,0,1-3.945,0L5.924,42.961a2.789,2.789,0,0,1,0-3.945L7.89,37.05a.335.335,0,0,0,.04-.41,20.933,20.933,0,0,1-2.038-4.907.37.37,0,0,0-.35-.285H2.789A2.793,2.793,0,0,1,0,28.658V23.72a2.793,2.793,0,0,1,2.79-2.79H5.542a.369.369,0,0,0,.35-.285,20.931,20.931,0,0,1,2.039-4.907.336.336,0,0,0-.04-.41L5.924,13.361a2.789,2.789,0,0,1,0-3.945L9.416,5.924a2.79,2.79,0,0,1,3.946,0L15.327,7.89a.336.336,0,0,0,.41.04,20.931,20.931,0,0,1,4.907-2.039.369.369,0,0,0,.286-.35V2.79A2.793,2.793,0,0,1,23.719,0h4.938a2.793,2.793,0,0,1,2.79,2.79V5.542a.368.368,0,0,0,.285.35,20.945,20.945,0,0,1,4.907,2.039.337.337,0,0,0,.411-.04l1.965-1.966a2.789,2.789,0,0,1,3.946,0l.369.369a1.234,1.234,0,0,1-1.744,1.744c-.227-.2-.519-.677-.826-.369L38.794,9.635a2.811,2.811,0,0,1-3.383.436,18.488,18.488,0,0,0-4.328-1.8,2.845,2.845,0,0,1-2.1-2.731V2.79a.323.323,0,0,0-.323-.323H23.719a.323.323,0,0,0-.322.323V5.542a2.846,2.846,0,0,1-2.1,2.731,18.479,18.479,0,0,0-4.329,1.8,2.81,2.81,0,0,1-3.382-.436L11.617,7.669a.322.322,0,0,0-.456,0L7.669,11.161a.322.322,0,0,0,0,.456l1.966,1.966a2.81,2.81,0,0,1,.436,3.382,18.493,18.493,0,0,0-1.8,4.329,2.845,2.845,0,0,1-2.73,2.1H2.789a.323.323,0,0,0-.323.323v4.938a.323.323,0,0,0,.323.323H5.542a2.846,2.846,0,0,1,2.731,2.1,18.441,18.441,0,0,0,1.8,4.329,2.81,2.81,0,0,1-.436,3.382L7.669,40.761a.315.315,0,0,0-.094.228.319.319,0,0,0,.094.228l3.492,3.491a.322.322,0,0,0,.456,0l1.965-1.965a2.811,2.811,0,0,1,3.383-.436,18.476,18.476,0,0,0,4.328,1.8,2.845,2.845,0,0,1,2.1,2.731v2.752a.323.323,0,0,0,.322.323h4.938a.323.323,0,0,0,.323-.323V46.836a2.845,2.845,0,0,1,2.1-2.731,1.233,1.233,0,0,1,.649,2.38.37.37,0,0,0-.286.351v2.752a2.793,2.793,0,0,1-2.79,2.79Zm0,0" transform="translate(0 0)"/>
  <path id="Path_155685" data-name="Path 155685" d="M88.535,100.119A11.642,11.642,0,0,1,104.3,89.249a1.234,1.234,0,0,1-.879,2.306,9.16,9.16,0,1,0-2.708,17.707,1.234,1.234,0,0,1,.145,2.463,11.64,11.64,0,0,1-12.319-11.607Zm0,0" transform="translate(-73.973 -73.93)"/>
  <path id="Path_155686" data-name="Path 155686" d="M146.292,107.274l-12.5-2.431v-3.088a13.048,13.048,0,0,0,5.824-9.594,3.547,3.547,0,0,0,3.26-3.531V86.094a3.364,3.364,0,0,0-.573-6.357v-.979a15.93,15.93,0,0,0-15.929-15.93h-1.336a15.93,15.93,0,0,0-15.929,15.929v.979a3.364,3.364,0,0,0-.573,6.357V88.63a3.547,3.547,0,0,0,3.26,3.531,13.012,13.012,0,0,0,4.375,8.48,16.215,16.215,0,0,0,1.449,1.115v3.088l-12.5,2.431c-6.595,1.282-11.735,5-11.735,11.859v12.547a5.027,5.027,0,0,0,5.027,5.027H153a5.027,5.027,0,0,0,5.027-5.027V119.134c0-6.837-5.108-10.571-11.735-11.859Zm-10.268.517c-.9,1.3-2.265,3.29-3.744,5.431a1.8,1.8,0,0,1-2.107.731l-1.949-1.169c1.9-1.122,4.53-3.05,5.328-5.474Zm-10.318,3.555c-1.874-.943-5.608-3.274-5.619-5.476v-2.752a14.166,14.166,0,0,0,11.238,0v2.743c0,2.206-3.744,4.542-5.619,5.486Zm-14.13-32.588a13.471,13.471,0,0,1,6.945-11.776v1.546a1.234,1.234,0,0,0,2.467,0v-2.61a13.374,13.374,0,0,1,3.484-.61v6.1a1.234,1.234,0,0,0,2.467,0v-6.1a13.38,13.38,0,0,1,3.485.61v2.61a1.234,1.234,0,0,0,2.467,0V66.981a13.472,13.472,0,0,1,6.945,11.776v.892h-28.26Zm-1.705,3.359h31.671a.893.893,0,0,1,0,1.787H109.871A.893.893,0,0,1,109.871,82.117Zm4.314,8.8a1.234,1.234,0,0,0-1.234-1.207c-.206-.051-1.949.321-1.949-1.075V86.371H140.41V88.63c0,1.393-1.789,1.036-1.949,1.075a1.234,1.234,0,0,0-1.234,1.207,10.638,10.638,0,0,1-3.6,7.859,11.843,11.843,0,0,1-15.851,0,10.636,10.636,0,0,1-3.6-7.859Zm3.674,16.4c.8,2.424,3.428,4.352,5.329,5.474-1.953,1.046-1.815,1.359-2.7,1.254a1.946,1.946,0,0,1-1.363-.831c-1.475-2.136-2.84-4.118-3.734-5.417Zm-14.233,26.93H98.413a2.56,2.56,0,0,1-2.56-2.56V119.134c0-3.7,1.679-6.253,5.364-8.018a50.739,50.739,0,0,1,2.409,15.365Zm20.846,0H106.093V126.48a51.766,51.766,0,0,0-2.576-16.282c1.44-.479.371-.11,9.23-1.893,2.546,3.7,7.3,10.6,10.1,14.585a8.878,8.878,0,0,1,1.626,5.136Zm1.234-11.374a11.607,11.607,0,0,0-.841-1.4c-.947-1.345-2.176-3.111-3.459-4.962a3.7,3.7,0,0,0,1.1-.439l3.2-1.918,3.2,1.918a3.691,3.691,0,0,0,1.1.439c-1.282,1.85-2.512,3.615-3.459,4.962A11.531,11.531,0,0,0,125.706,122.867Zm29.853,8.814a2.56,2.56,0,0,1-2.56,2.56h-5.213v-4.654a1.234,1.234,0,0,0-2.467,0v4.654H126.94v-6.215a8.879,8.879,0,0,1,1.626-5.136c1.593-2.265,8.154-11.732,10.1-14.586,8.855,1.783,7.787,1.414,9.229,1.893a53.8,53.8,0,0,0-2.542,14.4,1.233,1.233,0,0,0,2.465.089,49.334,49.334,0,0,1,2.377-13.575c3.684,1.766,5.364,4.321,5.364,8.018Zm0,0" transform="translate(-78.026 -52.494)"/>
</svg>
