<svg xmlns="http://www.w3.org/2000/svg" width="80" height="77.644" viewBox="0 0 80 77.644">
  <g id="t5-ic2" transform="translate(-21.136 -21.245)">
    <g id="Group_98832" data-name="Group 98832" transform="translate(21.136 21.245)">
      <g id="Group_98831" data-name="Group 98831" transform="translate(0 0)">
        <g id="Group_98828" data-name="Group 98828">
          <path id="Path_153948" data-name="Path 153948" d="M67.43,56.319V130.14a1.912,1.912,0,0,1-1.911,1.911H58.6a1.912,1.912,0,0,1-1.911-1.911V58.23A1.912,1.912,0,0,1,58.6,56.319Z" transform="translate(-55.737 -55.363)" fill="#d9bd20"/>
          <path id="Path_153949" data-name="Path 153949" d="M67.43,56.319V70.5H56.692V58.23A1.912,1.912,0,0,1,58.6,56.319Z" transform="translate(-55.737 -55.363)" fill="#f6ef20"/>
          <path id="Path_153950" data-name="Path 153950" d="M56.694,67.054V58.228a1.911,1.911,0,0,1,1.911-1.911h71.91a1.911,1.911,0,0,1,1.911,1.911v6.915a1.911,1.911,0,0,1-1.911,1.911Z" transform="translate(-55.738 -55.361)" fill="#f6ef20"/>
          <path id="Path_153951" data-name="Path 153951" d="M196.555,198.089H140.247a1.911,1.911,0,0,1-1.911-1.911V139.87a1.911,1.911,0,0,1,1.911-1.911h56.308a1.911,1.911,0,0,1,1.911,1.911v56.308A1.911,1.911,0,0,1,196.555,198.089Z" transform="translate(-121.778 -121.401)" fill="#20dabb"/>
          <path id="Path_153952" data-name="Path 153952" d="M175.069,174.692H138.336V139.87a1.911,1.911,0,0,1,1.911-1.911h34.822v36.733Z" transform="translate(-121.778 -121.401)" fill="#fff"/>
          <g id="Group_98819" data-name="Group 98819">
            <path id="Path_153953" data-name="Path 153953" d="M397.241,303.729l.389,15.051a.955.955,0,0,0,1.611.67l3.833-3.618a.38.38,0,0,1,.25-.1l5.268-.152a.955.955,0,0,0,.665-1.613l-10.368-10.918A.956.956,0,0,0,397.241,303.729Z" transform="translate(-331.204 -254.697)" fill="#f1eb3b"/>
            <g id="Group_98818" data-name="Group 98818">
              <path id="Path_153954" data-name="Path 153954" d="M444.71,395.974H441.6a.786.786,0,0,1-.786-.786v-3.11a.786.786,0,0,1,.786-.786h3.109a.786.786,0,0,1,.786.786v3.11A.786.786,0,0,1,444.71,395.974Z" transform="translate(-366.452 -326.321)"/>
              <g id="Group_98817" data-name="Group 98817">
                <g id="Group_98816" data-name="Group 98816">
                  <g id="Group_98804" data-name="Group 98804">
                    <g id="Group_98803" data-name="Group 98803">
                      <path id="Path_153955" data-name="Path 153955" d="M64.342,63v-.147l-.014.006a.953.953,0,0,0-.94-.8H53.605V54.183a.957.957,0,0,1,.956-.956h7.87v2.138a.956.956,0,0,0,1.911,0V53.227h4.032v2.138a.956.956,0,0,0,1.911,0V53.227h4.032v2.138a.956.956,0,0,0,1.911,0V53.227h4.032v2.138a.956.956,0,0,0,1.911,0V53.227H86.2v2.138a.956.956,0,0,0,1.911,0V53.227h4.032v2.138a.956.956,0,0,0,1.911,0V53.227h4.032v2.138a.956.956,0,0,0,1.911,0V53.227h4.032v2.138a.956.956,0,0,0,1.911,0V53.227h4.032v2.138a.956.956,0,0,0,1.911,0V53.227h4.032v2.138a.956.956,0,1,0,1.911,0V53.227h4.032v2.138a.956.956,0,0,0,1.911,0V53.227h2.7a.957.957,0,0,1,.956.956V61.1a.957.957,0,0,1-.956.956H69.885a.956.956,0,1,0,0,1.911h56.586a2.87,2.87,0,0,0,2.867-2.867V54.183a2.87,2.87,0,0,0-2.867-2.867H54.561a2.87,2.87,0,0,0-2.867,2.867v71.91a2.87,2.87,0,0,0,2.867,2.867h6.915a2.87,2.87,0,0,0,2.867-2.867V63.018s0-.006,0-.009S64.342,63,64.342,63Zm-2.867,64.049H54.561a.957.957,0,0,1-.956-.956v-2.7h2.138a.956.956,0,1,0,0-1.911H53.605v-4.032h2.138a.956.956,0,1,0,0-1.911H53.605v-4.032h2.138a.956.956,0,1,0,0-1.911H53.605v-4.032h2.138a.956.956,0,1,0,0-1.911H53.605V99.62h2.138a.956.956,0,1,0,0-1.911H53.605V93.677h2.138a.956.956,0,1,0,0-1.911H53.605V87.735h2.138a.956.956,0,1,0,0-1.911H53.605V81.792h2.138a.956.956,0,1,0,0-1.911H53.605V75.849h2.138a.956.956,0,1,0,0-1.911H53.605V69.907h2.138a.956.956,0,1,0,0-1.911H53.605V63.964h8.826v62.129a.957.957,0,0,1-.956.956Z" transform="translate(-51.694 -51.316)"/>
                    </g>
                  </g>
                  <g id="Group_98805" data-name="Group 98805" transform="translate(22.622 52.335)">
                    <path id="Path_153956" data-name="Path 153956" d="M171.024,325.171a.956.956,0,1,0,0,1.911h2.2a.956.956,0,1,0,0-1.911Z" transform="translate(-170.068 -325.171)"/>
                  </g>
                  <g id="Group_98806" data-name="Group 98806" transform="translate(29.642 52.335)">
                    <path id="Path_153957" data-name="Path 153957" d="M207.757,325.171a.956.956,0,1,0,0,1.911h2.2a.956.956,0,1,0,0-1.911Z" transform="translate(-206.801 -325.171)"/>
                  </g>
                  <g id="Group_98807" data-name="Group 98807" transform="translate(36.662 52.335)">
                    <path id="Path_153958" data-name="Path 153958" d="M244.489,325.171a.956.956,0,1,0,0,1.911h2.2a.956.956,0,0,0,0-1.911Z" transform="translate(-243.533 -325.171)"/>
                  </g>
                  <g id="Group_98808" data-name="Group 98808" transform="translate(43.682 52.335)">
                    <path id="Path_153959" data-name="Path 153959" d="M281.222,325.171a.956.956,0,1,0,0,1.911h2.2a.956.956,0,0,0,0-1.911Z" transform="translate(-280.266 -325.171)"/>
                  </g>
                  <g id="Group_98809" data-name="Group 98809" transform="translate(52.335 22.622)">
                    <path id="Path_153960" data-name="Path 153960" d="M327.46,170.647a.956.956,0,0,0-1.911,0v2.2a.956.956,0,0,0,1.911,0Z" transform="translate(-325.549 -169.691)"/>
                  </g>
                  <g id="Group_98810" data-name="Group 98810" transform="translate(52.335 29.642)">
                    <path id="Path_153961" data-name="Path 153961" d="M327.46,207.379a.956.956,0,0,0-1.911,0v2.2a.956.956,0,0,0,1.911,0Z" transform="translate(-325.549 -206.423)"/>
                  </g>
                  <g id="Group_98811" data-name="Group 98811" transform="translate(52.335 36.662)">
                    <path id="Path_153962" data-name="Path 153962" d="M327.46,244.111a.956.956,0,0,0-1.911,0v2.2a.956.956,0,0,0,1.911,0Z" transform="translate(-325.549 -243.155)"/>
                  </g>
                  <g id="Group_98812" data-name="Group 98812" transform="translate(52.335 43.682)">
                    <path id="Path_153963" data-name="Path 153963" d="M327.46,280.844a.956.956,0,0,0-1.911,0v2.2a.956.956,0,0,0,1.911,0Z" transform="translate(-325.549 -279.888)"/>
                  </g>
                  <g id="Group_98813" data-name="Group 98813" transform="translate(50.701 50.701)">
                    <path id="Path_153964" data-name="Path 153964" d="M319.588,316.62a.955.955,0,0,0-.955.956v.679h-.679a.955.955,0,1,0,0,1.911h1.634a.955.955,0,0,0,.956-.955v-1.634A.956.956,0,0,0,319.588,316.62Z" transform="translate(-316.998 -316.62)"/>
                  </g>
                  <g id="Group_98815" data-name="Group 98815" transform="translate(15.602 15.602)">
                    <g id="Group_98814" data-name="Group 98814">
                      <path id="Path_153965" data-name="Path 153965" d="M195.992,181.373h-.615v-2.2a1.909,1.909,0,0,0,1.1-3.2l-1.1-1.16V161.569a.956.956,0,1,0-1.911,0v11.224l-7.355-7.745a1.911,1.911,0,0,0-3.3,1.365l.389,15.051a1.889,1.889,0,0,0,1.176,1.715,1.932,1.932,0,0,0,.742.15,1.892,1.892,0,0,0,1.3-.525l3.673-3.467,3.367-.1v2.132h-.583a1.743,1.743,0,0,0-1.741,1.741v3.109a1.743,1.743,0,0,0,1.741,1.741h.583v4.169a.957.957,0,0,1-.956.956H136.2a.957.957,0,0,1-.956-.956V171.6h1.242a.956.956,0,1,0,0-1.911h-1.242V135.826a.957.957,0,0,1,.956-.956h33.867v1.242a.956.956,0,0,0,1.911,0V134.87h20.531a.957.957,0,0,1,.956.956v19.246a.956.956,0,1,0,1.911,0V135.826a2.87,2.87,0,0,0-2.867-2.867H136.2a2.87,2.87,0,0,0-2.867,2.867v56.308A2.87,2.87,0,0,0,136.2,195h56.308a2.87,2.87,0,0,0,2.867-2.867v-4.169h.615a1.743,1.743,0,0,0,1.741-1.741v-3.109a1.743,1.743,0,0,0-1.741-1.741Zm-6.166-3.939a1.335,1.335,0,0,0-.879.364l-3.833,3.617-.389-15.051,10.368,10.918Zm6,8.62h-2.77v-2.77h2.77Z" transform="translate(-133.336 -132.959)"/>
                    </g>
                  </g>
                </g>
              </g>
            </g>
          </g>
          <g id="Group_98823" data-name="Group 98823" transform="translate(22.195 22.668)">
            <g id="Group_98820" data-name="Group 98820">
              <path id="Path_153966" data-name="Path 153966" d="M171.972,171.844h-3.185a.956.956,0,1,1,0-1.911h3.185a.956.956,0,1,1,0,1.911Z" transform="translate(-167.831 -169.933)" fill="#20a68f"/>
            </g>
            <g id="Group_98821" data-name="Group 98821" transform="translate(0 3.694)">
              <path id="Path_153967" data-name="Path 153967" d="M181.527,191.174h-12.74a.956.956,0,0,1,0-1.911h12.74a.956.956,0,1,1,0,1.911Z" transform="translate(-167.831 -189.263)" fill="#20a68f"/>
            </g>
            <g id="Group_98822" data-name="Group 98822" transform="translate(0 7.388)">
              <path id="Path_153968" data-name="Path 153968" d="M181.527,210.505h-12.74a.956.956,0,0,1,0-1.911h12.74a.956.956,0,1,1,0,1.911Z" transform="translate(-167.831 -208.594)" fill="#20a68f"/>
            </g>
          </g>
          <g id="Group_98827" data-name="Group 98827" transform="translate(46.623 61.272)">
            <g id="Group_98824" data-name="Group 98824" transform="translate(9.555)">
              <path id="Path_153969" data-name="Path 153969" d="M346.613,373.844H349.8a.956.956,0,0,0,0-1.911h-3.185a.956.956,0,1,0,0,1.911Z" transform="translate(-345.657 -371.933)"/>
            </g>
            <g id="Group_98825" data-name="Group 98825" transform="translate(0 3.694)">
              <path id="Path_153970" data-name="Path 153970" d="M296.613,393.174h12.74a.956.956,0,1,0,0-1.911h-12.74a.956.956,0,1,0,0,1.911Z" transform="translate(-295.657 -391.263)"/>
            </g>
            <g id="Group_98826" data-name="Group 98826" transform="translate(0 7.388)">
              <path id="Path_153971" data-name="Path 153971" d="M296.613,412.505h12.74a.956.956,0,0,0,0-1.911h-12.74a.956.956,0,0,0,0,1.911Z" transform="translate(-295.657 -410.594)"/>
            </g>
          </g>
        </g>
      </g>
    </g>
  </g>
</svg>
