<svg xmlns="http://www.w3.org/2000/svg" xmlns:xlink="http://www.w3.org/1999/xlink" width="190" height="100" viewBox="0 0 190 100">
  <defs>
    <clipPath id="clip-path">
      <rect id="Rectangle_37691" data-name="Rectangle 37691" width="190" height="100" fill="none"/>
    </clipPath>
  </defs>
  <g id="t5-ic11" transform="translate(-180 -2525)">
    <g id="Group_117647" data-name="Group 117647" transform="translate(180 2525)">
      <g id="Group_117637" data-name="Group 117637" clip-path="url(#clip-path)">
        <path id="Path_179611" data-name="Path 179611" d="M228.678,60.115c4.97-10.786,3.181-25.3-7.345-31.657-8.845-5.34-20.451-3.392-30.536-.592s-20.775,6.285-30.845,3.443c-13.32-3.759-20.6-17.052-31.941-24.618-14.265-9.524-35.055-8.653-49.1,1.164a44.8,44.8,0,0,0-18.1,43.712c2.8,16.227,14.666,30.574,30.157,38.221s34.2,8.806,51.042,4.321c9.72-2.589,18.868-6.952,28.742-8.967,11.085-2.261,24.481,3.36,34.423-.11,9.438-3.295,19.691-16.642,23.5-24.917" transform="translate(-41.328 0)" fill="#e6fffb"/>
        <path id="Path_179612" data-name="Path 179612" d="M143.342,119.453c-4.664,0-9.209-2.094-13.616-4.124-1.646-.758-3.2-1.474-4.718-2.06a75.24,75.24,0,0,0-18.852-4.491c-9.1-1.015-18.682-.68-27.948-.357-17.274.6-35.135,1.227-51.159-6.694A49.291,49.291,0,0,1,2.858,75.7,42.765,42.765,0,0,1,4.821,40.558a25.211,25.211,0,0,1,6.351-7.981c3.741-2.981,8.891-4.7,14.893-4.971,8.1-.365,15.893,2.021,21.372,6.541A50.619,50.619,0,0,1,53.309,40.2c1.117,1.288,2.272,2.62,3.481,3.842C66.825,54.189,82.673,58.4,97.166,54.77A92.043,92.043,0,0,0,109,50.619c1.105-.445,2.248-.906,3.378-1.346,12.519-4.876,22.667-6.759,31.934-5.922C156.3,44.432,166.757,50.658,171.6,59.6c6.579,12.152,3.609,26.373-8.828,42.267-1.124,1.436-2.209,3.113-3.358,4.888-3.664,5.661-7.816,12.078-14.847,12.649-.408.034-.815.049-1.222.049M92.132,106.625a128.349,128.349,0,0,1,14.185.689,76.741,76.741,0,0,1,19.227,4.582c1.566.6,3.141,1.33,4.809,2.1,4.615,2.127,9.385,4.323,14.089,3.943,6.3-.512,10.069-6.34,13.716-11.976,1.168-1.8,2.27-3.508,3.435-5,12.045-15.393,14.97-29.077,8.693-40.67-4.607-8.51-14.611-14.441-26.107-15.478-9.029-.816-18.959,1.037-31.255,5.826-1.122.437-2.261.9-3.362,1.339A93.164,93.164,0,0,1,97.531,56.2a44.694,44.694,0,0,1-10.852,1.328c-11.619,0-23.029-4.442-30.951-12.454-1.243-1.256-2.414-2.607-3.547-3.913a49.491,49.491,0,0,0-5.7-5.879c-5.2-4.288-12.614-6.542-20.353-6.2-3.963.179-9.614,1.13-14.028,4.647A23.777,23.777,0,0,0,6.133,41.25,41.287,41.287,0,0,0,4.248,75.175a47.8,47.8,0,0,0,23.465,25.235c15.685,7.753,33.354,7.137,50.442,6.539,4.612-.161,9.3-.325,13.978-.325" transform="translate(0 -19.453)" fill="#fefba6"/>
      </g>
    </g>
    <g id="el-planeta-tierra" transform="translate(233 2533)">
      <path id="Path_151046" data-name="Path 151046" d="M104.236,159.525a27.487,27.487,0,1,0-27.487,27.56A27.524,27.524,0,0,0,104.236,159.525Zm0,0" transform="translate(-41.083 -110.057)" fill="#00dbb6"/>
      <path id="Path_151047" data-name="Path 151047" d="M193.978,131.965a27.639,27.639,0,0,0-4.15.313,27.575,27.575,0,0,1,0,54.495,27.556,27.556,0,1,0,4.15-54.807Zm0,0" transform="translate(-158.313 -110.056)" fill="#00b68f"/>
      <g id="Group_96796" data-name="Group 96796" transform="translate(8.179 21.963)">
        <path id="Path_151048" data-name="Path 151048" d="M163.948,142.951c-4.234,2.653-7.41,6.9-5.028,11.675s7.674,2.919,12.571,2.255,1.191,14.461,4.1,18.176,11.115-3.715,10.321-8.491c-1.175-7.071-1.588-9.552,7.94-14.594l.026-.009A27.518,27.518,0,0,0,169.242,132.3v.042s-1.058,7.96-5.293,10.614Zm0,0" transform="translate(-140.034 -132.296)" fill="#feac66"/>
        <path id="Path_151049" data-name="Path 151049" d="M318.566,168.6l.005,0Zm0,0" transform="translate(-273.857 -162.571)" fill="#feac66"/>
        <path id="Path_151050" data-name="Path 151050" d="M338.809,187.961h0Zm0,0" transform="translate(-290.74 -178.72)" fill="#feac66"/>
        <path id="Path_151051" data-name="Path 151051" d="M58.489,262.2c-1.272-1.939,2.249-6.5,3.043-9.95s-3.97-3.184-5.425-4.378-3.44-6.368-4.9-7.562l-.233-.184a27.638,27.638,0,0,0,9.487,31.807l.008-.578a12.687,12.687,0,0,0-1.984-9.155Zm0,0" transform="translate(-49.262 -222.224)" fill="#feac66"/>
        <path id="Path_151052" data-name="Path 151052" d="M314.058,338.209c-.006-.034-.012-.068-.017-.1a27.431,27.431,0,0,1-2.284,6.05C313.322,342.311,314.367,340.06,314.058,338.209Zm0,0" transform="translate(-268.179 -303.938)" fill="#feac66"/>
      </g>
      <path id="Path_151053" data-name="Path 151053" d="M223.606,132.3v.042s-.089.665-.316,1.672a27.571,27.571,0,0,1,17.666,23.259c1.215-1.661,3.436-3.272,7.261-5.3l.026-.009A27.519,27.519,0,0,0,223.606,132.3Zm0,0" transform="translate(-186.219 -110.334)" fill="#ff8628"/>
      <path id="Path_151054" data-name="Path 151054" d="M60.875,37.843C47.582,35.588,39.336,18.852,39.336,18.852s13.305-13.08,26.6-10.825S87.472,27.019,87.472,27.019,74.166,40.1,60.875,37.843Zm0,0" transform="translate(-32.805 -6.477)" fill="#fcf544"/>
      <path id="Path_151055" data-name="Path 151055" d="M161.76,8.033a20.635,20.635,0,0,0-7.522.189c12.736,2.86,20.593,18.8,20.593,18.8s-8.71,8.56-19.076,10.635c.313.071.627.135.945.189,13.292,2.255,26.6-10.825,26.6-10.825S175.053,10.288,161.76,8.033Zm0,0" transform="translate(-128.632 -6.482)" fill="#d6cf00"/>
      <path id="Path_151056" data-name="Path 151056" d="M378.414,34.427c3.566-8.438,15.921-11.279,15.921-11.279s6.574,10.84,3.008,19.277S381.422,53.7,381.422,53.7s-6.574-10.839-3.008-19.277Zm0,0" transform="translate(-314.707 -19.305)" fill="#fcf544"/>
      <path id="Path_151057" data-name="Path 151057" d="M408.9,23.148a33.058,33.058,0,0,0-6.136,2.238c1.706,3.615,4.412,10.952,1.839,17.039-1.866,4.414-6.136,7.3-9.785,9.041.659,1.4,1.169,2.237,1.169,2.237s12.355-2.84,15.921-11.278S408.9,23.148,408.9,23.148Zm0,0" transform="translate(-329.27 -19.305)" fill="#d6cf00"/>
      <path id="Path_151058" data-name="Path 151058" d="M83.656,9.907a34.2,34.2,0,0,0-2.963-6.743A1.27,1.27,0,0,0,79.349,2.6a34.229,34.229,0,0,0-6.9,2.575c-4.894,2.444-8.313,5.706-9.888,9.432a18.27,18.27,0,0,0-.569,11.089,35.32,35.32,0,0,0-6.639-5.778,51.425,51.425,0,0,0-5.77-8.845,1.246,1.246,0,0,0-1.933,1.571A49.815,49.815,0,0,1,52.244,19.4L40.9,17.187,30.125,2.487a17.6,17.6,0,0,1,3.141.321,21.5,21.5,0,0,1,9.727,5.014,1.246,1.246,0,0,0,1.615-1.9A23.954,23.954,0,0,0,33.744.364C28.039-.753,21.385.713,14.5,4.6a49.688,49.688,0,0,0-8.707,6.22,1.318,1.318,0,0,0-.148,1.709A50.813,50.813,0,0,0,11.229,21.3a38.94,38.94,0,0,0,5.886,6.051q-.87.729-1.691,1.529a28.787,28.787,0,0,0,9.313,47.249,1.246,1.246,0,0,0,.936-2.307,26.288,26.288,0,0,1-5.386-2.963,14.029,14.029,0,0,0-2.114-9.821c-.395-.615.785-3.029,1.49-4.471a23.383,23.383,0,0,0,1.829-4.47,3.408,3.408,0,0,0-1.211-3.733,9.19,9.19,0,0,0-2.96-1.312,6.358,6.358,0,0,1-1.626-.637,16.569,16.569,0,0,1-2.108-3.431,21.3,21.3,0,0,0-2.276-3.741,26.479,26.479,0,0,1,7.86-10.357,21.774,21.774,0,0,0,10.492,3.9c-4.4,3.41-5.824,7.764-3.789,11.947,2.376,4.884,7.266,4.1,11.582,3.416.746-.119,1.519-.243,2.259-.335.278-.035.361.041.417.09.945.84.917,4.855.9,7.786-.028,4.054-.054,7.884,1.457,9.85a3.8,3.8,0,0,0,3.127,1.515A6.28,6.28,0,0,0,48.07,66.5c3.755-1.608,7.659-6.449,7.064-10.279-.521-3.348-.865-5.56-.053-7.344.751-1.65,2.565-3.178,6.139-5.128A26.294,26.294,0,0,1,32.647,75.58a1.246,1.246,0,0,0-.272,2.475,28.943,28.943,0,0,0,23.307-8.034,28.768,28.768,0,0,0-4.429-44.682c1.645-1.173,2.871-2.187,3.551-2.776a33.061,33.061,0,1,1-51.862,21.5,1.246,1.246,0,0,0-2.457-.406A35.541,35.541,0,0,0,29.761,84.517,35.992,35.992,0,0,0,35.629,85,35.565,35.565,0,0,0,68.154,35.265,35.839,35.839,0,0,0,73.9,33c4.894-2.444,8.313-5.706,9.888-9.432s1.532-8.453-.127-13.665ZM11.384,44.145A15.5,15.5,0,0,0,14.1,48.324a7.135,7.135,0,0,0,2.492,1.107c2.434.748,2.717,1.115,2.483,2.078a21.747,21.747,0,0,1-1.645,3.963c-1.286,2.631-2.5,5.115-1.35,6.91a11.842,11.842,0,0,1,1.885,6.607,26.54,26.54,0,0,1-7.674-26.852c.366.628.752,1.357,1.1,2.009Zm60.246-24.47L68.09,11.1a23.305,23.305,0,0,1,5.421-3.676,33.27,33.27,0,0,1,3.934-1.656ZM79.742,6.733A33.286,33.286,0,0,1,81.3,10.714a23.8,23.8,0,0,1,1.128,6l-8.293,3.421Zm-14.888,8.84a11.832,11.832,0,0,1,1.39-2.417l4.028,9.761-3.615,8.644a33.124,33.124,0,0,1-1.613-4.1c-1.018-3.219-1.877-7.9-.19-11.888Zm7.977,15.178a33.117,33.117,0,0,1-3.811,1.613l3.752-8.969,9.549-3.94a12.027,12.027,0,0,1-.833,3.147c-1.687,3.992-5.639,6.635-8.657,8.149Zm-44.9-.709c-.44-.086-.874-.191-1.3-.311l13.781-10.1L51.758,21.84c-4.134,3.257-14.194,10.089-23.827,8.2Zm-12.6-7.791A48.484,48.484,0,0,1,8.988,13.5l14.441,2.815ZM17.887,5.638l6.042,8.241L9.395,11.045a49.055,49.055,0,0,1,8.492-5.408Zm9.645,8.943L20.206,4.59a28.009,28.009,0,0,1,6.96-1.926L37.3,16.484Zm-.775,2.386L37.084,18.98,23.829,28.7a25.76,25.76,0,0,1-6.717-4.659ZM60.544,41.283c-4.489,2.392-6.687,4.27-7.73,6.562-1.12,2.46-.709,5.1-.141,8.757.335,2.156-2.226,6.169-5.583,7.607-1.242.532-2.126.469-2.63-.187-.99-1.287-.962-5.185-.941-8.316.029-4.332.055-8.073-1.732-9.663a2.936,2.936,0,0,0-2.379-.7c-.783.1-1.577.224-2.344.346-4.577.73-7.458,1.021-8.95-2.046-2.418-4.969,2.477-8.649,4.693-10a7.884,7.884,0,0,0,1.259-.96,36.2,36.2,0,0,0,14.928-5.817,26.43,26.43,0,0,1,11.55,14.419Zm0,0" transform="translate(0 0)"/>
    </g>
  </g>
</svg>
