<svg xmlns="http://www.w3.org/2000/svg" width="54.511" height="80" viewBox="0 0 54.511 80">
  <g id="t5-ic7" transform="translate(-0.001 0)">
    <path id="Path_151088" data-name="Path 151088" d="M133.292,28.2a14.867,14.867,0,0,1-.479-3.682c0-5.837,3.765-10.834,5.568-12.892a1.251,1.251,0,0,1,1.882,0c1.8,2.058,5.568,7.055,5.568,12.892,0,7.675-6.509,13.9-6.509,13.9a50.665,50.665,0,0,1-3.287-4.121A18.538,18.538,0,0,1,133.292,28.2Zm0,0" transform="translate(-112.059 -9.449)" fill="#00dbb6"/>
    <path id="Path_151089" data-name="Path 151089" d="M161.491,11.623a1.25,1.25,0,0,0-1.882,0c-.452.516-1.028,1.218-1.637,2.072,1.818,2.547,3.931,6.448,3.931,10.82,0,4.348-2.089,8.229-3.9,10.778,1.432,1.9,2.548,3.119,2.548,3.119s6.509-6.222,6.509-13.9C167.059,18.678,163.294,13.682,161.491,11.623Zm0,0" transform="translate(-133.288 -9.447)" fill="#009e83"/>
    <path id="Path_151090" data-name="Path 151090" d="M230.267,126.129c.829-.123,1.557-.192,2.131-.229a1.25,1.25,0,0,1,1.329,1.331c-.18,2.73-1.051,8.926-5.179,13.053-5.427,5.427-14.429,5.224-14.429,5.224s-.2-9,5.224-14.429a14.584,14.584,0,0,1,4.048-2.867A26.684,26.684,0,0,1,230.267,126.129Zm0,0" transform="translate(-180.662 -106.225)" fill="#00dbb6"/>
    <path id="Path_151091" data-name="Path 151091" d="M232.4,125.9c-.574.038-1.3.107-2.131.229a26.017,26.017,0,0,0-3.434.784,1.267,1.267,0,0,1,.02.317c-.18,2.73-1.051,8.926-5.179,13.053a17.466,17.466,0,0,1-7.531,4.215c-.032.638-.024,1.01-.024,1.01s9,.2,14.429-5.224c4.128-4.127,5-10.323,5.179-13.053A1.249,1.249,0,0,0,232.4,125.9Zm0,0" transform="translate(-180.661 -106.225)" fill="#009e83"/>
    <path id="Path_151092" data-name="Path 151092" d="M25.6,202.338c5.427,5.427,5.224,14.429,5.224,14.429s-9,.2-14.43-5.224c-4.128-4.127-5-10.323-5.179-13.053a1.25,1.25,0,0,1,1.331-1.33C15.276,197.34,21.473,198.211,25.6,202.338Zm0,0" transform="translate(-9.46 -166.351)" fill="#00dbb6"/>
    <path id="Path_151093" data-name="Path 151093" d="M25.767,202.338c-4.128-4.127-10.324-5-13.054-5.178a1.248,1.248,0,0,0-1.3.978,17.428,17.428,0,0,1,7.481,4.2c4.325,4.324,5.074,10.919,5.2,13.42a25.438,25.438,0,0,0,6.9,1.009s.2-9-5.223-14.429Zm0,0" transform="translate(-9.626 -166.351)" fill="#009e83"/>
    <path id="Path_151094" data-name="Path 151094" d="M7.5,423.348s-.654-5.722,7.194-6.54c4.682-.488,3.27-6.7,8.012-8.174,5.04-1.564,6.509,3.236,10.464,2.78,4.251-.491,5.723-2.943,9.319-2.125s3.45,6.323,9.155,6.866c6.867.654,7.849,3.76,8.012,7.193H7.5Zm0,0" transform="translate(-6.318 -344.519)" fill="#fef95e"/>
    <path id="Path_151095" data-name="Path 151095" d="M212.726,420.493c-5.706-.544-5.559-6.049-9.155-6.867-2.13-.484-3.514.178-5.172.9,2.047,1.821,2.825,5.525,7.452,5.966,6.867.654,7.849,3.76,8.012,7.194h6.875c-.163-3.434-1.144-6.54-8.012-7.194Zm0,0" transform="translate(-167.398 -348.857)" fill="#fff600"/>
    <path id="Path_151096" data-name="Path 151096" d="M45.44,70.469c-2.716-.258-3.817-1.827-4.983-3.488-1-1.428-2.038-2.9-4.024-3.355a8.354,8.354,0,0,0-5.71.886,17.925,17.925,0,0,1-2.288.874V45.559l5.254-5.1c1.581-.008,9.771-.311,15.028-5.568,5.716-5.715,5.576-14.9,5.567-15.284a1.171,1.171,0,0,0-1.145-1.145,24.011,24.011,0,0,0-3.7.287,1.173,1.173,0,0,0,.344,2.318c.836-.124,1.565-.189,2.125-.224-.158,2.518-.949,8.5-4.843,12.391-3.192,3.192-7.808,4.3-10.75,4.68l9.183-8.921a1.173,1.173,0,0,0-1.633-1.682l-8.976,8.721c.427-2.944,1.571-7.288,4.629-10.346a14.3,14.3,0,0,1,3.744-2.647,1.173,1.173,0,0,0-1.047-2.1,16.655,16.655,0,0,0-4.354,3.087c-4.83,4.83-5.479,12.135-5.559,14.516l-3.861,3.751V29.447c1.431-1.49,6.509-7.283,6.509-14.379,0-8.083-6.591-14.476-6.871-14.744a1.173,1.173,0,0,0-1.62,0c-.28.268-6.871,6.661-6.871,14.744A16.063,16.063,0,0,0,20.1,19.04a1.172,1.172,0,0,0,2.271-.58,13.746,13.746,0,0,1-.443-3.392c0-5.488,3.67-10.286,5.339-12.184,1.67,1.894,5.336,6.68,5.336,12.184,0,4.409-2.369,8.372-4.166,10.744V12.78a1.173,1.173,0,0,0-2.344,0V25.821c-.363-.477-.746-1.015-1.13-1.611a1.172,1.172,0,0,0-1.97,1.268,27.192,27.192,0,0,0,3.1,3.967v24.4l-3.552-3.656c-.008-1.58-.311-9.769-5.569-15.028-5.715-5.715-14.9-5.576-15.284-5.566A1.172,1.172,0,0,0,.539,30.737c-.009.388-.149,9.569,5.567,15.284,4.831,4.83,12.136,5.479,14.517,5.558l5.467,5.627v8.537a6.3,6.3,0,0,1-2.9-1.3c-2.22-1.45-4.493-2.286-7.144-1.447-2.437.771-3.682,2.763-4.689,4.963-.873,1.906-1.448,2.993-3.1,3.165-3.068.32-5.344,1.378-6.763,3.147A6.813,6.813,0,0,0,.021,78.962,1.172,1.172,0,0,0,1.185,80H8.824a1.173,1.173,0,0,0,0-2.344H2.43a4.456,4.456,0,0,1,.891-1.919c1.014-1.263,2.756-2.031,5.179-2.283,3.06-.319,4.127-2.648,4.984-4.52.721-1.573,1.494-3.129,3.253-3.7,1.973-.641,3.536.1,5.168,1.171,1.366.892,2.914,1.9,5.082,1.653a15.252,15.252,0,0,0,4.673-1.4c1.5-.656,2.581-1.129,4.252-.749,1.052.239,1.683,1.074,2.625,2.416,1.287,1.832,2.888,4.113,6.68,4.475,5.317.507,6.525,2.433,6.849,4.855H15.231a1.173,1.173,0,0,0,0,2.344H53.34a1.182,1.182,0,0,0,1.17-1.227c-.176-3.7-1.391-7.573-9.071-8.3ZM7.764,44.364C3.884,40.484,3.085,34.5,2.923,31.976c2.524.163,8.51.961,12.389,4.841,3.192,3.192,4.3,7.808,4.681,10.75L11.07,38.384A1.172,1.172,0,0,0,9.39,40.017l8.716,8.97c-2.948-.43-7.294-1.577-10.342-4.623Zm0,0" transform="translate(0)"/>
    <path id="Path_151097" data-name="Path 151097" d="M105.575,447.3a1.173,1.173,0,0,0,0,2.344A1.173,1.173,0,0,0,105.575,447.3Zm0,0" transform="translate(-88.123 -377.409)"/>
    <path id="Path_151098" data-name="Path 151098" d="M183.008,469.273a1.173,1.173,0,0,0,0,2.344A1.173,1.173,0,0,0,183.008,469.273Zm0,0" transform="translate(-153.457 -395.948)"/>
    <path id="Path_151099" data-name="Path 151099" d="M223.817,442.07a1.173,1.173,0,0,0,0,2.344A1.173,1.173,0,0,0,223.817,442.07Zm0,0" transform="translate(-187.889 -372.996)"/>
  </g>
</svg>
