<svg id="t5-ic4" xmlns="http://www.w3.org/2000/svg" width="80" height="82.687" viewBox="0 0 80 82.687">
  <path id="Path_151274" data-name="Path 151274" d="M162.559,42.668Zm0,0" transform="translate(-136.306 -35.777)" fill="#e6e6e6"/>
  <path id="Path_151275" data-name="Path 151275" d="M142.474,377.465V393.2a2.756,2.756,0,1,1-5.512,0V378.557Zm0,1.092" transform="translate(-114.842 -314.645)" fill="#ff8628"/>
  <path id="Path_151276" data-name="Path 151276" d="M139.717,474.845a2.756,2.756,0,0,1-2.756-2.756v-2.756h5.512v2.756a2.756,2.756,0,0,1-2.756,2.756Zm0,0" transform="translate(-114.842 -393.536)" fill="#fff600"/>
  <path id="Path_151277" data-name="Path 151277" d="M78.924,154.447a17.916,17.916,0,1,1-17.916-17.916A17.916,17.916,0,0,1,78.924,154.447Zm0,0" transform="translate(-36.134 -114.481)" fill="#00dbb6"/>
  <path id="Path_151278" data-name="Path 151278" d="M53.852,166.588a19.294,19.294,0,1,0-19.294-19.294A19.294,19.294,0,0,0,53.852,166.588Zm0-35.831a16.537,16.537,0,1,1-16.538,16.537A16.537,16.537,0,0,1,53.852,130.756Zm0,0" transform="translate(-28.977 -107.328)"/>
  <path id="Path_151279" data-name="Path 151279" d="M21.13,64.4V78.553a4.134,4.134,0,1,0,8.269,0V75.8H79.012a1.378,1.378,0,0,0,1.378-1.378V11.025a1.378,1.378,0,0,0-1.378-1.378H74.877V6.891A1.378,1.378,0,0,0,73.5,5.513H44.558a5.512,5.512,0,0,0-11.025,0H26.643a1.378,1.378,0,0,0-1.378,1.378V15.16A24.792,24.792,0,0,0,21.13,64.4Zm4.135.373c.466,0,.919-.044,1.378-.07v9.717H23.886V64.7C24.346,64.728,24.8,64.772,25.265,64.772Zm0,15.159a1.378,1.378,0,0,1-1.378-1.378V77.175h2.756v1.378A1.378,1.378,0,0,1,25.265,79.931ZM74.877,68.907V12.4h2.756V73.041H29.4V70.284H73.5a1.378,1.378,0,0,0,1.378-1.378ZM39.046,2.756A2.756,2.756,0,0,1,41.8,5.513H36.29a2.756,2.756,0,0,1,2.756-2.756ZM28.021,8.269H41.8V12.4a1.378,1.378,0,0,1-2.756,0V11.025H36.29V12.4a4.134,4.134,0,0,0,8.269,0V8.269H72.121V67.528H29.4V64.4a24.785,24.785,0,0,0-1.378-49.076Zm-2.756,9.647a22.05,22.05,0,1,1-22.05,22.05,22.05,22.05,0,0,1,22.05-22.05Zm0,0" transform="translate(-0.39 0)"/>
  <path id="Path_151280" data-name="Path 151280" d="M95.671,207.028h6.89A11.038,11.038,0,0,0,113.587,196v-6.891a1.378,1.378,0,0,0-1.378-1.378h-6.891a11.038,11.038,0,0,0-11.025,11.025v6.891A1.378,1.378,0,0,0,95.671,207.028Zm6.89-2.756H99l2.756-2.756h6.954A8.245,8.245,0,0,1,102.561,204.271Zm7.787-5.512H104.51l6.32-6.32V196A8.227,8.227,0,0,1,110.348,198.759Zm-1.466-8.269-3.564,3.564V190.49Zm-6.321.482v5.838l-5.512,5.512v-3.564A8.27,8.27,0,0,1,102.561,190.972Zm0,0" transform="translate(-79.065 -157.415)"/>
  <path id="Path_151281" data-name="Path 151281" d="M401.492,76.8h2.756v2.756h-2.756Zm0,0" transform="translate(-336.652 -64.398)"/>
  <path id="Path_151282" data-name="Path 151282" d="M401.492,110.934h2.756v2.756h-2.756Zm0,0" transform="translate(-336.652 -93.018)"/>
  <path id="Path_151283" data-name="Path 151283" d="M324.695,153.6h2.756v2.756h-2.756Zm0,0" transform="translate(-272.257 -128.795)"/>
  <path id="Path_151284" data-name="Path 151284" d="M358.828,153.6h9.646v2.756h-9.646Zm0,0" transform="translate(-300.878 -128.795)"/>
  <path id="Path_151285" data-name="Path 151285" d="M324.695,187.734h15.159v2.756H324.695Zm0,0" transform="translate(-272.257 -157.415)"/>
  <path id="Path_151286" data-name="Path 151286" d="M299.094,341.332h2.756v2.756h-2.756Zm0,0" transform="translate(-250.791 -286.207)"/>
  <path id="Path_151287" data-name="Path 151287" d="M333.227,341.332h13.781v2.756H333.227Zm0,0" transform="translate(-279.411 -286.207)"/>
  <path id="Path_151288" data-name="Path 151288" d="M299.094,375.465h19.293v2.757H299.094Zm0,0" transform="translate(-250.791 -314.828)"/>
  <path id="Path_151289" data-name="Path 151289" d="M324.695,221.867h15.159v2.756H324.695Zm0,0" transform="translate(-272.257 -186.036)"/>
  <path id="Path_151290" data-name="Path 151290" d="M324.695,256h15.159v2.756H324.695Zm0,0" transform="translate(-272.257 -214.656)"/>
  <path id="Path_151291" data-name="Path 151291" d="M324.695,290.133h15.159v2.756H324.695Zm0,0" transform="translate(-272.257 -243.277)"/>
  <path id="Path_151292" data-name="Path 151292" d="M15.228,357.964v9.852h2.756V356.956A1.378,1.378,0,0,0,17,355.634,27.713,27.713,0,0,1,2.253,344.977L0,346.557a30.508,30.508,0,0,0,15.228,11.408Zm0,0" transform="translate(0 -289.264)"/>
  <path id="Path_151293" data-name="Path 151293" d="M247.9,486.4h2.756v2.756H247.9Zm0,0" transform="translate(-207.86 -407.845)"/>
  <path id="Path_151294" data-name="Path 151294" d="M282.027,486.4h28.94v2.756h-28.94Zm0,0" transform="translate(-236.48 -407.845)"/>
  <path id="Path_151295" data-name="Path 151295" d="M299.094,0h19.293V2.756H299.094Zm0,0" transform="translate(-250.791)"/>
</svg>
