<svg xmlns="http://www.w3.org/2000/svg" width="80" height="79.996" viewBox="0 0 80 79.996">
  <g id="t5-ic9" transform="translate(0 -0.003)">
    <g id="_027---Lorry-At-Landfill" data-name="027---Lorry-At-Landfill" transform="translate(0 0.003)">
      <path id="Shape" d="M22,42V55.333A2.675,2.675,0,0,1,19.333,58H2.68A3.235,3.235,0,0,1,2,56a3.333,3.333,0,0,1,3.333-3.333,3.054,3.054,0,0,1,1.04.187A4.652,4.652,0,0,1,10.667,50a4.6,4.6,0,0,1,1.293.2,5.323,5.323,0,0,1,4.707-2.867A5.333,5.333,0,0,1,22,42Z" transform="translate(0.667 13.997)" fill="#00dbb6"/>
      <path id="Shape-2" data-name="Shape" d="M63.667,32.667V38a1.333,1.333,0,0,1-1.333,1.333h-2.84a5.333,5.333,0,0,0-10.32,0H45v-24A1.333,1.333,0,0,1,46.333,14H53a2.675,2.675,0,0,1,2.667,2.667v8a2.675,2.675,0,0,0,2.667,2.667V30A2.675,2.675,0,0,0,61,32.667Z" transform="translate(15 4.663)" fill="#ded600"/>
      <path id="Shape-3" data-name="Shape" d="M60,32.667A2.675,2.675,0,0,1,57.333,30V27.333a2.675,2.675,0,0,1-2.667-2.667v-8A2.675,2.675,0,0,0,52,14H48a2.675,2.675,0,0,1,2.667,2.667v8a2.675,2.675,0,0,0,2.667,2.667V30A2.675,2.675,0,0,0,56,32.667h2.667V38a1.308,1.308,0,0,1-.337.86,4.838,4.838,0,0,1,.164.473h2.84A1.333,1.333,0,0,0,62.667,38V32.667Z" transform="translate(16 4.663)" fill="#fff600"/>
      <path id="Shape-4" data-name="Shape" d="M58.667,35.33A5.333,5.333,0,1,1,48,35.33,4.876,4.876,0,0,1,48.173,34a5.333,5.333,0,0,1,10.32,0A4.876,4.876,0,0,1,58.667,35.33Z" transform="translate(16 10)" fill="#7f8e94"/>
      <path id="Shape-5" data-name="Shape" d="M57.66,34a5.292,5.292,0,0,0-7.16-3.6A5.312,5.312,0,0,1,53.66,34a4.876,4.876,0,0,1,.173,1.333A5.333,5.333,0,0,1,50.5,40.268a5.323,5.323,0,0,0,7.333-4.933A4.876,4.876,0,0,0,57.66,34Z" transform="translate(16.833 9.996)" fill="#545c60"/>
      <circle id="Oval" cx="5.357" cy="5.357" r="5.357" transform="translate(28.145 39.855)" fill="#7f8e94"/>
      <path id="Shape-6" data-name="Shape" d="M25.5,30a5.311,5.311,0,0,0-2,.4,5.325,5.325,0,0,1,0,9.877A5.333,5.333,0,1,0,25.5,30Z" transform="translate(7.833 9.997)" fill="#545c60"/>
      <path id="Shape-7" data-name="Shape" d="M60.333,25.333v4H57.667A2.675,2.675,0,0,1,55,26.667V24h4A1.333,1.333,0,0,1,60.333,25.333Z" transform="translate(18.333 7.997)" fill="#ffdc00"/>
      <path id="Shape-8" data-name="Shape" d="M51.667,30v4a1.333,1.333,0,0,1-1.333,1.333h-20A5.333,5.333,0,0,0,25,30Z" transform="translate(8.333 9.997)" fill="#607d8b"/>
      <path id="Shape-9" data-name="Shape" d="M28.333,30A5.333,5.333,0,0,0,23,35.333H16.333A1.333,1.333,0,0,1,15,34V31.333A1.333,1.333,0,0,1,16.333,30Z" transform="translate(5 9.997)" fill="#607d8b"/>
      <path id="Shape-10" data-name="Shape" d="M11.534,10.881l24.748-9.7A2.655,2.655,0,0,1,39.723,2.7L48.417,25.06a2.667,2.667,0,0,1-1.508,3.453L18.451,39.666l-9.177-23.6a4.007,4.007,0,0,1,2.26-5.185Z" transform="translate(2.999 0.33)" fill="#ded600"/>
      <path id="Shape-11" data-name="Shape" d="M46.186,25.06,37.492,2.7a2.655,2.655,0,0,0-3.441-1.515l-1.276.5A2.628,2.628,0,0,1,33.492,2.7L42.186,25.06a2.667,2.667,0,0,1-1.508,3.453L15.691,38.306l.533,1.36L44.682,28.513a2.667,2.667,0,0,0,1.5-3.453Z" transform="translate(5.23 0.33)" fill="#fff600"/>
      <path id="Shape-12" data-name="Shape" d="M49.333,22.333A1.333,1.333,0,0,1,48,21V18.333a1.333,1.333,0,1,1,2.667,0V21A1.333,1.333,0,0,1,49.333,22.333Z" transform="translate(16 5.663)"/>
      <path id="Shape-13" data-name="Shape" d="M78.333,40.667v24A1.333,1.333,0,0,1,77,66H2.333A1.333,1.333,0,0,1,1,64.667v-4a1.333,1.333,0,0,1,1.333-1.333H19.667a2.675,2.675,0,0,0,2.667-2.667v-16A2.675,2.675,0,0,1,25,38H75.667A2.675,2.675,0,0,1,78.333,40.667Z" transform="translate(0.333 12.663)" fill="#ff8628"/>
      <path id="Shape-14" data-name="Shape" d="M58,38H54a2.675,2.675,0,0,1,2.667,2.667v24A1.333,1.333,0,0,1,55.333,66h4a1.333,1.333,0,0,0,1.333-1.333v-24A2.675,2.675,0,0,0,58,38Z" transform="translate(18 12.663)" fill="#ff8628" style="mix-blend-mode: multiply;isolation: isolate"/>
      <path id="Shape-15" data-name="Shape" d="M12.04,13.11a5.987,5.987,0,0,0-4.68,5.547A5.921,5.921,0,0,0,4.053,27.1a4.667,4.667,0,1,0,7.28,3.867,3.547,3.547,0,0,0-.04-.373,5.975,5.975,0,0,0,3.373,1.04,5.867,5.867,0,0,0,3.973-1.52Z" transform="translate(0.667 4.367)" fill="#00dbb6"/>
      <path id="Shape-16" data-name="Shape" d="M56.667,43.667H51.333a1.333,1.333,0,1,1,0-2.667h5.333a1.333,1.333,0,1,1,0,2.667Z" transform="translate(16.667 13.663)" fill="#783e22"/>
      <path id="Shape-17" data-name="Shape" d="M52.667,47.667H47.333a1.333,1.333,0,0,1,0-2.667h5.333a1.333,1.333,0,0,1,0,2.667Z" transform="translate(15.333 14.997)" fill="#783e22"/>
      <path id="Shape-18" data-name="Shape" d="M56.667,51.667H51.333a1.333,1.333,0,1,1,0-2.667h5.333a1.333,1.333,0,1,1,0,2.667Z" transform="translate(16.667 16.33)" fill="#783e22"/>
      <path id="Shape-19" data-name="Shape" d="M52.667,55.667H47.333a1.333,1.333,0,0,1,0-2.667h5.333a1.333,1.333,0,0,1,0,2.667Z" transform="translate(15.333 17.663)" fill="#783e22"/>
      <path id="Shape-20" data-name="Shape" d="M44.667,43.667H39.333a1.333,1.333,0,0,1,0-2.667h5.333a1.333,1.333,0,0,1,0,2.667Z" transform="translate(12.667 13.663)" fill="#783e22"/>
      <path id="Shape-21" data-name="Shape" d="M40.667,47.667H35.333a1.333,1.333,0,1,1,0-2.667h5.333a1.333,1.333,0,0,1,0,2.667Z" transform="translate(11.333 14.997)" fill="#783e22"/>
      <path id="Shape-22" data-name="Shape" d="M44.667,51.667H39.333a1.333,1.333,0,1,1,0-2.667h5.333a1.333,1.333,0,1,1,0,2.667Z" transform="translate(12.667 16.33)" fill="#783e22"/>
      <path id="Shape-23" data-name="Shape" d="M40.667,55.667H35.333a1.333,1.333,0,1,1,0-2.667h5.333a1.333,1.333,0,1,1,0,2.667Z" transform="translate(11.333 17.663)" fill="#783e22"/>
      <path id="Shape-24" data-name="Shape" d="M32.667,43.667H27.333a1.333,1.333,0,0,1,0-2.667h5.333a1.333,1.333,0,0,1,0,2.667Z" transform="translate(8.667 13.663)" fill="#783e22"/>
      <path id="Shape-25" data-name="Shape" d="M28.667,47.667H23.333a1.333,1.333,0,0,1,0-2.667h5.333a1.333,1.333,0,0,1,0,2.667Z" transform="translate(7.333 14.997)" fill="#783e22"/>
      <path id="Shape-26" data-name="Shape" d="M32.667,51.667H27.333a1.333,1.333,0,1,1,0-2.667h5.333a1.333,1.333,0,1,1,0,2.667Z" transform="translate(8.667 16.33)" fill="#783e22"/>
      <path id="Shape-27" data-name="Shape" d="M28.667,55.667H23.333a1.333,1.333,0,1,1,0-2.667h5.333a1.333,1.333,0,1,1,0,2.667Z" transform="translate(7.333 17.663)" fill="#783e22"/>
      <g id="Group_96835" data-name="Group 96835">
        <path id="Shape-28" data-name="Shape" d="M77.333,30.666h-4A1.333,1.333,0,0,1,72,29.332v-8a4,4,0,0,0-4-4H61.333A2.667,2.667,0,0,0,58.667,20V38.666H50.157l-3.547-7.1L50.4,30.087a4.008,4.008,0,0,0,2.267-5.179l-8.7-22.361A3.987,3.987,0,0,0,38.8.275l-24.749,9.7a5.333,5.333,0,0,0-3.076,6.7A7.344,7.344,0,0,0,6.791,22.1a7.317,7.317,0,0,0-4.124,6.568A7.1,7.1,0,0,0,3.1,31.083a6,6,0,1,0,10,5.9,7.435,7.435,0,0,0,5.571-.467l1.051,2.705a2.656,2.656,0,0,0-1.051,2.108V44a2.667,2.667,0,0,0,2.667,2.667H26.8a6.605,6.605,0,0,0,1.233,2.667h-2.7a4,4,0,0,0-4,4v1.479a6.679,6.679,0,0,0-5.221,5.3,6.656,6.656,0,0,0-4.12,2.595A5.876,5.876,0,0,0,6.34,65.346a4.62,4.62,0,0,0-4.892,5.628A2.667,2.667,0,0,0,0,73.332v4A2.667,2.667,0,0,0,2.667,80H77.333A2.667,2.667,0,0,0,80,77.332v-24a4,4,0,0,0-4-4H74.632a6.6,6.6,0,0,0,1.368-4h1.333A2.667,2.667,0,0,0,80,42.666V33.332a2.667,2.667,0,0,0-2.667-2.667Zm0,5.333H76a1.333,1.333,0,0,1-1.333-1.333V33.332h2.667Zm-13.3,13.333h-25.4a6.605,6.605,0,0,0,1.233-2.667h18.8a2.657,2.657,0,0,0,2.3-1.333h1.7A6.6,6.6,0,0,0,64.035,49.332ZM58.667,44h-18.8a6.605,6.605,0,0,0-1.233-2.667H58.667ZM47.176,38.666H28.509L44.12,32.547ZM15.025,12.455l24.743-9.7a1.317,1.317,0,0,1,1.712.756l8.693,22.361a1.333,1.333,0,0,1-.753,1.733L22.208,38.275,13.517,15.914A2.675,2.675,0,0,1,15.025,12.455Zm-2.316,21.4A1.333,1.333,0,0,0,10.635,35.1c0,.016.029.212.032.229a3.333,3.333,0,1,1-5.2-2.763A1.333,1.333,0,0,0,5.9,30.847a4.588,4.588,0,0,1,2.564-6.563A1.333,1.333,0,0,0,9.357,23.1a4.667,4.667,0,0,1,2.565-3.923l5.767,14.833a4.765,4.765,0,0,1-4.98-.152Zm8.624,7.476h6.7A6.605,6.605,0,0,0,26.8,44H21.333Zm8,4a4,4,0,1,1,4,4A4,4,0,0,1,29.333,45.332ZM6.587,68.107a1.333,1.333,0,0,0,1.68-.739,3.319,3.319,0,0,1,3.067-2.036,3.268,3.268,0,0,1,.921.147,1.333,1.333,0,0,0,1.551-.657,4,4,0,0,1,3.528-2.156,1.333,1.333,0,0,0,1.333-1.333,4,4,0,0,1,2.667-3.755V69.332A1.333,1.333,0,0,1,20,70.666H4.12a1.977,1.977,0,0,1,2.467-2.559ZM77.333,53.332v24H2.667v-4H20a4,4,0,0,0,4-4v-16A1.333,1.333,0,0,1,25.333,52H76A1.333,1.333,0,0,1,77.333,53.332Zm-12-8a4,4,0,1,1,4,4A4,4,0,0,1,65.333,45.332Zm10.1-2.667a6.653,6.653,0,0,0-12.2,0h-1.9V33.332h4a1.333,1.333,0,0,0,0-2.667h-4V20H68a1.333,1.333,0,0,1,1.333,1.333v8A4,4,0,0,0,72,33.087v1.579a4,4,0,0,0,4,4h1.333v4Z" transform="translate(0 -0.003)"/>
        <path id="Shape-29" data-name="Shape" d="M32.426,22.982a1.334,1.334,0,1,0,2.485-.971L29.093,7.1a1.333,1.333,0,1,0-2.484.971Z" transform="translate(8.839 2.081)"/>
        <path id="Shape-30" data-name="Shape" d="M26.829,25.141a1.334,1.334,0,1,0,2.485-.971l-5.82-14.9a1.333,1.333,0,0,0-2.479.969Z" transform="translate(6.984 2.828)"/>
        <path id="Shape-31" data-name="Shape" d="M21.249,27.342a1.333,1.333,0,0,0,2.484-.971L17.915,11.466a1.334,1.334,0,1,0-2.485.971Z" transform="translate(5.113 3.536)"/>
        <circle id="Oval-2" data-name="Oval" cx="1.286" cy="1.286" r="1.286" transform="translate(68 44.141)"/>
        <circle id="Oval-3" data-name="Oval" cx="1.286" cy="1.286" r="1.286" transform="translate(32.002 44.141)"/>
        <path id="Shape-32" data-name="Shape" d="M50,42.333a1.333,1.333,0,0,0,1.333,1.333h5.333a1.333,1.333,0,1,0,0-2.667H51.333A1.333,1.333,0,0,0,50,42.333Z" transform="translate(16.667 13.663)"/>
        <path id="Shape-33" data-name="Shape" d="M47.333,47.667h5.333a1.333,1.333,0,0,0,0-2.667H47.333a1.333,1.333,0,0,0,0,2.667Z" transform="translate(15.333 14.997)"/>
        <path id="Shape-34" data-name="Shape" d="M56.667,49H51.333a1.333,1.333,0,1,0,0,2.667h5.333a1.333,1.333,0,1,0,0-2.667Z" transform="translate(16.667 16.33)"/>
        <path id="Shape-35" data-name="Shape" d="M52.667,53H47.333a1.333,1.333,0,0,0,0,2.667h5.333a1.333,1.333,0,0,0,0-2.667Z" transform="translate(15.333 17.663)"/>
        <path id="Shape-36" data-name="Shape" d="M44.667,41H39.333a1.333,1.333,0,0,0,0,2.667h5.333a1.333,1.333,0,0,0,0-2.667Z" transform="translate(12.667 13.663)"/>
        <path id="Shape-37" data-name="Shape" d="M35.333,47.667h5.333a1.333,1.333,0,0,0,0-2.667H35.333a1.333,1.333,0,1,0,0,2.667Z" transform="translate(11.333 14.997)"/>
        <path id="Shape-38" data-name="Shape" d="M44.667,49H39.333a1.333,1.333,0,1,0,0,2.667h5.333a1.333,1.333,0,1,0,0-2.667Z" transform="translate(12.667 16.33)"/>
        <path id="Shape-39" data-name="Shape" d="M40.667,53H35.333a1.333,1.333,0,1,0,0,2.667h5.333a1.333,1.333,0,1,0,0-2.667Z" transform="translate(11.333 17.663)"/>
        <path id="Shape-40" data-name="Shape" d="M32.667,41H27.333a1.333,1.333,0,0,0,0,2.667h5.333a1.333,1.333,0,0,0,0-2.667Z" transform="translate(8.667 13.663)"/>
        <path id="Shape-41" data-name="Shape" d="M23.333,47.667h5.333a1.333,1.333,0,0,0,0-2.667H23.333a1.333,1.333,0,0,0,0,2.667Z" transform="translate(7.333 14.997)"/>
        <path id="Shape-42" data-name="Shape" d="M32.667,49H27.333a1.333,1.333,0,1,0,0,2.667h5.333a1.333,1.333,0,1,0,0-2.667Z" transform="translate(8.667 16.33)"/>
        <path id="Shape-43" data-name="Shape" d="M28.667,53H23.333a1.333,1.333,0,1,0,0,2.667h5.333a1.333,1.333,0,1,0,0-2.667Z" transform="translate(7.333 17.663)"/>
      </g>
    </g>
  </g>
</svg>
