<svg xmlns="http://www.w3.org/2000/svg" xmlns:xlink="http://www.w3.org/1999/xlink" width="400" height="240" viewBox="0 0 400 240">
  <defs>
    <filter id="Ellipse_4900" x="129.5" y="7.491" width="141" height="141" filterUnits="userSpaceOnUse">
      <feOffset dy="5" input="SourceAlpha"/>
      <feGaussianBlur stdDeviation="3.5" result="blur"/>
      <feFlood flood-opacity="0.122"/>
      <feComposite operator="in" in2="blur"/>
      <feComposite in="SourceGraphic"/>
    </filter>
  </defs>
  <g id="t6-c1" transform="translate(-9454 8643)">
    <rect id="Rectangle_38324" data-name="Rectangle 38324" width="400" height="240" rx="20" transform="translate(9454 -8643)" fill="#fefba6"/>
    <path id="Path_180975" data-name="Path 180975" d="M136.518,16.843a1.549,1.549,0,0,0-.585-1.289,7.277,7.277,0,0,0-2.057-.956,19.735,19.735,0,0,1-2.406-.956q-3.04-1.493-3.04-4.1a3.68,3.68,0,0,1,.757-2.293A4.9,4.9,0,0,1,131.33,5.7a8.34,8.34,0,0,1,3.115-.553,7.3,7.3,0,0,1,3.024.6,4.788,4.788,0,0,1,2.079,1.713A4.474,4.474,0,0,1,140.289,10h-3.76a1.891,1.891,0,0,0-.585-1.482,2.282,2.282,0,0,0-1.584-.526,2.573,2.573,0,0,0-1.6.446,1.313,1.313,0,0,0,.059,2.224,8.128,8.128,0,0,0,2.267,1.01,13.885,13.885,0,0,1,2.664,1.123,4.477,4.477,0,0,1,2.535,4.028,3.819,3.819,0,0,1-1.547,3.223,6.88,6.88,0,0,1-4.243,1.171,8.418,8.418,0,0,1-3.443-.682,5.191,5.191,0,0,1-2.32-1.869,4.87,4.87,0,0,1-.779-2.734h3.781a2.4,2.4,0,0,0,.65,1.853,3.072,3.072,0,0,0,2.111.6,2.427,2.427,0,0,0,1.477-.4A1.33,1.33,0,0,0,136.518,16.843ZM145.875,21h-3.631V9.377h3.631ZM142.029,6.369a1.63,1.63,0,0,1,.559-1.275,2.364,2.364,0,0,1,2.9,0,1.63,1.63,0,0,1,.559,1.275,1.63,1.63,0,0,1-.559,1.275,2.364,2.364,0,0,1-2.9,0A1.63,1.63,0,0,1,142.029,6.369Zm9.4,3.008.118,1.364a3.942,3.942,0,0,1,3.319-1.579,3.316,3.316,0,0,1,2.712,1.085,5.165,5.165,0,0,1,.929,3.266V21h-3.631V13.663a1.961,1.961,0,0,0-.354-1.294,1.64,1.64,0,0,0-1.289-.414,1.726,1.726,0,0,0-1.579.838V21h-3.62V9.377Zm13.3-2.89v2.89h1.912v2.514h-1.912v5.317a1.358,1.358,0,0,0,.236.913,1.268,1.268,0,0,0,.935.258,5.311,5.311,0,0,0,.9-.064V20.9a6.681,6.681,0,0,1-2.041.312A3.792,3.792,0,0,1,162,20.334a3.61,3.61,0,0,1-.892-2.675V11.891h-1.482V9.377h1.482V6.487Zm8.959,14.728a5.975,5.975,0,0,1-4.329-1.6,5.509,5.509,0,0,1-1.654-4.152v-.3a7.138,7.138,0,0,1,.661-3.147,4.834,4.834,0,0,1,1.928-2.111,5.821,5.821,0,0,1,3.008-.747,5.031,5.031,0,0,1,3.867,1.52,5.973,5.973,0,0,1,1.418,4.238v1.407h-7.2a2.609,2.609,0,0,0,.849,1.536,2.525,2.525,0,0,0,1.7.559,3.254,3.254,0,0,0,2.686-1.2l1.654,1.955a4.624,4.624,0,0,1-1.917,1.488A6.48,6.48,0,0,1,173.686,21.215Zm-.408-9.26q-1.59,0-1.891,2.105h3.652v-.279a1.793,1.793,0,0,0-.44-1.348A1.753,1.753,0,0,0,173.278,11.955Zm-.043-7.466h3.824l-2.986,3.373-2.954-.005Zm11.021,2v2.89h1.912v2.514h-1.912v5.317a1.358,1.358,0,0,0,.236.913,1.268,1.268,0,0,0,.935.258,5.311,5.311,0,0,0,.9-.064V20.9a6.681,6.681,0,0,1-2.041.312,3.792,3.792,0,0,1-2.761-.881,3.61,3.61,0,0,1-.892-2.675V11.891h-1.482V9.377h1.482V6.487ZM191.411,21H187.78V9.377h3.631ZM187.565,6.369a1.63,1.63,0,0,1,.559-1.275,2.364,2.364,0,0,1,2.9,0,1.63,1.63,0,0,1,.559,1.275,1.63,1.63,0,0,1-.559,1.275,2.364,2.364,0,0,1-2.9,0A1.63,1.63,0,0,1,187.565,6.369Zm10.989,12.053a1.61,1.61,0,0,0,1.182-.414,1.517,1.517,0,0,0,.408-1.155h3.395a4.018,4.018,0,0,1-1.37,3.137,5.1,5.1,0,0,1-3.529,1.225,5.158,5.158,0,0,1-4-1.59,6.264,6.264,0,0,1-1.461-4.4v-.15a7.08,7.08,0,0,1,.65-3.11,4.732,4.732,0,0,1,1.875-2.073,5.589,5.589,0,0,1,2.9-.725,5.03,5.03,0,0,1,3.6,1.257,4.458,4.458,0,0,1,1.332,3.405h-3.395a1.987,1.987,0,0,0-.44-1.386,1.52,1.52,0,0,0-1.182-.483q-1.407,0-1.644,1.794a12.659,12.659,0,0,0-.075,1.568,4.972,4.972,0,0,0,.419,2.428A1.45,1.45,0,0,0,198.554,18.422ZM211.617,21a4.088,4.088,0,0,1-.344-1.042,3.366,3.366,0,0,1-2.793,1.257,4.124,4.124,0,0,1-2.793-.994,3.163,3.163,0,0,1-1.149-2.5,3.251,3.251,0,0,1,1.4-2.857,7.114,7.114,0,0,1,4.061-.967h1.117v-.615q0-1.608-1.386-1.608a1.133,1.133,0,0,0-1.289,1.274h-3.62a3.245,3.245,0,0,1,1.434-2.736,6.027,6.027,0,0,1,3.658-1.051,5.284,5.284,0,0,1,3.513,1.085,3.772,3.772,0,0,1,1.321,2.976v5.146a5.269,5.269,0,0,0,.494,2.449V21Zm-2.267-2.363a2.019,2.019,0,0,0,1.123-.29,1.818,1.818,0,0,0,.639-.655V15.833h-1.053q-1.891,0-1.891,1.7a1.036,1.036,0,0,0,.333.8A1.205,1.205,0,0,0,209.35,18.637Z" transform="translate(9483 -8455.256)" fill="#12263f"/>
    <rect id="Rectangle_38323" data-name="Rectangle 38323" width="145" height="2" transform="translate(9582 -8478.984)" fill="#fcf300"/>
    <g id="t6-c1-2" data-name="t6-c1" transform="translate(527 436.611)">
      <g transform="matrix(1, 0, 0, 1, 8927, -9079.61)" filter="url(#Ellipse_4900)">
        <circle id="Ellipse_4900-2" data-name="Ellipse 4900" cx="60" cy="60" r="60" transform="translate(140 12.99)" fill="#fff"/>
      </g>
      <g id="Group_118463" data-name="Group 118463" transform="translate(9087 -9042.674)">
        <path id="Path_179670" data-name="Path 179670" d="M13.577,2H29.992a11.077,11.077,0,1,1,0,22.154H13.577A11.077,11.077,0,1,1,13.577,2" transform="translate(-0.448 -0.359)" fill="#ff8628"/>
        <path id="Path_179678" data-name="Path 179678" d="M11.537,2H24.929c4.991,0,9.037,3.49,9.037,7.795S29.92,17.59,24.929,17.59H11.537C6.546,17.59,2.5,14.1,2.5,9.795S6.546,2,11.537,2" transform="translate(0.782 -0.687)" fill="#ffad6e"/>
        <path id="Trazado_179671" data-name="Trazado 179671" d="M13.218,0H29.633a12.718,12.718,0,0,1,8.993,21.711,12.635,12.635,0,0,1-8.993,3.725H13.218A12.718,12.718,0,0,1,4.225,3.725,12.635,12.635,0,0,1,13.218,0ZM29.633,22.154a9.436,9.436,0,0,0,0-18.872H13.218a9.436,9.436,0,0,0,0,18.872Z" transform="translate(-0.09 0)"/>
        <path id="Path_179672" data-name="Path 179672" d="M62.6,62H84.756a4.1,4.1,0,0,1,4.1,4.1V80.051a4.1,4.1,0,0,1-4.1,4.1H62.6a4.1,4.1,0,0,1-4.1-4.1V66.1A4.1,4.1,0,0,1,62.6,62" transform="translate(-10.5 -11.128)" fill="#fcf300"/>
        <path id="Path_179676" data-name="Path 179676" d="M61.577,62H78.192a3.077,3.077,0,0,1,3.077,3.077V75.538a3.077,3.077,0,0,1-3.077,3.077H61.577A3.077,3.077,0,0,1,58.5,75.538V65.077A3.077,3.077,0,0,1,61.577,62" transform="translate(-10.5 -11.128)" fill="#fef975"/>
        <path id="Rectángulo_37770" data-name="Rectángulo 37770" d="M3.744-2H25.9a5.75,5.75,0,0,1,5.744,5.744V17.692A5.75,5.75,0,0,1,25.9,23.436H3.744A5.75,5.75,0,0,1-2,17.692V3.744A5.75,5.75,0,0,1,3.744-2ZM25.9,20.154a2.464,2.464,0,0,0,2.462-2.462V3.744A2.464,2.464,0,0,0,25.9,1.282H3.744A2.464,2.464,0,0,0,1.282,3.744V17.692a2.464,2.464,0,0,0,2.462,2.462Z" transform="translate(48.359 51.23)"/>
        <path id="Trazado_179673" data-name="Trazado 179673" d="M40.205,71.9H9.846A9.846,9.846,0,0,1,0,62.051V53.846A9.846,9.846,0,0,1,9.846,44H40.205a1.641,1.641,0,0,1,0,3.282H9.846a6.572,6.572,0,0,0-6.564,6.564v8.205a6.572,6.572,0,0,0,6.564,6.564H40.205a1.641,1.641,0,1,1,0,3.282Z" transform="translate(0 -7.898)"/>
        <path id="Trazado_179674" data-name="Trazado 179674" d="M78.179,41.9H48.641a1.641,1.641,0,0,1,0-3.282H78.179a6.572,6.572,0,0,0,6.564-6.564V23.846a6.572,6.572,0,0,0-6.564-6.564H49.056a1.641,1.641,0,1,1,0-3.282H78.179a9.846,9.846,0,0,1,9.846,9.846v8.205A9.846,9.846,0,0,1,78.179,41.9Z" transform="translate(-8.437 -2.513)"/>
        <path id="Path_179675" data-name="Path 179675" d="M45.269,35c8.157,0,14.769,4.041,14.769,9.026s-6.612,9.026-14.769,9.026S30.5,49.01,30.5,44.026,37.112,35,45.269,35" transform="translate(-5.475 -6.282)" fill="#007a64"/>
        <path id="Path_179677" data-name="Path 179677" d="M40.756,35c5.664,0,10.256,2.682,10.256,5.99s-4.592,5.99-10.256,5.99S30.5,44.3,30.5,40.99,35.092,35,40.756,35" transform="translate(-0.757 -6.282)" fill="#009e83"/>
        <path id="Elipse_4870" data-name="Elipse 4870" d="M14.41-2A21.949,21.949,0,0,1,25.709.884,11.955,11.955,0,0,1,29.368,4.22,7.717,7.717,0,0,1,30.82,8.667a7.717,7.717,0,0,1-1.452,4.447,11.955,11.955,0,0,1-3.659,3.335,21.949,21.949,0,0,1-11.3,2.884,21.949,21.949,0,0,1-11.3-2.884A11.955,11.955,0,0,1-.548,13.114,7.717,7.717,0,0,1-2,8.667,7.717,7.717,0,0,1-.548,4.22,11.955,11.955,0,0,1,3.111.884,21.949,21.949,0,0,1,14.41-2Zm0,18.051c7.116,0,13.128-3.382,13.128-7.385S21.526,1.282,14.41,1.282,1.282,4.664,1.282,8.667,7.294,16.051,14.41,16.051Z" transform="translate(25.385 29.077)"/>
        <path id="Trazado_179676" data-name="Trazado 179676" d="M35.241,85.6a1.641,1.641,0,0,1-1.16-2.8l9.925-9.925L34.072,62.793a1.641,1.641,0,1,1,2.338-2.3L47.486,71.73a1.641,1.641,0,0,1-.008,2.312L36.4,85.119A1.636,1.636,0,0,1,35.241,85.6Z" transform="translate(-6.03 -10.77)"/>
        <rect id="Rectangle_37771" data-name="Rectangle 37771" width="80" height="74.831" transform="translate(0 0)" fill="none"/>
      </g>
    </g>
  </g>
</svg>
