<svg xmlns="http://www.w3.org/2000/svg" xmlns:xlink="http://www.w3.org/1999/xlink" width="400" height="240" viewBox="0 0 400 240">
  <defs>
    <filter id="Ellipse_4867" x="129.5" y="7.88" width="141" height="141" filterUnits="userSpaceOnUse">
      <feOffset dy="5" input="SourceAlpha"/>
      <feGaussianBlur stdDeviation="3.5" result="blur"/>
      <feFlood flood-opacity="0.122"/>
      <feComposite operator="in" in2="blur"/>
      <feComposite in="SourceGraphic"/>
    </filter>
  </defs>
  <g id="t6-c3" transform="translate(-9645 8307)">
    <rect id="Rectangle_38327" data-name="Rectangle 38327" width="400" height="240" rx="20" transform="translate(9645 -8307)" fill="#fefba6"/>
    <path id="Path_180977" data-name="Path 180977" d="M26.056,21V5.359h5.038a7.411,7.411,0,0,1,3.728.94,6.607,6.607,0,0,1,2.583,2.653,8.011,8.011,0,0,1,.94,3.84v.72a8.057,8.057,0,0,1-.908,3.851,6.635,6.635,0,0,1-2.557,2.664A7.248,7.248,0,0,1,31.2,21ZM29.827,8.271V18.1h1.311a2.933,2.933,0,0,0,2.492-1.155,5.659,5.659,0,0,0,.87-3.432v-.677a5.613,5.613,0,0,0-.87-3.416,2.984,2.984,0,0,0-2.535-1.149ZM45.736,21.215a5.975,5.975,0,0,1-4.329-1.6,5.509,5.509,0,0,1-1.654-4.152v-.3a7.138,7.138,0,0,1,.661-3.147,4.834,4.834,0,0,1,1.928-2.111,5.821,5.821,0,0,1,3.008-.747,5.031,5.031,0,0,1,3.867,1.52,5.973,5.973,0,0,1,1.418,4.238v1.407h-7.2a2.609,2.609,0,0,0,.849,1.536,2.525,2.525,0,0,0,1.7.559,3.254,3.254,0,0,0,2.686-1.2l1.654,1.955a4.624,4.624,0,0,1-1.917,1.488A6.48,6.48,0,0,1,45.736,21.215Zm-.408-9.26q-1.59,0-1.891,2.105h3.652v-.279a1.793,1.793,0,0,0-.44-1.348A1.753,1.753,0,0,0,45.328,11.955ZM58.369,21V11.891H56.682V9.377h1.687V8.453A4.016,4.016,0,0,1,59.54,5.37a4.626,4.626,0,0,1,3.287-1.1,7.2,7.2,0,0,1,1.7.226l.011,2.664a3.307,3.307,0,0,0-.892-.1Q62,7.067,62,8.485v.892h2.267v2.514H62V21Zm6.714-5.919a6.86,6.86,0,0,1,.677-3.1A4.84,4.84,0,0,1,67.7,9.893a5.856,5.856,0,0,1,2.976-.73,5.344,5.344,0,0,1,4.114,1.617,6.2,6.2,0,0,1,1.5,4.4v.129a6.019,6.019,0,0,1-1.509,4.313,5.359,5.359,0,0,1-4.087,1.6,5.42,5.42,0,0,1-3.985-1.488,5.819,5.819,0,0,1-1.622-4.034Zm3.62.226a4.325,4.325,0,0,0,.5,2.363,1.682,1.682,0,0,0,1.493.752q1.934,0,1.977-2.976v-.365q0-3.126-2-3.126-1.815,0-1.966,2.7Zm16.221-2.653-1.192-.086a2.142,2.142,0,0,0-2.191,1.074V21h-3.62V9.377h3.395l.118,1.493a2.8,2.8,0,0,1,2.546-1.708,3.53,3.53,0,0,1,1.01.129ZM89.65,9.377l.118,1.364a4,4,0,0,1,3.319-1.579,2.942,2.942,0,0,1,2.976,1.751,3.868,3.868,0,0,1,3.416-1.751q3.534,0,3.631,4.275V21H99.479V13.663a2.216,2.216,0,0,0-.3-1.3,1.28,1.28,0,0,0-1.1-.408,1.715,1.715,0,0,0-1.6.956l.011.15V21H92.862V13.685a2.329,2.329,0,0,0-.29-1.321,1.277,1.277,0,0,0-1.106-.408,1.736,1.736,0,0,0-1.59.956V21h-3.62V9.377ZM111.725,21a4.087,4.087,0,0,1-.344-1.042,3.366,3.366,0,0,1-2.793,1.257,4.124,4.124,0,0,1-2.793-.994,3.163,3.163,0,0,1-1.149-2.5,3.251,3.251,0,0,1,1.4-2.857A7.114,7.114,0,0,1,110.1,13.9h1.117v-.615q0-1.608-1.386-1.608a1.133,1.133,0,0,0-1.289,1.274h-3.62a3.245,3.245,0,0,1,1.434-2.736,6.027,6.027,0,0,1,3.658-1.051,5.284,5.284,0,0,1,3.513,1.085,3.772,3.772,0,0,1,1.321,2.976v5.146a5.269,5.269,0,0,0,.494,2.449V21Zm-2.267-2.363a2.019,2.019,0,0,0,1.123-.29,1.818,1.818,0,0,0,.639-.655V15.833h-1.053q-1.891,0-1.891,1.7a1.036,1.036,0,0,0,.333.8A1.205,1.205,0,0,0,109.458,18.637Zm17.51-1.944,1.837-7.315h3.813L128.827,21h-3.7L121.339,9.377h3.824ZM137.517,21h-3.631V9.377h3.631ZM133.671,6.369a1.63,1.63,0,0,1,.559-1.275,2.364,2.364,0,0,1,2.9,0,1.63,1.63,0,0,1,.559,1.275,1.63,1.63,0,0,1-.559,1.275,2.364,2.364,0,0,1-2.9,0A1.63,1.63,0,0,1,133.671,6.369Zm12.16,11.365a.836.836,0,0,0-.483-.741,7.353,7.353,0,0,0-1.837-.58,8.376,8.376,0,0,1-2.234-.79,3.743,3.743,0,0,1-1.343-1.187,2.835,2.835,0,0,1-.462-1.6,3.212,3.212,0,0,1,1.321-2.637,5.443,5.443,0,0,1,3.459-1.037,6.03,6.03,0,0,1,3.7,1.042,3.258,3.258,0,0,1,1.4,2.739h-3.631q0-1.4-1.472-1.4a1.459,1.459,0,0,0-.956.317.981.981,0,0,0-.387.79.9.9,0,0,0,.473.784,4.466,4.466,0,0,0,1.509.494,13.042,13.042,0,0,1,1.821.462q2.621.9,2.621,3.233a3.044,3.044,0,0,1-1.413,2.589,6.2,6.2,0,0,1-3.658,1,6.322,6.322,0,0,1-2.664-.537,4.455,4.455,0,0,1-1.826-1.461,3.308,3.308,0,0,1-.655-1.944h3.384a1.4,1.4,0,0,0,.537,1.176,2.209,2.209,0,0,0,1.321.371,1.738,1.738,0,0,0,1.112-.3A.962.962,0,0,0,145.832,17.734Zm9,3.266H151.2V9.377h3.631ZM150.988,6.369a1.63,1.63,0,0,1,.559-1.275,2.364,2.364,0,0,1,2.9,0,1.63,1.63,0,0,1,.559,1.275,1.63,1.63,0,0,1-.559,1.275,2.364,2.364,0,0,1-2.9,0A1.63,1.63,0,0,1,150.988,6.369Zm16.865,8.916a7.084,7.084,0,0,1-1.182,4.394,3.958,3.958,0,0,1-3.33,1.536,3.435,3.435,0,0,1-2.857-1.407L160.333,21h-3.244V4.5h3.62v5.812a3.314,3.314,0,0,1,2.61-1.149,3.959,3.959,0,0,1,3.352,1.558,7.121,7.121,0,0,1,1.182,4.383Zm-3.631-.231a4.725,4.725,0,0,0-.446-2.386,1.5,1.5,0,0,0-1.37-.713,1.733,1.733,0,0,0-1.7.933V17.5a1.743,1.743,0,0,0,1.719.922,1.537,1.537,0,0,0,1.622-1.244A8.934,8.934,0,0,0,164.222,15.054ZM173.267,21h-3.631V4.5h3.631Zm7.853.215a5.975,5.975,0,0,1-4.329-1.6,5.509,5.509,0,0,1-1.654-4.152v-.3a7.138,7.138,0,0,1,.661-3.147,4.834,4.834,0,0,1,1.928-2.111,5.821,5.821,0,0,1,3.008-.747,5.031,5.031,0,0,1,3.867,1.52,5.973,5.973,0,0,1,1.418,4.238v1.407h-7.2a2.609,2.609,0,0,0,.849,1.536,2.525,2.525,0,0,0,1.7.559,3.254,3.254,0,0,0,2.686-1.2l1.654,1.955a4.624,4.624,0,0,1-1.917,1.488A6.48,6.48,0,0,1,181.12,21.215Zm-.408-9.26q-1.59,0-1.891,2.105h3.652v-.279a1.793,1.793,0,0,0-.44-1.348A1.753,1.753,0,0,0,180.711,11.955ZM199.5,21a4.088,4.088,0,0,1-.344-1.042,3.366,3.366,0,0,1-2.793,1.257,4.124,4.124,0,0,1-2.793-.994,3.163,3.163,0,0,1-1.149-2.5,3.251,3.251,0,0,1,1.4-2.857,7.114,7.114,0,0,1,4.061-.967h1.117v-.615q0-1.608-1.386-1.608a1.133,1.133,0,0,0-1.289,1.274H192.7a3.245,3.245,0,0,1,1.434-2.736,6.027,6.027,0,0,1,3.658-1.051,5.284,5.284,0,0,1,3.513,1.085,3.772,3.772,0,0,1,1.321,2.976v5.146a5.269,5.269,0,0,0,.494,2.449V21Zm-2.267-2.363a2.019,2.019,0,0,0,1.123-.29,1.818,1.818,0,0,0,.639-.655V15.833h-1.053q-1.891,0-1.891,1.7a1.036,1.036,0,0,0,.333.8A1.205,1.205,0,0,0,197.233,18.637Zm19.8,1.106a3.732,3.732,0,0,1-3.1,1.472,3.661,3.661,0,0,1-2.9-1.112,4.676,4.676,0,0,1-.983-3.2V9.377h3.62v7.552a1.3,1.3,0,0,0,1.45,1.493,1.892,1.892,0,0,0,1.772-.892V9.377h3.642V21h-3.395Zm8.809-10.366.118,1.364a3.942,3.942,0,0,1,3.319-1.579,3.316,3.316,0,0,1,2.712,1.085,5.165,5.165,0,0,1,.929,3.266V21h-3.631V13.663a1.961,1.961,0,0,0-.354-1.294,1.64,1.64,0,0,0-1.289-.414,1.726,1.726,0,0,0-1.579.838V21h-3.62V9.377Zm20.646,8.357a.836.836,0,0,0-.483-.741,7.353,7.353,0,0,0-1.837-.58,8.376,8.376,0,0,1-2.234-.79,3.743,3.743,0,0,1-1.343-1.187,2.835,2.835,0,0,1-.462-1.6,3.212,3.212,0,0,1,1.321-2.637,5.443,5.443,0,0,1,3.459-1.037,6.03,6.03,0,0,1,3.7,1.042,3.258,3.258,0,0,1,1.4,2.739h-3.631q0-1.4-1.472-1.4a1.459,1.459,0,0,0-.956.317.981.981,0,0,0-.387.79.9.9,0,0,0,.473.784,4.466,4.466,0,0,0,1.509.494,13.042,13.042,0,0,1,1.821.462q2.621.9,2.621,3.233a3.044,3.044,0,0,1-1.413,2.589,6.2,6.2,0,0,1-3.658,1,6.322,6.322,0,0,1-2.664-.537,4.455,4.455,0,0,1-1.826-1.461,3.308,3.308,0,0,1-.655-1.944h3.384a1.4,1.4,0,0,0,.537,1.176,2.209,2.209,0,0,0,1.321.371,1.738,1.738,0,0,0,1.112-.3A.962.962,0,0,0,246.486,17.734Zm9,3.266h-3.631V9.377h3.631ZM251.642,6.369a1.63,1.63,0,0,1,.559-1.275,2.364,2.364,0,0,1,2.9,0,1.63,1.63,0,0,1,.559,1.275,1.63,1.63,0,0,1-.559,1.275,2.364,2.364,0,0,1-2.9,0A1.63,1.63,0,0,1,251.642,6.369ZM263.8,17.734a.836.836,0,0,0-.483-.741,7.353,7.353,0,0,0-1.837-.58,8.376,8.376,0,0,1-2.234-.79,3.743,3.743,0,0,1-1.343-1.187,2.834,2.834,0,0,1-.462-1.6,3.212,3.212,0,0,1,1.321-2.637,5.443,5.443,0,0,1,3.459-1.037,6.03,6.03,0,0,1,3.7,1.042,3.258,3.258,0,0,1,1.4,2.739h-3.631q0-1.4-1.472-1.4a1.459,1.459,0,0,0-.956.317.981.981,0,0,0-.387.79.9.9,0,0,0,.473.784,4.466,4.466,0,0,0,1.509.494,13.043,13.043,0,0,1,1.821.462q2.621.9,2.621,3.233a3.044,3.044,0,0,1-1.413,2.589,6.2,6.2,0,0,1-3.658,1,6.322,6.322,0,0,1-2.664-.537,4.455,4.455,0,0,1-1.826-1.461,3.308,3.308,0,0,1-.655-1.944h3.384A1.4,1.4,0,0,0,261,18.449a2.209,2.209,0,0,0,1.321.371,1.738,1.738,0,0,0,1.112-.3A.962.962,0,0,0,263.8,17.734Zm9.4-11.247v2.89h1.912v2.514H273.2v5.317a1.358,1.358,0,0,0,.236.913,1.268,1.268,0,0,0,.935.258,5.311,5.311,0,0,0,.9-.064V20.9a6.681,6.681,0,0,1-2.041.312,3.792,3.792,0,0,1-2.761-.881,3.61,3.61,0,0,1-.892-2.675V11.891H268.1V9.377h1.482V6.487Zm8.959,14.728a5.975,5.975,0,0,1-4.329-1.6,5.509,5.509,0,0,1-1.654-4.152v-.3a7.138,7.138,0,0,1,.661-3.147,4.834,4.834,0,0,1,1.928-2.111,5.821,5.821,0,0,1,3.008-.747,5.031,5.031,0,0,1,3.867,1.52,5.973,5.973,0,0,1,1.418,4.238v1.407h-7.2a2.609,2.609,0,0,0,.849,1.536,2.525,2.525,0,0,0,1.7.559,3.254,3.254,0,0,0,2.686-1.2l1.654,1.955a4.624,4.624,0,0,1-1.917,1.488A6.48,6.48,0,0,1,282.161,21.215Zm-.408-9.26q-1.59,0-1.891,2.105h3.652v-.279a1.793,1.793,0,0,0-.44-1.348A1.753,1.753,0,0,0,281.752,11.955Zm10.184-2.578.118,1.364a4,4,0,0,1,3.319-1.579,2.942,2.942,0,0,1,2.976,1.751,3.868,3.868,0,0,1,3.416-1.751q3.534,0,3.631,4.275V21h-3.631V13.663a2.216,2.216,0,0,0-.3-1.3,1.28,1.28,0,0,0-1.1-.408,1.715,1.715,0,0,0-1.6.956l.011.15V21h-3.631V13.685a2.329,2.329,0,0,0-.29-1.321,1.277,1.277,0,0,0-1.106-.408,1.736,1.736,0,0,0-1.59.956V21h-3.62V9.377ZM314.011,21a4.087,4.087,0,0,1-.344-1.042,3.366,3.366,0,0,1-2.793,1.257,4.124,4.124,0,0,1-2.793-.994,3.163,3.163,0,0,1-1.149-2.5,3.251,3.251,0,0,1,1.4-2.857,7.114,7.114,0,0,1,4.061-.967h1.117v-.615q0-1.608-1.386-1.608a1.133,1.133,0,0,0-1.289,1.274h-3.62a3.245,3.245,0,0,1,1.434-2.736A6.027,6.027,0,0,1,312.3,9.162a5.284,5.284,0,0,1,3.513,1.085,3.772,3.772,0,0,1,1.321,2.976v5.146a5.269,5.269,0,0,0,.494,2.449V21Zm-2.267-2.363a2.019,2.019,0,0,0,1.123-.29,1.818,1.818,0,0,0,.639-.655V15.833h-1.053q-1.891,0-1.891,1.7a1.036,1.036,0,0,0,.333.8A1.205,1.205,0,0,0,311.745,18.637Z" transform="translate(9674 -8118.867)" fill="#12263f"/>
    <rect id="Rectangle_38328" data-name="Rectangle 38328" width="145" height="2" transform="translate(9773 -8142.596)" fill="#fcf300"/>
    <g id="t6-c3-2" data-name="t6-c3" transform="translate(8625 -10930)">
      <g transform="matrix(1, 0, 0, 1, 1020, 2623)" filter="url(#Ellipse_4867)">
        <circle id="Ellipse_4867-2" data-name="Ellipse 4867" cx="60" cy="60" r="60" transform="translate(140 13.38)" fill="#fff"/>
      </g>
      <g id="Group_117653" data-name="Group 117653" transform="translate(1180.079 2651.996)">
        <path id="Path_179659" data-name="Path 179659" d="M74.005,49.982H70.866V39.854a3.218,3.218,0,0,0-3.215-3.215h-49.3a3.218,3.218,0,0,0-3.215,3.215V49.982H12V39.854A6.362,6.362,0,0,1,18.354,33.5h49.3a6.362,6.362,0,0,1,6.354,6.354Z" transform="translate(-2.582 -4.852)"/>
        <path id="Path_179648" data-name="Path 179648" d="M50.57,88.118A1.57,1.57,0,0,1,49,86.548V9.238a1.57,1.57,0,0,1,3.139,0v77.31a1.57,1.57,0,0,1-1.57,1.57" transform="translate(-10.541 -1.649)"/>
        <path id="Path_179664" data-name="Path 179664" d="M47.128,2c7.8,0,14.128,3.866,14.128,8.634s-6.325,8.634-14.128,8.634S33,15.4,33,10.634,39.325,2,47.128,2" transform="translate(-7.099 -0.43)" fill="#007a64"/>
        <path id="Path_179660" data-name="Path 179660" d="M42.924,91.668H53.913a3.925,3.925,0,0,1,3.924,3.924v8.634a3.925,3.925,0,0,1-3.924,3.924H42.924A3.925,3.925,0,0,1,39,104.226V95.592a3.925,3.925,0,0,1,3.924-3.924" transform="translate(-8.39 -19.72)" fill="#ff8628"/>
        <path id="Path_179649" data-name="Path 179649" d="M43.2,2c5.635,0,10.2,2.255,10.2,5.036s-4.568,5.036-10.2,5.036S33,9.817,33,7.036,37.568,2,43.2,2" transform="translate(-3.175 -0.43)" fill="#009e83"/>
        <path id="Path_179650" data-name="Path 179650" d="M46.7,20.407c-8.8,0-15.7-4.482-15.7-10.2S37.9,0,46.7,0s15.7,4.482,15.7,10.2-6.9,10.2-15.7,10.2m0-17.267c-6.807,0-12.558,3.234-12.558,7.064S39.89,17.267,46.7,17.267,59.255,14.033,59.255,10.2,53.5,3.139,46.7,3.139" transform="translate(-6.669)"/>
        <path id="Path_179651" data-name="Path 179651" d="M5.924,54.5H16.913a3.925,3.925,0,0,1,3.924,3.924v8.634a3.925,3.925,0,0,1-3.924,3.924H5.924A3.925,3.925,0,0,1,2,67.058V58.424A3.925,3.925,0,0,1,5.924,54.5" transform="translate(-0.43 -11.724)" fill="#fcf300"/>
        <path id="Path_179653" data-name="Path 179653" d="M42.924,54.5H53.913a3.925,3.925,0,0,1,3.924,3.924v8.634a3.925,3.925,0,0,1-3.924,3.924H42.924A3.925,3.925,0,0,1,39,67.058V58.424A3.925,3.925,0,0,1,42.924,54.5" transform="translate(-8.39 -11.724)" fill="#fcf300"/>
        <path id="Path_179655" data-name="Path 179655" d="M41.9,91.668h8.109a2.9,2.9,0,0,1,2.9,2.9v6.372a2.9,2.9,0,0,1-2.9,2.9H41.9a2.9,2.9,0,0,1-2.9-2.9V94.564a2.9,2.9,0,0,1,2.9-2.9" transform="translate(-7.884 -19.72)" fill="#ffad6e"/>
        <path id="Path_179661" data-name="Path 179661" d="M41.9,91.668h8.109a2.9,2.9,0,0,1,2.9,2.9v6.372a2.9,2.9,0,0,1-2.9,2.9H41.9a2.9,2.9,0,0,1-2.9-2.9V94.564a2.9,2.9,0,0,1,2.9-2.9" transform="translate(-7.884 -48.892)" fill="#fef975"/>
        <path id="Path_179662" data-name="Path 179662" d="M41.9,91.668h8.109a2.9,2.9,0,0,1,2.9,2.9v6.372a2.9,2.9,0,0,1-2.9,2.9H41.9a2.9,2.9,0,0,1-2.9-2.9V94.564a2.9,2.9,0,0,1,2.9-2.9" transform="translate(-37.43 -48.892)" fill="#fef975"/>
        <path id="Path_179656" data-name="Path 179656" d="M53.482,109.29H42.494A5.5,5.5,0,0,1,37,103.8V95.162a5.5,5.5,0,0,1,5.494-5.494H53.482a5.5,5.5,0,0,1,5.494,5.494V103.8a5.5,5.5,0,0,1-5.494,5.494M42.494,92.808a2.357,2.357,0,0,0-2.355,2.355V103.8a2.358,2.358,0,0,0,2.355,2.355H53.482a2.358,2.358,0,0,0,2.355-2.355V95.162a2.357,2.357,0,0,0-2.355-2.355Z" transform="translate(-7.959 -19.29)"/>
        <path id="Path_179657" data-name="Path 179657" d="M80.924,54.5H91.913a3.925,3.925,0,0,1,3.924,3.924v8.634a3.925,3.925,0,0,1-3.924,3.924H80.924A3.925,3.925,0,0,1,77,67.058V58.424A3.925,3.925,0,0,1,80.924,54.5" transform="translate(-16.564 -11.724)" fill="#fcf300"/>
        <path id="Path_179654" data-name="Path 179654" d="M53.482,72.122H42.494A5.5,5.5,0,0,1,37,66.628V57.994A5.5,5.5,0,0,1,42.494,52.5H53.482a5.5,5.5,0,0,1,5.494,5.494v8.634a5.5,5.5,0,0,1-5.494,5.494M42.494,55.639a2.358,2.358,0,0,0-2.355,2.355v8.634a2.357,2.357,0,0,0,2.355,2.355H53.482a2.357,2.357,0,0,0,2.355-2.355V57.994a2.357,2.357,0,0,0-2.355-2.355Z" transform="translate(-7.959 -11.294)"/>
        <path id="Path_179652" data-name="Path 179652" d="M16.482,72.122H5.494A5.5,5.5,0,0,1,0,66.628V57.994A5.5,5.5,0,0,1,5.494,52.5H16.482a5.5,5.5,0,0,1,5.494,5.494v8.634a5.5,5.5,0,0,1-5.494,5.494M5.494,55.639a2.357,2.357,0,0,0-2.355,2.355v8.634a2.357,2.357,0,0,0,2.355,2.355H16.482a2.357,2.357,0,0,0,2.355-2.355V57.994a2.357,2.357,0,0,0-2.355-2.355Z" transform="translate(0 -11.294)"/>
        <path id="Path_179663" data-name="Path 179663" d="M41.9,91.668h8.109a2.9,2.9,0,0,1,2.9,2.9v6.372a2.9,2.9,0,0,1-2.9,2.9H41.9a2.9,2.9,0,0,1-2.9-2.9V94.564a2.9,2.9,0,0,1,2.9-2.9" transform="translate(21.436 -48.892)" fill="#fef975"/>
        <path id="Path_179658" data-name="Path 179658" d="M91.482,72.122H80.494A5.5,5.5,0,0,1,75,66.628V57.994A5.5,5.5,0,0,1,80.494,52.5H91.482a5.5,5.5,0,0,1,5.494,5.494v8.634a5.5,5.5,0,0,1-5.494,5.494M80.494,55.639a2.358,2.358,0,0,0-2.355,2.355v8.634a2.358,2.358,0,0,0,2.355,2.355H91.482a2.358,2.358,0,0,0,2.355-2.355V57.994a2.358,2.358,0,0,0-2.355-2.355Z" transform="translate(-16.134 -11.294)"/>
      </g>
    </g>
  </g>
</svg>
