<svg xmlns="http://www.w3.org/2000/svg" xmlns:xlink="http://www.w3.org/1999/xlink" width="400" height="240" viewBox="0 0 400 240">
  <defs>
    <filter id="Ellipse_4864" x="129.5" y="7.491" width="141" height="141" filterUnits="userSpaceOnUse">
      <feOffset dy="5" input="SourceAlpha"/>
      <feGaussianBlur stdDeviation="3.5" result="blur"/>
      <feFlood flood-opacity="0.122"/>
      <feComposite operator="in" in2="blur"/>
      <feComposite in="SourceGraphic"/>
    </filter>
  </defs>
  <g id="t6-c2" transform="translate(-9104 8288.611)">
    <rect id="Rectangle_38325" data-name="Rectangle 38325" width="400" height="240" rx="20" transform="translate(9104 -8288.611)" fill="#fefba6"/>
    <path id="Path_180976" data-name="Path 180976" d="M119.422,16.843a1.549,1.549,0,0,0-.585-1.289,7.277,7.277,0,0,0-2.057-.956,19.736,19.736,0,0,1-2.406-.956q-3.04-1.493-3.04-4.1a3.68,3.68,0,0,1,.757-2.293A4.9,4.9,0,0,1,114.233,5.7a8.34,8.34,0,0,1,3.115-.553,7.3,7.3,0,0,1,3.024.6,4.788,4.788,0,0,1,2.079,1.713A4.474,4.474,0,0,1,123.192,10h-3.76a1.891,1.891,0,0,0-.585-1.482,2.282,2.282,0,0,0-1.584-.526,2.573,2.573,0,0,0-1.6.446,1.313,1.313,0,0,0,.059,2.224,8.128,8.128,0,0,0,2.267,1.01,13.885,13.885,0,0,1,2.664,1.123,4.477,4.477,0,0,1,2.535,4.028,3.819,3.819,0,0,1-1.547,3.223,6.88,6.88,0,0,1-4.243,1.171,8.418,8.418,0,0,1-3.443-.682,5.191,5.191,0,0,1-2.32-1.869,4.87,4.87,0,0,1-.779-2.734h3.781a2.4,2.4,0,0,0,.65,1.853,3.072,3.072,0,0,0,2.111.6,2.427,2.427,0,0,0,1.477-.4A1.33,1.33,0,0,0,119.422,16.843ZM128.778,21h-3.631V9.377h3.631ZM124.933,6.369a1.63,1.63,0,0,1,.559-1.275,2.364,2.364,0,0,1,2.9,0,1.63,1.63,0,0,1,.559,1.275,1.63,1.63,0,0,1-.559,1.275,2.364,2.364,0,0,1-2.9,0A1.63,1.63,0,0,1,124.933,6.369Zm9.5,3.008.118,1.364a4,4,0,0,1,3.319-1.579,2.942,2.942,0,0,1,2.976,1.751,3.868,3.868,0,0,1,3.416-1.751q3.534,0,3.631,4.275V21h-3.631V13.663a2.216,2.216,0,0,0-.3-1.3,1.28,1.28,0,0,0-1.1-.408,1.715,1.715,0,0,0-1.6.956l.011.15V21h-3.631V13.685a2.329,2.329,0,0,0-.29-1.321,1.277,1.277,0,0,0-1.106-.408,1.736,1.736,0,0,0-1.59.956V21h-3.62V9.377Zm26.318,5.908a7.084,7.084,0,0,1-1.182,4.394,3.958,3.958,0,0,1-3.33,1.536,3.435,3.435,0,0,1-2.857-1.407L153.228,21h-3.244V4.5h3.62v5.812a3.314,3.314,0,0,1,2.61-1.149,3.959,3.959,0,0,1,3.352,1.558,7.121,7.121,0,0,1,1.182,4.383Zm-3.631-.231a4.725,4.725,0,0,0-.446-2.386,1.5,1.5,0,0,0-1.37-.713,1.733,1.733,0,0,0-1.7.933V17.5a1.743,1.743,0,0,0,1.719.922,1.537,1.537,0,0,0,1.622-1.244A8.934,8.934,0,0,0,157.116,15.054Zm4.77.027a6.86,6.86,0,0,1,.677-3.1,4.84,4.84,0,0,1,1.944-2.089,5.856,5.856,0,0,1,2.976-.73,5.344,5.344,0,0,1,4.114,1.617,6.2,6.2,0,0,1,1.5,4.4v.129a6.019,6.019,0,0,1-1.509,4.313,5.359,5.359,0,0,1-4.087,1.6,5.42,5.42,0,0,1-3.985-1.488,5.819,5.819,0,0,1-1.622-4.034Zm3.62.226a4.325,4.325,0,0,0,.5,2.363,1.682,1.682,0,0,0,1.493.752q1.934,0,1.977-2.976v-.365q0-3.126-2-3.126-1.815,0-1.966,2.7ZM178.515,21h-3.631V4.5h3.631Zm6.048,0h-3.631V9.377h3.631ZM180.717,6.369a1.63,1.63,0,0,1,.559-1.275,2.364,2.364,0,0,1,2.9,0,1.63,1.63,0,0,1,.559,1.275,1.63,1.63,0,0,1-.559,1.275,2.364,2.364,0,0,1-2.9,0A1.63,1.63,0,0,1,180.717,6.369Zm10.345,11.838h5.3V21h-9.872V18.98l5.156-6.811h-4.931V9.377h9.528v1.955ZM204.661,21a4.088,4.088,0,0,1-.344-1.042,3.366,3.366,0,0,1-2.793,1.257,4.124,4.124,0,0,1-2.793-.994,3.163,3.163,0,0,1-1.149-2.5,3.251,3.251,0,0,1,1.4-2.857,7.114,7.114,0,0,1,4.061-.967h1.117v-.615q0-1.608-1.386-1.608a1.133,1.133,0,0,0-1.289,1.274h-3.62a3.245,3.245,0,0,1,1.434-2.736,6.027,6.027,0,0,1,3.658-1.051,5.284,5.284,0,0,1,3.513,1.085,3.772,3.772,0,0,1,1.321,2.976v5.146a5.269,5.269,0,0,0,.494,2.449V21Zm-2.267-2.363a2.019,2.019,0,0,0,1.123-.29,1.818,1.818,0,0,0,.639-.655V15.833H203.1q-1.891,0-1.891,1.7a1.036,1.036,0,0,0,.333.8A1.205,1.205,0,0,0,202.395,18.637Zm6.939-3.534a7.1,7.1,0,0,1,1.192-4.351,3.925,3.925,0,0,1,3.33-1.59,3.338,3.338,0,0,1,2.621,1.225V4.5h3.631V21h-3.255l-.183-1.246a3.428,3.428,0,0,1-2.836,1.461,3.918,3.918,0,0,1-3.287-1.59A7.325,7.325,0,0,1,209.334,15.1Zm3.62.226q0,3.094,1.8,3.094a1.782,1.782,0,0,0,1.719-1.01V12.986a1.734,1.734,0,0,0-1.7-1.031q-1.676,0-1.815,2.707ZM228.713,21a4.088,4.088,0,0,1-.344-1.042,3.366,3.366,0,0,1-2.793,1.257,4.124,4.124,0,0,1-2.793-.994,3.163,3.163,0,0,1-1.149-2.5,3.251,3.251,0,0,1,1.4-2.857,7.114,7.114,0,0,1,4.061-.967h1.117v-.615q0-1.608-1.386-1.608a1.133,1.133,0,0,0-1.289,1.274h-3.62a3.245,3.245,0,0,1,1.434-2.736A6.027,6.027,0,0,1,227,9.162a5.284,5.284,0,0,1,3.513,1.085,3.772,3.772,0,0,1,1.321,2.976v5.146a5.269,5.269,0,0,0,.494,2.449V21Zm-2.267-2.363a2.019,2.019,0,0,0,1.123-.29,1.818,1.818,0,0,0,.639-.655V15.833h-1.053q-1.891,0-1.891,1.7a1.036,1.036,0,0,0,.333.8A1.205,1.205,0,0,0,226.446,18.637Z" transform="translate(9133 -8100.867)" fill="#12263f"/>
    <rect id="Rectangle_38326" data-name="Rectangle 38326" width="145" height="2" transform="translate(9232 -8124.596)" fill="#fcf300"/>
    <g id="t6-c2-2" data-name="t6-c2" transform="translate(8504 -10912)">
      <g transform="matrix(1, 0, 0, 1, 600, 2623.39)" filter="url(#Ellipse_4864)">
        <circle id="Ellipse_4864-2" data-name="Ellipse 4864" cx="60" cy="60" r="60" transform="translate(140 12.99)" fill="#fff"/>
      </g>
      <g id="Group_117656" data-name="Group 117656" transform="translate(763 2651.996)">
        <path id="Trazado_179665" data-name="Trazado 179665" d="M9303.69-11114.247a1.69,1.69,0,0,1-1.69-1.689v-68.874a1.69,1.69,0,0,1,1.69-1.689,1.69,1.69,0,0,1,1.69,1.689v68.874A1.69,1.69,0,0,1,9303.69-11114.247Z" transform="translate(-9281.437 11186.5)"/>
        <ellipse id="Ellipse_4865" data-name="Ellipse 4865" cx="15.211" cy="9.296" rx="15.211" ry="9.296" transform="translate(7.042 69.718)" fill="#ff8628"/>
        <path id="Rect치ngulo_37759_-_Contorno" data-name="Rect치ngulo 37759 - Contorno" d="M-2-2H34.338a5.922,5.922,0,0,1,5.915,5.915V34.338a5.922,5.922,0,0,1-5.915,5.915H-2ZM34.338,36.873a2.538,2.538,0,0,0,2.535-2.535V3.915A2.538,2.538,0,0,0,34.338,1.38H1.38V36.873Z" transform="translate(22.563 23.62)"/>
        <path id="Path_179666" data-name="Path 179666" d="M9279.667-11160.76l20.7-13.24,19.577,13.24-19.577,12.254Z" transform="translate(-9277.977 11184.563)" fill="#007a64"/>
        <rect id="Rectangle_37760" data-name="Rectangle 37760" width="34.648" height="17.746" rx="5" transform="translate(43.38 33.451)" fill="#fcf300"/>
        <rect id="Rectangle_37761" data-name="Rectangle 37761" width="28.732" height="12.676" rx="5" transform="translate(43.38 33.451)" fill="#fef975"/>
        <path id="Rect치ngulo_37760_-_Contorno" data-name="Rect치ngulo 37760 - Contorno" d="M3.915-2h26.2a5.922,5.922,0,0,1,5.915,5.915v9.3a5.922,5.922,0,0,1-5.915,5.915H3.915A5.922,5.922,0,0,1-2,13.211v-9.3A5.922,5.922,0,0,1,3.915-2Zm26.2,17.746a2.538,2.538,0,0,0,2.535-2.535v-9.3A2.538,2.538,0,0,0,30.113,1.38H3.915A2.538,2.538,0,0,0,1.38,3.915v9.3a2.538,2.538,0,0,0,2.535,2.535Z" transform="translate(43.689 33.761)"/>
        <ellipse id="Ellipse_4866" data-name="Ellipse 4866" cx="11.831" cy="6.338" rx="11.831" ry="6.338" transform="translate(10.422 69.718)" fill="#ffad6e"/>
        <path id="Elipse_4865_-_Contorno" data-name="Elipse 4865 - Contorno" d="M14.9-2A22.606,22.606,0,0,1,26.539.971a12.312,12.312,0,0,1,3.768,3.435,7.948,7.948,0,0,1,1.5,4.58,7.948,7.948,0,0,1-1.5,4.58A12.312,12.312,0,0,1,26.539,17,22.606,22.606,0,0,1,14.9,19.972,22.606,22.606,0,0,1,3.264,17,12.312,12.312,0,0,1-.5,13.566,7.948,7.948,0,0,1-2,8.986,7.948,7.948,0,0,1-.5,4.406,12.312,12.312,0,0,1,3.264.971,22.606,22.606,0,0,1,14.9-2Zm0,18.592c7.329,0,13.521-3.483,13.521-7.606S22.231,1.38,14.9,1.38,1.38,4.863,1.38,8.986,7.572,16.592,14.9,16.592Z" transform="translate(7.352 70.028)"/>
        <path id="Path_179667" data-name="Path 179667" d="M9279.667-11165.945l12.6-8.055,11.911,8.055-11.911,7.455Z" transform="translate(-9270.09 11186.168)" fill="#009e83"/>
        <path id="Trazado_179666_-_Contorno" data-name="Trazado 179666 - Contorno" d="M9300.062-11147.127a1.692,1.692,0,0,1-.861-.235l-20.7-12.254a1.692,1.692,0,0,1-.829-1.425,1.691,1.691,0,0,1,.78-1.453l20.7-13.239a1.683,1.683,0,0,1,1.856.023l19.577,13.24a1.691,1.691,0,0,1,.743,1.429,1.693,1.693,0,0,1-.793,1.4l-19.577,12.254A1.694,1.694,0,0,1,9300.062-11147.127Zm-17.48-14,17.455,10.331,16.5-10.33-16.5-11.162Z" transform="translate(-9277.667 11184.873)"/>
      </g>
    </g>
  </g>
</svg>
