<svg xmlns="http://www.w3.org/2000/svg" width="704" height="291.132" viewBox="0 0 704 291.132">
  <g id="t6-t3" transform="translate(-12167 7914)">
    <path id="Path_179627" data-name="Path 179627" d="M8255.5-10404.684l-91.5-65.265,91.5-65.3,91.5,65.3Z" transform="translate(4524 2621.25)" fill="#fefdd2"/>
    <path id="Path_179627_-_Outline" data-name="Path 179627 - Outline" d="M8255.5-10407.754l87.2-62.2-87.2-62.229-87.2,62.229,87.2,62.2m0,3.07-91.5-65.265,91.5-65.3,91.5,65.3Z" transform="translate(4524 2621.25)" fill="#ff8628"/>
    <path id="Path_180959" data-name="Path 180959" d="M8255.5-10404.684l-91.5-65.265,91.5-65.3,91.5,65.3Z" transform="translate(4296 2781.815)" fill="#fefdd2"/>
    <path id="Path_180959_-_Outline" data-name="Path 180959 - Outline" d="M8255.5-10407.754l87.2-62.2-87.2-62.229-87.2,62.229,87.2,62.2m0,3.07-91.5-65.265,91.5-65.3,91.5,65.3Z" transform="translate(4296 2781.815)" fill="#ff8628"/>
    <rect id="Rectangle_37710" data-name="Rectangle 37710" width="111" height="50" rx="25" transform="translate(12167 -7874.217)" fill="#fefdd2"/>
    <path id="Rectangle_37710_-_Outline" data-name="Rectangle 37710 - Outline" d="M25,2.5a22.507,22.507,0,0,0-8.757,43.233A22.357,22.357,0,0,0,25,47.5H86A22.507,22.507,0,0,0,94.757,4.267,22.357,22.357,0,0,0,86,2.5H25M25,0H86a25,25,0,0,1,0,50H25A25,25,0,0,1,25,0Z" transform="translate(12167 -7874.217)" fill="#ff8628"/>
    <rect id="Rectangle_37714" data-name="Rectangle 37714" width="111" height="50" rx="25" transform="translate(12278.501 -7712.775)" fill="#fefdd2"/>
    <path id="Rectangle_37714_-_Outline" data-name="Rectangle 37714 - Outline" d="M25,2.5a22.507,22.507,0,0,0-8.757,43.233A22.357,22.357,0,0,0,25,47.5H86A22.507,22.507,0,0,0,94.757,4.267,22.357,22.357,0,0,0,86,2.5H25M25,0H86a25,25,0,0,1,0,50H25A25,25,0,0,1,25,0Z" transform="translate(12278.501 -7712.775)" fill="#ff8628"/>
    <rect id="Rectangle_37711" data-name="Rectangle 37711" width="132" height="82" transform="translate(12322 -7890.217)" fill="#fefdd2"/>
    <path id="Rectangle_37711_-_Outline" data-name="Rectangle 37711 - Outline" d="M2.5,2.5v77h127V2.5H2.5M0,0H132V82H0Z" transform="translate(12322 -7890.217)" fill="#ff8628"/>
    <rect id="Rectangle_37712" data-name="Rectangle 37712" width="132" height="82" transform="translate(12505 -7890.217)" fill="#fefdd2"/>
    <path id="Rectangle_37712_-_Outline" data-name="Rectangle 37712 - Outline" d="M2.5,2.5v77h127V2.5H2.5M0,0H132V82H0Z" transform="translate(12505 -7890.217)" fill="#ff8628"/>
    <rect id="Rectangle_37713" data-name="Rectangle 37713" width="132" height="82" transform="translate(12713.5 -7729.151)" fill="#fefdd2"/>
    <path id="Rectangle_37713_-_Outline" data-name="Rectangle 37713 - Outline" d="M2.5,2.5v77h127V2.5H2.5M0,0H132V82H0Z" transform="translate(12713.5 -7729.151)" fill="#ff8628"/>
    <path id="Path_180962" data-name="Path 180962" d="M13.887,14.609H9.66L8.921,17h-3.3L10.319,4.2h2.9L17.948,17H14.634ZM10.4,12.228h2.751l-1.38-4.438Zm12.366,2.663a1.317,1.317,0,0,0,.967-.338,1.241,1.241,0,0,0,.334-.945h2.777a3.288,3.288,0,0,1-1.121,2.566,4.168,4.168,0,0,1-2.887,1,4.22,4.22,0,0,1-3.27-1.3,5.125,5.125,0,0,1-1.2-3.6v-.123A5.792,5.792,0,0,1,18.9,9.6a3.872,3.872,0,0,1,1.534-1.7,4.573,4.573,0,0,1,2.373-.593,4.116,4.116,0,0,1,2.944,1.028,3.647,3.647,0,0,1,1.09,2.786H24.065A1.626,1.626,0,0,0,23.7,10a1.244,1.244,0,0,0-.967-.4q-1.151,0-1.345,1.468a10.357,10.357,0,0,0-.062,1.283,4.068,4.068,0,0,0,.343,1.986A1.187,1.187,0,0,0,22.764,14.891Zm8.78-9.765V7.49h1.564V9.547H31.544V13.9a1.111,1.111,0,0,0,.193.747,1.037,1.037,0,0,0,.765.211,4.345,4.345,0,0,0,.738-.053v2.118a5.466,5.466,0,0,1-1.67.255,3.1,3.1,0,0,1-2.259-.721,2.954,2.954,0,0,1-.729-2.188V9.547H27.37V7.49h1.213V5.126ZM37.4,17H34.427V7.49H37.4ZM34.251,5.038A1.322,1.322,0,0,1,34.708,4a1.943,1.943,0,0,1,2.373,0,1.322,1.322,0,0,1,.457,1.037,1.322,1.322,0,0,1-.457,1.037,1.943,1.943,0,0,1-2.373,0A1.322,1.322,0,0,1,34.251,5.038Zm8.763,8.438,1.5-5.985h3.12L44.535,17H41.511l-3.1-9.51h3.129ZM51.645,17H48.674V7.49h2.971ZM48.5,5.038A1.322,1.322,0,0,1,48.956,4a1.943,1.943,0,0,1,2.373,0,1.322,1.322,0,0,1,.457,1.037,1.322,1.322,0,0,1-.457,1.037,1.943,1.943,0,0,1-2.373,0A1.322,1.322,0,0,1,48.5,5.038Zm4.6,7.137a5.809,5.809,0,0,1,.976-3.56,3.211,3.211,0,0,1,2.725-1.3,2.731,2.731,0,0,1,2.145,1V3.5h2.971V17H59.248L59.1,15.98a2.8,2.8,0,0,1-2.32,1.2,3.205,3.205,0,0,1-2.689-1.3A5.993,5.993,0,0,1,53.1,12.175Zm2.962.185q0,2.531,1.477,2.531a1.458,1.458,0,0,0,1.406-.826V10.443A1.419,1.419,0,0,0,57.551,9.6q-1.371,0-1.485,2.215ZM68.951,17a3.344,3.344,0,0,1-.281-.853,2.754,2.754,0,0,1-2.285,1.028,3.374,3.374,0,0,1-2.285-.813,2.588,2.588,0,0,1-.94-2.043A2.66,2.66,0,0,1,64.3,11.981a5.821,5.821,0,0,1,3.322-.791h.914v-.5q0-1.316-1.134-1.316a.927.927,0,0,0-1.055,1.042H63.387a2.655,2.655,0,0,1,1.173-2.239,4.931,4.931,0,0,1,2.993-.86,4.323,4.323,0,0,1,2.874.888,3.086,3.086,0,0,1,1.081,2.435v4.21a4.311,4.311,0,0,0,.4,2V17ZM67.1,15.066a1.652,1.652,0,0,0,.918-.237,1.487,1.487,0,0,0,.523-.536V12.772h-.861q-1.547,0-1.547,1.389a.848.848,0,0,0,.272.655A.986.986,0,0,0,67.1,15.066Zm5.678-2.892a5.809,5.809,0,0,1,.976-3.56,3.211,3.211,0,0,1,2.725-1.3,2.731,2.731,0,0,1,2.145,1V3.5h2.971V17H78.926l-.149-1.02a2.8,2.8,0,0,1-2.32,1.2,3.205,3.205,0,0,1-2.689-1.3A5.993,5.993,0,0,1,72.774,12.175Zm2.962.185q0,2.531,1.477,2.531a1.458,1.458,0,0,0,1.406-.826V10.443A1.419,1.419,0,0,0,77.23,9.6q-1.371,0-1.485,2.215ZM94.272,17H91.3V7.543L88.383,8.4V6.146L94,4.2h.272Z" transform="translate(12337 -7860.217)" fill="#12263f"/>
    <path id="Path_180963" data-name="Path 180963" d="M13.887,14.609H9.66L8.921,17h-3.3L10.319,4.2h2.9L17.948,17H14.634ZM10.4,12.228h2.751l-1.38-4.438Zm12.366,2.663a1.317,1.317,0,0,0,.967-.338,1.241,1.241,0,0,0,.334-.945h2.777a3.288,3.288,0,0,1-1.121,2.566,4.168,4.168,0,0,1-2.887,1,4.22,4.22,0,0,1-3.27-1.3,5.125,5.125,0,0,1-1.2-3.6v-.123A5.792,5.792,0,0,1,18.9,9.6a3.872,3.872,0,0,1,1.534-1.7,4.573,4.573,0,0,1,2.373-.593,4.116,4.116,0,0,1,2.944,1.028,3.647,3.647,0,0,1,1.09,2.786H24.065A1.626,1.626,0,0,0,23.7,10a1.244,1.244,0,0,0-.967-.4q-1.151,0-1.345,1.468a10.357,10.357,0,0,0-.062,1.283,4.068,4.068,0,0,0,.343,1.986A1.187,1.187,0,0,0,22.764,14.891Zm8.78-9.765V7.49h1.564V9.547H31.544V13.9a1.111,1.111,0,0,0,.193.747,1.037,1.037,0,0,0,.765.211,4.345,4.345,0,0,0,.738-.053v2.118a5.466,5.466,0,0,1-1.67.255,3.1,3.1,0,0,1-2.259-.721,2.954,2.954,0,0,1-.729-2.188V9.547H27.37V7.49h1.213V5.126ZM37.4,17H34.427V7.49H37.4ZM34.251,5.038A1.322,1.322,0,0,1,34.708,4a1.943,1.943,0,0,1,2.373,0,1.322,1.322,0,0,1,.457,1.037,1.322,1.322,0,0,1-.457,1.037,1.943,1.943,0,0,1-2.373,0A1.322,1.322,0,0,1,34.251,5.038Zm8.763,8.438,1.5-5.985h3.12L44.535,17H41.511l-3.1-9.51h3.129ZM51.645,17H48.674V7.49h2.971ZM48.5,5.038A1.322,1.322,0,0,1,48.956,4a1.943,1.943,0,0,1,2.373,0,1.322,1.322,0,0,1,.457,1.037,1.322,1.322,0,0,1-.457,1.037,1.943,1.943,0,0,1-2.373,0A1.322,1.322,0,0,1,48.5,5.038Zm4.6,7.137a5.809,5.809,0,0,1,.976-3.56,3.211,3.211,0,0,1,2.725-1.3,2.731,2.731,0,0,1,2.145,1V3.5h2.971V17H59.248L59.1,15.98a2.8,2.8,0,0,1-2.32,1.2,3.205,3.205,0,0,1-2.689-1.3A5.993,5.993,0,0,1,53.1,12.175Zm2.962.185q0,2.531,1.477,2.531a1.458,1.458,0,0,0,1.406-.826V10.443A1.419,1.419,0,0,0,57.551,9.6q-1.371,0-1.485,2.215ZM68.951,17a3.344,3.344,0,0,1-.281-.853,2.754,2.754,0,0,1-2.285,1.028,3.374,3.374,0,0,1-2.285-.813,2.588,2.588,0,0,1-.94-2.043A2.66,2.66,0,0,1,64.3,11.981a5.821,5.821,0,0,1,3.322-.791h.914v-.5q0-1.316-1.134-1.316a.927.927,0,0,0-1.055,1.042H63.387a2.655,2.655,0,0,1,1.173-2.239,4.931,4.931,0,0,1,2.993-.86,4.323,4.323,0,0,1,2.874.888,3.086,3.086,0,0,1,1.081,2.435v4.21a4.311,4.311,0,0,0,.4,2V17ZM67.1,15.066a1.652,1.652,0,0,0,.918-.237,1.487,1.487,0,0,0,.523-.536V12.772h-.861q-1.547,0-1.547,1.389a.848.848,0,0,0,.272.655A.986.986,0,0,0,67.1,15.066Zm5.678-2.892a5.809,5.809,0,0,1,.976-3.56,3.211,3.211,0,0,1,2.725-1.3,2.731,2.731,0,0,1,2.145,1V3.5h2.971V17H78.926l-.149-1.02a2.8,2.8,0,0,1-2.32,1.2,3.205,3.205,0,0,1-2.689-1.3A5.993,5.993,0,0,1,72.774,12.175Zm2.962.185q0,2.531,1.477,2.531a1.458,1.458,0,0,0,1.406-.826V10.443A1.419,1.419,0,0,0,77.23,9.6q-1.371,0-1.485,2.215ZM96.636,17h-8.93V15.066l4.113-4.324A4.909,4.909,0,0,0,93.34,7.991a1.913,1.913,0,0,0-.36-1.257A1.287,1.287,0,0,0,91.934,6.3a1.3,1.3,0,0,0-1.1.576,2.366,2.366,0,0,0-.422,1.437H87.443a4.2,4.2,0,0,1,.589-2.175,4.129,4.129,0,0,1,1.635-1.56A4.856,4.856,0,0,1,92,4.019a4.777,4.777,0,0,1,3.195.958A3.42,3.42,0,0,1,96.32,7.728,4,4,0,0,1,96.039,9.2a6.456,6.456,0,0,1-.875,1.5,22.029,22.029,0,0,1-1.912,2.1L91.6,14.715h5.036Z" transform="translate(12520 -7860.217)" fill="#12263f"/>
    <path id="Path_180966" data-name="Path 180966" d="M13.887,14.609H9.66L8.921,17h-3.3L10.319,4.2h2.9L17.948,17H14.634ZM10.4,12.228h2.751l-1.38-4.438Zm12.366,2.663a1.317,1.317,0,0,0,.967-.338,1.241,1.241,0,0,0,.334-.945h2.777a3.288,3.288,0,0,1-1.121,2.566,4.168,4.168,0,0,1-2.887,1,4.22,4.22,0,0,1-3.27-1.3,5.125,5.125,0,0,1-1.2-3.6v-.123A5.792,5.792,0,0,1,18.9,9.6a3.872,3.872,0,0,1,1.534-1.7,4.573,4.573,0,0,1,2.373-.593,4.116,4.116,0,0,1,2.944,1.028,3.647,3.647,0,0,1,1.09,2.786H24.065A1.626,1.626,0,0,0,23.7,10a1.244,1.244,0,0,0-.967-.4q-1.151,0-1.345,1.468a10.357,10.357,0,0,0-.062,1.283,4.068,4.068,0,0,0,.343,1.986A1.187,1.187,0,0,0,22.764,14.891Zm8.78-9.765V7.49h1.564V9.547H31.544V13.9a1.111,1.111,0,0,0,.193.747,1.037,1.037,0,0,0,.765.211,4.345,4.345,0,0,0,.738-.053v2.118a5.466,5.466,0,0,1-1.67.255,3.1,3.1,0,0,1-2.259-.721,2.954,2.954,0,0,1-.729-2.188V9.547H27.37V7.49h1.213V5.126ZM37.4,17H34.427V7.49H37.4ZM34.251,5.038A1.322,1.322,0,0,1,34.708,4a1.943,1.943,0,0,1,2.373,0,1.322,1.322,0,0,1,.457,1.037,1.322,1.322,0,0,1-.457,1.037,1.943,1.943,0,0,1-2.373,0A1.322,1.322,0,0,1,34.251,5.038Zm8.763,8.438,1.5-5.985h3.12L44.535,17H41.511l-3.1-9.51h3.129ZM51.645,17H48.674V7.49h2.971ZM48.5,5.038A1.322,1.322,0,0,1,48.956,4a1.943,1.943,0,0,1,2.373,0,1.322,1.322,0,0,1,.457,1.037,1.322,1.322,0,0,1-.457,1.037,1.943,1.943,0,0,1-2.373,0A1.322,1.322,0,0,1,48.5,5.038Zm4.6,7.137a5.809,5.809,0,0,1,.976-3.56,3.211,3.211,0,0,1,2.725-1.3,2.731,2.731,0,0,1,2.145,1V3.5h2.971V17H59.248L59.1,15.98a2.8,2.8,0,0,1-2.32,1.2,3.205,3.205,0,0,1-2.689-1.3A5.993,5.993,0,0,1,53.1,12.175Zm2.962.185q0,2.531,1.477,2.531a1.458,1.458,0,0,0,1.406-.826V10.443A1.419,1.419,0,0,0,57.551,9.6q-1.371,0-1.485,2.215ZM68.951,17a3.344,3.344,0,0,1-.281-.853,2.754,2.754,0,0,1-2.285,1.028,3.374,3.374,0,0,1-2.285-.813,2.588,2.588,0,0,1-.94-2.043A2.66,2.66,0,0,1,64.3,11.981a5.821,5.821,0,0,1,3.322-.791h.914v-.5q0-1.316-1.134-1.316a.927.927,0,0,0-1.055,1.042H63.387a2.655,2.655,0,0,1,1.173-2.239,4.931,4.931,0,0,1,2.993-.86,4.323,4.323,0,0,1,2.874.888,3.086,3.086,0,0,1,1.081,2.435v4.21a4.311,4.311,0,0,0,.4,2V17ZM67.1,15.066a1.652,1.652,0,0,0,.918-.237,1.487,1.487,0,0,0,.523-.536V12.772h-.861q-1.547,0-1.547,1.389a.848.848,0,0,0,.272.655A.986.986,0,0,0,67.1,15.066Zm5.678-2.892a5.809,5.809,0,0,1,.976-3.56,3.211,3.211,0,0,1,2.725-1.3,2.731,2.731,0,0,1,2.145,1V3.5h2.971V17H78.926l-.149-1.02a2.8,2.8,0,0,1-2.32,1.2,3.205,3.205,0,0,1-2.689-1.3A5.993,5.993,0,0,1,72.774,12.175Zm2.962.185q0,2.531,1.477,2.531a1.458,1.458,0,0,0,1.406-.826V10.443A1.419,1.419,0,0,0,77.23,9.6q-1.371,0-1.485,2.215Zm14.678-3h1.4a1.453,1.453,0,0,0,1.661-1.626,1.406,1.406,0,0,0-.4-1.033,1.5,1.5,0,0,0-1.116-.4,1.606,1.606,0,0,0-1.024.343A1.046,1.046,0,0,0,90.5,7.5H87.54A3.032,3.032,0,0,1,88.1,5.7a3.715,3.715,0,0,1,1.56-1.235,5.334,5.334,0,0,1,2.193-.444,5.241,5.241,0,0,1,3.357.976,3.243,3.243,0,0,1,1.222,2.681,2.7,2.7,0,0,1-.505,1.56,3.6,3.6,0,0,1-1.472,1.191,3.441,3.441,0,0,1,1.6,1.121,2.951,2.951,0,0,1,.58,1.859,3.3,3.3,0,0,1-1.318,2.742,5.472,5.472,0,0,1-3.463,1.028,5.675,5.675,0,0,1-2.333-.479,3.656,3.656,0,0,1-1.63-1.327,3.45,3.45,0,0,1-.554-1.929h2.979a1.334,1.334,0,0,0,.475,1.02,1.676,1.676,0,0,0,1.169.431,1.755,1.755,0,0,0,1.248-.435,1.454,1.454,0,0,0,.466-1.112,1.7,1.7,0,0,0-.483-1.371,2.021,2.021,0,0,0-1.336-.4H90.414Z" transform="translate(12728.5 -7699.151)" fill="#12263f"/>
    <path id="Path_180964" data-name="Path 180964" d="M9.932,17V4.2h4.122a6.064,6.064,0,0,1,3.05.769,5.406,5.406,0,0,1,2.114,2.171,6.554,6.554,0,0,1,.769,3.142v.589a6.592,6.592,0,0,1-.743,3.151,5.429,5.429,0,0,1-2.092,2.18,5.93,5.93,0,0,1-3.01.8ZM13.017,6.585v8.042h1.072a2.4,2.4,0,0,0,2.039-.945,4.63,4.63,0,0,0,.712-2.808V10.32a4.592,4.592,0,0,0-.712-2.795,2.442,2.442,0,0,0-2.074-.94ZM26.034,17.176a4.889,4.889,0,0,1-3.542-1.305,4.507,4.507,0,0,1-1.354-3.4v-.246a5.84,5.84,0,0,1,.541-2.575,3.955,3.955,0,0,1,1.578-1.727,4.763,4.763,0,0,1,2.461-.611,4.117,4.117,0,0,1,3.164,1.244,4.887,4.887,0,0,1,1.16,3.467v1.151H24.153a2.135,2.135,0,0,0,.694,1.257,2.066,2.066,0,0,0,1.389.457,2.662,2.662,0,0,0,2.2-.984l1.354,1.6a3.784,3.784,0,0,1-1.569,1.217A5.3,5.3,0,0,1,26.034,17.176ZM25.7,9.6q-1.3,0-1.547,1.723h2.988v-.229a1.467,1.467,0,0,0-.36-1.1A1.434,1.434,0,0,0,25.7,9.6Zm9.554,5.291a1.317,1.317,0,0,0,.967-.338,1.241,1.241,0,0,0,.334-.945h2.777a3.288,3.288,0,0,1-1.121,2.566,4.168,4.168,0,0,1-2.887,1,4.22,4.22,0,0,1-3.27-1.3,5.125,5.125,0,0,1-1.2-3.6v-.123A5.792,5.792,0,0,1,31.391,9.6a3.872,3.872,0,0,1,1.534-1.7A4.573,4.573,0,0,1,35.3,7.314a4.116,4.116,0,0,1,2.944,1.028,3.647,3.647,0,0,1,1.09,2.786H36.554A1.626,1.626,0,0,0,36.194,10a1.244,1.244,0,0,0-.967-.4q-1.151,0-1.345,1.468a10.357,10.357,0,0,0-.062,1.283,4.068,4.068,0,0,0,.343,1.986A1.187,1.187,0,0,0,35.253,14.891ZM43.708,17H40.738V7.49h2.971ZM40.562,5.038A1.322,1.322,0,0,1,41.019,4a1.943,1.943,0,0,1,2.373,0,1.322,1.322,0,0,1,.457,1.037,1.322,1.322,0,0,1-.457,1.037,1.943,1.943,0,0,1-2.373,0A1.322,1.322,0,0,1,40.562,5.038Zm9.949,9.29a.684.684,0,0,0-.4-.606,6.016,6.016,0,0,0-1.5-.475,6.853,6.853,0,0,1-1.828-.646,3.062,3.062,0,0,1-1.1-.971,2.319,2.319,0,0,1-.378-1.31,2.628,2.628,0,0,1,1.081-2.158,4.453,4.453,0,0,1,2.83-.848,4.934,4.934,0,0,1,3.023.853,2.666,2.666,0,0,1,1.143,2.241H50.415q0-1.143-1.2-1.143a1.194,1.194,0,0,0-.782.259.8.8,0,0,0-.316.646.737.737,0,0,0,.387.642,3.654,3.654,0,0,0,1.235.4,10.671,10.671,0,0,1,1.49.378,2.706,2.706,0,0,1,2.145,2.646,2.491,2.491,0,0,1-1.156,2.118,5.068,5.068,0,0,1-2.993.817,5.172,5.172,0,0,1-2.18-.439,3.645,3.645,0,0,1-1.494-1.2,2.707,2.707,0,0,1-.536-1.591h2.769a1.145,1.145,0,0,0,.439.962,1.808,1.808,0,0,0,1.081.3,1.422,1.422,0,0,0,.91-.246A.787.787,0,0,0,50.511,14.328ZM57.876,17H54.906V7.49h2.971ZM54.73,5.038A1.322,1.322,0,0,1,55.187,4,1.943,1.943,0,0,1,57.56,4a1.322,1.322,0,0,1,.457,1.037,1.322,1.322,0,0,1-.457,1.037,1.943,1.943,0,0,1-2.373,0A1.322,1.322,0,0,1,54.73,5.038Zm4.6,7.119a5.613,5.613,0,0,1,.554-2.536,3.96,3.96,0,0,1,1.591-1.709,4.791,4.791,0,0,1,2.435-.6,4.373,4.373,0,0,1,3.366,1.323,5.076,5.076,0,0,1,1.23,3.6v.105a4.925,4.925,0,0,1-1.235,3.529,4.384,4.384,0,0,1-3.344,1.305,4.434,4.434,0,0,1-3.261-1.217,4.761,4.761,0,0,1-1.327-3.3Zm2.962.185a3.538,3.538,0,0,0,.413,1.934,1.376,1.376,0,0,0,1.222.615q1.582,0,1.617-2.435v-.3q0-2.558-1.635-2.558-1.485,0-1.608,2.206ZM64.31,3.5h3.129L65,6.26l-2.417,0Zm8.218,3.99.1,1.116A3.225,3.225,0,0,1,75.34,7.314,2.713,2.713,0,0,1,77.56,8.2a4.226,4.226,0,0,1,.76,2.672V17H75.349V11a1.6,1.6,0,0,0-.29-1.059A1.342,1.342,0,0,0,74,9.6a1.413,1.413,0,0,0-1.292.686V17H69.75V7.49ZM90.958,17H87.988V7.543L85.07,8.4V6.146L90.686,4.2h.272Z" transform="translate(12728 -7860.217)" fill="#12263f"/>
    <path id="Path_180969" data-name="Path 180969" d="M9.932,17V4.2h4.122a6.064,6.064,0,0,1,3.05.769,5.406,5.406,0,0,1,2.114,2.171,6.554,6.554,0,0,1,.769,3.142v.589a6.592,6.592,0,0,1-.743,3.151,5.429,5.429,0,0,1-2.092,2.18,5.93,5.93,0,0,1-3.01.8ZM13.017,6.585v8.042h1.072a2.4,2.4,0,0,0,2.039-.945,4.63,4.63,0,0,0,.712-2.808V10.32a4.592,4.592,0,0,0-.712-2.795,2.442,2.442,0,0,0-2.074-.94ZM26.034,17.176a4.889,4.889,0,0,1-3.542-1.305,4.507,4.507,0,0,1-1.354-3.4v-.246a5.84,5.84,0,0,1,.541-2.575,3.955,3.955,0,0,1,1.578-1.727,4.763,4.763,0,0,1,2.461-.611,4.117,4.117,0,0,1,3.164,1.244,4.887,4.887,0,0,1,1.16,3.467v1.151H24.153a2.135,2.135,0,0,0,.694,1.257,2.066,2.066,0,0,0,1.389.457,2.662,2.662,0,0,0,2.2-.984l1.354,1.6a3.784,3.784,0,0,1-1.569,1.217A5.3,5.3,0,0,1,26.034,17.176ZM25.7,9.6q-1.3,0-1.547,1.723h2.988v-.229a1.467,1.467,0,0,0-.36-1.1A1.434,1.434,0,0,0,25.7,9.6Zm9.554,5.291a1.317,1.317,0,0,0,.967-.338,1.241,1.241,0,0,0,.334-.945h2.777a3.288,3.288,0,0,1-1.121,2.566,4.168,4.168,0,0,1-2.887,1,4.22,4.22,0,0,1-3.27-1.3,5.125,5.125,0,0,1-1.2-3.6v-.123A5.792,5.792,0,0,1,31.391,9.6a3.872,3.872,0,0,1,1.534-1.7A4.573,4.573,0,0,1,35.3,7.314a4.116,4.116,0,0,1,2.944,1.028,3.647,3.647,0,0,1,1.09,2.786H36.554A1.626,1.626,0,0,0,36.194,10a1.244,1.244,0,0,0-.967-.4q-1.151,0-1.345,1.468a10.357,10.357,0,0,0-.062,1.283,4.068,4.068,0,0,0,.343,1.986A1.187,1.187,0,0,0,35.253,14.891ZM43.708,17H40.738V7.49h2.971ZM40.562,5.038A1.322,1.322,0,0,1,41.019,4a1.943,1.943,0,0,1,2.373,0,1.322,1.322,0,0,1,.457,1.037,1.322,1.322,0,0,1-.457,1.037,1.943,1.943,0,0,1-2.373,0A1.322,1.322,0,0,1,40.562,5.038Zm9.949,9.29a.684.684,0,0,0-.4-.606,6.016,6.016,0,0,0-1.5-.475,6.853,6.853,0,0,1-1.828-.646,3.062,3.062,0,0,1-1.1-.971,2.319,2.319,0,0,1-.378-1.31,2.628,2.628,0,0,1,1.081-2.158,4.453,4.453,0,0,1,2.83-.848,4.934,4.934,0,0,1,3.023.853,2.666,2.666,0,0,1,1.143,2.241H50.415q0-1.143-1.2-1.143a1.194,1.194,0,0,0-.782.259.8.8,0,0,0-.316.646.737.737,0,0,0,.387.642,3.654,3.654,0,0,0,1.235.4,10.671,10.671,0,0,1,1.49.378,2.706,2.706,0,0,1,2.145,2.646,2.491,2.491,0,0,1-1.156,2.118,5.068,5.068,0,0,1-2.993.817,5.172,5.172,0,0,1-2.18-.439,3.645,3.645,0,0,1-1.494-1.2,2.707,2.707,0,0,1-.536-1.591h2.769a1.145,1.145,0,0,0,.439.962,1.808,1.808,0,0,0,1.081.3,1.422,1.422,0,0,0,.91-.246A.787.787,0,0,0,50.511,14.328ZM57.876,17H54.906V7.49h2.971ZM54.73,5.038A1.322,1.322,0,0,1,55.187,4,1.943,1.943,0,0,1,57.56,4a1.322,1.322,0,0,1,.457,1.037,1.322,1.322,0,0,1-.457,1.037,1.943,1.943,0,0,1-2.373,0A1.322,1.322,0,0,1,54.73,5.038Zm4.6,7.119a5.613,5.613,0,0,1,.554-2.536,3.96,3.96,0,0,1,1.591-1.709,4.791,4.791,0,0,1,2.435-.6,4.373,4.373,0,0,1,3.366,1.323,5.076,5.076,0,0,1,1.23,3.6v.105a4.925,4.925,0,0,1-1.235,3.529,4.384,4.384,0,0,1-3.344,1.305,4.434,4.434,0,0,1-3.261-1.217,4.761,4.761,0,0,1-1.327-3.3Zm2.962.185a3.538,3.538,0,0,0,.413,1.934,1.376,1.376,0,0,0,1.222.615q1.582,0,1.617-2.435v-.3q0-2.558-1.635-2.558-1.485,0-1.608,2.206ZM64.31,3.5h3.129L65,6.26l-2.417,0Zm8.218,3.99.1,1.116A3.225,3.225,0,0,1,75.34,7.314,2.713,2.713,0,0,1,77.56,8.2a4.226,4.226,0,0,1,.76,2.672V17H75.349V11a1.6,1.6,0,0,0-.29-1.059A1.342,1.342,0,0,0,74,9.6a1.413,1.413,0,0,0-1.292.686V17H69.75V7.49ZM93.323,17h-8.93V15.066l4.113-4.324a4.909,4.909,0,0,0,1.521-2.751,1.913,1.913,0,0,0-.36-1.257A1.287,1.287,0,0,0,88.621,6.3a1.3,1.3,0,0,0-1.1.576A2.366,2.366,0,0,0,87.1,8.316H84.129a4.2,4.2,0,0,1,.589-2.175,4.129,4.129,0,0,1,1.635-1.56,4.856,4.856,0,0,1,2.338-.562,4.777,4.777,0,0,1,3.195.958,3.42,3.42,0,0,1,1.121,2.751A4,4,0,0,1,92.725,9.2a6.456,6.456,0,0,1-.875,1.5,22.029,22.029,0,0,1-1.912,2.1l-1.652,1.907h5.036Z" transform="translate(12500 -7699.651)" fill="#12263f"/>
    <path id="Path_180968" data-name="Path 180968" d="M18.959,13.6a1.268,1.268,0,0,0-.479-1.055,5.954,5.954,0,0,0-1.683-.782,16.147,16.147,0,0,1-1.969-.782q-2.487-1.222-2.487-3.357a3.011,3.011,0,0,1,.62-1.876A4.008,4.008,0,0,1,14.714,4.48a6.823,6.823,0,0,1,2.549-.453,5.969,5.969,0,0,1,2.474.492,3.917,3.917,0,0,1,1.7,1.4A3.661,3.661,0,0,1,22.044,8H18.968a1.547,1.547,0,0,0-.479-1.213,1.867,1.867,0,0,0-1.3-.431,2.106,2.106,0,0,0-1.305.365,1.074,1.074,0,0,0,.048,1.819,6.65,6.65,0,0,0,1.854.826,11.36,11.36,0,0,1,2.18.918,3.663,3.663,0,0,1,2.074,3.3,3.125,3.125,0,0,1-1.266,2.637,5.629,5.629,0,0,1-3.472.958,6.888,6.888,0,0,1-2.817-.558,4.247,4.247,0,0,1-1.9-1.529,3.985,3.985,0,0,1-.637-2.237h3.094a1.963,1.963,0,0,0,.532,1.516,2.513,2.513,0,0,0,1.727.488,1.985,1.985,0,0,0,1.208-.33A1.088,1.088,0,0,0,18.959,13.6ZM26.615,17H23.644V7.49h2.971ZM23.468,5.038A1.322,1.322,0,0,1,23.925,4,1.943,1.943,0,0,1,26.3,4a1.322,1.322,0,0,1,.457,1.037A1.322,1.322,0,0,1,26.3,6.075a1.943,1.943,0,0,1-2.373,0A1.322,1.322,0,0,1,23.468,5.038Z" transform="translate(12405 -7729.651)" fill="#12263f"/>
    <path id="Path_180965" data-name="Path 180965" d="M18.959,13.6a1.268,1.268,0,0,0-.479-1.055,5.954,5.954,0,0,0-1.683-.782,16.147,16.147,0,0,1-1.969-.782q-2.487-1.222-2.487-3.357a3.011,3.011,0,0,1,.62-1.876A4.008,4.008,0,0,1,14.714,4.48a6.823,6.823,0,0,1,2.549-.453,5.969,5.969,0,0,1,2.474.492,3.917,3.917,0,0,1,1.7,1.4A3.661,3.661,0,0,1,22.044,8H18.968a1.547,1.547,0,0,0-.479-1.213,1.867,1.867,0,0,0-1.3-.431,2.106,2.106,0,0,0-1.305.365,1.074,1.074,0,0,0,.048,1.819,6.65,6.65,0,0,0,1.854.826,11.36,11.36,0,0,1,2.18.918,3.663,3.663,0,0,1,2.074,3.3,3.125,3.125,0,0,1-1.266,2.637,5.629,5.629,0,0,1-3.472.958,6.888,6.888,0,0,1-2.817-.558,4.247,4.247,0,0,1-1.9-1.529,3.985,3.985,0,0,1-.637-2.237h3.094a1.963,1.963,0,0,0,.532,1.516,2.513,2.513,0,0,0,1.727.488,1.985,1.985,0,0,0,1.208-.33A1.088,1.088,0,0,0,18.959,13.6ZM26.615,17H23.644V7.49h2.971ZM23.468,5.038A1.322,1.322,0,0,1,23.925,4,1.943,1.943,0,0,1,26.3,4a1.322,1.322,0,0,1,.457,1.037A1.322,1.322,0,0,1,26.3,6.075a1.943,1.943,0,0,1-2.373,0A1.322,1.322,0,0,1,23.468,5.038Z" transform="translate(12785.25 -7767)" fill="#12263f"/>
    <path id="Path_180967" data-name="Path 180967" d="M19.781,17H16.714L12.179,9.037V17H9.094V4.2h3.085l4.526,7.963V4.2h3.076Zm1.441-4.843a5.613,5.613,0,0,1,.554-2.536,3.96,3.96,0,0,1,1.591-1.709,4.791,4.791,0,0,1,2.435-.6,4.373,4.373,0,0,1,3.366,1.323,5.076,5.076,0,0,1,1.23,3.6v.105a4.925,4.925,0,0,1-1.235,3.529,4.384,4.384,0,0,1-3.344,1.305,4.434,4.434,0,0,1-3.261-1.217,4.761,4.761,0,0,1-1.327-3.3Zm2.962.185a3.538,3.538,0,0,0,.413,1.934,1.376,1.376,0,0,0,1.222.615q1.582,0,1.617-2.435v-.3Q27.437,9.6,25.8,9.6q-1.485,0-1.608,2.206Z" transform="translate(12659 -7729.651)" fill="#12263f"/>
    <path id="Path_180961" data-name="Path 180961" d="M13.285,17H10.208V4.2h3.076Zm4.729-9.51.1,1.116a3.225,3.225,0,0,1,2.716-1.292,2.713,2.713,0,0,1,2.219.888,4.226,4.226,0,0,1,.76,2.672V17H20.834V11a1.6,1.6,0,0,0-.29-1.059A1.342,1.342,0,0,0,19.49,9.6a1.413,1.413,0,0,0-1.292.686V17H15.236V7.49ZM28.569,17H25.6V7.49h2.971ZM25.422,5.038A1.322,1.322,0,0,1,25.879,4a1.943,1.943,0,0,1,2.373,0,1.322,1.322,0,0,1,.457,1.037,1.322,1.322,0,0,1-.457,1.037,1.943,1.943,0,0,1-2.373,0A1.322,1.322,0,0,1,25.422,5.038Zm8.991,9.853a1.317,1.317,0,0,0,.967-.338,1.241,1.241,0,0,0,.334-.945h2.777a3.288,3.288,0,0,1-1.121,2.566,4.168,4.168,0,0,1-2.887,1,4.22,4.22,0,0,1-3.27-1.3,5.125,5.125,0,0,1-1.2-3.6v-.123A5.792,5.792,0,0,1,30.551,9.6a3.872,3.872,0,0,1,1.534-1.7,4.573,4.573,0,0,1,2.373-.593A4.116,4.116,0,0,1,37.4,8.343a3.647,3.647,0,0,1,1.09,2.786H35.714A1.626,1.626,0,0,0,35.354,10a1.244,1.244,0,0,0-.967-.4q-1.151,0-1.345,1.468a10.357,10.357,0,0,0-.062,1.283,4.068,4.068,0,0,0,.343,1.986A1.187,1.187,0,0,0,34.414,14.891ZM42.869,17H39.9V7.49h2.971ZM39.722,5.038A1.322,1.322,0,0,1,40.179,4a1.943,1.943,0,0,1,2.373,0,1.322,1.322,0,0,1,.457,1.037,1.322,1.322,0,0,1-.457,1.037,1.943,1.943,0,0,1-2.373,0A1.322,1.322,0,0,1,39.722,5.038Zm4.6,7.119a5.613,5.613,0,0,1,.554-2.536,3.96,3.96,0,0,1,1.591-1.709,4.791,4.791,0,0,1,2.435-.6,4.373,4.373,0,0,1,3.366,1.323,5.076,5.076,0,0,1,1.23,3.6v.105a4.925,4.925,0,0,1-1.235,3.529,4.384,4.384,0,0,1-3.344,1.305,4.434,4.434,0,0,1-3.261-1.217,4.761,4.761,0,0,1-1.327-3.3Zm2.962.185a3.538,3.538,0,0,0,.413,1.934,1.376,1.376,0,0,0,1.222.615q1.582,0,1.617-2.435v-.3Q50.533,9.6,48.9,9.6q-1.485,0-1.608,2.206Z" transform="translate(12191 -7860.217)" fill="#12263f"/>
    <path id="Path_180970" data-name="Path 180970" d="M20.8,11.9H15.829V17H12.744V4.2H21.3V6.585H15.829V9.529H20.8ZM25.576,17H22.605V7.49h2.971ZM22.43,5.038A1.322,1.322,0,0,1,22.887,4,1.943,1.943,0,0,1,25.26,4a1.322,1.322,0,0,1,.457,1.037,1.322,1.322,0,0,1-.457,1.037,1.943,1.943,0,0,1-2.373,0A1.322,1.322,0,0,1,22.43,5.038ZM30.12,7.49l.1,1.116a3.225,3.225,0,0,1,2.716-1.292,2.713,2.713,0,0,1,2.219.888,4.226,4.226,0,0,1,.76,2.672V17H32.941V11a1.6,1.6,0,0,0-.29-1.059A1.342,1.342,0,0,0,31.6,9.6a1.413,1.413,0,0,0-1.292.686V17H27.343V7.49ZM42.908,17a3.344,3.344,0,0,1-.281-.853,2.754,2.754,0,0,1-2.285,1.028,3.374,3.374,0,0,1-2.285-.813,2.588,2.588,0,0,1-.94-2.043,2.66,2.66,0,0,1,1.143-2.338,5.821,5.821,0,0,1,3.322-.791H42.5v-.5q0-1.316-1.134-1.316a.927.927,0,0,0-1.055,1.042H37.345a2.655,2.655,0,0,1,1.173-2.239,4.931,4.931,0,0,1,2.993-.86,4.323,4.323,0,0,1,2.874.888,3.086,3.086,0,0,1,1.081,2.435v4.21a4.311,4.311,0,0,0,.4,2V17Zm-1.854-1.934a1.652,1.652,0,0,0,.918-.237,1.487,1.487,0,0,0,.523-.536V12.772h-.861q-1.547,0-1.547,1.389a.848.848,0,0,0,.272.655A.986.986,0,0,0,41.054,15.066ZM50.229,17H47.259V3.5h2.971Z" transform="translate(12302.501 -7698.775)" fill="#12263f"/>
    <path id="Union_9" data-name="Union 9" d="M36.507,13.316,35.1,11.906l4.781-4.248H0v-2H39.877L35.095,1.411,36.507,0,44,6.658l-7.493,6.658h0Z" transform="translate(12277.999 -7856.217)" fill="#007a64"/>
    <path id="Union_10" data-name="Union 10" d="M43.507,13.316,42.1,11.906l4.781-4.248H0v-2H46.877L42.095,1.411,43.507,0,51,6.658l-7.493,6.658h0Z" transform="translate(12453.999 -7856.217)" fill="#007a64"/>
    <path id="Union_11" data-name="Union 11" d="M43.507,13.316,42.1,11.906l4.781-4.248H0v-2H46.877L42.095,1.411,43.507,0,51,6.658l-7.493,6.658h0Z" transform="translate(12636.999 -7856.217)" fill="#007a64"/>
    <path id="Union_23" data-name="Union 23" d="M43.507,13.316,42.1,11.906l4.781-4.248H-19.5v-2H46.877L42.095,1.411,43.507,0,51,6.658l-7.493,6.658h0Z" transform="translate(12694.001 -7681.117) rotate(180)" fill="#007a64"/>
    <path id="Union_24" data-name="Union 24" d="M43.507,13.316,42.1,11.906l4.781-4.248H-19.5v-2H46.877L42.095,1.411,43.507,0,51,6.658l-7.493,6.658h0Z" transform="translate(12441.001 -7681.117) rotate(180)" fill="#007a64"/>
    <path id="Union_22" data-name="Union 22" d="M34.507,13.316,33.1,11.906l4.781-4.248H-12.282v-2H37.877L33.095,1.411,34.507,0,42,6.658l-7.493,6.658h0Z" transform="translate(12786.158 -7770.718) rotate(90)" fill="#007a64"/>
  </g>
</svg>
