<svg xmlns="http://www.w3.org/2000/svg" xmlns:xlink="http://www.w3.org/1999/xlink" width="1801" height="623" viewBox="0 0 1801 623">
  <defs>
    <clipPath id="clip-path">
      <rect id="Rectangle_38284" data-name="Rectangle 38284" width="1801" height="623" rx="20" transform="translate(-11676 -20027)" fill="#fff" stroke="#707070" stroke-width="1"/>
    </clipPath>
  </defs>
  <g id="bg-foot" transform="translate(11676 20027)" clip-path="url(#clip-path)">
    <path id="Path_180832" data-name="Path 180832" d="M970.754,44.339c-160.617-76.277-380.982-58.531-482.279,87.6-85.128,122.8-61.436,288.669-24.1,433.363S549.1,863.683,501.131,1005.2c-63.441,187.191-268.04,283.6-388.053,440.637-151.068,197.6-148.208,493.313-6.756,697.912,141.407,204.577,405.191,311.415,651.927,280.2,246.758-31.214,469.533-192.145,592.855-408.118,123.345-215.995,150.122-481.13,90.645-722.64-34.321-139.4-95.78-271.643-121.318-412.937-28.691-158.635,62.945-345.916,15.4-488.944C1290.7,255.537,1093.986,102.87,970.754,44.339" transform="translate(-9466.302 -20062.582) rotate(88)" fill="#ff8628" opacity="0.076"/>
    <path id="Path_180833" data-name="Path 180833" d="M437.859-1.25h.014c14.377,0,29.226.571,44.135,1.694,14.443,1.088,29.339,2.726,44.276,4.867,14.445,2.071,29.324,4.67,44.225,7.726,14.383,2.949,29.181,6.4,43.984,10.269,27.952,7.3,57.048,16.353,86.48,26.913C727.96,59.9,755.96,71.111,784.2,83.537c25.562,11.251,54.316,20.948,84.759,31.213,23.772,8.016,48.353,16.306,72.152,25.646,12.856,5.046,24.32,9.934,35.048,14.945,12.1,5.651,22.917,11.292,33.077,17.249a284.448,284.448,0,0,1,30.138,20.223,214.082,214.082,0,0,1,26.223,23.871,176.962,176.962,0,0,1,21.319,28.188,167.039,167.039,0,0,1,8.508,15.916,169.273,169.273,0,0,1,6.908,17.236,216.562,216.562,0,0,1,7.14,26.755,255.3,255.3,0,0,1,3.922,27.525,351.839,351.839,0,0,1,.1,56.634c-2.743,38.195-10.261,77.056-17.531,114.637-5.195,26.856-10.1,52.222-13.233,76.739-3.077,24.12-5.337,48.793-6.719,73.334-1.354,24.063-1.9,48.706-1.632,73.247.266,24.025,1.326,48.664,3.151,73.231,1.784,24.009,4.351,48.666,7.631,73.286,2.212,16.617,4.822,33.841,7.757,51.193,2.8,16.542,5.984,33.751,9.47,51.147,6.436,32.114,13.994,65.544,23.108,102.2,16.935,68.113,36.829,137.362,56.068,204.331,17.756,61.805,36.117,125.715,52.166,188.764,8.642,33.95,15.94,64.932,22.31,94.719,7.152,33.443,12.96,64.53,17.756,95.038,2.532,16.107,4.784,32.143,6.692,47.661,1.981,16.109,3.656,32.18,4.98,47.767,1.368,16.12,2.4,32.23,3.076,47.883.693,16.138,1.023,32.29.98,48.006-.044,16.163-.484,32.359-1.306,48.138-.844,16.193-2.118,32.436-3.785,48.279-1.708,16.227-3.879,32.521-6.455,48.427-2.634,16.266-5.768,32.612-9.316,48.583-4.851,21.848-10.779,43.793-17.62,65.227-6.82,21.37-14.7,42.708-23.418,63.422s-18.471,41.261-28.987,61.077c-10.545,19.871-22.094,39.449-34.326,58.19-12.3,18.846-25.569,37.271-39.436,54.763-13.982,17.637-28.893,34.726-44.316,50.794-15.59,16.241-32.066,31.813-48.968,46.284a668.017,668.017,0,0,1-53.389,41.232c-13.392,9.291-27.362,18.205-41.521,26.5-14.085,8.246-28.7,16.075-43.437,23.268a660.152,660.152,0,0,1-187.35,58.923c-16.186,2.525-32.62,4.45-48.846,5.721-16.329,1.279-32.847,1.928-49.094,1.928a595.621,595.621,0,0,1-144.779-17.623c-12.6-3.158-24.8-6.678-36.254-10.463-12.3-4.064-24.176-8.57-35.282-13.393a344.769,344.769,0,0,1-33.673-16.8,292.594,292.594,0,0,1-31.424-20.7,279.92,279.92,0,0,1-22.208-18.749c-6.928-6.49-13.7-13.493-20.138-20.813a342.2,342.2,0,0,1-34.337-46.772c-19.252-31.348-35-67.307-46.812-106.878a525.531,525.531,0,0,1-17.513-82.2,490.414,490.414,0,0,1-3.736-83.921,437.769,437.769,0,0,1,11.381-82.732,399.842,399.842,0,0,1,11.78-40.007,378.953,378.953,0,0,1,16.063-38.613c4.385-9.081,9.2-18.151,14.723-27.729,4.917-8.529,10.286-17.269,16.414-26.718,11.375-17.542,23.706-34.928,35.632-51.742,14.936-21.058,30.38-42.833,44.094-65.123,56.526-91.883,87.185-200.994,88.662-315.536a672.677,672.677,0,0,0-18.42-165.165,647.645,647.645,0,0,0-58.837-155.318c-7.177-13.38-14.924-26.783-23.685-40.976-7.807-12.647-16.244-25.635-25.8-39.707-17.749-26.149-36.745-52.155-55.116-77.3-10.531-14.416-21.42-29.323-31.952-44.091-12.171-17.073-23.824-33.945-34.636-50.149-11.615-17.407-22.711-34.718-32.981-51.454-10.907-17.774-21.268-35.528-30.8-52.768-10.037-18.162-19.485-36.361-28.08-54.091-9-18.566-17.355-37.213-24.833-55.424-7.794-18.98-14.878-38.079-21.056-56.766-6.415-19.4-12.049-38.956-16.746-58.117C12.741,595.2,8.735,575.185,5.7,555.553A590.446,590.446,0,0,1-.387,433.35,551.98,551.98,0,0,1,19.477,312.735a471.524,471.524,0,0,1,47.1-111.021,415.6,415.6,0,0,1,34.169-49.4,389.746,389.746,0,0,1,41.462-43.987c10.8-9.795,22.1-19.061,33.562-27.541a415.077,415.077,0,0,1,34.815-23.133A405.972,405.972,0,0,1,246.513,38.7c11.954-5.556,24.368-10.6,36.9-14.993,12.244-4.293,24.936-8.083,37.725-11.264,12.486-3.106,25.41-5.717,38.412-7.762,12.682-1.994,25.79-3.5,38.959-4.488C411.333-.764,424.574-1.25,437.859-1.25ZM607.945,2600.372c130.123,0,261.107-41.157,368.823-115.89,144.139-100.01,249.637-260.193,289.445-439.477,3.537-15.924,6.663-32.222,9.289-48.441,2.568-15.861,4.734-32.108,6.436-48.289,1.663-15.8,2.933-32,3.775-48.147.821-15.739,1.259-31.894,1.3-48.015.043-15.679-.286-31.792-.978-47.892-.671-15.618-1.7-31.693-3.069-47.779-1.321-15.556-2.993-31.6-4.97-47.674-1.9-15.491-4.153-31.5-6.68-47.578-4.789-30.462-10.589-61.505-17.731-94.9-6.363-29.754-13.654-60.706-22.288-94.625-16.04-63.012-34.4-126.9-52.146-188.69-19.246-66.99-39.146-136.261-56.092-204.418-9.123-36.693-16.69-70.159-23.133-102.312-3.491-17.421-6.682-34.654-9.484-51.221-2.939-17.381-5.554-34.634-7.77-51.28-3.287-24.668-5.859-49.374-7.646-73.431-1.829-24.619-2.891-49.311-3.158-73.388-.272-24.6.278-49.3,1.636-73.415,1.385-24.6,3.651-49.331,6.735-73.51,3.141-24.6,8.055-50,13.258-76.9,7.256-37.509,14.76-76.3,17.492-114.341a349.345,349.345,0,0,0-.093-56.234,252.74,252.74,0,0,0-3.883-27.254,214.05,214.05,0,0,0-7.057-26.445,166.807,166.807,0,0,0-6.805-16.981,164.542,164.542,0,0,0-8.38-15.677,174.471,174.471,0,0,0-21.018-27.788,211.586,211.586,0,0,0-25.916-23.591,282.03,282.03,0,0,0-29.872-20.043c-10.092-5.916-20.844-11.523-32.871-17.14-10.68-4.989-22.1-9.857-34.9-14.883-23.742-9.318-48.294-17.6-72.037-25.6-30.5-10.284-59.3-20-84.967-31.294-28.182-12.4-56.127-23.59-83.06-33.253C670.765,42.038,641.74,33,613.86,25.725c-14.76-3.854-29.515-7.3-43.854-10.24-14.852-3.045-29.682-5.636-44.078-7.7-14.881-2.134-29.721-3.765-44.108-4.849C466.973,1.818,452.187,1.25,437.873,1.25h-.014c-13.224,0-26.4.483-39.167,1.437-13.1.979-26.141,2.481-38.757,4.465-12.93,2.033-25.781,4.63-38.2,7.718-12.713,3.162-25.33,6.929-37.5,11.2-12.452,4.366-24.79,9.38-36.67,14.9a403.32,403.32,0,0,0-35.7,18.833,412.483,412.483,0,0,0-34.6,22.993c-11.4,8.431-22.627,17.643-33.369,27.383a387.2,387.2,0,0,0-41.2,43.7,413.075,413.075,0,0,0-33.963,49.1A469.038,469.038,0,0,0,21.882,313.418,549.49,549.49,0,0,0,2.109,433.486,587.959,587.959,0,0,0,8.168,555.17c3.026,19.561,7.017,39.5,11.863,59.263,4.682,19.1,10.3,38.587,16.692,57.927,6.16,18.632,13.224,37.675,20.995,56.6,7.458,18.164,15.792,36.764,24.77,55.283,8.576,17.69,18,35.849,28.018,53.972,9.509,17.207,19.851,34.928,30.738,52.669,10.253,16.709,21.332,33.993,32.93,51.374,10.8,16.182,22.436,33.034,34.592,50.085,10.524,14.755,21.409,29.657,31.935,44.067,18.383,25.167,37.393,51.19,55.166,77.374,9.572,14.1,18.029,27.12,25.854,39.8,8.787,14.236,16.559,27.682,23.761,41.107a650.166,650.166,0,0,1,59.065,155.918,675.163,675.163,0,0,1,18.489,165.779,648.814,648.814,0,0,1-23.154,164.56A590.98,590.98,0,0,1,334.005,1833.2c-13.757,22.36-29.225,44.169-44.184,65.26-11.91,16.793-24.226,34.157-35.573,51.656-6.1,9.413-11.45,18.116-16.345,26.607-5.491,9.525-10.279,18.542-14.638,27.568a376.42,376.42,0,0,0-15.957,38.358,397.382,397.382,0,0,0-11.706,39.756,435.277,435.277,0,0,0-11.315,82.258A487.888,487.888,0,0,0,188,2248.157a523.026,523.026,0,0,0,17.429,81.807c11.748,39.362,27.408,75.121,46.547,106.284a339.687,339.687,0,0,0,34.085,46.43c6.382,7.26,13.1,14.2,19.97,20.639a277.463,277.463,0,0,0,22.008,18.581,290.074,290.074,0,0,0,31.155,20.521,342.277,342.277,0,0,0,33.428,16.682c11.037,4.793,22.837,9.272,35.07,13.313,11.4,3.765,23.539,7.268,36.078,10.412A593.134,593.134,0,0,0,607.945,2600.372Z" transform="matrix(-0.242, 0.97, -0.97, -0.242, -9440.476, -19475.199)" fill="#fcf300"/>
  </g>
</svg>
