<svg xmlns="http://www.w3.org/2000/svg" xmlns:xlink="http://www.w3.org/1999/xlink" width="1328" height="574" viewBox="0 0 1328 574">
  <defs>
    <clipPath id="clip-path">
      <rect id="Rectangle_38197" data-name="Rectangle 38197" width="1328" height="574" transform="translate(136 818)" fill="#fff" stroke="#707070" stroke-width="1"/>
    </clipPath>
  </defs>
  <g id="bg-section" transform="translate(-136 -818)" clip-path="url(#clip-path)">
    <path id="Path_180801" data-name="Path 180801" d="M-1206-10329.5s170-164.5,486-114.5,530,110,842,0,0-340,0-340-470-46-704,58-654-130-654-130v518Z" transform="translate(1342 11674)" fill="#ff8628" opacity="0.07"/>
    <path id="Path_180802" data-name="Path 180802" d="M-881.773-10800.31c17.018,0,34.407.471,51.683,1.4,18.038.969,36.459,2.463,54.751,4.441,19.047,2.061,38.487,4.7,57.78,7.855,20.043,3.273,40.49,7.189,60.773,11.639,27.964,6.133,54.347,11.992,79.861,17.657,176.134,39.113,292.494,64.954,408.115,64.954,96.681,0,191.931-18.118,318.491-60.583a346.647,346.647,0,0,1,42.237-11.538,174.459,174.459,0,0,1,33.446-3.677,94.54,94.54,0,0,1,18.912,1.763,60.249,60.249,0,0,1,15.1,5.121,45.533,45.533,0,0,1,11.5,8.215,44.964,44.964,0,0,1,8.1,10.985,59.943,59.943,0,0,1,5.811,17.563,99.39,99.39,0,0,1,1.256,20.837,168.121,168.121,0,0,1-2.678,23.506c-1.437,7.961-3.463,16.568-6.023,25.582-8.842,31.138-24.364,68.488-46.134,111.015-8.548,16.7-18.093,34.246-28.368,52.155-8.22,14.326-16.923,28.915-25.869,43.361-15.233,24.6-26.03,40.467-26.137,40.624l-.436.639-.728-.261c-.17-.061-17.291-6.182-46.446-15.193-17.123-5.292-34.985-10.531-53.089-15.572-22.63-6.3-45.7-12.306-68.583-17.851-58.232-14.111-115.562-25.354-170.4-33.418-32.554-4.787-64.579-8.492-95.184-11.012-33.662-2.771-66.439-4.176-97.42-4.176-16.5,0-32.826.4-48.518,1.187-16.319.818-32.411,2.079-47.83,3.748-16,1.73-31.721,3.949-46.73,6.593-15.542,2.737-30.755,6.009-45.217,9.722-54.868,14.088-103.168,25.839-147.659,35.926-49.277,11.172-93.3,20.18-134.592,27.536-90.065,16.05-165.712,23.851-231.262,23.851-15.165,0-30.032-.427-44.187-1.268-14.377-.854-28.468-2.163-41.881-3.891-13.6-1.751-26.926-3.985-39.6-6.642-12.837-2.689-25.4-5.895-37.354-9.524a127.6,127.6,0,0,1-24.169-10,97.536,97.536,0,0,1-18.779-13.283,86.891,86.891,0,0,1-13.849-16.083,91.634,91.634,0,0,1-9.389-18.381,108.447,108.447,0,0,1-4.861-17.131,134.5,134.5,0,0,1-2.292-18.136,191.184,191.184,0,0,1,1.852-38.112c3.248-22.841,10.212-48.237,20.7-75.483,4.116-10.7,8.792-21.709,13.9-32.73,4.084-8.815,8.451-17.658,12.979-26.28,7.713-14.687,13.3-23.77,13.354-23.86l.108-.175.168-.118a273.171,273.171,0,0,1,24.6-14.642c9.431-5.09,19.615-10.128,30.268-14.975,13.314-6.056,27.4-11.829,41.878-17.159a735.228,735.228,0,0,1,117.476-32.119c24.409-4.6,49.656-8.161,75.042-10.583C-939.39-10798.959-910.611-10800.31-881.773-10800.31Zm712.964,109.944a864.789,864.789,0,0,1-87.991-4.665c-28.591-2.9-59.268-7.216-93.782-13.19-30.1-5.211-63.472-11.729-105.031-20.512-37.49-7.924-78.416-17.013-121.745-26.634-25.513-5.666-51.894-11.524-79.856-17.657-20.248-4.44-40.66-8.35-60.667-11.618-19.258-3.146-38.662-5.784-57.673-7.841-18.256-1.975-36.64-3.466-54.643-4.432-17.241-.927-34.594-1.4-51.576-1.4-28.774,0-57.49,1.348-85.349,4-25.325,2.415-50.512,5.968-74.861,10.558a733.094,733.094,0,0,0-117.155,32.03c-14.428,5.313-28.472,11.067-41.741,17.1-10.612,4.827-20.755,9.846-30.146,14.914a278.95,278.95,0,0,0-24.231,14.4c-.813,1.333-6.1,10.078-13.193,23.592-4.513,8.595-8.865,17.408-12.935,26.2-5.086,10.98-9.743,21.951-13.843,32.605-10.426,27.1-17.348,52.347-20.573,75.035a189.154,189.154,0,0,0-1.832,37.7,132.538,132.538,0,0,0,2.258,17.86,106.473,106.473,0,0,0,4.77,16.811,89.655,89.655,0,0,0,9.183,17.979,84.872,84.872,0,0,0,13.53,15.712,95.539,95.539,0,0,0,18.394,13.008,125.619,125.619,0,0,0,23.789,9.842c11.894,3.613,24.4,6.8,37.183,9.48,12.627,2.646,25.9,4.872,39.449,6.616,13.368,1.722,27.413,3.025,41.745,3.877,14.116.84,28.943,1.265,44.069,1.265,65.432,0,140.963-7.791,230.911-23.819,41.258-7.352,85.254-16.353,134.5-27.518,44.472-10.083,92.754-21.83,147.6-35.913,14.511-3.726,29.775-7.008,45.367-9.754,15.052-2.651,30.819-4.876,46.862-6.612,15.457-1.672,31.588-2.936,47.945-3.757,15.726-.788,32.083-1.188,48.618-1.188,31.038,0,63.873,1.408,97.593,4.184,30.65,2.523,62.72,6.233,95.319,11.027,54.9,8.073,112.291,19.33,170.586,33.457,22.9,5.55,46,11.563,68.649,17.869,18.121,5.045,36,10.29,53.14,15.588,25.814,7.979,42.211,13.7,45.775,14.954,2.155-3.191,12.166-18.123,25.668-39.929,8.934-14.428,17.626-29,25.834-43.3,10.259-17.882,19.787-35.4,28.32-52.07,21.708-42.407,37.179-79.632,45.985-110.642,10.956-38.583,11.557-67.517,1.787-86a42.97,42.97,0,0,0-7.737-10.5,43.514,43.514,0,0,0-11-7.853,58.271,58.271,0,0,0-14.594-4.946,92.487,92.487,0,0,0-18.51-1.722,172.481,172.481,0,0,0-33.057,3.639,344.679,344.679,0,0,0-41.989,11.473c-32.381,10.864-61.9,19.881-90.256,27.566-28.609,7.754-55.172,13.92-81.206,18.852-12.857,2.436-25.7,4.578-38.179,6.37-12.408,1.781-24.883,3.276-37.079,4.444C-120.671-10691.5-144.355-10690.365-168.809-10690.365Z" transform="translate(1342 11700)" fill="#fcf300"/>
  </g>
</svg>
