<svg xmlns="http://www.w3.org/2000/svg" xmlns:xlink="http://www.w3.org/1999/xlink" width="190" height="100" viewBox="0 0 190 100">
  <defs>
    <clipPath id="clip-path">
      <rect id="Rectangle_37691" data-name="Rectangle 37691" width="190" height="100" fill="none"/>
    </clipPath>
  </defs>
  <g id="t3-ic1" transform="translate(-180 -718)">
    <g id="Group_117663" data-name="Group 117663" transform="translate(180 718)">
      <g id="Group_117637" data-name="Group 117637" clip-path="url(#clip-path)">
        <path id="Path_179611" data-name="Path 179611" d="M228.678,60.115c4.97-10.786,3.181-25.3-7.345-31.657-8.845-5.34-20.451-3.392-30.536-.592s-20.775,6.285-30.845,3.443c-13.32-3.759-20.6-17.052-31.941-24.618-14.265-9.524-35.055-8.653-49.1,1.164a44.8,44.8,0,0,0-18.1,43.712c2.8,16.227,14.666,30.574,30.157,38.221s34.2,8.806,51.042,4.321c9.72-2.589,18.868-6.952,28.742-8.967,11.085-2.261,24.481,3.36,34.423-.11,9.438-3.295,19.691-16.642,23.5-24.917" transform="translate(-41.328 0)" fill="#e6fffb"/>
        <path id="Path_179612" data-name="Path 179612" d="M143.342,119.453c-4.664,0-9.209-2.094-13.616-4.124-1.646-.758-3.2-1.474-4.718-2.06a75.24,75.24,0,0,0-18.852-4.491c-9.1-1.015-18.682-.68-27.948-.357-17.274.6-35.135,1.227-51.159-6.694A49.291,49.291,0,0,1,2.858,75.7,42.765,42.765,0,0,1,4.821,40.558a25.211,25.211,0,0,1,6.351-7.981c3.741-2.981,8.891-4.7,14.893-4.971,8.1-.365,15.893,2.021,21.372,6.541A50.619,50.619,0,0,1,53.309,40.2c1.117,1.288,2.272,2.62,3.481,3.842C66.825,54.189,82.673,58.4,97.166,54.77A92.043,92.043,0,0,0,109,50.619c1.105-.445,2.248-.906,3.378-1.346,12.519-4.876,22.667-6.759,31.934-5.922C156.3,44.432,166.757,50.658,171.6,59.6c6.579,12.152,3.609,26.373-8.828,42.267-1.124,1.436-2.209,3.113-3.358,4.888-3.664,5.661-7.816,12.078-14.847,12.649-.408.034-.815.049-1.222.049M92.132,106.625a128.349,128.349,0,0,1,14.185.689,76.741,76.741,0,0,1,19.227,4.582c1.566.6,3.141,1.33,4.809,2.1,4.615,2.127,9.385,4.323,14.089,3.943,6.3-.512,10.069-6.34,13.716-11.976,1.168-1.8,2.27-3.508,3.435-5,12.045-15.393,14.97-29.077,8.693-40.67-4.607-8.51-14.611-14.441-26.107-15.478-9.029-.816-18.959,1.037-31.255,5.826-1.122.437-2.261.9-3.362,1.339A93.164,93.164,0,0,1,97.531,56.2a44.694,44.694,0,0,1-10.852,1.328c-11.619,0-23.029-4.442-30.951-12.454-1.243-1.256-2.414-2.607-3.547-3.913a49.491,49.491,0,0,0-5.7-5.879c-5.2-4.288-12.614-6.542-20.353-6.2-3.963.179-9.614,1.13-14.028,4.647A23.777,23.777,0,0,0,6.133,41.25,41.287,41.287,0,0,0,4.248,75.175a47.8,47.8,0,0,0,23.465,25.235c15.685,7.753,33.354,7.137,50.442,6.539,4.612-.161,9.3-.325,13.978-.325" transform="translate(0 -19.453)" fill="#fefba6"/>
      </g>
    </g>
    <g id="ciudad" transform="translate(233 726)">
      <g id="Group_96806" data-name="Group 96806" transform="translate(4.818 1.245)">
        <path id="Path_151140" data-name="Path 151140" d="M185.036,7.5V49.557H170.91V9.994Z" transform="translate(-147.355 -7.5)" fill="#c8d9e2"/>
        <path id="Path_151141" data-name="Path 151141" d="M81.82,70.05H96.61v31.672H81.82Z" transform="translate(-73.055 -59.666)" fill="#fef977"/>
        <path id="Path_151142" data-name="Path 151142" d="M42.08,115.44h6.6v24.137h-6.6Z" transform="translate(-39.912 -97.52)" fill="#c8d9e2"/>
        <path id="Path_151143" data-name="Path 151143" d="M256,70.05h14.79v31.672H256Z" transform="translate(-218.318 -59.666)" fill="#009e83"/>
        <path id="Path_151144" data-name="Path 151144" d="M359.216,70.25v31.639H345.09V73.57Z" transform="translate(-292.618 -59.833)" fill="#c8d9e2"/>
        <path id="Path_151145" data-name="Path 151145" d="M430.18,115.44h6.6v24.137h-6.6Z" transform="translate(-363.582 -97.52)" fill="#fef977"/>
        <g id="Group_96804" data-name="Group 96804" transform="translate(0 42.057)">
          <g id="Group_96802" data-name="Group 96802" transform="translate(0 0)">
            <path id="Path_151146" data-name="Path 151146" d="M107.472,260.834A37.57,37.57,0,0,1,92.255,291.06l-13.236,4.6-2.582-1.082L36.2,277.713a37.322,37.322,0,0,1-3.357-9.966l2.548-6.913Z" transform="translate(-32.209 -260.834)" fill="#00dbb6"/>
            <path id="Path_151147" data-name="Path 151147" d="M326.468,260.834a37.57,37.57,0,0,1-15.217,30.226l-13.236,4.6-2.582-1.082a35.32,35.32,0,0,0,24.891-33.739Z" transform="translate(-251.205 -260.834)" fill="#00b68f"/>
            <path id="Path_151148" data-name="Path 151148" d="M38.458,260.834c-1.325,3.143-3.737,5.879-8.8,6.913a37.8,37.8,0,0,1-.634-6.913Z" transform="translate(-29.023 -260.834)" fill="#feac66"/>
            <path id="Path_151149" data-name="Path 151149" d="M109.119,325.789a37.653,37.653,0,0,1-56.054-13.346c14.826,0,5.662-9.966,12.536-9.966,9.186,0,8,14.91,13.018,17.5,4.957,2.56,8.659-2.8,15.706-2.8,5.353,0,5.411,4.665,9.063,7.131A9.863,9.863,0,0,0,109.119,325.789Z" transform="translate(-49.074 -295.563)" fill="#feac66"/>
            <path id="Path_151150" data-name="Path 151150" d="M151.427,433.96a9.863,9.863,0,0,0,5.73,1.484,37.641,37.641,0,0,1-46.491-1.31,35.326,35.326,0,0,0,40.761-.174Z" transform="translate(-97.112 -405.218)" fill="#ff8628"/>
          </g>
          <g id="Group_96803" data-name="Group 96803" transform="translate(55.742 8.287)">
            <path id="Path_151151" data-name="Path 151151" d="M388,320.265a3.024,3.024,0,0,1-3.023,3.023H368.909a4.121,4.121,0,1,1,2.518-7.383,6.272,6.272,0,0,1,12.444,1.112c0,.147,0,.294-.015.438a3.026,3.026,0,0,1,4.141,2.81Z" transform="translate(-364.788 -310.747)" fill="#e6f8fc"/>
            <path id="Path_151152" data-name="Path 151152" d="M388,326.5a3.024,3.024,0,0,1-3.023,3.023H368.909a4.121,4.121,0,0,1-4.121-4.121,2.6,2.6,0,0,0,2.529,2.15h8.939a6.088,6.088,0,0,0,5.091-9.329,6.265,6.265,0,0,1,2.524,5.03c0,.147,0,.294-.014.438A3.026,3.026,0,0,1,388,326.5Z" transform="translate(-364.788 -316.98)" fill="#d0edf5"/>
          </g>
          <path id="Path_151153" data-name="Path 151153" d="M222.213,260.832c3.431,2.794,6.462,7.14,5.462,9.431-1.186,2.715-9.751,2.1-11.845,0-1.505-1.506-2.26-6.385-1.549-9.431Z" transform="translate(-183.3 -260.832)" fill="#feac66"/>
        </g>
        <g id="Group_96805" data-name="Group 96805" transform="translate(2.168 37.511)">
          <path id="Path_151154" data-name="Path 151154" d="M42.08,233.47h6.6v4.542h-6.6Z" transform="translate(-42.08 -233.467)" fill="#a1adb4"/>
          <path id="Path_151155" data-name="Path 151155" d="M170.91,233.47h14.126v4.542H170.91Z" transform="translate(-149.522 -233.467)" fill="#a1adb4"/>
          <path id="Path_151156" data-name="Path 151156" d="M359.216,233.45V238H345.09v-4.542h14.023C359.148,233.453,359.183,233.453,359.216,233.45Z" transform="translate(-294.786 -233.45)" fill="#a1adb4"/>
        </g>
        <path id="Path_151157" data-name="Path 151157" d="M81.82,233.47H96.61v4.542H81.82Z" transform="translate(-73.055 -195.956)" fill="#fcf300"/>
        <path id="Path_151158" data-name="Path 151158" d="M256,233.47h14.79v4.542H256Z" transform="translate(-218.318 -195.956)" fill="#007a64"/>
        <path id="Path_151159" data-name="Path 151159" d="M436.778,115.44v24.137h-6.6v-4.545a3.4,3.4,0,0,0,3.3-3.4V115.44Z" transform="translate(-363.582 -97.52)" fill="#fcf300"/>
      </g>
      <g id="Group_96807" data-name="Group 96807" transform="translate(0 0)">
        <path id="Path_151160" data-name="Path 151160" d="M70.626,281.395a1.245,1.245,0,1,0-1.805-1.715,36.7,36.7,0,0,1-4.362,3.917c-4.445-.115-5.867-2.146-7.37-4.293-1.42-2.029-3.029-4.329-7.025-4.329a20.112,20.112,0,0,0-8.329,2.124c-2.661,1.146-4.583,1.973-6.808.823-1.568-.81-2.512-3.635-3.512-6.626-1.644-4.918-3.69-11.038-10.08-11.038-3.92,0-4.185,2.838-4.36,4.716-.244,2.615-.475,5.09-7.42,5.256a36.02,36.02,0,0,1-2.665-7.795,12.156,12.156,0,0,0,8.152-6.61H34.334c-.286,3.187.449,7.4,2.118,9.069,1.425,1.427,4.7,2.176,7.621,2.176a13.886,13.886,0,0,0,2.538-.217c2.419-.457,3.352-1.525,3.708-2.341,1.105-2.532-1.016-6.032-3.473-8.687h31.97c-.041,1.2-.139,2.4-.3,3.579a1.245,1.245,0,1,0,2.469.326c.17-1.287.276-2.6.318-3.906h2.448a1.245,1.245,0,0,0,0-2.49H1.245a1.245,1.245,0,0,0,0,2.49H3.577a38.864,38.864,0,0,0,67.05,25.57ZM48.036,263.515c-.117.269-.682.663-1.888.891-2.888.546-6.918-.254-7.935-1.272-.952-.953-1.7-4.534-1.381-7.309h6.433C46.681,258.727,48.6,262.23,48.036,263.515Zm-35.841-7.691a9.686,9.686,0,0,1-5.753,4.149,36.836,36.836,0,0,1-.373-4.149Zm30.247,35.188a36.137,36.137,0,0,1-25.734-10.67,36.628,36.628,0,0,1-5.881-7.682c3.174-.229,5.4-1.029,6.775-2.428a7.6,7.6,0,0,0,1.853-5.027c.193-2.068.28-2.457,1.88-2.457,4.278,0,5.833,3.7,7.719,9.337,1.164,3.484,2.264,6.774,4.73,8.049,3.271,1.691,6.023.506,8.936-.748a17.822,17.822,0,0,1,7.344-1.92c2.7,0,3.658,1.37,4.985,3.266,1.3,1.861,2.853,4.076,6.34,4.964a36.269,36.269,0,0,1-18.947,5.317Z" transform="translate(0 -211.277)"/>
        <path id="Path_151161" data-name="Path 151161" d="M378.7,309.725a7.518,7.518,0,0,0-14.378-1.9,5.371,5.371,0,1,0-1.761,10.446h6.3a1.245,1.245,0,0,0,0-2.49h-6.3a2.88,2.88,0,0,1,0-5.76,2.844,2.844,0,0,1,1.756.6,1.245,1.245,0,0,0,1.988-.766,5.026,5.026,0,0,1,9.974.894c0,.115,0,.234-.012.354a1.245,1.245,0,0,0,1.7,1.242,1.781,1.781,0,1,1,.657,3.437H374.6a1.245,1.245,0,0,0,0,2.49h4.023a4.271,4.271,0,0,0,.073-8.542Z" transform="translate(-297.894 -252.882)"/>
        <path id="Path_151162" data-name="Path 151162" d="M6.7,497H1.245a1.245,1.245,0,0,0,0,2.49H6.7a1.245,1.245,0,0,0,0-2.49Z" transform="translate(0 -414.49)"/>
        <path id="Path_151163" data-name="Path 151163" d="M80.54,497H69.271a1.245,1.245,0,0,0,0,2.49H80.54a1.245,1.245,0,0,0,0-2.49Z" transform="translate(-56.733 -414.49)"/>
        <path id="Path_151164" data-name="Path 151164" d="M31.691,467.445a1.245,1.245,0,0,0,0-2.49H21.253a1.245,1.245,0,0,0,0,2.49Z" transform="translate(-16.686 -387.765)"/>
        <path id="Path_151165" data-name="Path 151165" d="M356.34,497H345.9a1.245,1.245,0,1,0,0,2.49H356.34a1.245,1.245,0,1,0,0-2.49Z" transform="translate(-287.439 -414.49)"/>
        <path id="Path_151166" data-name="Path 151166" d="M420.779,464.955H405.358a1.245,1.245,0,1,0,0,2.49h15.421a1.245,1.245,0,1,0,0-2.49Z" transform="translate(-337.024 -387.765)"/>
        <path id="Path_151167" data-name="Path 151167" d="M423.922,183.639a1.245,1.245,0,0,0-1.245,1.245v6.59a1.245,1.245,0,0,0,2.49,0v-6.59A1.245,1.245,0,0,0,423.922,183.639Z" transform="translate(-352.506 -153.152)"/>
        <path id="Path_151168" data-name="Path 151168" d="M249.745,133.238a1.245,1.245,0,0,0-1.245,1.245v14.957a1.245,1.245,0,0,0,2.49,0V134.483A1.245,1.245,0,0,0,249.745,133.238Z" transform="translate(-207.245 -111.118)"/>
        <path id="Path_151169" data-name="Path 151169" d="M75.568,178.19a1.245,1.245,0,0,0-1.245,1.245v7.422a1.245,1.245,0,1,0,2.49,0v-7.422A1.245,1.245,0,0,0,75.568,178.19Z" transform="translate(-61.984 -148.608)"/>
        <path id="Path_151170" data-name="Path 151170" d="M136.53,95.027a1.245,1.245,0,1,0-2.49,0v2.09a1.245,1.245,0,1,0,2.49,0Z" transform="translate(-111.787 -78.213)"/>
        <path id="Path_151171" data-name="Path 151171" d="M106.53,95.027a1.245,1.245,0,1,0-2.49,0v2.09a1.245,1.245,0,1,0,2.49,0Z" transform="translate(-86.768 -78.213)"/>
        <path id="Path_151172" data-name="Path 151172" d="M136.53,143.027a1.245,1.245,0,1,0-2.49,0v2.09a1.245,1.245,0,1,0,2.49,0Z" transform="translate(-111.787 -118.244)"/>
        <path id="Path_151173" data-name="Path 151173" d="M106.53,143.027a1.245,1.245,0,1,0-2.49,0v2.09a1.245,1.245,0,1,0,2.49,0Z" transform="translate(-86.768 -118.244)"/>
        <path id="Path_151174" data-name="Path 151174" d="M135.112,189.348a1.245,1.245,0,0,0-1.245,1.245v5.57a1.245,1.245,0,0,0,2.49,0v-5.57A1.245,1.245,0,0,0,135.112,189.348Z" transform="translate(-111.643 -157.913)"/>
        <path id="Path_151175" data-name="Path 151175" d="M105.112,189.348a1.245,1.245,0,0,0-1.245,1.245v5.57a1.245,1.245,0,1,0,2.49,0v-5.57A1.245,1.245,0,0,0,105.112,189.348Z" transform="translate(-86.624 -157.913)"/>
        <path id="Path_151176" data-name="Path 151176" d="M310.707,95.027a1.245,1.245,0,0,0-2.49,0v2.09a1.245,1.245,0,1,0,2.49,0Z" transform="translate(-257.048 -78.213)"/>
        <path id="Path_151177" data-name="Path 151177" d="M280.707,95.027a1.245,1.245,0,0,0-2.49,0v2.09a1.245,1.245,0,1,0,2.49,0Z" transform="translate(-232.029 -78.213)"/>
        <path id="Path_151178" data-name="Path 151178" d="M310.707,143.027a1.245,1.245,0,1,0-2.49,0v2.09a1.245,1.245,0,0,0,2.49,0Z" transform="translate(-257.048 -118.244)"/>
        <path id="Path_151179" data-name="Path 151179" d="M280.707,143.027a1.245,1.245,0,1,0-2.49,0v2.09a1.245,1.245,0,0,0,2.49,0Z" transform="translate(-232.029 -118.244)"/>
        <path id="Path_151180" data-name="Path 151180" d="M309.462,189.348a1.245,1.245,0,0,0-1.245,1.245v5.57a1.245,1.245,0,0,0,2.49,0v-5.57A1.245,1.245,0,0,0,309.462,189.348Z" transform="translate(-257.048 -157.913)"/>
        <path id="Path_151181" data-name="Path 151181" d="M279.462,189.348a1.245,1.245,0,0,0-1.245,1.245v5.57a1.245,1.245,0,0,0,2.49,0v-5.57A1.245,1.245,0,0,0,279.462,189.348Z" transform="translate(-232.029 -157.913)"/>
        <path id="Path_151182" data-name="Path 151182" d="M35.823,39.567a1.245,1.245,0,0,0,1.245-1.245V20.411h4.108v4.634a1.245,1.245,0,0,0,2.49,0V12.874h12.3V38.322a1.245,1.245,0,1,0,2.49,0V33.095h7.9a1.245,1.245,0,1,0,0-2.49h-7.9V27.417h7.9a1.245,1.245,0,1,0,0-2.49h-7.9V21.739h7.9a1.245,1.245,0,1,0,0-2.49h-7.9V16.062h7.9a1.245,1.245,0,1,0,0-2.49h-7.9V10.384h7.9a1.245,1.245,0,1,0,0-2.49h-7.9V4.783L70.092,2.729V17.624a1.245,1.245,0,1,0,2.49,0v-4.75h12.3V38.322a1.245,1.245,0,1,0,2.49,0V34.091h7.9a1.245,1.245,0,1,0,0-2.49h-7.9V28.413h7.9a1.245,1.245,0,1,0,0-2.49h-7.9V22.735h7.9a1.245,1.245,0,1,0,0-2.49h-7.9V15.969l11.636-2.735v12.76a1.245,1.245,0,1,0,2.49,0V20.411h4.108V38.322a1.245,1.245,0,0,0,2.49,0V19.165a1.245,1.245,0,0,0-1.245-1.245H101.5V11.662a1.245,1.245,0,0,0-1.53-1.212l-12.6,2.961V11.629a1.245,1.245,0,0,0-1.245-1.245H82.5V7.268a1.245,1.245,0,1,0-2.49,0v3.116H72.583V1.245A1.245,1.245,0,0,0,71.121.019L56.995,2.512a1.245,1.245,0,0,0-1.029,1.226v6.645H53.58V7.268a1.245,1.245,0,1,0-2.49,0v3.116H42.421a1.245,1.245,0,0,0-1.245,1.245V17.92H35.823a1.245,1.245,0,0,0-1.245,1.245V38.322A1.245,1.245,0,0,0,35.823,39.567Z" transform="translate(-28.838 0)"/>
      </g>
    </g>
  </g>
</svg>
