<svg xmlns="http://www.w3.org/2000/svg" width="46.301" height="50" viewBox="0 0 46.301 50">
  <g id="t4-ico1" transform="translate(-434.5 -4631.969)">
    <path id="Path_151549" data-name="Path 151549" d="M1.231,270.692a.73.73,0,0,0,.518-.214,8.347,8.347,0,0,0,2.46-5.94v-.3a3.53,3.53,0,0,1,3.529-3.529h7.447a.732.732,0,0,0,0-1.465H7.738a4.994,4.994,0,0,0-4.995,4.994v.3a6.891,6.891,0,0,1-2.031,4.9.732.732,0,0,0,.518,1.25Zm0,0" transform="translate(434.002 4398.043)" fill="#ff8628"/>
    <path id="Path_151550" data-name="Path 151550" d="M205.967,262.2a3,3,0,0,0-4.239,0l-.549.549a2.994,2.994,0,0,0-4.087-.589,3.034,3.034,0,0,0-.285-.331,3,3,0,0,0-4.239,0l-.321.321a3.909,3.909,0,0,0-3.773-2.906H178.6a.732.732,0,1,0,0,1.465h9.878a2.437,2.437,0,1,1,0,4.874h-6.129a3.769,3.769,0,0,0,0,7.538h7.9a6.319,6.319,0,0,0,4.5-1.862l8.022-8.022a1.532,1.532,0,1,1,2.167,2.167l-4.14,4.14a.732.732,0,0,0,1.036,1.036l4.14-4.14a3,3,0,0,0,0-4.239Zm-13.751,2.052.017-.015,1.372-1.372a1.527,1.527,0,0,1,2.407.315l-7.327,7.327a4.869,4.869,0,0,1-1.7,1.1.757.757,0,0,0-.092.044h-2.244a6.386,6.386,0,0,0,.93-.769l4-4a3.917,3.917,0,0,0,2.633-2.634Zm-9.871,2.8h5l-2.8,2.8a4.863,4.863,0,0,1-3.453,1.433,2.3,2.3,0,0,1,1.252-4.237Zm11.362,3.175a4.864,4.864,0,0,1-3.461,1.434H189.6c.04-.038.08-.074.118-.113l8.022-8.022a1.528,1.528,0,0,1,2.386.278Zm0,0" transform="translate(273.957 4398.043)" fill="#ff8628"/>
    <path id="Path_151551" data-name="Path 151551" d="M38.611,384.61l-2.75,2.75a6.739,6.739,0,0,1-4.8,1.987h0l-18.4,0c-6.083,0-11.73,6.027-11.967,6.284a.732.732,0,0,0,1.075,1c.054-.058,5.454-5.814,10.892-5.814l18.4,0h0A8.2,8.2,0,0,0,36.9,388.4l2.75-2.75a.733.733,0,0,0-1.036-1.036Zm0,0" transform="translate(433.999 4285.111)" fill="#ff8628"/>
    <path id="Path_151552" data-name="Path 151552" d="M107.888,22.381c.529.15,1.077.306,1.669.5a3.79,3.79,0,0,0,1.165.182,3.86,3.86,0,0,0,2.761-1.159c.16-.165.32-.325.474-.477a3.1,3.1,0,0,0,1.841,1.263c.457.107.873.22,1.276.329a10.013,10.013,0,0,0,2.581.476c1.22,0,2.45-.484,4.04-2.074a13.951,13.951,0,0,0,3.994-11.573,1.533,1.533,0,0,0-1.354-1.354,14.073,14.073,0,0,0-9.463,2.254,17.8,17.8,0,0,0-2.419-4.65.733.733,0,0,0-1.185.861,16.392,16.392,0,0,1,2.37,4.722q-.451.382-.876.806c-2.671,2.671-2.221,4.328-1.6,6.622.073.268.148.544.221.832-.29.279-.617.6-.951.943a2.354,2.354,0,0,1-.444.355l-.944-3.8a.73.73,0,0,0,.107-.137l1.533-2.548A.733.733,0,0,0,111.429,14l-.878,1.459-1.777-7.145a.732.732,0,1,0-1.421.354l.748,3.006-1.883-.628a.732.732,0,1,0-.463,1.389l2.765.923,2.047,8.231a2.336,2.336,0,0,1-.559-.106c-.617-.2-1.178-.358-1.719-.512-2.819-.8-4.234-1.2-5.2-5.068a16.684,16.684,0,0,1,3.054-14.319.311.311,0,0,1,.377-.094,17.836,17.836,0,0,1,4.721,3.17.732.732,0,1,0,1-1.067A19.308,19.308,0,0,0,107.14.163,1.783,1.783,0,0,0,104.977.7a18.123,18.123,0,0,0-3.307,15.556c1.167,4.692,3.285,5.292,6.218,6.124ZM115.8,13.52a12.386,12.386,0,0,1,8.895-3.653,14.014,14.014,0,0,1,1.487.08.06.06,0,0,1,.053.053,12.512,12.512,0,0,1-3.572,10.382c-2.071,2.071-3.052,1.8-5.2,1.22-.4-.108-.843-.229-1.327-.342-.047-.011-.092-.024-.137-.039l1.854-1.854c.023,0,.047,0,.071,0h2.261a.732.732,0,1,0,0-1.465h-.871l3.658-3.659a.732.732,0,0,0-1.036-1.036l-1.44,1.439-.259-1.161a.732.732,0,0,0-1.43.319l.462,2.069-4.307,4.307c-.015-.045-.028-.09-.039-.137-.113-.483-.235-.931-.342-1.327-.584-2.15-.85-3.131,1.22-5.2Zm0,0" transform="translate(343.203 4631.969)" fill="#ff8628"/>
  </g>
</svg>
