<svg xmlns="http://www.w3.org/2000/svg" xmlns:xlink="http://www.w3.org/1999/xlink" width="190" height="100" viewBox="0 0 190 100">
  <defs>
    <clipPath id="clip-path">
      <rect id="Rectangle_37691" data-name="Rectangle 37691" width="190" height="100" fill="none"/>
    </clipPath>
  </defs>
  <g id="t4-ic2" transform="translate(-180 -3110)">
    <g id="Group_117638" data-name="Group 117638" transform="translate(180 3110)">
      <g id="Group_117637" data-name="Group 117637" clip-path="url(#clip-path)">
        <path id="Path_179611" data-name="Path 179611" d="M228.678,60.115c4.97-10.786,3.181-25.3-7.345-31.657-8.845-5.34-20.451-3.392-30.536-.592s-20.775,6.285-30.845,3.443c-13.32-3.759-20.6-17.052-31.941-24.618-14.265-9.524-35.055-8.653-49.1,1.164a44.8,44.8,0,0,0-18.1,43.712c2.8,16.227,14.666,30.574,30.157,38.221s34.2,8.806,51.042,4.321c9.72-2.589,18.868-6.952,28.742-8.967,11.085-2.261,24.481,3.36,34.423-.11,9.438-3.295,19.691-16.642,23.5-24.917" transform="translate(-41.328 0)" fill="#e6fffb"/>
        <path id="Path_179612" data-name="Path 179612" d="M143.342,119.453c-4.664,0-9.209-2.094-13.616-4.124-1.646-.758-3.2-1.474-4.718-2.06a75.24,75.24,0,0,0-18.852-4.491c-9.1-1.015-18.682-.68-27.948-.357-17.274.6-35.135,1.227-51.159-6.694A49.291,49.291,0,0,1,2.858,75.7,42.765,42.765,0,0,1,4.821,40.558a25.211,25.211,0,0,1,6.351-7.981c3.741-2.981,8.891-4.7,14.893-4.971,8.1-.365,15.893,2.021,21.372,6.541A50.619,50.619,0,0,1,53.309,40.2c1.117,1.288,2.272,2.62,3.481,3.842C66.825,54.189,82.673,58.4,97.166,54.77A92.043,92.043,0,0,0,109,50.619c1.105-.445,2.248-.906,3.378-1.346,12.519-4.876,22.667-6.759,31.934-5.922C156.3,44.432,166.757,50.658,171.6,59.6c6.579,12.152,3.609,26.373-8.828,42.267-1.124,1.436-2.209,3.113-3.358,4.888-3.664,5.661-7.816,12.078-14.847,12.649-.408.034-.815.049-1.222.049M92.132,106.625a128.349,128.349,0,0,1,14.185.689,76.741,76.741,0,0,1,19.227,4.582c1.566.6,3.141,1.33,4.809,2.1,4.615,2.127,9.385,4.323,14.089,3.943,6.3-.512,10.069-6.34,13.716-11.976,1.168-1.8,2.27-3.508,3.435-5,12.045-15.393,14.97-29.077,8.693-40.67-4.607-8.51-14.611-14.441-26.107-15.478-9.029-.816-18.959,1.037-31.255,5.826-1.122.437-2.261.9-3.362,1.339A93.164,93.164,0,0,1,97.531,56.2a44.694,44.694,0,0,1-10.852,1.328c-11.619,0-23.029-4.442-30.951-12.454-1.243-1.256-2.414-2.607-3.547-3.913a49.491,49.491,0,0,0-5.7-5.879c-5.2-4.288-12.614-6.542-20.353-6.2-3.963.179-9.614,1.13-14.028,4.647A23.777,23.777,0,0,0,6.133,41.25,41.287,41.287,0,0,0,4.248,75.175a47.8,47.8,0,0,0,23.465,25.235c15.685,7.753,33.354,7.137,50.442,6.539,4.612-.161,9.3-.325,13.978-.325" transform="translate(0 -19.453)" fill="#fefba6"/>
      </g>
    </g>
    <g id="Fill_Outline" data-name="Fill Outline" transform="translate(231 3116)">
      <g id="Stroke_copy" data-name="Stroke copy" transform="translate(3.406 3.417)">
        <g id="Group_96822" data-name="Group 96822">
          <g id="Group_96820" data-name="Group 96820" transform="translate(12.739 25.5)">
            <path id="Path_151325" data-name="Path 151325" d="M28.333,0A28.333,28.333,0,1,1,0,28.333,28.333,28.333,0,0,1,28.333,0Z" transform="translate(0.022 0)" fill="#00dbb6"/>
            <path id="Path_151296" data-name="Path 151296" d="M50.256,64.958A28.284,28.284,0,0,1,24.776,24.3,28.322,28.322,0,1,0,65.819,60.283,28.191,28.191,0,0,1,50.256,64.958Z" transform="translate(-11.985 -19.625)" fill="#009e83" opacity="0.44" style="mix-blend-mode: multiply;isolation: isolate"/>
            <path id="Path_151297" data-name="Path 151297" d="M27.949,62.918a28.475,28.475,0,0,0,5.739.582c.956,0,1.9-.051,2.833-.142V55l-5.667,2.833Z" transform="translate(-5.333 -6.834)" fill="#ff8628"/>
            <path id="Path_151298" data-name="Path 151298" d="M54.7,25.047A28.25,28.25,0,0,0,13.54,39.711l5.372,5.372-1.417,4.25V55H12.412A28.371,28.371,0,0,0,28.3,75.037l7.616-8.7-9.917-4.25L38.745,55l-9.917-4.25-4.25-8.5,4.25-5.667L40.161,42.25l4.25-5.667L55.745,33.75Z" transform="translate(-11.807 -21)" fill="#feac66"/>
            <path id="Path_151299" data-name="Path 151299" d="M58.252,44.765a28.179,28.179,0,0,0-3.081-12.8L38.419,47.6l5.667,5.667-7.09,18.907A28.319,28.319,0,0,0,58.252,44.765Z" transform="translate(-1.564 -16.432)" fill="#feac66"/>
            <path id="Path_151300" data-name="Path 151300" d="M35.912,64.946l-7.622,8.7A28.4,28.4,0,0,1,12.41,53.612H17.5V47.946l1.417-4.25-5.369-5.369a28.418,28.418,0,0,1,10.993-14,28.352,28.352,0,0,0,6.715,33.447L26,60.7Z" transform="translate(-11.807 -19.612)" fill="#ff8628"/>
            <path id="Path_151301" data-name="Path 151301" d="M55.417,49.69A28.362,28.362,0,0,1,37,64.792l3.91-10.441A27.973,27.973,0,0,0,55.417,49.69Z" transform="translate(-1.562 -9.046)" fill="#ff8628"/>
          </g>
          <g id="Group_96821" data-name="Group 96821">
            <path id="Path_151302" data-name="Path 151302" d="M74.677,27.083a5.651,5.651,0,0,0-4.151-5.436,4.241,4.241,0,0,0-2.932-7.314c-.067,0-.129.017-.194.02a5.621,5.621,0,0,0-.718-1.669,4.228,4.228,0,0,0-5.888-5.977A5.641,5.641,0,0,0,56.26,4.417a5.747,5.747,0,0,0-1.019.1,4.2,4.2,0,0,0-6.092-.392A16.181,16.181,0,0,0,43.227,3H38.47a7.468,7.468,0,0,0-1.244.1l-2.737.463a7.558,7.558,0,0,0-5.927,9.844l.782,2.339h2.833l2.068-4.137a2.768,2.768,0,0,1,2.476-1.53h1.391a2.768,2.768,0,0,1,1.958.81l2.23,2.23a2.77,2.77,0,0,0,2.833.669,2.761,2.761,0,0,1,3.136,1.05,5.613,5.613,0,0,0,6.595,7.785c0,.069-.021.142-.021.207A4.237,4.237,0,0,0,58.5,27.022a5.609,5.609,0,0,0,6.446,8.3,4.237,4.237,0,1,0,7.445-3.71A5.644,5.644,0,0,0,74.677,27.083Z" transform="translate(7.5 -3)" fill="#cfcfcf"/>
            <path id="Path_151303" data-name="Path 151303" d="M69.192,31.077A5.046,5.046,0,0,1,63.83,29.6a5.471,5.471,0,0,1-1.9-4.009,5.628,5.628,0,0,1,.819-2.823,4.237,4.237,0,0,1-3.652-4.189c0-.071.017-.142.021-.207-1.538.405-3.234.408-5.448-1.809a5.256,5.256,0,0,1-1.656-3.9,5.641,5.641,0,0,1,.5-2.071,2.758,2.758,0,0,0-3.193-1.03,2.692,2.692,0,0,1-2.777-.688,4.78,4.78,0,0,1-1.051-5.155l.205-.511A16.14,16.14,0,0,0,43.227,3H38.47a7.468,7.468,0,0,0-1.244.1l-2.737.463a7.558,7.558,0,0,0-5.927,9.844l.782,2.339h2.833l2.068-4.137a2.768,2.768,0,0,1,2.476-1.53h1.391a2.768,2.768,0,0,1,1.958.81l2.23,2.23a2.77,2.77,0,0,0,2.833.669,2.761,2.761,0,0,1,3.136,1.05,5.613,5.613,0,0,0,6.595,7.785c0,.069-.021.142-.021.207A4.237,4.237,0,0,0,58.5,27.022a5.609,5.609,0,0,0,6.446,8.3,4.239,4.239,0,0,0,8.319-1.16h0A4.232,4.232,0,0,1,69.192,31.077Z" transform="translate(7.5 -3)" fill="#93999a"/>
            <path id="Path_151304" data-name="Path 151304" d="M29.531,3.732a4.441,4.441,0,0,0-3.542.691l-.638.425a1.854,1.854,0,0,1-2.108.068L21.7,3.885a1.842,1.842,0,0,0-2.646.744,1.81,1.81,0,0,1-1.588.956h-.63a9.208,9.208,0,0,1-4.09-1.125A2.782,2.782,0,0,0,11.5,4.169,2.833,2.833,0,0,0,8.667,7a2.833,2.833,0,0,0-2.376,4.369,4.234,4.234,0,0,0-1.308,7.715,4.108,4.108,0,0,0,0,4.165,4.227,4.227,0,0,0,1.162,7.67A4.2,4.2,0,0,0,7.2,35.61a4.222,4.222,0,0,0-.577,7.683,2.833,2.833,0,1,0,4.08,0,4.234,4.234,0,0,0,2.21-3.707,4,4,0,0,0-.042-.415,2.787,2.787,0,0,0,2.17.323,2.833,2.833,0,0,0,1.636-4.328,2.812,2.812,0,0,0,1.445-4.2,4.233,4.233,0,0,0,.142-8.217,4.227,4.227,0,0,0,.316-1.581,4.25,4.25,0,0,0,1.581-8.188,1.207,1.207,0,0,1,.167-.809l1.333-2a1.223,1.223,0,0,1,2.105.119,1.155,1.155,0,0,0,1.377.662l1.092-.364A1.245,1.245,0,0,1,27.96,12L27.083,15.5h4.25l.938-3.75A16.093,16.093,0,0,0,32.75,7.86h0a4.261,4.261,0,0,0-3.219-4.128Z" transform="translate(-2.989 -2.752)" fill="#cfcfcf"/>
            <path id="Path_151305" data-name="Path 151305" d="M45.5,30.333H20V19H39.833L45.5,24.667Z" transform="translate(4.094 3.666)" fill="#fefba6"/>
            <rect id="Rectangle_33188" data-name="Rectangle 33188" width="5.667" height="11.333" transform="translate(24.094 11.333)" fill="#fefba6"/>
            <rect id="Rectangle_33189" data-name="Rectangle 33189" width="5.667" height="11.333" transform="translate(35.427 11.333)" fill="#fefba6"/>
            <path id="Path_151306" data-name="Path 151306" d="M26.251,52.083a2.812,2.812,0,0,0-2.125.977A2.812,2.812,0,0,0,22,52.083c-.086,0-.169.018-.252.026a4.236,4.236,0,0,0-4-2.859,4.25,4.25,0,1,0-8.5,0,4.25,4.25,0,1,0,1.635,8.171,2.833,2.833,0,0,0,5.23,0,4.241,4.241,0,0,0,4.009-.4,2.794,2.794,0,0,0,4-.252,2.833,2.833,0,1,0,2.125-4.689Z" transform="translate(-2.157 14.5)" fill="#cfcfcf"/>
            <circle id="Ellipse_4395" data-name="Ellipse 4395" cx="2.833" cy="2.833" r="2.833" transform="translate(0.011 51)" fill="#cfcfcf"/>
            <path id="Path_151307" data-name="Path 151307" d="M60.83,36.251a2.7,2.7,0,0,0-.373.038A2.822,2.822,0,0,0,58,34.834c-.086,0-.169.018-.252.026a4.232,4.232,0,0,0-8.129.425,2.812,2.812,0,0,0-4.2,1.445,2.833,2.833,0,1,0-1.587,5.188,2.781,2.781,0,0,0,.361-.058,2.809,2.809,0,0,0,4.943,0,2.574,2.574,0,0,0,.363.058,2.377,2.377,0,0,0,.248-.038,4.215,4.215,0,0,0,7.3,1.275,2.775,2.775,0,0,0,3.424-1.291,2.58,2.58,0,0,0,.365.054,2.833,2.833,0,1,0,0-5.667Z" transform="translate(12.847 9.082)" fill="#cfcfcf"/>
            <path id="Path_151308" data-name="Path 151308" d="M69.417,49.833A2.815,2.815,0,0,0,68,50.226a2.72,2.72,0,0,0-2.373-.215,4.13,4.13,0,0,0-4.285-1.463,4.222,4.222,0,0,0-6.757.3A5.621,5.621,0,0,0,47.5,51.325a4.3,4.3,0,0,0-.751-.075,4.219,4.219,0,0,0-2.833,1.1A4.233,4.233,0,0,0,36.834,55.5a2.833,2.833,0,1,0,2.615,3.921,4.2,4.2,0,0,0,4.468-.775,4.219,4.219,0,0,0,2.833,1.1,2.833,2.833,0,0,0,5.15,1.625,5.658,5.658,0,0,0,10.434-3.042,5.746,5.746,0,0,0-.1-1.019,4.416,4.416,0,0,0,.445-.425h.03A2.823,2.823,0,0,0,68,55.5a2.5,2.5,0,0,0-.038-.373L68,55.1a2.788,2.788,0,0,0,1.412.4,2.833,2.833,0,1,0,0-5.667Z" transform="translate(9.927 15.333)" fill="#cfcfcf"/>
            <path id="Path_151309" data-name="Path 151309" d="M62.689,35.5a2.809,2.809,0,0,1-1.856.708,2.58,2.58,0,0,1-.365-.051,2.775,2.775,0,0,1-3.424,1.291,4.215,4.215,0,0,1-7.3-1.275,2.372,2.372,0,0,1-.248.035,2.574,2.574,0,0,1-.363-.055,2.809,2.809,0,0,1-4.943,0,2.341,2.341,0,0,1-2.217-.653,2.822,2.822,0,0,0,1.856,4.958,2.78,2.78,0,0,0,.361-.058,2.809,2.809,0,0,0,4.943,0,2.575,2.575,0,0,0,.363.058,2.373,2.373,0,0,0,.248-.038,4.215,4.215,0,0,0,7.3,1.275A2.775,2.775,0,0,0,60.468,40.4a2.579,2.579,0,0,0,.365.054A2.822,2.822,0,0,0,62.689,35.5Z" transform="translate(12.844 10.541)" fill="#93999a"/>
            <path id="Path_151310" data-name="Path 151310" d="M58.086,57.575a5.647,5.647,0,0,1-4.767-2.625,2.833,2.833,0,0,1-5.15-1.625,4.219,4.219,0,0,1-2.833-1.1A4.2,4.2,0,0,1,40.867,53a2.833,2.833,0,0,1-4.958.5,2.833,2.833,0,1,0,3.542,3.751,4.2,4.2,0,0,0,4.468-.775,4.219,4.219,0,0,0,2.833,1.1A2.833,2.833,0,0,0,51.9,59.2a5.658,5.658,0,0,0,10.434-3.042c0-.164-.033-.319-.048-.479A5.633,5.633,0,0,1,58.086,57.575Z" transform="translate(9.925 17.508)" fill="#93999a"/>
            <path id="Path_151311" data-name="Path 151311" d="M63.03,49.947a5.59,5.59,0,0,1-7.854,2.105,5.371,5.371,0,0,1,.084.832,5.624,5.624,0,0,1-.883,3.012,2.792,2.792,0,0,0,2.3,1.238A2.833,2.833,0,0,0,59.51,54.3a2.5,2.5,0,0,0-.038-.373l.042-.023a2.788,2.788,0,0,0,1.412.4,2.833,2.833,0,0,0,2.347-4.42C63.193,49.908,63.111,49.925,63.03,49.947Z" transform="translate(18.417 16.533)" fill="#93999a"/>
            <path id="Path_151312" data-name="Path 151312" d="M26.25,52.833a2.812,2.812,0,0,1-2.125-.977,2.794,2.794,0,0,1-4,.252,4.241,4.241,0,0,1-4.009.4,2.833,2.833,0,0,1-5.23,0A4.226,4.226,0,0,1,5.261,50,4.2,4.2,0,0,0,5,51.417a4.25,4.25,0,0,0,5.885,3.921,2.833,2.833,0,0,0,5.23,0,4.241,4.241,0,0,0,4.009-.4,2.794,2.794,0,0,0,4-.252,2.819,2.819,0,0,0,4.566-3.272A2.825,2.825,0,0,1,26.25,52.833Z" transform="translate(-2.156 16.583)" fill="#93999a"/>
            <path id="Path_151313" data-name="Path 151313" d="M7.253,43.175A2.822,2.822,0,0,1,4.675,39.18a2.833,2.833,0,1,0,3.74,3.74A2.819,2.819,0,0,1,7.253,43.175Z" transform="translate(-2.992 12.075)" fill="#656b76"/>
            <path id="Path_151314" data-name="Path 151314" d="M11.854,42.194a2.621,2.621,0,0,1-.263-.639,2.833,2.833,0,0,1,.708-2.682,4.222,4.222,0,0,1,.577-7.683A4.2,4.2,0,0,1,11.818,26.5a4.227,4.227,0,0,1-1.167-7.67,4.108,4.108,0,0,1,0-4.165,4.234,4.234,0,0,1,1.308-7.715,2.771,2.771,0,0,1-.088-2.908A2.662,2.662,0,0,0,11.5,4,2.833,2.833,0,0,0,8.667,6.833,2.833,2.833,0,0,0,6.291,11.2a4.234,4.234,0,0,0-1.308,7.715,4.108,4.108,0,0,0,0,4.165,4.227,4.227,0,0,0,1.162,7.67A4.2,4.2,0,0,0,7.2,35.441a4.222,4.222,0,0,0-.577,7.683,2.833,2.833,0,1,0,4.08,0,4.336,4.336,0,0,0,1.147-.929Z" transform="translate(-2.989 -2.583)" fill="#93999a"/>
            <path id="Path_151315" data-name="Path 151315" d="M30.833,16.667V11H28V22.333h5.667V19.5A2.833,2.833,0,0,1,30.833,16.667Z" transform="translate(7.427 0.333)" fill="#fcf300"/>
            <path id="Path_151316" data-name="Path 151316" d="M22.833,16.667V11H20V22.333h5.667V19.5A2.833,2.833,0,0,1,22.833,16.667Z" transform="translate(4.094 0.333)" fill="#fcf300"/>
            <path id="Path_151317" data-name="Path 151317" d="M31.594,26.083A8.762,8.762,0,0,1,23,19H20V30.333H45.5v-4.25Z" transform="translate(4.094 3.666)" fill="#fcf300"/>
          </g>
        </g>
      </g>
      <g id="Stroke_Cut_copy_2" data-name="Stroke Cut copy 2" transform="translate(2 2)">
        <g id="Group_96823" data-name="Group 96823">
          <path id="Path_151318" data-name="Path 151318" d="M36.667,45a1.417,1.417,0,0,0-1.417,1.417,3.869,3.869,0,0,1-1.727,3.226L31.631,50.9A1.417,1.417,0,1,0,33.2,53.262L35.1,52a6.7,6.7,0,0,0,2.988-5.583A1.417,1.417,0,0,0,36.667,45Z" transform="translate(10.084 15.916)"/>
          <path id="Path_151319" data-name="Path 151319" d="M39.679,39.2a1.417,1.417,0,1,0-2.357-1.572l-.348.523a4.455,4.455,0,0,1-5.108,1.752,1.418,1.418,0,1,0-.9,2.692,7.293,7.293,0,0,0,8.358-2.869Z" transform="translate(9.666 12.583)"/>
          <path id="Path_151320" data-name="Path 151320" d="M27.25,22H24.417a1.417,1.417,0,1,0,0,2.833H27.25a1.417,1.417,0,1,0,0-2.833Z" transform="translate(6.75 6.333)"/>
          <path id="Path_151321" data-name="Path 151321" d="M30.417,22a1.417,1.417,0,1,0,0,2.833H33.25a1.417,1.417,0,1,0,0-2.833Z" transform="translate(9.25 6.333)"/>
          <path id="Path_151322" data-name="Path 151322" d="M10.5,42.25A4.25,4.25,0,1,0,6.25,46.5,4.25,4.25,0,0,0,10.5,42.25Zm-5.667,0A1.417,1.417,0,1,1,6.25,43.667,1.417,1.417,0,0,1,4.833,42.25Z" transform="translate(-1.999 13)"/>
          <path id="Path_151323" data-name="Path 151323" d="M81.919,55.917a4.166,4.166,0,0,0-1.417.252,4.083,4.083,0,0,0-1.908-.221,5.47,5.47,0,0,0-4.258-1.417,5.628,5.628,0,0,0-7.718.183,7.158,7.158,0,0,0-7.334,2.619,6.1,6.1,0,0,0-2.864.772,5.607,5.607,0,0,0-2.833-.772,5.675,5.675,0,0,0-5.535,4.448A4.26,4.26,0,0,0,45.2,64.9l-5,2.5a1.425,1.425,0,0,0-.6.567L37.23,72.123a27.173,27.173,0,0,1-3.073-.958l6.328-7.232a1.417,1.417,0,0,0-.507-2.235l-7.262-3.117L42.942,52.9a1.417,1.417,0,0,0-.13-2.54l-9.441-4.042-3.625-7.26,3.016-4.012,10.275,5.145a1.417,1.417,0,0,0,1.767-.425L48.751,34.5,59.6,31.791a1.417,1.417,0,1,0-.688-2.748L47.575,31.876a1.417,1.417,0,0,0-.789.524l-3.542,4.72L32.968,31.982A1.417,1.417,0,0,0,31.2,32.4l-4.25,5.667a1.417,1.417,0,0,0-.135,1.483l4.25,8.5a1.417,1.417,0,0,0,.708.669l7.262,3.117L28.813,57.516a1.462,1.462,0,0,0-.323.248,4.149,4.149,0,0,0-3.947.153,4.215,4.215,0,0,0-1.455-.526,5.667,5.667,0,0,0-3.644-2.75,5.667,5.667,0,0,0-11.05,0,5.667,5.667,0,0,0,2.275,11.1,4.25,4.25,0,0,0,6.494,0,5.691,5.691,0,0,0,3.3-.4,4.109,4.109,0,0,0,.945.347,29.608,29.608,0,0,0,38.5,5.189,4.193,4.193,0,0,0,4.336.027,7.075,7.075,0,0,0,11.921-3.943,4.192,4.192,0,0,0,1.507.283,4.258,4.258,0,0,0,4.011-2.833,4.252,4.252,0,1,0,.239-8.5Zm-34,13.906a4.176,4.176,0,0,0,4.664-1.245,5.657,5.657,0,0,0,3.836-.683,5.666,5.666,0,0,0,1.614.636c.017.052.042.1.061.15a26.72,26.72,0,0,1-10.174,3.9Zm-10.85-6.289-5.624,6.429a26.965,26.965,0,0,1-6.283-4.448,4.177,4.177,0,0,0,5.685-4.64ZM19.751,62.518a2.855,2.855,0,0,1-2.67.264,1.417,1.417,0,0,0-1.853.762,1.417,1.417,0,0,1-2.615,0,1.42,1.42,0,0,0-1.853-.765A2.833,2.833,0,1,1,9.67,57.333a1.417,1.417,0,0,0,1.417-1.417,2.833,2.833,0,1,1,5.667,0,1.417,1.417,0,0,0,1.417,1.417,2.833,2.833,0,0,1,2.659,1.908,1.558,1.558,0,0,0,1.591.925,1.4,1.4,0,0,1,1.058.493,1.462,1.462,0,0,0,2.133,0,1.417,1.417,0,1,1,0,1.847,1.462,1.462,0,0,0-2.133,0,1.378,1.378,0,0,1-1.992.127A1.417,1.417,0,0,0,19.751,62.518Zm20.424,10.16,1.679-2.937,3.233-1.616v4.737c-.472.024-.942.054-1.417.054A26.78,26.78,0,0,1,40.175,72.678Zm41.046-11.3a1.5,1.5,0,0,0-1.438,0,1.449,1.449,0,0,0-.708,1.472,1.3,1.3,0,0,1,.011.147,1.417,1.417,0,0,1-1.417,1.417,1.4,1.4,0,0,1-1.225-.731,1.461,1.461,0,0,0-1.367-.717,1.417,1.417,0,0,0-.962.477,2.853,2.853,0,0,1-.3.283,1.417,1.417,0,0,0-.477,1.334A4.236,4.236,0,0,1,65.6,68.107a1.417,1.417,0,0,0-1.163-.653H64.4a1.417,1.417,0,0,0-1.159.6,1.417,1.417,0,0,1-2.574-.806,1.417,1.417,0,0,0-1.417-1.417,2.8,2.8,0,0,1-1.886-.738,1.417,1.417,0,0,0-1.9,0,2.8,2.8,0,0,1-2.975.52,1.417,1.417,0,0,0-1.853.762,1.417,1.417,0,1,1-1.308-1.961A1.417,1.417,0,0,0,50.753,63a2.833,2.833,0,0,1,2.833-2.833,2.8,2.8,0,0,1,1.886.738,1.417,1.417,0,0,0,1.9,0,2.8,2.8,0,0,1,1.886-.738,2.708,2.708,0,0,1,.494.054,1.417,1.417,0,0,0,1.485-.7,4.3,4.3,0,0,1,5.31-1.861,1.417,1.417,0,0,0,1.71-.507,2.9,2.9,0,0,1,4.5-.2,1.417,1.417,0,0,0,1.417.472,2.716,2.716,0,0,1,2.855.976,1.417,1.417,0,0,0,1.581.443,1.285,1.285,0,0,1,1.181.106,1.417,1.417,0,0,0,1.425,0,1.411,1.411,0,1,1,.011,2.431Z" transform="translate(-1.169 9.25)"/>
          <path id="Path_151324" data-name="Path 151324" d="M5.506,23.588a1.417,1.417,0,0,0-2,.078,5.638,5.638,0,0,0,1.381,8.752,5.5,5.5,0,0,0-.051.748,5.59,5.59,0,0,0,.686,2.692A5.62,5.62,0,0,0,5.152,44.3a4.294,4.294,0,0,0-.187,2.675A4.22,4.22,0,0,0,8.2,50.071a4.323,4.323,0,0,0,.883.095,4.25,4.25,0,0,0,3.935-5.861,5.658,5.658,0,0,0,1.55-2.639,4.25,4.25,0,0,0,4.314-5.242,4.229,4.229,0,0,0,1.472-3.982,5.647,5.647,0,0,0,.544-9.517,5.667,5.667,0,0,0,1.438-9.917l.751-1.126a2.52,2.52,0,0,0,2.924,1.081l.929-.4-.266,1.068a1.39,1.39,0,0,0-.591,1.119V33.941A29.482,29.482,0,0,0,14.75,57.25a1.417,1.417,0,0,0,2.833,0,27.043,27.043,0,0,1,.924-6.99l3.117,3.117L20.49,56.8a1.417,1.417,0,0,0-.074.453v2.833a1.417,1.417,0,1,0,2.833,0v-2.6l1.344-4.032A1.417,1.417,0,0,0,24.252,52l-4.744-4.744a26.708,26.708,0,0,1,6.619-9.633A1.4,1.4,0,0,0,27.5,38.833H53a1.417,1.417,0,0,0,1.417-1.417V32.284A26.775,26.775,0,0,1,67.631,43.607a5.611,5.611,0,0,0-2.571,2.371,4.3,4.3,0,0,0-3.985,1.472,4.25,4.25,0,0,0-4.122,7l-4.921,4.594A1.417,1.417,0,0,0,52,61.084l4.25,4.25a1.417,1.417,0,1,0,2-2l-3.213-3.213L59.658,55.8c.033,0,.062.013.094.016a4.213,4.213,0,0,0,5.72.567,5.617,5.617,0,0,0,8.285.834,4.207,4.207,0,0,0,3.655-1.4,4.25,4.25,0,0,0,2.047-7.76,1.417,1.417,0,0,0-1.585,2.347A1.417,1.417,0,0,1,77.114,53h-.009l-.2-.034a1.432,1.432,0,0,0-1.417.717,1.309,1.309,0,0,1-1.707.645,1.417,1.417,0,0,0-1.581.443,2.8,2.8,0,0,1-4.853-.85,1.417,1.417,0,0,0-1.468-.949l-.129.018-.171-.028a1.417,1.417,0,0,0-1.417.72,1.438,1.438,0,0,1-2.462,0,1.417,1.417,0,0,0-1.431-.721c-.084.011-.167.028-.171.045a1.417,1.417,0,1,1,.793-2.591,1.417,1.417,0,0,0,2.125-.708,1.441,1.441,0,0,1,2.092-.724,1.417,1.417,0,0,0,2.15-.87,2.808,2.808,0,0,1,2.536-2.175h.024c.064,0,.126-.017.191-.017a2.833,2.833,0,0,1,2.659,1.908,1.417,1.417,0,0,0,2.676-.932,5.667,5.667,0,0,0-4.686-3.758A29.627,29.627,0,0,0,51.664,28.405l-3.322-3.322a1.417,1.417,0,0,0-1.009-.417H45.917V14.75a1.377,1.377,0,0,0-.2-.683l.7-1.4a1.346,1.346,0,0,1,1.21-.747h1.391a1.361,1.361,0,0,1,.956.4l2.23,2.23a4.165,4.165,0,0,0,4.283,1.011,1.315,1.315,0,0,1,1.041.085,6.92,6.92,0,0,0-.279,1.945,7.083,7.083,0,0,0,7.266,7.083,5.716,5.716,0,0,0,2.959,3.639,6.892,6.892,0,0,0-.309,2.027A7.041,7.041,0,0,0,75,37.37a5.654,5.654,0,0,0,10.58-2.787,5.549,5.549,0,0,0-.486-2.275A6.981,6.981,0,0,0,87,27.5a7.083,7.083,0,0,0-3.4-6.025A5.61,5.61,0,0,0,84.166,19a5.677,5.677,0,0,0-4.831-5.606c-.031-.077-.065-.153-.1-.228a5.559,5.559,0,0,0,.68-2.666,5.648,5.648,0,0,0-9.079-4.5A1.417,1.417,0,0,0,72.55,8.253a2.8,2.8,0,0,1,1.7-.586,2.812,2.812,0,0,1,2.221,4.563,1.417,1.417,0,0,0-.074,1.64,4.186,4.186,0,0,1,.535,1.249,1.446,1.446,0,0,0,1.432,1.065c.076,0,.152-.013.135-.018A2.833,2.833,0,0,1,81.333,19a2.8,2.8,0,0,1-.88,2.04,1.417,1.417,0,0,0,.6,2.388A4.218,4.218,0,0,1,82.444,30.9a1.417,1.417,0,0,0-.283,1.99,2.817,2.817,0,1,1-4.951,2.464,1.417,1.417,0,0,0-1.764-.969,4.159,4.159,0,0,1-1.2.2A4.25,4.25,0,0,1,70,30.333a4.181,4.181,0,0,1,.618-2.166A1.417,1.417,0,0,0,69.6,26.042a2.823,2.823,0,0,1-2.435-2.71c0-.043.02-.176.023-.22a1.417,1.417,0,0,0-1.778-1.439,4.17,4.17,0,0,1-1.078.16,4.25,4.25,0,0,1-4.25-4.25,4.206,4.206,0,0,1,.384-1.741,1.417,1.417,0,0,0-.129-1.394,4.151,4.151,0,0,0-4.746-1.584,1.346,1.346,0,0,1-1.384-.326l-2.23-2.23a4.155,4.155,0,0,0-2.959-1.225H47.628A4.162,4.162,0,0,0,43.884,11.4l-.968,1.937H40.8a6.133,6.133,0,0,1,4.831-7.96l2.738-.456a6.185,6.185,0,0,1,1-.084h4.759a14.677,14.677,0,0,1,5.4,1.029,1.425,1.425,0,0,0,1.475-.275,2.86,2.86,0,0,1,4.054.264,1.417,1.417,0,0,0,1.334.479,4.257,4.257,0,0,1,.769-.079,1.417,1.417,0,0,0,0-2.833,4.061,4.061,0,0,0-.5.021,5.74,5.74,0,0,0-6.855-.494A17.474,17.474,0,0,0,54.133,2H49.375a9.045,9.045,0,0,0-1.475.122l-2.737.456a8.925,8.925,0,0,0-7.2,11.081,1.39,1.39,0,0,0-.548,1.091v9.917H34.583V14.75a1.4,1.4,0,0,0-.718-1.206l.2-.785a17.5,17.5,0,0,0,.521-4.236,5.7,5.7,0,0,0-4.28-5.5,5.841,5.841,0,0,0-4.675.884l-.639.425a.489.489,0,0,1-.537.068l-1.54-1.027a3.139,3.139,0,0,0-2.533-.442,3.386,3.386,0,0,0-2.148,1.7.394.394,0,0,1-.35.2h-.63a7.768,7.768,0,0,1-3.458-.976,4.159,4.159,0,0,0-1.877-.441A4.25,4.25,0,0,0,7.849,6.433,4.25,4.25,0,0,0,4.9,11.227a5.654,5.654,0,0,0-.254,9.721,1.417,1.417,0,1,0,1.516-2.394,2.819,2.819,0,0,1,.868-5.138,1.417,1.417,0,0,0,.87-2.15A1.417,1.417,0,0,1,9.083,9.083,1.417,1.417,0,0,0,10.5,7.667,1.417,1.417,0,0,1,11.917,6.25a1.364,1.364,0,0,1,.613.142,10.445,10.445,0,0,0,4.722,1.275h.63a3.22,3.22,0,0,0,2.842-1.7.547.547,0,0,1,.339-.283.319.319,0,0,1,.273.05L22.877,6.76a3.268,3.268,0,0,0,3.683-.068l.64-.425a3.017,3.017,0,0,1,2.4-.5A2.86,2.86,0,0,1,31.75,8.524a14.629,14.629,0,0,1-.438,3.542L31,13.326H29.669L29.751,13A2.6,2.6,0,0,0,29,10.459,2.768,2.768,0,0,0,26.208,9.9l-.829.276a2.639,2.639,0,0,0-4.477-.135L19.567,12.05a2.6,2.6,0,0,0-.4,1.747,1.417,1.417,0,0,0,.88,1.162A2.833,2.833,0,0,1,19,20.417a1.417,1.417,0,0,0-1.417,1.417,2.833,2.833,0,0,1-.21,1.054,1.417,1.417,0,0,0,.945,1.894,2.816,2.816,0,0,1-.095,5.47,1.417,1.417,0,0,0-.87,2.15,1.383,1.383,0,0,1,.23.765,1.417,1.417,0,0,1-.953,1.327,1.417,1.417,0,0,0-.708,2.125,1.417,1.417,0,0,1-.819,2.162,1.366,1.366,0,0,1-1.082-.164,1.417,1.417,0,0,0-2.143,1.353l.04.28a2.833,2.833,0,0,1-1.478,2.466,1.417,1.417,0,0,0-.337,2.223,1.417,1.417,0,1,1-2.037,0,1.417,1.417,0,0,0-.337-2.223A2.8,2.8,0,0,1,8.11,37.6a1.417,1.417,0,0,0,.473-2.369,2.792,2.792,0,0,1-.917-2.068,2.833,2.833,0,0,1,.21-1.054,1.417,1.417,0,0,0-.945-1.894,2.833,2.833,0,0,1-2.1-2.719,2.8,2.8,0,0,1,.751-1.909A1.417,1.417,0,0,0,5.506,23.588ZM31.75,16.167V19H28.917V16.167Zm19.833,16.17V36H28.917V27.5h17.83ZM40.25,16.167h2.833V19H40.25Zm0,5.667h2.833v2.833H40.25ZM28.917,24.666V21.833H31.75v2.833Z" transform="translate(-2 -2)"/>
        </g>
      </g>
    </g>
  </g>
</svg>
