<svg id="t4-p6" xmlns="http://www.w3.org/2000/svg" width="80" height="79.994" viewBox="0 0 80 79.994">
  <g id="Group_96800" data-name="Group 96800" transform="translate(1.172 1.172)">
    <path id="Path_151124" data-name="Path 151124" d="M85.156,341.651a1.89,1.89,0,0,0-.6-1.372c-6.5-6.153-18.222-6.382-25.059-.32a20.98,20.98,0,0,1-13.647,5.059,16.673,16.673,0,0,1-10.039-3.131l-3.769-2.812c-6.99-5.217-17.818-4.663-23.97,1.087a1.849,1.849,0,0,0-.577,1.353v10.724H85.156Z" transform="translate(-7.5 -284.238)" fill="#00ffd3"/>
    <path id="Path_151125" data-name="Path 151125" d="M7.5,375.135v3.125a1.847,1.847,0,0,1,.577-1.353c6.153-5.75,16.98-6.3,23.97-1.087l3.769,2.813a16.673,16.673,0,0,0,10.039,3.131A20.98,20.98,0,0,0,59.5,376.7c6.838-6.061,18.559-5.833,25.059.32a1.9,1.9,0,0,1,.6,1.372v-3.125a1.9,1.9,0,0,0-.6-1.372c-6.5-6.153-18.222-6.381-25.059-.32a20.98,20.98,0,0,1-13.647,5.059,16.673,16.673,0,0,1-10.039-3.131l-3.769-2.812c-6.991-5.217-17.817-4.663-23.97,1.087A1.847,1.847,0,0,0,7.5,375.135Z" transform="translate(-7.5 -312.605)" fill="#009e83"/>
    <path id="Path_151126" data-name="Path 151126" d="M85.156,280.724a.468.468,0,0,1-.787.343,19.451,19.451,0,0,0-24.868-.143c-6.267,5.555-16.858,7.025-23.686,1.928l-3.769-2.812c-6.913-5.159-17.578-4.675-23.764.9a.468.468,0,0,1-.783-.346v-7.33c6.031-6.28,17.333-7.042,24.547-1.658l1.387,1.018a.781.781,0,0,0,1.21-.405c.518-1.744,1.606-2.4,1.606-5.134,0-3.594-1.875-3.594-1.875-7.188s1.875-3.593,1.875-7.187-1.875-3.594-1.875-7.187H56.25c0,3.594,1.875,3.594,1.875,7.187S56.25,256.3,56.25,259.9s1.875,3.594,1.875,7.188c0,2.943-1.258,3.79-1.713,5.975a.782.782,0,0,0,1.194.817,19.107,19.107,0,0,0,1.9-1.387c7.052-6.252,19.3-5.812,25.655.919Z" transform="translate(-7.5 -208.334)" fill="#fff729"/>
    <path id="Path_151127" data-name="Path 151127" d="M7.5,427.94v2.781a.468.468,0,0,0,.783.347c6.186-5.573,16.852-6.058,23.764-.9l3.769,2.813c6.828,5.1,17.419,3.627,23.686-1.928a19.451,19.451,0,0,1,24.869.144.468.468,0,0,0,.786-.344v-2.781a20.17,20.17,0,0,0-25.383-.144c-6.4,5.555-17.206,7.025-24.175,1.928l-3.847-2.812C24.7,421.887,13.814,422.37,7.5,427.94Z" transform="translate(-7.5 -358.464)" fill="#e0d800"/>
    <path id="Path_151128" data-name="Path 151128" d="M39.5,63.272H61.375V52.96A1.562,1.562,0,0,1,62.938,51.4H84.344V29.522H61.375A21.875,21.875,0,0,0,39.5,51.4Z" transform="translate(-11.687 -26.084)" fill="#9b9696"/>
    <path id="Path_151129" data-name="Path 151129" d="M42.625,164.522V154.21a1.562,1.562,0,0,1,1.563-1.562H65.594l-3.125-3.125H44.188A4.687,4.687,0,0,0,39.5,154.21V161.4Z" transform="translate(7.063 -127.334)" fill="#736e6e"/>
    <path id="Path_151130" data-name="Path 151130" d="M10.625,7.522h3.75A3.125,3.125,0,0,1,17.5,10.647v22.5a3.125,3.125,0,0,1-3.125,3.125h-3.75A3.125,3.125,0,0,1,7.5,33.147v-22.5A3.125,3.125,0,0,1,10.625,7.522Z" transform="translate(60.156 -7.522)" fill="#736e6e"/>
    <path id="Path_151131" data-name="Path 151131" d="M7.5,36.272h3.125a3.124,3.124,0,0,0,3.125-3.125v-22.5a3.124,3.124,0,0,0-3.125-3.125H7.5a3.124,3.124,0,0,1,3.125,3.125v22.5A3.124,3.124,0,0,1,7.5,36.272Z" transform="translate(63.906 -7.522)" fill="#5a5555"/>
    <path id="Path_151132" data-name="Path 151132" d="M182.317,253.725a8.314,8.314,0,0,0,.058-1.016c0-3.594-1.875-3.594-1.875-7.187h21.875c0,3.594,1.875,3.594,1.875,7.188a9.171,9.171,0,0,1-.055,1h0c-.309,2.634-1.819,2.965-1.819,6.191,0,3.6,1.875,3.6,1.875,7.189,0,2.942-1.258,3.791-1.713,5.975a.77.77,0,0,0,.247.748c-.1.08-.189.161-.283.244a19.038,19.038,0,0,1-1.9,1.388.782.782,0,0,1-1.194-.817c.455-2.184,1.713-3.033,1.713-5.975,0-3.594-1.875-3.594-1.875-7.189s1.875-3.592,1.875-7.186v-.006a.545.545,0,0,0-.547-.541Z" transform="translate(-153.625 -208.334)" fill="#e0d800" style="mix-blend-mode: multiply;isolation: isolate"/>
    <path id="Path_151133" data-name="Path 151133" d="M164,221.9v-3.75a3.125,3.125,0,0,1,3.125-3.125h22.5a3.125,3.125,0,0,1,3.125,3.125v3.75a3.125,3.125,0,0,1-3.125,3.125h-22.5A3.125,3.125,0,0,1,164,221.9Z" transform="translate(-139.547 -182.6)" fill="#736e6e"/>
    <path id="Path_151134" data-name="Path 151134" d="M164,225.022h3.125a3.124,3.124,0,0,0,3.125-3.125v-3.75a3.124,3.124,0,0,0-3.125-3.125H164a3.124,3.124,0,0,1,3.125,3.125v3.75A3.124,3.124,0,0,1,164,225.022Z" transform="translate(-117.047 -182.6)" fill="#5a5555"/>
    <path id="Path_151135" data-name="Path 151135" d="M102.281,35.772h10.625a.781.781,0,0,0,.781-.781V29.522H101.5v5.469A.781.781,0,0,0,102.281,35.772Z" transform="translate(-50.719 -26.085)" fill="#e3e0e4"/>
    <path id="Path_151136" data-name="Path 151136" d="M101.5,44.522v3.125a.782.782,0,0,0,.781.781h10.625a.782.782,0,0,0,.781-.781V44.522a.782.782,0,0,1-.781.781H102.281A.782.782,0,0,1,101.5,44.522Z" transform="translate(-50.719 -38.741)" fill="#d4cfd5"/>
  </g>
  <g id="Group_96801" data-name="Group 96801" transform="translate(0 0)">
    <path id="Path_151137" data-name="Path 151137" d="M1.3,436.386a19.681,19.681,0,0,1,9.569,3.686l3.769,2.813c6.017,4.491,15.979,3.655,22.208-1.866A19.673,19.673,0,0,1,49.974,436.3a19.408,19.408,0,0,1,14.16,5.706,1.172,1.172,0,0,1-1.7,1.609,17.062,17.062,0,0,0-12.456-4.972,17.337,17.337,0,0,0-11.57,4.127,22.18,22.18,0,0,1-12.294,5.248q-1.076.107-2.13.106a17.85,17.85,0,0,1-10.739-3.363l-3.769-2.813a17.338,17.338,0,0,0-8.431-3.236,1.172,1.172,0,0,1,.265-2.329Z" transform="translate(15.547 -368.133)"/>
    <path id="Path_151138" data-name="Path 151138" d="M443.57,437.5a1.172,1.172,0,0,1,.358,2.316,16.526,16.526,0,0,0-9.412,4.662,1.172,1.172,0,1,1-1.69-1.624A18.877,18.877,0,0,1,443.57,437.5Z" transform="translate(-432.499 -369.136)"/>
    <path id="Path_151139" data-name="Path 151139" d="M26.412,63.519l.958.7A11.484,11.484,0,0,1,27.945,63a5.717,5.717,0,0,0,.8-3.243l-3.729-2.783c-6.8-5.074-17.33-4.373-23,1.529a1.172,1.172,0,0,1-1.69-1.624c6.448-6.711,18.4-7.528,26.093-1.783l1.027.767a7.719,7.719,0,0,1-.572-3.1,7.858,7.858,0,0,1,1.07-4.136,5.567,5.567,0,0,0,.8-3.051,7.211,7.211,0,0,0-.056-.939,4.3,4.3,0,0,1-4.241-4.3v-3.75a4.3,4.3,0,0,1,3.359-4.193s0-6.16,0-6.3a1.172,1.172,0,0,1,2.343.041c0,.123,0,6.151,0,6.151H49.687V28.07a2.738,2.738,0,0,1,2.734-2.734H67.656V14.553a1.172,1.172,0,0,1,2.344,0V26.819a1.955,1.955,0,0,0,1.953,1.953H75.7a1.955,1.955,0,0,0,1.953-1.953V4.319A1.955,1.955,0,0,0,75.7,2.366h-3.75A1.955,1.955,0,0,0,70,4.319V9.085a1.172,1.172,0,1,1-2.344,0V5.8H65.312v4.3a1.955,1.955,0,0,1-1.953,1.953H52.734A1.955,1.955,0,0,1,50.781,10.1V5.8A20.758,20.758,0,0,0,30.907,20.96a1.172,1.172,0,1,1-2.259-.626A23.109,23.109,0,0,1,50.859,3.46H67.743A4.3,4.3,0,0,1,71.953.022H75.7a4.3,4.3,0,0,1,4.3,4.3v22.5a4.3,4.3,0,0,1-4.3,4.3h-3.75a4.3,4.3,0,0,1-4.21-3.437H52.422a.391.391,0,0,0-.391.391V32.36a4.3,4.3,0,0,1,3.516,4.224v3.75a4.3,4.3,0,0,1-2.658,3.971,9.525,9.525,0,0,1,.08,1.263A7.858,7.858,0,0,1,51.9,49.7a5.567,5.567,0,0,0-.8,3.051,6.3,6.3,0,0,0,1.039,3.509c.089-.075.177-.151.264-.228,7.506-6.655,20.511-6.183,27.284.99a1.172,1.172,0,0,1-1.7,1.609c-5.957-6.309-17.408-6.712-24.025-.845-.34.3-.7.594-1.064.876a9.511,9.511,0,0,1,.082,1.276,9.227,9.227,0,0,1-1.045,4.32c-.134.291-.265.575-.382.871.365-.261.654-.485.854-.663,7.507-6.655,20.512-6.183,27.284.991a1.172,1.172,0,1,1-1.7,1.609c-5.956-6.31-17.408-6.713-24.025-.846a19.387,19.387,0,0,1-2.025,1.487,1.966,1.966,0,0,1-2.989-2.035,10.644,10.644,0,0,1,.858-2.4,6.949,6.949,0,0,0,.83-3.337,5.569,5.569,0,0,0-.8-3.052,8.525,8.525,0,0,1,0-8.272,5.567,5.567,0,0,0,.8-3.051,7.219,7.219,0,0,0-.056-.937H46.094a1.172,1.172,0,1,1,0-2.344s5.355-.026,5.443-.023a1.955,1.955,0,0,0,1.666-1.93v-3.75a1.955,1.955,0,0,0-1.953-1.953H28.75A1.955,1.955,0,0,0,26.8,36.585v3.75a1.955,1.955,0,0,0,1.953,1.953H40.625a1.172,1.172,0,1,1,0,2.344H31.051c.028.3.043.611.043.937a7.858,7.858,0,0,1-1.07,4.136,6.19,6.19,0,0,0,0,6.1,8.259,8.259,0,0,1,1.07,4.136,7.859,7.859,0,0,1-1.07,4.136,7.225,7.225,0,0,0-.585,1.331c-1.017,2.393-2.99,1.223-4.421-.008-6.8-5.074-17.331-4.373-23,1.53A1.172,1.172,0,0,1,.327,65.31c6.447-6.713,18.4-7.53,26.085-1.791ZM62.969,9.71V5.8H53.125V9.71Z" transform="translate(0 -0.022)"/>
  </g>
</svg>
