<svg id="t4-p5" xmlns="http://www.w3.org/2000/svg" width="80" height="80.002" viewBox="0 0 80 80.002">
  <path id="Path_152587" data-name="Path 152587" d="M13.75,10h52.5A3.75,3.75,0,0,1,70,13.75V83.128a3.75,3.75,0,0,1-3.75,3.75H13.75A3.75,3.75,0,0,1,10,83.128V13.75A3.75,3.75,0,0,1,13.75,10Zm0,0" transform="translate(-8.437 -8.437)" fill="#ff8628"/>
  <path id="Path_152588" data-name="Path 152588" d="M85.991,50H97.5v64.377H50V50H61.511" transform="translate(-42.187 -42.187)" fill="#fff"/>
  <path id="Path_152589" data-name="Path 152589" d="M130.152,21.25H147a3.32,3.32,0,0,0,3.32-3.32V10h-23.49v7.93A3.321,3.321,0,0,0,130.152,21.25Zm0,0" transform="translate(-107.014 -8.437)" fill="#ff6977"/>
  <path id="Path_152590" data-name="Path 152590" d="M130.152,21.25H147a3.32,3.32,0,0,0,3.32-3.32V10h-23.49v7.93A3.321,3.321,0,0,0,130.152,21.25Zm0,0" transform="translate(-107.014 -8.437)" fill="#e8e8e8"/>
  <path id="Path_152591" data-name="Path 152591" d="M314.355,155.163l18.308-18.308a4.133,4.133,0,1,1,5.844,5.844L320.2,161.008l-10.535,4.69Zm0,0" transform="translate(-261.278 -114.45)" fill="#fcf300"/>
  <path id="Path_152592" data-name="Path 152592" d="M320.2,266.4l-5.844-5.844-4.691,10.534Zm0,0" transform="translate(-261.277 -219.845)" fill="#e8e8e8"/>
  <path id="Path_152593" data-name="Path 152593" d="M449.837,144.708l2.009-2.009A4.133,4.133,0,0,0,446,136.855l-2.009,2.009Zm0,0" transform="translate(-374.616 -114.449)" fill="#e8e8e8"/>
  <path id="Path_152594" data-name="Path 152594" d="M98,130h10v10H98Zm0,0" transform="translate(-82.687 -109.687)" fill="#00dbb6"/>
  <path id="Path_152595" data-name="Path 152595" d="M98,240h10v10H98Zm0,0" transform="translate(-82.687 -202.499)" fill="#00dbb6"/>
  <path id="Path_152596" data-name="Path 152596" d="M98,350h10v10H98Zm0,0" transform="translate(-82.687 -295.311)" fill="#fcf300"/>
  <path id="Path_152597" data-name="Path 152597" d="M193.563,452a1.563,1.563,0,1,0,1.1.458A1.575,1.575,0,0,0,193.563,452Zm0,0" transform="translate(-161.999 -381.372)"/>
  <path id="Path_152598" data-name="Path 152598" d="M78.334,21.3a5.7,5.7,0,0,0-8.054,0l-7.154,7.154V5.312A5.319,5.319,0,0,0,57.814,0H5.312A5.319,5.319,0,0,0,0,5.312V74.689A5.319,5.319,0,0,0,5.312,80h52.5a5.319,5.319,0,0,0,5.313-5.313V44.562L78.334,29.354a5.7,5.7,0,0,0,0-8.054ZM60,5.312V31.579L56.877,34.7V7.812A1.562,1.562,0,0,0,55.314,6.25H44.871V3.125H57.814A2.19,2.19,0,0,1,60,5.312ZM51.47,48.165l2.109-4.739,2.629,2.629ZM41.746,3.125V9.492a1.76,1.76,0,0,1-1.758,1.758H23.138A1.76,1.76,0,0,1,21.38,9.492V3.125ZM57.814,76.877H5.312a2.19,2.19,0,0,1-2.188-2.188V5.312A2.19,2.19,0,0,1,5.312,3.125H18.255V6.25H7.812A1.562,1.562,0,0,0,6.25,7.812V72.189a1.562,1.562,0,0,0,1.563,1.563h17.5a1.563,1.563,0,0,0,0-3.125H9.375V9.375h8.88v.117a4.889,4.889,0,0,0,4.883,4.883h16.85a4.889,4.889,0,0,0,4.883-4.883V9.375h8.88V37.829l-1.78,1.779a1.581,1.581,0,0,0-.322.469l-4.69,10.534a1.563,1.563,0,0,0,2.063,2.064l4.729-2.106V70.627H37.814a1.563,1.563,0,1,0,0,3.125h17.5a1.563,1.563,0,0,0,1.563-1.563V49.178l2.68-1.193a1.558,1.558,0,0,0,.445-.3v27a2.19,2.19,0,0,1-2.188,2.188ZM70.3,32.968,58.921,44.348l-3.635-3.635L69.376,26.624l3.635,3.635Zm5.824-5.824-.9.9-3.634-3.634.9-.9a2.57,2.57,0,0,1,3.635,3.634Zm0,0" transform="translate(0 0.001)"/>
  <path id="Path_152599" data-name="Path 152599" d="M99.563,120h-10A1.562,1.562,0,0,0,88,121.563v10a1.562,1.562,0,0,0,1.563,1.563h10a1.562,1.562,0,0,0,1.563-1.563v-10A1.562,1.562,0,0,0,99.563,120ZM98,130H91.125v-6.875H98Zm0,0" transform="translate(-74.249 -101.249)"/>
  <path id="Path_152600" data-name="Path 152600" d="M99.563,230h-10A1.562,1.562,0,0,0,88,231.563v10a1.562,1.562,0,0,0,1.563,1.563h10a1.562,1.562,0,0,0,1.563-1.563v-10A1.562,1.562,0,0,0,99.563,230ZM98,240H91.125v-6.875H98Zm0,0" transform="translate(-74.249 -194.061)"/>
  <path id="Path_152601" data-name="Path 152601" d="M99.563,340h-10A1.562,1.562,0,0,0,88,341.563v10a1.562,1.562,0,0,0,1.563,1.563h10a1.562,1.562,0,0,0,1.563-1.563v-10A1.562,1.562,0,0,0,99.563,340ZM98,350H91.125v-6.875H98Zm0,0" transform="translate(-74.249 -286.873)"/>
  <path id="Path_152602" data-name="Path 152602" d="M212.335,139.148a1.562,1.562,0,0,0,2.21,0l7.055-7.055a1.563,1.563,0,0,0-2.21-2.21l-5.949,5.949-2.371-2.371a1.563,1.563,0,0,0-2.21,2.21Zm0,0" transform="translate(-175.837 -109.203)"/>
  <path id="Path_152603" data-name="Path 152603" d="M212.335,249.151a1.562,1.562,0,0,0,2.21,0L221.6,242.1a1.563,1.563,0,0,0-2.21-2.21l-5.949,5.95-2.371-2.371a1.563,1.563,0,0,0-2.21,2.21Zm0,0" transform="translate(-175.837 -202.017)"/>
  <path id="Path_152604" data-name="Path 152604" d="M224.616,356.726l2.423,2.422a1.562,1.562,0,0,0,2.21-2.21l-2.422-2.423,2.422-2.423a1.562,1.562,0,1,0-2.21-2.21l-2.423,2.422-2.422-2.422a1.563,1.563,0,1,0-2.21,2.21l2.423,2.423-2.423,2.423a1.563,1.563,0,0,0,2.21,2.21Zm0,0" transform="translate(-185.224 -294.826)"/>
</svg>
