<svg id="t4-p4" xmlns="http://www.w3.org/2000/svg" width="80" height="80" viewBox="0 0 80 80">
  <path id="Path_151036" data-name="Path 151036" d="M304.86,24.758A17.258,17.258,0,1,1,287.6,7.5,17.258,17.258,0,0,1,304.86,24.758Zm0,0" transform="translate(-228.103 -6.328)" fill="#00f5cb"/>
  <path id="Path_151037" data-name="Path 151037" d="M362.234,7.5a17.33,17.33,0,0,0-3.437.343,17.262,17.262,0,0,1,0,33.83A17.259,17.259,0,1,0,362.234,7.5Zm0,0" transform="translate(-302.735 -6.328)" fill="#009e83"/>
  <path id="Path_151038" data-name="Path 151038" d="M425.58,246.775a7.122,7.122,0,1,1-7.122-7.123A7.123,7.123,0,0,1,425.58,246.775Zm0,0" transform="translate(-347.065 -202.206)" fill="#00f5cb"/>
  <path id="Path_151039" data-name="Path 151039" d="M438.356,239.652a7.091,7.091,0,0,0-3.438.884,7.123,7.123,0,0,1,0,12.476,7.122,7.122,0,1,0,3.438-13.361Zm0,0" transform="translate(-366.962 -202.206)" fill="#009e83"/>
  <path id="Path_151040" data-name="Path 151040" d="M45.045,26.876a12.813,12.813,0,1,0-22.777,0,20.156,20.156,0,1,0,22.777,0Zm0,0" transform="translate(-11.391 -6.915)" fill="#00f5cb"/>
  <path id="Path_151041" data-name="Path 151041" d="M134.061,26.876A12.814,12.814,0,0,0,119,8.732a12.812,12.812,0,0,1,7.717,18.145A20.158,20.158,0,0,1,119,63.329a20.158,20.158,0,0,0,15.06-36.453Zm0,0" transform="translate(-100.406 -6.915)" fill="#009e83"/>
  <path id="Path_151042" data-name="Path 151042" d="M77.332,394.861H72.8a6.964,6.964,0,0,0-11.681-4.879,6.651,6.651,0,0,0-13.283.418A4.858,4.858,0,0,0,42,393.262a6.73,6.73,0,0,0-12.836-2.272,5.4,5.4,0,0,0-8.89,3.871H15.325A7.819,7.819,0,0,0,7.5,402.673H85.157a7.819,7.819,0,0,0-7.825-7.812Zm0,0" transform="translate(-6.328 -323.845)" fill="#009e83"/>
  <path id="Path_151043" data-name="Path 151043" d="M101.785,428.823c.02.017.041.032.06.049.024-.053.05-.106.076-.158C101.875,428.75,101.83,428.787,101.785,428.823Zm0,0" transform="translate(-85.881 -361.728)" fill="#96d629"/>
  <path id="Path_151044" data-name="Path 151044" d="M373.808,418.189h-4.533a6.964,6.964,0,0,0-10.4-5.818,6.948,6.948,0,0,1,3.521,5.818h4.533A7.819,7.819,0,0,1,374.757,426h6.875A7.819,7.819,0,0,0,373.808,418.189Zm0,0" transform="translate(-302.804 -347.174)" fill="#00f5cb"/>
  <path id="Path_151045" data-name="Path 151045" d="M71,69.844h-3.48a8.185,8.185,0,0,0-6.852-6.638V57.032l5.8-5.8A8.292,8.292,0,0,0,77.6,39.066a1.173,1.173,0,0,0-1.754,1.555,5.948,5.948,0,0,1-7.7,8.932l4.085-4.085a1.173,1.173,0,0,0-1.658-1.657l-4.1,4.1a5.947,5.947,0,0,1,4.918-9.3,1.173,1.173,0,0,0,0-2.344A8.288,8.288,0,0,0,64.8,49.59l-4.127,4.127v-16.9a18.43,18.43,0,1,0-2.344,0V63.207a8.125,8.125,0,0,0-2.751.926A7.82,7.82,0,0,0,48.158,58.8h-.149a7.823,7.823,0,0,0-7.549,6.4,6.08,6.08,0,0,0-4.279,1.508,7.9,7.9,0,0,0-12.744-2.42V57.888A21.328,21.328,0,0,0,35.129,19.58a13.813,13.813,0,0,0,1.121-5.488,13.984,13.984,0,0,0-23.109-10.6,1.173,1.173,0,0,0,1.53,1.776,11.641,11.641,0,0,1,19.235,8.822,11.514,11.514,0,0,1-1.293,5.331,1.171,1.171,0,0,0,.378,1.5,18.984,18.984,0,0,1-9.553,34.612V34.109l6.3-6.3a1.173,1.173,0,0,0-1.658-1.657l-4.64,4.64V13.78a1.173,1.173,0,0,0-2.344,0V43.138l-8.312-8.312a1.173,1.173,0,0,0-1.658,1.657l9.969,9.969V55.54A18.984,18.984,0,0,1,11.54,20.928a1.172,1.172,0,0,0,.378-1.5,11.655,11.655,0,0,1-.237-10.185,1.173,1.173,0,0,0-2.13-.978A14,14,0,0,0,9.4,19.58,21.328,21.328,0,0,0,21.094,57.888v7.04a6.562,6.562,0,0,0-8.172,4.915H9a9,9,0,0,0-9,8.984A1.172,1.172,0,0,0,1.172,80H64.063a1.173,1.173,0,0,0,0-2.344H2.448A6.66,6.66,0,0,1,9,72.187h4.952a1.172,1.172,0,0,0,1.171-1.122,4.227,4.227,0,0,1,6.961-3.028,1.188,1.188,0,0,0,1.825-.407,5.559,5.559,0,0,1,10.6,1.873,1.179,1.179,0,0,0,2.256.349,3.672,3.672,0,0,1,3.348-2.309c.906-.013,2.554.58,2.567-.979a5.443,5.443,0,0,1,5.375-5.421h.1a5.471,5.471,0,0,1,5.463,5.076A1.181,1.181,0,0,0,55.584,67,5.792,5.792,0,0,1,65.3,71.054a1.172,1.172,0,0,0,1.171,1.133H71a6.661,6.661,0,0,1,6.55,5.469H71.094a1.173,1.173,0,0,0,0,2.344h7.734A1.172,1.172,0,0,0,80,78.828a9,9,0,0,0-9-8.984ZM59.5,2.344a16.086,16.086,0,0,1,1.172,32.13V18.4a1.173,1.173,0,0,0-2.344,0V34.473A16.086,16.086,0,0,1,59.5,2.344Zm0,0" transform="translate(0 0)"/>
</svg>
