<svg id="t4-p2" xmlns="http://www.w3.org/2000/svg" width="80" height="74.636" viewBox="0 0 80 74.636">
  <g id="Group_97302" data-name="Group 97302" transform="translate(59.242 53.902)">
    <path id="Path_152550" data-name="Path 152550" d="M397.13,380.115a5.47,5.47,0,0,1-7.658,0l-9.95-9.95,7.658-7.658,9.95,9.95A5.415,5.415,0,0,1,397.13,380.115Z" transform="translate(-379.522 -362.507)" fill="#ff8628"/>
  </g>
  <g id="Group_97303" data-name="Group 97303" transform="translate(29.599 24.151)">
    <circle id="Ellipse_4851" data-name="Ellipse 4851" cx="13.486" cy="13.486" r="13.486" transform="translate(0 19.069) rotate(-45)" fill="#00dbb6"/>
  </g>
  <g id="Group_97304" data-name="Group 97304" transform="translate(55.36 50.013)">
    <path id="Path_152551" data-name="Path 152551" d="M359.376,337.38l5.3,5.3-4.912,4.912-5.32-5.32a13.592,13.592,0,0,0,4.937-4.887Z" transform="translate(-354.439 -337.38)" fill="#fff"/>
  </g>
  <g id="Group_97305" data-name="Group 97305" transform="translate(1.567 1.567)">
    <path id="Path_152552" data-name="Path 152552" d="M60.336,30.429a3.27,3.27,0,0,0-3.275-3.264H13.275A3.27,3.27,0,0,0,10,30.429V90.311a3.27,3.27,0,0,0,3.275,3.264H57.061a3.27,3.27,0,0,0,3.275-3.264V81.919a13.45,13.45,0,1,1,0-26.185v-25.3Z" transform="translate(-10 -27.165)" fill="#fff"/>
  </g>
  <g id="Group_97306" data-name="Group 97306" transform="translate(10.005 12.722)">
    <path id="Path_152553" data-name="Path 152553" d="M63.84,98.612h8.79v8.79H63.84Z" transform="translate(-63.84 -98.612)" fill="#fcf300"/>
  </g>
  <g id="Group_97307" data-name="Group 97307" transform="translate(10.005 30.386)">
    <path id="Path_152554" data-name="Path 152554" d="M63.84,211.7h8.79v8.79H63.84Z" transform="translate(-63.84 -211.701)" fill="#fcf300"/>
  </g>
  <g id="Group_97308" data-name="Group 97308" transform="translate(10.005 48.05)">
    <path id="Path_152555" data-name="Path 152555" d="M63.84,324.791h8.79v8.79H63.84Z" transform="translate(-63.84 -324.791)" fill="#fcf300"/>
  </g>
  <g id="Group_97309" data-name="Group 97309" transform="translate(0 0)">
    <path id="Path_152556" data-name="Path 152556" d="M77.964,79.944l-9.921-9.921a1.563,1.563,0,0,0-2.21,0l-.248.248L62.224,66.91a14.992,14.992,0,0,0-8.91-20.783V41.289a1.563,1.563,0,1,0-3.125,0v4.177a15.012,15.012,0,1,0,0,29.876V81.9a1.7,1.7,0,0,1-1.7,1.7H4.828a1.7,1.7,0,0,1-1.7-1.7v-59.9a1.7,1.7,0,0,1,1.7-1.7H48.486a1.7,1.7,0,0,1,1.7,1.7v5.537a1.563,1.563,0,0,0,3.125,0V21.994a4.834,4.834,0,0,0-4.828-4.828H4.828A4.834,4.834,0,0,0,0,21.994V81.9a4.834,4.834,0,0,0,4.828,4.828H48.486A4.834,4.834,0,0,0,53.314,81.9V74.68a14.907,14.907,0,0,0,1.771-.693l3.392,3.392-.28.28a1.582,1.582,0,0,0,0,2.21l9.921,9.921a6.962,6.962,0,0,0,9.846-9.845ZM58.647,66.91A11.884,11.884,0,1,1,57.1,52,11.965,11.965,0,0,1,58.647,66.91Zm-.813,5.405a15.212,15.212,0,0,0,2.7-2.676l2.842,2.842-2.688,2.688ZM75.755,87.58a3.874,3.874,0,0,1-5.426,0l-8.816-8.816,5.426-5.426,8.816,8.816A3.841,3.841,0,0,1,75.755,87.58Z" transform="translate(0 -17.166)"/>
    <path id="Path_152557" data-name="Path 152557" d="M65.764,90.178A1.567,1.567,0,0,0,64.2,88.611h-8.79a1.567,1.567,0,0,0-1.567,1.567v8.79a1.567,1.567,0,0,0,1.567,1.567H64.2a1.567,1.567,0,0,0,1.567-1.567ZM62.63,97.4H56.974V91.745H62.63Z" transform="translate(-45.403 -77.415)"/>
    <path id="Path_152558" data-name="Path 152558" d="M65.764,203.268A1.567,1.567,0,0,0,64.2,201.7h-8.79a1.567,1.567,0,0,0-1.567,1.567v8.79a1.567,1.567,0,0,0,1.567,1.567H64.2a1.567,1.567,0,0,0,1.567-1.567Zm-3.134,7.223H56.974v-5.655H62.63Z" transform="translate(-45.403 -172.882)"/>
    <path id="Path_152559" data-name="Path 152559" d="M64.2,314.79h-8.79a1.567,1.567,0,0,0-1.567,1.567v8.79a1.567,1.567,0,0,0,1.567,1.567H64.2a1.567,1.567,0,0,0,1.567-1.567v-8.79A1.567,1.567,0,0,0,64.2,314.79Zm-1.567,8.79H56.974v-5.656H62.63Z" transform="translate(-45.403 -268.31)"/>
    <path id="Path_152560" data-name="Path 152560" d="M185.177,90.178a1.567,1.567,0,0,0-1.567-1.567H167.917a1.567,1.567,0,0,0,0,3.134H183.61A1.567,1.567,0,0,0,185.177,90.178Z" transform="translate(-140.38 -77.415)"/>
    <path id="Path_152561" data-name="Path 152561" d="M180.361,132.823a1.567,1.567,0,0,0-1.567-1.567H167.917a1.567,1.567,0,0,0,0,3.134h10.877A1.567,1.567,0,0,0,180.361,132.823Z" transform="translate(-140.373 -113.431)"/>
    <path id="Path_152562" data-name="Path 152562" d="M176.021,203.663a1.567,1.567,0,0,0-1.567-1.567h-6.536a1.567,1.567,0,0,0,0,3.134h6.536A1.567,1.567,0,0,0,176.021,203.663Z" transform="translate(-140.367 -173.203)"/>
    <path id="Path_152563" data-name="Path 152563" d="M169.422,244.74h-1.505a1.567,1.567,0,0,0,0,3.134h1.505a1.567,1.567,0,0,0,0-3.134Z" transform="translate(-140.361 -209.185)"/>
    <path id="Path_152564" data-name="Path 152564" d="M167.917,317.924h1.505a1.567,1.567,0,0,0,0-3.134h-1.505a1.567,1.567,0,0,0,0,3.134Z" transform="translate(-140.361 -268.29)"/>
    <path id="Path_152565" data-name="Path 152565" d="M167.917,360.568h6.536a1.567,1.567,0,1,0,0-3.134h-6.536a1.567,1.567,0,0,0,0,3.134Z" transform="translate(-140.367 -304.272)"/>
    <path id="Path_152566" data-name="Path 152566" d="M265.715,267.006a1.567,1.567,0,0,0-2.216,2.216l3.738,3.738a1.567,1.567,0,0,0,2.216,0l7.639-7.639a1.567,1.567,0,0,0-2.216-2.216l-6.531,6.531Z" transform="translate(-221.964 -224.307)"/>
    <path id="Path_152567" data-name="Path 152567" d="M324.23,118.645a1.566,1.566,0,1,0-.848,2.045A1.58,1.58,0,0,0,324.23,118.645Z" transform="translate(-271.032 -101.976)"/>
  </g>
</svg>
