<svg xmlns="http://www.w3.org/2000/svg" width="80" height="71.963" viewBox="0 0 80 71.963">
  <g id="t5-ic10" transform="translate(0 0)">
    <path id="Path_151025" data-name="Path 151025" d="M189.614,53.62a14.276,14.276,0,0,0,2.883-.331l3.337-7.8c.169-.395.446-.395.615,0l2.075,4.847a14.249,14.249,0,0,0-5.885-24.849,14.252,14.252,0,1,0-27.507,0,14.276,14.276,0,0,0-8.931,6.429l4.992,7.9c.23.363.066.66-.364.66h-3.289c-.43,0-.6.3-.376.668l6.154,10.137,2.478-5.789c.169-.395.446-.395.615,0l5.53,12.921a11.662,11.662,0,0,0,17.674-4.792Zm0,0" transform="translate(-131.793 -6.328)" fill="#fff600"/>
    <path id="Path_151026" data-name="Path 151026" d="M58.393,152.294l-1.729-2.923c-.219-.37-.046-.673.383-.673h2.884l.572-1.337L54.35,137.224c-.223-.367-.054-.668.376-.668h3.289c.43,0,.594-.3.364-.66L49.37,121.647a.456.456,0,0,0-.835,0L39.527,135.9c-.229.363-.066.66.364.66H43.18c.43,0,.6.3.375.668L37,148.03c-.223.367-.054.668.375.668h3.487c.43,0,.6.3.383.673l-6.8,11.5c-.219.37-.046.673.384.673H54.434Zm0,0" transform="translate(-28.98 -102.409)" fill="#00dbb6"/>
    <path id="Path_151027" data-name="Path 151027" d="M173.788,272.939a.479.479,0,0,0,.474-.718l-9.919-23.176c-.169-.395-.446-.395-.615,0l-9.92,23.176a.479.479,0,0,0,.474.718Zm0,0" transform="translate(-129.726 -209.881)" fill="#009e83"/>
    <path id="Path_151028" data-name="Path 151028" d="M366.038,272.939a.479.479,0,0,0,.474-.718l-9.919-23.176c-.169-.395-.446-.395-.615,0l-9.92,23.176a.479.479,0,0,0,.474.718Zm0,0" transform="translate(-291.937 -209.881)" fill="#00dbb6"/>
    <path id="Path_151029" data-name="Path 151029" d="M302.621,53.236l-1.466-1.465a1.172,1.172,0,1,0-1.657,1.657l1.466,1.465a1.172,1.172,0,0,0,1.657-1.657Zm0,0" transform="translate(-252.411 -43.392)"/>
    <path id="Path_151030" data-name="Path 151030" d="M316.44,109.068a1.172,1.172,0,1,0,1.657-1.657l-1.465-1.466a1.172,1.172,0,1,0-1.658,1.657Zm0,0" transform="translate(-265.47 -89.101)"/>
    <path id="Path_151031" data-name="Path 151031" d="M248.638,115.9a1.171,1.171,0,0,0,0,1.657l1.465,1.466a1.172,1.172,0,0,0,1.658-1.657L250.3,115.9A1.172,1.172,0,0,0,248.638,115.9Zm0,0" transform="translate(-209.498 -97.497)"/>
    <path id="Path_151032" data-name="Path 151032" d="M383.884,174.3a1.172,1.172,0,1,0,1.657-1.658l-1.465-1.465a1.172,1.172,0,0,0-1.658,1.657Zm0,0" transform="translate(-322.375 -144.141)"/>
    <path id="Path_151033" data-name="Path 151033" d="M221.549,178.346A1.172,1.172,0,0,0,219.892,180l1.466,1.466a1.172,1.172,0,1,0,1.657-1.657Zm0,0" transform="translate(-185.244 -150.19)"/>
    <path id="Path_151034" data-name="Path 151034" d="M371.361,230.88a1.171,1.171,0,0,0,0,1.657L372.827,234a1.172,1.172,0,1,0,1.657-1.657l-1.465-1.466A1.172,1.172,0,0,0,371.361,230.88Zm0,0" transform="translate(-313.046 -194.515)"/>
    <path id="Path_151035" data-name="Path 151035" d="M78.828,69.62H65.192V64.23H74.1a1.644,1.644,0,0,0,1.552-2.351L73,55.678a1.172,1.172,0,0,0-2.155.922l2.263,5.286H65.192V57.442a1.172,1.172,0,1,0-2.344,0v4.444H55.59l8.759-20.462,4.222,9.863a1.172,1.172,0,0,0,2.155-.922L68.14,44.327c.157-.145.312-.293.463-.446a15.419,15.419,0,0,0,1.043-20.5,15.515,15.515,0,0,0-7.407-5.051,15.4,15.4,0,0,0,.276-2.9,1.172,1.172,0,0,0-2.344,0,13.123,13.123,0,0,1-.457,3.431,1.171,1.171,0,0,0,.867,1.448,13.141,13.141,0,0,1,7.24,4.546,13.067,13.067,0,0,1-.674,17.159L65.733,38.7a1.456,1.456,0,0,0-2.77,0l-3.092,7.225a13.108,13.108,0,0,1-2.066.193,1.171,1.171,0,0,0-1.062.712,10.479,10.479,0,0,1-8.48,6.31V39.664l5.616-5.617a1.172,1.172,0,1,0-1.657-1.657l-3.959,3.959V30.54a1.172,1.172,0,1,0-2.344,0V44.295l-3.787-3.787a1.172,1.172,0,0,0-1.657,1.658L45.92,47.61v5.533A10.471,10.471,0,0,1,41.1,51.33L35.694,38.7a1.456,1.456,0,0,0-2.77,0L31.344,42.4l-4.3-7.078h1.988a1.553,1.553,0,0,0,1.354-2.458L25.8,25.6c.178-.256.363-.508.562-.753A13.138,13.138,0,0,1,33.6,20.3a1.172,1.172,0,0,0,.868-1.448,13.082,13.082,0,0,1,24.739-8.367,1.172,1.172,0,0,0,2.17-.885,15.425,15.425,0,0,0-29.435,8.724,15.519,15.519,0,0,0-7.407,5.051c-.027.034-.052.068-.078.1l-3.078-4.869a1.622,1.622,0,0,0-2.817,0L9.557,32.861a1.553,1.553,0,0,0,1.354,2.459H12.9L7.014,45.013A1.562,1.562,0,0,0,8.393,47.46h2.213l-6.152,10.4A1.569,1.569,0,0,0,5.846,60.3h5.717a1.172,1.172,0,0,0,0-2.344H7.119l6.152-10.4a1.568,1.568,0,0,0-1.392-2.44H9.693l5.885-9.694A1.562,1.562,0,0,0,14.2,32.975H12.257L19.973,20.77l7.717,12.205H25.746a1.562,1.562,0,0,0-1.378,2.448l5.841,9.623-.031.071H28.068a1.569,1.569,0,0,0-1.392,2.441L28.1,49.969l-3.42,7.991H17.188a1.172,1.172,0,0,0,0,2.344h1.367V69.62H1.172a1.172,1.172,0,1,0,0,2.344H78.828a1.172,1.172,0,0,0,0-2.344ZM58.583,48.437c.074,0,.147-.011.221-.016l-5.76,13.458a1.644,1.644,0,0,0,1.552,2.351h8.253v5.39H48.264V55.5a12.82,12.82,0,0,0,10.319-7.06ZM45.92,55.5V69.62H35.153V64.23h8.909a1.644,1.644,0,0,0,1.552-2.351L42.55,54.722a12.8,12.8,0,0,0,3.37.776ZM34.309,41.424l8.758,20.462H35.153V57.442a1.172,1.172,0,1,0-2.344,0v4.444H25.551ZM20.9,60.3h2.78L23,61.879a1.644,1.644,0,0,0,1.552,2.351h8.253v5.39H20.9Zm0,0" transform="translate(0 0)"/>
  </g>
</svg>
