<svg xmlns="http://www.w3.org/2000/svg" width="80" height="80" viewBox="0 0 80 80">
  <g id="t5-ic8" transform="translate(-0.001)">
    <path id="Path_152627" data-name="Path 152627" d="M28.126,49H15a5,5,0,0,0-5,5v60.781a5,5,0,0,0,5,5H68.126a5,5,0,0,0,5-5V54a5,5,0,0,0-5-5h-40Z" transform="translate(-8.438 -41.345)" fill="#fff"/>
    <g id="Group_97316" data-name="Group 97316" transform="translate(11.876 1.563)">
      <path id="Path_152628" data-name="Path 152628" d="M144.24,13.438h-8.721a4.687,4.687,0,0,0-9.035,0h-8.725A1.758,1.758,0,0,0,116,15.2v7.3h30V15.2A1.758,1.758,0,0,0,144.24,13.438Z" transform="translate(-109.751 -10)" fill="#00dbb6"/>
      <rect id="Rectangle_33319" data-name="Rectangle 33319" width="7.5" height="7.5" transform="translate(0 57.5)" fill="#fcf300"/>
    </g>
    <path id="Path_152629" data-name="Path 152629" d="M384.387,313.94h0a8.4,8.4,0,0,1-8.4-8.4V298h16.8v7.538A8.4,8.4,0,0,1,384.387,313.94Z" transform="translate(-317.239 -251.44)" fill="#ff8628"/>
    <g id="Group_97317" data-name="Group 97317" transform="translate(58.749 46.641)">
      <rect id="Rectangle_33320" data-name="Rectangle 33320" width="16.798" height="6.319" transform="translate(0)" fill="#ffefd5"/>
      <path id="Path_152630" data-name="Path 152630" d="M384.388,400h0a8.4,8.4,0,0,1,8.4,8.4v7.538h-16.8V408.4A8.4,8.4,0,0,1,384.388,400Z" transform="translate(-375.989 -384.142)" fill="#ffefd5"/>
    </g>
    <rect id="Rectangle_33321" data-name="Rectangle 33321" width="16.798" height="6.319" transform="translate(58.749 72.197)" fill="#ff8628"/>
    <path id="Path_152631" data-name="Path 152631" d="M405.564,241a1.563,1.563,0,1,0,1.1.458A1.574,1.574,0,0,0,405.564,241Z" transform="translate(-340.875 -203.345)"/>
    <path id="Path_152632" data-name="Path 152632" d="M267.975,152H253.236a1.562,1.562,0,1,0,0,3.125h14.739a1.562,1.562,0,1,0,0-3.125Z" transform="translate(-212.349 -128.25)"/>
    <path id="Path_152633" data-name="Path 152633" d="M203.563,155.126a1.563,1.563,0,1,0-1.1-.458A1.573,1.573,0,0,0,203.563,155.126Z" transform="translate(-170.438 -128.251)"/>
    <path id="Path_152634" data-name="Path 152634" d="M203.553,43a1.563,1.563,0,1,0,1.1.458A1.573,1.573,0,0,0,203.553,43Z" transform="translate(-170.429 -36.282)"/>
    <path id="Path_152635" data-name="Path 152635" d="M227.47,201.563A1.563,1.563,0,0,0,225.907,200H203.563a1.563,1.563,0,0,0,0,3.125h22.344A1.563,1.563,0,0,0,227.47,201.563Z" transform="translate(-170.438 -168.75)"/>
    <path id="Path_152636" data-name="Path 152636" d="M221.272,260H203.563a1.563,1.563,0,0,0,0,3.125h17.708a1.563,1.563,0,0,0,0-3.125Z" transform="translate(-170.438 -219.375)"/>
    <path id="Path_152637" data-name="Path 152637" d="M221.272,308H203.563a1.563,1.563,0,0,0,0,3.125h17.708a1.563,1.563,0,0,0,0-3.125Z" transform="translate(-170.438 -259.875)"/>
    <path id="Path_152638" data-name="Path 152638" d="M221.272,368H203.563a1.562,1.562,0,1,0,0,3.125h17.708a1.562,1.562,0,1,0,0-3.125Z" transform="translate(-170.438 -310.5)"/>
    <path id="Path_152639" data-name="Path 152639" d="M221.272,416H203.563a1.563,1.563,0,0,0,0,3.125h17.708a1.563,1.563,0,0,0,0-3.125Z" transform="translate(-170.438 -351)"/>
    <path id="Path_152640" data-name="Path 152640" d="M74.878,258.625a1.563,1.563,0,0,0-2.21,0l-6.682,6.682-2.058-2.059a1.563,1.563,0,0,0-2.21,2.21l3.163,3.163a1.562,1.562,0,0,0,2.21,0l7.787-7.786A1.562,1.562,0,0,0,74.878,258.625Z" transform="translate(-51.687 -217.829)"/>
    <path id="Path_152641" data-name="Path 152641" d="M74.878,147.529a1.563,1.563,0,0,0-2.21,0l-6.682,6.682-2.058-2.058a1.563,1.563,0,0,0-2.21,2.21l3.163,3.163a1.562,1.562,0,0,0,2.21,0l7.787-7.786A1.562,1.562,0,0,0,74.878,147.529Z" transform="translate(-51.687 -124.092)"/>
    <path id="Path_152642" data-name="Path 152642" d="M67.563,368A1.563,1.563,0,0,0,66,369.563v7.5a1.563,1.563,0,0,0,1.562,1.563h7.5a1.563,1.563,0,0,0,1.562-1.563v-7.5A1.563,1.563,0,0,0,75.063,368Zm5.938,7.5H69.126v-4.375H73.5Z" transform="translate(-55.687 -310.5)"/>
    <path id="Path_152643" data-name="Path 152643" d="M78.439,76.875H77.11V70.9a9.961,9.961,0,0,0-4.616-8.4,9.961,9.961,0,0,0,4.616-8.4V48.125h1.328a1.563,1.563,0,0,0,0-3.125H55.858a1.563,1.563,0,1,0,0,3.125h1.328V54.1A9.961,9.961,0,0,0,61.8,62.5a9.961,9.961,0,0,0-4.616,8.4v5.976H6.563a3.441,3.441,0,0,1-3.438-3.437V12.656A3.441,3.441,0,0,1,6.563,9.219h10v4.844a1.563,1.563,0,0,0,1.563,1.562h30a1.563,1.563,0,0,0,1.563-1.562V9.219h10a3.441,3.441,0,0,1,3.438,3.437V32.813a1.562,1.562,0,1,0,3.125,0V12.656a6.57,6.57,0,0,0-6.563-6.562H49.618a3.326,3.326,0,0,0-3.254-2.656H38.707a6.249,6.249,0,0,0-11.162,0H19.884A3.326,3.326,0,0,0,16.63,6.094H6.563A6.57,6.57,0,0,0,0,12.656V73.438A6.57,6.57,0,0,0,6.563,80H78.439a1.562,1.562,0,0,0,0-3.125ZM19.688,6.758a.2.2,0,0,1,.2-.2h8.725a1.563,1.563,0,0,0,1.506-1.147,3.125,3.125,0,0,1,6.023,0,1.563,1.563,0,0,0,1.506,1.147h8.721a.2.2,0,0,1,.2.2V12.5H19.688Zm54.3,44.561H60.311V48.125H73.985ZM60.32,54.444H73.976a6.837,6.837,0,0,1-13.656,0ZM73.976,70.556H60.32a6.837,6.837,0,0,1,13.656,0ZM60.311,76.875V73.681H73.985v3.194Z" transform="translate(0)"/>
  </g>
</svg>
