<svg xmlns="http://www.w3.org/2000/svg" width="80" height="80.007" viewBox="0 0 80 80.007">
  <g id="t5-ic5" transform="translate(-2 -2)">
    <g id="Stroke_copy" data-name="Stroke copy" transform="translate(3.328 3.334)">
      <g id="Group_96866" data-name="Group 96866">
        <g id="Group_96863" data-name="Group 96863" transform="translate(7.977)">
          <path id="Path_151508" data-name="Path 151508" d="M63.34,25.668a4,4,0,0,0-4-4c-.063,0-.121.016-.183.019a5.325,5.325,0,0,0-1.4-2.477,5.264,5.264,0,0,0,.253-1.541,5.333,5.333,0,0,0-7.369-4.927,3.984,3.984,0,0,0-7.067.951c-.08,0-.156-.024-.237-.024a5.32,5.32,0,0,0-4.387,2.31,3.991,3.991,0,0,0-3.606-2.31c-.081,0-.157.019-.237.024A3.991,3.991,0,0,0,27.34,15c0,.063.016.121.019.183a5.307,5.307,0,0,0-2.305,1.255,4,4,0,1,0-1.223,6.1,5.295,5.295,0,0,0,8.917,1.2,5.3,5.3,0,0,0,10.267,1.031,5.248,5.248,0,0,0,6.859,1.561A5.325,5.325,0,0,0,51.8,27.846a3.943,3.943,0,0,0,1.408,5.2A3.96,3.96,0,0,0,52.674,35a4,4,0,1,0,6.133-3.373,3.96,3.96,0,0,0,.533-1.96,4,4,0,0,0,4-4Z" transform="translate(-5.979 -0.335)" fill="#656b76"/>
          <path id="Path_151509" data-name="Path 151509" d="M59.339,32.629a4,4,0,0,1-4-4,3.96,3.96,0,0,1,.533-1.96,3.943,3.943,0,0,1-1.408-5.2,5.325,5.325,0,0,1-1.925-1.507A5.248,5.248,0,0,1,45.682,18.4a5.3,5.3,0,0,1-10.267-1.031,5.295,5.295,0,0,1-8.917-1.2,3.955,3.955,0,0,1-5.531-2.053A3.988,3.988,0,1,0,23.832,21.5a5.295,5.295,0,0,0,8.917,1.2,5.3,5.3,0,0,0,10.267,1.031A5.248,5.248,0,0,0,49.873,25.3,5.325,5.325,0,0,0,51.8,26.806a3.943,3.943,0,0,0,1.408,5.2,3.96,3.96,0,0,0-.533,1.956,4,4,0,1,0,8,0,3.881,3.881,0,0,0-.32-1.479A3.975,3.975,0,0,1,59.339,32.629Z" transform="translate(-5.978 0.705)" fill="#464a51"/>
          <path id="Path_151510" data-name="Path 151510" d="M69.666,71H35l.572-1.431A103.851,103.851,0,0,0,43,31H61.667a103.85,103.85,0,0,0,7.428,38.568Z" transform="translate(-0.305 6.333)" fill="#93999a"/>
          <path id="Path_151511" data-name="Path 151511" d="M65.893,60.318A10.6,10.6,0,0,1,55.8,51.943,103.733,103.733,0,0,1,53.667,31H43a103.85,103.85,0,0,1-7.428,38.568L35,71H69.666l-.572-1.431q-1.828-4.553-3.2-9.251Z" transform="translate(-0.305 6.333)" fill="#656b76"/>
          <path id="Path_151512" data-name="Path 151512" d="M41,25H59.667v8H41Z" transform="translate(1.695 4.333)" fill="#fcf300"/>
          <path id="Path_151513" data-name="Path 151513" d="M41,25H51.667v8H41Z" transform="translate(1.695 4.333)" fill="#d9b800"/>
          <path id="Path_151514" data-name="Path 151514" d="M54.34,17.667a4,4,0,0,0-4-4c-.063,0-.121.016-.183.019a5.325,5.325,0,0,0-1.4-2.477,5.264,5.264,0,0,0,.253-1.541A5.333,5.333,0,0,0,41.638,4.74a3.984,3.984,0,0,0-7.06.951c-.08,0-.156-.024-.237-.024a5.32,5.32,0,0,0-4.387,2.31,3.991,3.991,0,0,0-3.613-2.31c-.081,0-.157.019-.237.024A3.991,3.991,0,0,0,18.34,7c0,.063.016.121.019.183a5.307,5.307,0,0,0-2.305,1.255,4,4,0,1,0-1.223,6.1,5.295,5.295,0,0,0,8.917,1.2,5.3,5.3,0,0,0,10.267,1.031,5.248,5.248,0,0,0,6.859,1.561A5.325,5.325,0,0,0,42.8,19.844a3.943,3.943,0,0,0,1.408,5.2A3.96,3.96,0,0,0,43.674,27a4,4,0,1,0,6.133-3.373,3.96,3.96,0,0,0,.533-1.96,4,4,0,0,0,4-4Z" transform="translate(-8.979 -3)" fill="#d0d8da"/>
          <path id="Path_151515" data-name="Path 151515" d="M50.339,24.629a4,4,0,0,1-4-4,3.96,3.96,0,0,1,.533-1.96,3.943,3.943,0,0,1-1.408-5.2,5.325,5.325,0,0,1-1.925-1.507A5.248,5.248,0,0,1,36.682,10.4,5.3,5.3,0,0,1,26.415,9.367a5.295,5.295,0,0,1-8.917-1.2,3.955,3.955,0,0,1-5.531-2.053A3.988,3.988,0,1,0,14.832,13.5a5.295,5.295,0,0,0,8.917,1.2,5.3,5.3,0,0,0,10.267,1.031A5.248,5.248,0,0,0,40.873,17.3,5.325,5.325,0,0,0,42.8,18.806a3.943,3.943,0,0,0,1.408,5.2,3.96,3.96,0,0,0-.533,1.956,4,4,0,0,0,8,0,3.881,3.881,0,0,0-.32-1.479,3.975,3.975,0,0,1-1.013.145Z" transform="translate(-8.978 -1.962)" fill="#93999a"/>
          <path id="Path_151516" data-name="Path 151516" d="M62.666,72.333H20l1.253-3.761A131.437,131.437,0,0,0,28,27H54.666a131.44,131.44,0,0,0,6.747,41.574Z" transform="translate(-5.305 5)" fill="#d0d8da"/>
          <path id="Path_151517" data-name="Path 151517" d="M26,20H52.666v9.333H26Z" transform="translate(-3.305 2.666)" fill="#fcf300"/>
          <path id="Path_151518" data-name="Path 151518" d="M60.094,64.333H44.133A10.636,10.636,0,0,1,33.644,51.752,131.151,131.151,0,0,0,36,27H28a131.44,131.44,0,0,1-6.747,41.574L20,72.333H62.666l-1.253-3.761c-.469-1.405-.9-2.82-1.319-4.239Z" transform="translate(-5.305 5)" fill="#93999a"/>
          <path id="Path_151519" data-name="Path 151519" d="M26,20h8v9.333H26Z" transform="translate(-3.305 2.666)" fill="#d9b800"/>
        </g>
        <g id="Group_96865" data-name="Group 96865" transform="translate(0 32.205)">
          <path id="Path_151532" data-name="Path 151532" d="M22.535,0A22.535,22.535,0,1,1,0,22.535,22.535,22.535,0,0,1,22.535,0Z" transform="translate(0.244 0)" fill="#fcf300"/>
          <path id="Path_151520" data-name="Path 151520" d="M36.334,64A22.637,22.637,0,0,1,18.019,28.014,22.652,22.652,0,1,0,43.984,62.643,22.559,22.559,0,0,1,36.334,64Z" transform="translate(-2.996 -26.868)" fill="#d9b800"/>
          <g id="Group_96864" data-name="Group 96864" transform="translate(5.338 7.46)">
            <circle id="Ellipse_4408" data-name="Ellipse 4408" cx="2.62" cy="2.62" r="2.62" transform="translate(14.82 12.454)" fill="#656b76"/>
            <path id="Path_151521" data-name="Path 151521" d="M20.333,40.827,15.667,32.75A17.312,17.312,0,0,0,7,47.75h9.333a7.989,7.989,0,0,1,4-6.923Z" transform="translate(-7 -32.749)" fill="#656b76"/>
            <path id="Path_151522" data-name="Path 151522" d="M22.167,50.269a7.953,7.953,0,0,1-4-1.077L13.5,57.269a17.237,17.237,0,0,0,17.32,0l-4.653-8.077a7.953,7.953,0,0,1-4,1.077Z" transform="translate(-4.833 -27.269)" fill="#656b76"/>
            <path id="Path_151523" data-name="Path 151523" d="M27.667,32.75,23,40.827a7.988,7.988,0,0,1,4,6.923h9.333a17.312,17.312,0,0,0-8.668-15Z" transform="translate(-1.667 -32.75)" fill="#656b76"/>
          </g>
          <path id="Path_151524" data-name="Path 151524" d="M13.787,47.249H7a17.318,17.318,0,0,1,5.877-13,22.892,22.892,0,0,0-.544,5,22.472,22.472,0,0,0,1.453,8Z" transform="translate(-1.662 -24.788)" fill="#464a51"/>
          <path id="Path_151525" data-name="Path 151525" d="M30.817,56.883a17.212,17.212,0,0,1-17.307,0l3.76-6.533a22.412,22.412,0,0,0,13.293,6.08Z" transform="translate(0.508 -19.423)" fill="#464a51"/>
        </g>
      </g>
    </g>
    <g id="Stroke_Cut_copy_2" data-name="Stroke Cut copy 2" transform="translate(2 1.999)">
      <g id="Group_96867" data-name="Group 96867">
        <path id="Path_151526" data-name="Path 151526" d="M81.9,80.172l-.572-1.431A102.068,102.068,0,0,1,74,40.667v-8a1.333,1.333,0,0,0-1.333-1.333H69.258A5.279,5.279,0,0,0,70,28.667a5.343,5.343,0,0,0-4.548-5.276,6.585,6.585,0,0,0-.908-1.54,5.944,5.944,0,0,0,.123-1.184,6.625,6.625,0,0,0-2.615-5.295,1.334,1.334,0,0,0-1.623,2.117A3.873,3.873,0,0,1,61.8,21.819a1.333,1.333,0,0,0,.336,1.333,3.983,3.983,0,0,1,1.052,1.859,1.316,1.316,0,0,0,1.348,1c.072,0,.143-.012.125-.017a2.667,2.667,0,1,1,0,5.333H62V26a1.333,1.333,0,0,0-1.333-1.333h-6.1a5.324,5.324,0,0,0-.811-1.1c.04-.123.073-.245.1-.371a5.333,5.333,0,0,0-.4-10.475,6.586,6.586,0,0,0-.908-1.54A5.944,5.944,0,0,0,52.666,10,6.675,6.675,0,0,0,46,3.333a6.569,6.569,0,0,0-1.6.2,5.316,5.316,0,0,0-8.757,2.056,1.334,1.334,0,1,0,2.519.877,2.649,2.649,0,0,1,4.7-.635,1.333,1.333,0,0,0,1.609.477A4,4,0,0,1,50,10a3.949,3.949,0,0,1-.195,1.152,1.333,1.333,0,0,0,.336,1.333,3.983,3.983,0,0,1,1.052,1.859,1.312,1.312,0,0,0,1.348,1c.072,0,.143-.012.125-.017a2.667,2.667,0,1,1,0,5.333,1.333,1.333,0,0,0-1.333,1.333,2.613,2.613,0,0,1-.36,1.3,1.333,1.333,0,0,0,.043,1.371H47.65a1.313,1.313,0,0,0-.4-.42A2.652,2.652,0,0,1,46,22a2.616,2.616,0,0,1,.311-1.211,1.334,1.334,0,0,0-.629-1.825,3.965,3.965,0,0,1-1.443-1.135,1.333,1.333,0,0,0-1.675-.335,3.939,3.939,0,0,1-5.14-1.172,1.333,1.333,0,0,0-2.34.335,3.971,3.971,0,0,1-7.689-.771,1.333,1.333,0,0,0-2.344-.667,3.96,3.96,0,0,1-6.68-.895,1.333,1.333,0,0,0-1.824-.632,2.667,2.667,0,1,1,.815-4.06,1.333,1.333,0,0,0,1.927.117,3.988,3.988,0,0,1,1.733-.933,1.333,1.333,0,0,0,1-1.351A.411.411,0,0,0,22,7.333a2.657,2.657,0,0,1,5.171-.871,1.316,1.316,0,0,0,1.347.892c.032,0,.117-.017.149-.021a2.641,2.641,0,0,1,2.4,1.543A1.333,1.333,0,0,0,33.48,7.741a5.361,5.361,0,0,0-4.2-3.037,5.321,5.321,0,0,0-9.9,1.847,6.771,6.771,0,0,0-.925.483A5.276,5.276,0,0,0,15.333,6a5.333,5.333,0,1,0,0,10.667,5.118,5.118,0,0,0,1.236-.152A6.667,6.667,0,0,0,22,19.333a6.509,6.509,0,0,0,.759-.052A5.271,5.271,0,0,0,22,22a5.333,5.333,0,0,0,5.333,5.333,5.118,5.118,0,0,0,1.236-.152,6.681,6.681,0,0,0,4.1,2.666v5.085A24,24,0,0,0,3.948,67.466a1.333,1.333,0,0,0,1.225.807,1.319,1.319,0,0,0,.533-.109A1.333,1.333,0,0,0,6.4,66.418,21.317,21.317,0,0,1,43.066,45.248a1.333,1.333,0,1,0,2.133-1.6,23.973,23.973,0,0,0-9.867-7.768V27.333h24V34H42a1.333,1.333,0,0,0,0,2.667H59.34a132.489,132.489,0,0,0,6.808,40.666l.667,2.007H42a1.333,1.333,0,0,0,0,2.667H68.666a1.333,1.333,0,0,0,1.264-1.755l-1.253-3.763A129.874,129.874,0,0,1,62,35.333V34h9.333v5.333H66.109a1.333,1.333,0,0,0,0,2.667h5.232A104.666,104.666,0,0,0,78.7,79.333H74A1.333,1.333,0,0,0,74,82h6.667A1.333,1.333,0,0,0,81.9,80.172ZM34,24.667A1.333,1.333,0,0,0,32.666,26v1.091a4.013,4.013,0,0,1-2.3-2.1,1.333,1.333,0,0,0-1.824-.632,2.645,2.645,0,1,1-2.295-4.764,6.592,6.592,0,0,0,10.4-.28,6.639,6.639,0,0,0,6.225.959,7.018,7.018,0,0,0,.6.489A5.067,5.067,0,0,0,43.333,22a5.263,5.263,0,0,0,.744,2.667Z" transform="translate(-2 -1.999)"/>
        <path id="Path_151527" data-name="Path 151527" d="M48.866,46.568A23.824,23.824,0,0,0,46.918,37.1a1.334,1.334,0,1,0-2.451,1.053A21.317,21.317,0,0,1,7.8,59.32a1.333,1.333,0,1,0-2.133,1.6,23.979,23.979,0,0,0,43.2-14.352Z" transform="translate(-0.867 9.432)"/>
        <path id="Path_151528" data-name="Path 151528" d="M17,45a4,4,0,1,0,4-4A4,4,0,0,0,17,45Zm5.333,0A1.333,1.333,0,1,1,21,43.667,1.333,1.333,0,0,1,22.333,45Z" transform="translate(3 11)"/>
        <path id="Path_151529" data-name="Path 151529" d="M17.161,32.417a1.333,1.333,0,0,0-1.828-.487A18.728,18.728,0,0,0,6,48.084a1.333,1.333,0,0,0,1.333,1.333h9.333A1.333,1.333,0,0,0,18,48.084a6.691,6.691,0,0,1,3.333-5.769,1.333,1.333,0,0,0,.487-1.82ZM15.429,46.75H8.723a16.076,16.076,0,0,1,6.824-11.8l3.349,5.8a9.391,9.391,0,0,0-3.467,5.993Z" transform="translate(-0.667 7.917)"/>
        <path id="Path_151530" data-name="Path 151530" d="M26.842,48.239a1.333,1.333,0,0,0-1.013.133,6.732,6.732,0,0,1-6.659,0,1.333,1.333,0,0,0-1.823.487l-4.667,8.077a1.333,1.333,0,0,0,.485,1.82,18.567,18.567,0,0,0,18.656,0,1.333,1.333,0,0,0,.487-1.82l-4.667-8.077A1.333,1.333,0,0,0,26.842,48.239ZM15.689,57.068l3.344-5.8a9.4,9.4,0,0,0,6.925,0l3.348,5.8a16.115,16.115,0,0,1-13.617,0Z" transform="translate(1.501 13.398)"/>
        <path id="Path_151531" data-name="Path 151531" d="M38,48.083A18.728,18.728,0,0,0,28.667,31.93a1.333,1.333,0,0,0-1.823.487l-4.667,8.077a1.333,1.333,0,0,0,.487,1.82A6.691,6.691,0,0,1,26,48.083a1.333,1.333,0,0,0,1.333,1.333h9.333A1.333,1.333,0,0,0,38,48.083ZM28.571,46.75A9.391,9.391,0,0,0,25.1,40.757l3.349-5.8a16.076,16.076,0,0,1,6.824,11.8Z" transform="translate(4.666 7.917)"/>
      </g>
    </g>
  </g>
</svg>
