<svg xmlns="http://www.w3.org/2000/svg" width="80" height="63.218" viewBox="0 0 80 63.218">
  <g id="t5-ic1" transform="translate(0 -53.704)">
    <g id="Group_96844" data-name="Group 96844" transform="translate(1.174 54.878)">
      <path id="Path_151448" data-name="Path 151448" d="M7.511,156.773H82.59a3.19,3.19,0,0,1,2.578,2.578v40.788a3.2,3.2,0,0,1-2.578,2.578H14.974a7.465,7.465,0,0,1-7.463-7.468V156.773Z" transform="translate(-7.511 -141.843)" fill="#fefdd2" fill-rule="evenodd"/>
      <path id="Path_151449" data-name="Path 151449" d="M14.974,61.218a7.461,7.461,0,0,0-7.463,7.463v45.943a7.461,7.461,0,0,1,7.463-7.463,6.973,6.973,0,0,1,3.7.979.519.519,0,0,0,.8-.487V63.676a1.816,1.816,0,0,0-.908-1.541,7.384,7.384,0,0,0-3.592-.917Z" transform="translate(-7.511 -61.218)" fill="#fefdd2" fill-rule="evenodd"/>
      <path id="Path_151450" data-name="Path 151450" d="M125.151,195.041H136.3a1.144,1.144,0,0,1,1.138,1.138v11.148a1.141,1.141,0,0,1-1.138,1.138H125.151a1.137,1.137,0,0,1-1.134-1.138V196.179A1.14,1.14,0,0,1,125.151,195.041Z" transform="translate(-105.813 -174.131)" fill="#00dbb6" fill-rule="evenodd"/>
      <path id="Path_151451" data-name="Path 151451" d="M410.385,107.425l-5.231-1.59-4.783,1.59v37.329l5.036,1.311,4.978-1.311Z" transform="translate(-338.987 -98.864)" fill="#fff600" fill-rule="evenodd"/>
      <path id="Path_151452" data-name="Path 151452" d="M406.009,363.53l1.873-3.685,2.5-4.93H400.371l2.5,4.93,1.874,3.685A.687.687,0,0,0,406.009,363.53Z" transform="translate(-338.987 -309.025)" fill="#ffcbbe" fill-rule="evenodd"/>
      <path id="Path_151453" data-name="Path 151453" d="M410.385,69.779v-5.5a3.07,3.07,0,0,0-3.061-3.06h-3.889a3.071,3.071,0,0,0-3.065,3.06v5.5Z" transform="translate(-338.987 -61.218)" fill="#ff8628" fill-rule="evenodd"/>
      <path id="Path_151454" data-name="Path 151454" d="M117.63,378.216h7.636l1.253-4.146-1.253-3.224H117.63a2.375,2.375,0,0,0-1.918,1.922v3.53A2.375,2.375,0,0,0,117.63,378.216Z" transform="translate(-98.806 -322.467)" fill="#ff8628" fill-rule="evenodd"/>
      <path id="Path_151455" data-name="Path 151455" d="M176.856,335.834h9.558l1.307-4.713-1.307-7.25v-1.333a2.375,2.375,0,0,0-1.922-1.922h-5.714a2.375,2.375,0,0,0-1.922,1.922v13.3Z" transform="translate(-150.396 -280.085)" fill="#009e83" fill-rule="evenodd"/>
      <path id="Path_151456" data-name="Path 151456" d="M238.028,353.414h9.554l.966-3.176-.966-4.194v-2.675a2.375,2.375,0,0,0-1.922-1.918h-7.632Z" transform="translate(-202.01 -297.665)" fill="#ff8628" fill-rule="evenodd"/>
      <path id="Path_151457" data-name="Path 151457" d="M299.172,378.216h7.636a2.375,2.375,0,0,0,1.918-1.918v-3.53a2.375,2.375,0,0,0-1.918-1.922h-7.636Z" transform="translate(-253.6 -322.467)" fill="#009e83" fill-rule="evenodd"/>
      <path id="Path_151458" data-name="Path 151458" d="M82.268,198.925H14.652a7.43,7.43,0,0,1-3.03-.642,7.46,7.46,0,0,0,6.821,4.433H86.059a3.2,3.2,0,0,0,2.578-2.578V159.351a3.19,3.19,0,0,0-2.578-2.578H84.845v39.574A3.2,3.2,0,0,1,82.268,198.925Z" transform="translate(-10.98 -141.843)" fill="#fefba6" fill-rule="evenodd"/>
      <path id="Path_151459" data-name="Path 151459" d="M45.772,76.148v31.039a6.754,6.754,0,0,1,2.994.952.519.519,0,0,0,.8-.487V63.676a1.816,1.816,0,0,0-.908-1.541,7.386,7.386,0,0,0-3.592-.917,7.6,7.6,0,0,0-1.891.239,7.6,7.6,0,0,1,1.692.678,1.816,1.816,0,0,1,.908,1.541V76.148Z" transform="translate(-37.6 -61.218)" fill="#fefba6" fill-rule="evenodd"/>
      <path id="Path_151460" data-name="Path 151460" d="M440.2,116.011V153.34h3.791V116.011Z" transform="translate(-372.591 -107.45)" fill="#d1ca00" fill-rule="evenodd"/>
      <path id="Path_151461" data-name="Path 151461" d="M423.646,64.278v5.5h3.791v-5.5a3.07,3.07,0,0,0-3.061-3.06h-3.8A3.071,3.071,0,0,1,423.646,64.278Z" transform="translate(-356.039 -61.218)" fill="#ff8628" fill-rule="evenodd" style="mix-blend-mode: multiply;isolation: isolate"/>
    </g>
    <path id="Path_151462" data-name="Path 151462" d="M71.4,62.27V57.939a1.905,1.905,0,0,0-1.891-1.891H65.623a1.9,1.9,0,0,0-1.891,1.891V62.27H71.4ZM22.416,83.331a1.171,1.171,0,1,1,1.657-1.657l1.068,1.068L28.1,79.774a1.173,1.173,0,0,1,1.657,1.661l-3.791,3.791a1.174,1.174,0,0,1-1.657,0ZM66.394,69.809a1.171,1.171,0,1,1,2.343,0V94.4a1.171,1.171,0,1,1-2.343,0Zm-18.474,39.65H55.13v-5.027H47.919ZM56.3,111.8H18.08a1.176,1.176,0,0,1-1.174-1.174v-7.37a1.172,1.172,0,0,1,1.174-1.169h8.385V95.409a1.168,1.168,0,0,1,1.169-1.169h9.558a1.168,1.168,0,0,1,1.169,1.169v2.082h8.384a1.176,1.176,0,0,1,1.174,1.174v3.424H56.3a1.172,1.172,0,0,1,1.174,1.169v7.37A1.176,1.176,0,0,1,56.3,111.8Zm-17.938-2.343h7.211v-9.62H38.361Zm-9.554,0h7.211V96.583H28.808Zm-9.558,0h7.215v-5.027H19.249ZM14.306,68.635H61.384v-10.7A4.249,4.249,0,0,1,65.623,53.7h3.889a4.249,4.249,0,0,1,4.234,4.234v10.7h5.085A1.172,1.172,0,0,1,80,69.809v45.943a1.168,1.168,0,0,1-1.169,1.169H46.387a1.172,1.172,0,0,1,0-2.343h31.27v-43.6H73.746v8.473a1.172,1.172,0,1,1-2.343,0V64.613H63.731V99.6H71.4V84.761a1.172,1.172,0,1,1,2.343,0v16.007a1.243,1.243,0,0,1-.2.664l-4.934,9.718a1.191,1.191,0,0,1-.523.523,1.167,1.167,0,0,1-1.568-.518l-4.952-9.744a1.247,1.247,0,0,1-.186-.642V70.978H14.306v8.867a1.172,1.172,0,1,1-2.343,0V57a6.216,6.216,0,0,0-3.326-.948,6.291,6.291,0,0,0-6.294,6.294v40.031c.062-.067.124-.133.186-.195a8.613,8.613,0,0,1,6.108-2.529,8.746,8.746,0,0,1,2.746.447c.2.066.39.142.58.221V85.156a1.172,1.172,0,1,1,2.343,0v17.172a1.172,1.172,0,0,1-1.878.93,6.136,6.136,0,0,0-1.789-.943,6.3,6.3,0,1,0-2,12.264H41.081a1.172,1.172,0,0,1,0,2.343H8.637A8.635,8.635,0,0,1,0,108.285V62.341A8.637,8.637,0,0,1,13.783,55.4a1.18,1.18,0,0,1,.523.979V68.635Zm56.362,33.307H64.463l3.1,6.108ZM55.006,75.735a1.171,1.171,0,0,1,0,2.343H39.145a1.171,1.171,0,0,1,0-2.343Zm-6.6,11.188a1.171,1.171,0,1,1,0,2.343H39.145a1.171,1.171,0,0,1,0-2.343Zm6.6-5.594a1.172,1.172,0,0,1,0,2.343H39.145a1.172,1.172,0,0,1,0-2.343ZM19.378,74.614H32.8a1.172,1.172,0,0,1,1.169,1.174V89.213A1.172,1.172,0,0,1,32.8,90.386H19.378A1.173,1.173,0,0,1,18.2,89.213V75.788a1.173,1.173,0,0,1,1.174-1.174Zm12.251,2.347H20.547V88.043H31.629Z" transform="translate(0 0)"/>
  </g>
</svg>
