<svg xmlns="http://www.w3.org/2000/svg" width="80" height="80" viewBox="0 0 80 80">
  <g id="t5-ic6" transform="translate(0)">
    <path id="Path_153999" data-name="Path 153999" d="M57.655,19.175,48.93,9.144a4.773,4.773,0,0,0-7.209,0L33,19.175a4.828,4.828,0,0,0,.457,6.778c3.246,2.885,7.086-.844,7.086-.844v37.5h9.571v-37.5s3.849,3.768,7.086.844a4.843,4.843,0,0,0,.457-6.778Zm0,0" transform="translate(-26.848 -6.328)" fill="#e8e8e8"/>
    <path id="Path_154000" data-name="Path 154000" d="M97.184,233.484a39.465,39.465,0,0,0-9.571-.338v19.725h9.571Zm0,0" transform="translate(-73.923 -196.594)" fill="#afafaf"/>
    <path id="Path_154001" data-name="Path 154001" d="M42.106,299.541a17.3,17.3,0,1,0-17.3,17.369A17.337,17.337,0,0,0,42.106,299.541Zm0,0" transform="translate(-6.328 -238.083)" fill="#00dbb6"/>
    <path id="Path_154002" data-name="Path 154002" d="M16.437,299.538a17.368,17.368,0,0,1,12.837-16.785,17.37,17.37,0,1,0,0,33.569,17.368,17.368,0,0,1-12.837-16.784Zm0,0" transform="translate(-6.328 -238.079)" fill="#009e83"/>
    <path id="Path_154003" data-name="Path 154003" d="M72,337.05H68.17v-3.845a3,3,0,1,0-6,0v3.845H58.342a3.01,3.01,0,0,0,0,6.02h3.831v3.846a3,3,0,1,0,6,0V343.07H72a3.01,3.01,0,0,0,0-6.02Zm0,0" transform="translate(-46.696 -278.602)" fill="#fffcdc"/>
    <path id="Path_154004" data-name="Path 154004" d="M333.175,195.258l-8.724,10.03a4.773,4.773,0,0,1-7.21,0l-8.724-10.03a4.828,4.828,0,0,1,.457-6.778c3.246-2.885,7.086.844,7.086.844v-37.5h9.571v37.5s3.848-3.768,7.086-.844A4.843,4.843,0,0,1,333.175,195.258Zm0,0" transform="translate(-259.318 -128.104)" fill="#e8e8e8"/>
    <path id="Path_154005" data-name="Path 154005" d="M372.7,171.215a39.465,39.465,0,0,1-9.571.338V151.828H372.7Zm0,0" transform="translate(-306.393 -128.105)" fill="#afafaf"/>
    <path id="Path_154006" data-name="Path 154006" d="M317.626,24.869a17.3,17.3,0,1,0-17.3,17.369A17.336,17.336,0,0,0,317.626,24.869Zm0,0" transform="translate(-238.798 -6.328)" fill="#fcf300"/>
    <path id="Path_154007" data-name="Path 154007" d="M291.957,24.869A17.368,17.368,0,0,1,304.795,8.085a17.37,17.37,0,1,0,0,33.569,17.368,17.368,0,0,1-12.838-16.785Zm0,0" transform="translate(-238.798 -6.328)" fill="#d9b800"/>
    <path id="Path_154008" data-name="Path 154008" d="M330.863,102.407v.012a3,3,0,0,0,3,3h13.647a3,3,0,0,0,3-3v-.012a3,3,0,0,0-3-3H333.867A3,3,0,0,0,330.863,102.407Zm0,0" transform="translate(-279.165 -83.871)" fill="#fffcdc"/>
    <path id="Path_154009" data-name="Path 154009" d="M306.654,59.506a5.593,5.593,0,0,0-6.7-.561V36.093a18.36,18.36,0,1,0-2.343.633V61.219a1.172,1.172,0,0,0,1.992.837,7.206,7.206,0,0,1,1.965-1.276,3.053,3.053,0,0,1,3.516.465,3.652,3.652,0,0,1,.358,5.139l-8.724,10.031a3.6,3.6,0,0,1-5.441,0l-8.724-10.031a3.669,3.669,0,0,1,.352-5.132c2.384-2.12,5.368.69,5.491.808a1.172,1.172,0,0,0,1.988-.841V40.3a1.172,1.172,0,0,0-2.344,0v18.66a5.64,5.64,0,0,0-6.693.544,6.021,6.021,0,0,0-.563,8.422l8.724,10.031a5.945,5.945,0,0,0,8.978,0l8.724-10.031a5.98,5.98,0,0,0-.556-8.416ZM277.863,18.541a16.131,16.131,0,1,1,16.132,16.2A16.183,16.183,0,0,1,277.863,18.541Zm0,0" transform="translate(-232.47 0)"/>
    <path id="Path_154010" data-name="Path 154010" d="M24.435,43.907V21.055a5.593,5.593,0,0,0,6.7-.561,5.98,5.98,0,0,0,.556-8.416L22.966,2.047a5.945,5.945,0,0,0-8.978,0L5.264,12.078A6.021,6.021,0,0,0,5.828,20.5a5.641,5.641,0,0,0,6.693.544V43.906A18.575,18.575,0,0,0,3.946,72.913a1.172,1.172,0,0,0,1.844-1.446,16.1,16.1,0,1,1,3.445,3.271,1.172,1.172,0,1,0-1.348,1.917A18.315,18.315,0,0,0,18.475,80a18.551,18.551,0,0,0,5.96-36.093Zm-9.571-.634V18.781a1.172,1.172,0,0,0-1.988-.841A7.208,7.208,0,0,1,10.914,19.2a3.091,3.091,0,0,1-3.529-.455,3.67,3.67,0,0,1-.352-5.132L15.757,3.585a3.6,3.6,0,0,1,5.441,0l8.724,10.031a3.653,3.653,0,0,1-.359,5.139c-2.373,2.143-5.358-.692-5.481-.811a1.172,1.172,0,0,0-1.992.837V43.275a18.464,18.464,0,0,0-7.227,0Zm0,0" transform="translate(0 0)"/>
    <path id="Path_154011" data-name="Path 154011" d="M58.843,322.695a4.18,4.18,0,0,0-4.17,4.182v2.674H52.013a4.182,4.182,0,0,0,0,8.364h2.659v2.674a4.17,4.17,0,1,0,8.34,0v-2.674h2.659a4.182,4.182,0,0,0,0-8.364H63.013v-2.674A4.181,4.181,0,0,0,58.843,322.695Zm6.83,9.2a1.838,1.838,0,0,1,0,3.676H61.841a1.171,1.171,0,0,0-1.172,1.172v3.846a1.827,1.827,0,1,1-3.653,0v-3.846a1.172,1.172,0,0,0-1.172-1.172H52.013a1.838,1.838,0,0,1,0-3.676h3.831a1.172,1.172,0,0,0,1.172-1.172v-3.846a1.827,1.827,0,1,1,3.653,0v3.846a1.171,1.171,0,0,0,1.172,1.172Zm0,0" transform="translate(-40.368 -272.274)"/>
    <path id="Path_154012" data-name="Path 154012" d="M341.186,91.9H327.54a4.182,4.182,0,0,0,0,8.364h8.771a1.172,1.172,0,1,0,0-2.344H327.54a1.838,1.838,0,0,1,0-3.676h13.647a1.838,1.838,0,0,1,0,3.676,1.172,1.172,0,1,0,0,2.344,4.182,4.182,0,0,0,0-8.364Zm0,0" transform="translate(-272.838 -77.543)"/>
  </g>
</svg>
