<svg xmlns="http://www.w3.org/2000/svg" xmlns:xlink="http://www.w3.org/1999/xlink" width="168" height="168" viewBox="0 0 168 168">
  <defs>
    <filter id="Ellipse_4058" x="0" y="0" width="168" height="168" filterUnits="userSpaceOnUse">
      <feOffset dy="3" input="SourceAlpha"/>
      <feGaussianBlur stdDeviation="3" result="blur"/>
      <feFlood flood-opacity="0.161"/>
      <feComposite operator="in" in2="blur"/>
      <feComposite in="SourceGraphic"/>
    </filter>
  </defs>
  <g id="t6-ch1" transform="translate(-504 -2990.602)">
    <g transform="matrix(1, 0, 0, 1, 504, 2990.6)" filter="url(#Ellipse_4058)">
      <circle id="Ellipse_4058-2" data-name="Ellipse 4058" cx="75" cy="75" r="75" transform="translate(9 6)" fill="#fff"/>
    </g>
    <g id="Group_117660" data-name="Group 117660" transform="translate(540.5 3036.92)">
      <rect id="Rectangle_37775" data-name="Rectangle 37775" width="87.207" height="65.312" transform="translate(6.68 5.865)" fill="#009e83"/>
      <rect id="Rectangle_37774" data-name="Rectangle 37774" width="12.246" height="65.312" transform="translate(6.68 5.865)" fill="#007a64"/>
      <rect id="Rectangle_37772" data-name="Rectangle 37772" width="87.578" height="65.127" transform="translate(1.113 1.412)" fill="#fefdd2"/>
      <rect id="Rectangle_37773" data-name="Rectangle 37773" width="7.979" height="65.127" transform="translate(1.113 1.412)" fill="#fefba6"/>
      <rect id="Rectangle_37776" data-name="Rectangle 37776" width="14.287" height="5.937" transform="translate(10.391 30.914)" fill="#ffad6e"/>
      <rect id="Rectangle_37778" data-name="Rectangle 37778" width="14.287" height="5.937" transform="translate(33.584 19.596)" fill="#00f5cb"/>
      <rect id="Rectangle_37779" data-name="Rectangle 37779" width="14.287" height="5.937" transform="translate(33.584 42.232)" fill="#00f5cb"/>
      <rect id="Rectangle_37780" data-name="Rectangle 37780" width="14.287" height="5.937" transform="translate(65.127 13.658)" fill="#fef975"/>
      <rect id="Rectangle_37781" data-name="Rectangle 37781" width="14.287" height="5.937" transform="translate(65.127 31.1)" fill="#fef975"/>
      <rect id="Rectangle_37782" data-name="Rectangle 37782" width="14.287" height="5.937" transform="translate(65.127 48.541)" fill="#fef975"/>
      <rect id="Rectangle_37777" data-name="Rectangle 37777" width="14.287" height="5.937" transform="translate(10.391 49.283)" fill="#ffad6e"/>
      <rect id="Rectangle_37783" data-name="Rectangle 37783" width="4.453" height="5.937" transform="translate(65.127 13.658)" fill="#fcf300"/>
      <rect id="Rectangle_37787" data-name="Rectangle 37787" width="4.453" height="5.937" transform="translate(33.584 19.596)" fill="#009e83"/>
      <rect id="Rectangle_37784" data-name="Rectangle 37784" width="4.453" height="5.937" transform="translate(65.127 31.1)" fill="#fcf300"/>
      <rect id="Rectangle_37788" data-name="Rectangle 37788" width="4.453" height="5.937" transform="translate(33.584 42.232)" fill="#009e83"/>
      <rect id="Rectangle_37789" data-name="Rectangle 37789" width="4.453" height="5.937" transform="translate(10.391 49.283)" fill="#ff8628"/>
      <rect id="Rectangle_37790" data-name="Rectangle 37790" width="4.453" height="5.937" transform="translate(10.391 30.914)" fill="#ff8628"/>
      <rect id="Rectangle_37785" data-name="Rectangle 37785" width="4.453" height="5.937" transform="translate(65.127 48.541)" fill="#fcf300"/>
      <circle id="Ellipse_4870" data-name="Ellipse 4870" cx="6.123" cy="6.123" r="6.123" transform="translate(11.503 7.906)" fill="#fcf300"/>
      <path id="Union_15" data-name="Union 15" d="M0,5.559A5.805,5.805,0,0,1,3.543,0,5.805,5.805,0,0,1,7.087,5.559a5.8,5.8,0,0,1-3.543,5.558A5.8,5.8,0,0,1,0,5.559Z" transform="translate(16.478 7.922)" fill="#fef975"/>
      <g id="_000000ff" data-name="#000000ff">
        <path id="Path_179680" data-name="Path 179680" d="M1.072,93.091a4.317,4.317,0,0,1,2.442-.377q41.937.006,83.873,0a2.354,2.354,0,0,1,2.4,1.72,28.046,28.046,0,0,1,.091,3.4c1.048.026,2.1-.054,3.147.041A2.368,2.368,0,0,1,95,99.914V163.2a2.481,2.481,0,0,1-1.139,1.72,4.1,4.1,0,0,1-2.2.33q-30.334-.014-60.67-.009a1.459,1.459,0,0,1-1.427-1.38,1.488,1.488,0,0,1,1.6-1.4q30.523,0,61.047,0,.008-30.924,0-61.85-1.169,0-2.334,0c-.009,4.5.013,8.993-.011,13.489A1.384,1.384,0,1,1,87.1,114.1c-.017-6.2,0-12.4-.007-18.6q-38.631,0-77.26,0H2.785q0,30.924,0,61.848,3.526,0,7.051,0,38.631,0,77.258,0,.011-18.377.007-36.759a1.446,1.446,0,0,1,1.39-1.408,1.53,1.53,0,0,1,1.392,1.785q-.017,18.369-.007,36.736a2.358,2.358,0,0,1-2.484,2.429q-35.564,0-71.126,0-4.178,0-8.355,0-.006,1.163,0,2.33c2.785.013,5.572,0,8.357.006,2.746.007,5.49-.017,8.235.009a1.461,1.461,0,0,1,1.418,1.386A1.646,1.646,0,0,1,25.283,165a2.2,2.2,0,0,1-1.334.252c-5.513-.017-11.025.009-16.536-.011a2.308,2.308,0,0,1-2.273-2.158c-.048-.983,0-1.969-.017-2.954-1.037-.026-2.078.045-3.113-.035A2.352,2.352,0,0,1,0,158V94.8A2.441,2.441,0,0,1,1.072,93.091Z" transform="translate(0 -92.711)"/>
        <path id="Path_179681" data-name="Path 179681" d="M55.9,129.153A7.331,7.331,0,0,1,64.021,140.2a7.473,7.473,0,0,1-4.761,3.23q0,4.114,0,8.227c1.662.006,3.325-.013,4.988.007a1.955,1.955,0,0,1,1.709.948,4.219,4.219,0,0,1,.284,2.149q6.652,0,13.3,0,0-2.658,0-5.318c-1.675-.009-3.353.013-5.028-.007A1.957,1.957,0,0,1,72.641,148c-.16-1.906-.054-3.835-.059-5.75a1.958,1.958,0,0,1,2.032-1.8q6.315-.011,12.634,0a2,2,0,0,1,1.787.967A2.945,2.945,0,0,1,89.313,143c-.017,1.492.011,2.984-.011,4.477a1.953,1.953,0,0,1-1.906,1.95c-1.688.024-3.377,0-5.065.009q-.008,6.708,0,13.419c1.646.009,3.292-.007,4.936.006a1.982,1.982,0,0,1,1.792,1,4.419,4.419,0,0,1,.254,2.1h6.279c.006-8.643-.007-17.286.007-25.928a3.354,3.354,0,0,1,3.169-3.293c1.826-.02,3.652,0,5.477-.007a2.823,2.823,0,0,1,.306-1.486,2,2,0,0,1,1.792-.935c4.221,0,8.442-.009,12.664,0a1.949,1.949,0,0,1,1.98,1.811c.043,1.427,0,2.854.019,4.281a3.648,3.648,0,0,1-.284,1.939,1.984,1.984,0,0,1-1.75.952q-6.307.011-12.612,0a1.991,1.991,0,0,1-1.963-1.247,10.248,10.248,0,0,1-.135-2.536c-1.772.009-3.544-.017-5.316.011a.581.581,0,0,0-.566.688c-.011,4.846,0,9.693,0,14.539q2.942,0,5.884,0a4.029,4.029,0,0,1,.314-2.2,2,2,0,0,1,1.791-.9q6.307,0,12.615,0a1.957,1.957,0,0,1,2.015,1.915c.013,1.74.022,3.485,0,5.225a1.952,1.952,0,0,1-2,1.842c-4.208.011-8.418,0-12.626,0a2.006,2.006,0,0,1-1.828-.961,4.251,4.251,0,0,1-.275-2.141q-2.942,0-5.886,0,0,7.211,0,14.424c-.059.382.16.842.6.815,1.761.032,3.524,0,5.286.011.011-.714-.039-1.431.033-2.143a1.969,1.969,0,0,1,2.05-1.651c4.216,0,8.431-.009,12.647,0a1.949,1.949,0,0,1,1.995,1.818c.043,1.431,0,2.863.019,4.294a3.6,3.6,0,0,1-.289,1.93,1.989,1.989,0,0,1-1.763.943q-6.3.006-12.6,0a2.014,2.014,0,0,1-1.779-.905,2.814,2.814,0,0,1-.327-1.507c-1.817-.007-3.635.019-5.451-.011a3.363,3.363,0,0,1-3.178-3.039c-.054-1.258,0-2.518-.022-3.776q-3.139,0-6.279,0a4.127,4.127,0,0,1-.3,2.171,1.981,1.981,0,0,1-1.75.93q-6.312.008-12.628,0a1.964,1.964,0,0,1-2.06-1.926c-.019-1.677-.009-3.355-.006-5.03a1.954,1.954,0,0,1,1.857-2.019c1.705-.039,3.412,0,5.119-.015q0-2.661,0-5.318-6.652,0-13.307,0a4.585,4.585,0,0,1-.232,2.058,1.95,1.95,0,0,1-1.75,1.039c-1.666.02-3.332,0-5,.007q0,4.576,0,9.153c1.7.011,3.4-.02,5.1.013a1.954,1.954,0,0,1,1.872,1.967c.006,1.711.017,3.421-.006,5.132a1.953,1.953,0,0,1-1.983,1.876c-4.208.011-8.416,0-12.623.006a2.272,2.272,0,0,1-1.451-.466,2.066,2.066,0,0,1-.67-1.54c-.007-1.674-.011-3.349,0-5.021a2.1,2.1,0,0,1,.636-1.477,2.222,2.222,0,0,1,1.327-.482c1.67-.02,3.34,0,5.01-.007q0-4.578,0-9.153c-1.681-.011-3.362.015-5.041-.009a2.168,2.168,0,0,1-1.254-.447,2.093,2.093,0,0,1-.681-1.59c0-1.675-.013-3.351.006-5.025a2.069,2.069,0,0,1,.727-1.512,2.355,2.355,0,0,1,1.4-.41c1.614-.006,3.23,0,4.846,0q0-4.114,0-8.227a7.449,7.449,0,0,1-5.253-4.108A7.336,7.336,0,0,1,55.9,129.153m-.076,3a4.548,4.548,0,0,0-.98,7.461,4.524,4.524,0,0,0,6.951-1.1,4.558,4.558,0,0,0-.117-4.791,4.686,4.686,0,0,0-3.056-2.015,4.8,4.8,0,0,0-2.8.442m51.218,4.956c.007,1.137,0,2.275,0,3.412q2.252.006,4.5,0c2.225,0,4.449,0,6.674,0q0-1.712,0-3.423c-3.728,0-7.453-.007-11.179.011M75.35,143.232c.011,1.145-.032,2.292.024,3.434,1.471-.022,2.943,0,4.416-.011q3.365,0,6.732,0,.006-1.712,0-3.423-3.365-.006-6.733,0c-1.479,0-2.958,0-4.438,0M52.279,154.439q0,1.712,0,3.423,2.266,0,4.531,0,3.32,0,6.643,0c0-1.143.006-2.284,0-3.427-2.214,0-4.427,0-6.641,0q-2.266,0-4.531,0m54.762,0q0,1.712,0,3.423,2.252,0,4.505,0,3.334,0,6.669,0,0-1.712,0-3.425h-6.674q-2.249,0-4.5,0M75.35,165.646q0,1.712,0,3.423c1.488,0,2.978,0,4.466,0q3.354,0,6.708,0,0-1.712,0-3.423-3.351-.006-6.7,0c-1.49,0-2.98,0-4.47,0m31.691,6.134q0,1.712,0,3.425,2.24,0,4.483,0,3.345,0,6.693,0V171.78q-3.348,0-6.693,0-2.243,0-4.483,0m-54.762.807c0,1.141,0,2.282,0,3.421q2.249,0,4.5,0,3.334,0,6.672,0c0-1.141,0-2.284,0-3.425H56.781C55.28,172.586,53.779,172.578,52.279,172.587Z" transform="translate(-40.31 -122.173)"/>
      </g>
    </g>
  </g>
</svg>
