<svg xmlns="http://www.w3.org/2000/svg" width="94" height="69.865" viewBox="0 0 94 69.865">
  <g id="t6-s8" transform="translate(-1036.5 -1458.089)">
    <path id="Path_179623" data-name="Path 179623" d="M0,11.25V56.94c0,6.675,21.042,12.087,47,12.087S94,63.616,94,56.94V11.25Z" transform="translate(1036.5 1458.927)" fill="#e6fffb"/>
    <path id="Path_179623_-_Outline" data-name="Path 179623 - Outline" d="M2.5,13.75V56.94c0,.853,2.136,3.617,11.889,6.125C23.068,65.3,34.65,66.527,47,66.527S70.931,65.3,79.611,63.066C89.364,60.558,91.5,57.794,91.5,56.94V13.75H2.5M0,11.25H94V56.94c0,6.675-21.042,12.087-47,12.087S0,63.616,0,56.94Z" transform="translate(1036.5 1458.927)" fill="#007a64"/>
    <ellipse id="Ellipse_4856" data-name="Ellipse 4856" cx="46.929" cy="11" rx="46.929" ry="11" transform="translate(1036.642 1458.089)" fill="#e6fffb"/>
    <path id="Ellipse_4856_-_Outline" data-name="Ellipse 4856 - Outline" d="M46.929,2.5C34.58,2.5,23,3.621,14.316,5.656A38.749,38.749,0,0,0,4.9,8.905C2.941,9.991,2.5,10.8,2.5,11s.441,1.009,2.4,2.1a38.749,38.749,0,0,0,9.416,3.249C23,18.379,34.58,19.5,46.929,19.5s23.931-1.121,32.613-3.156A38.749,38.749,0,0,0,88.958,13.1c1.959-1.086,2.4-1.9,2.4-2.1s-.441-1.009-2.4-2.1a38.749,38.749,0,0,0-9.416-3.249C70.86,3.621,59.278,2.5,46.929,2.5m0-2.5C72.847,0,93.858,4.925,93.858,11S72.847,22,46.929,22,0,17.075,0,11,21.011,0,46.929,0Z" transform="translate(1036.642 1458.089)" fill="#007a64"/>
  </g>
</svg>
