<svg xmlns="http://www.w3.org/2000/svg" width="127" height="62" viewBox="0 0 127 62">
  <g transform="translate(-1020 -1358.48)">
    <path id="t6-s7" d="M0,0H127V42.877c-55.02-6.988-88.185,37.8-127,9.845Z" transform="translate(1020 1358.48)" fill="#e6fffb"/>
    <path id="t6-s7_-_Outline" data-name="t6-s7 - Outline" d="M2.5,2.5V51.425a46.286,46.286,0,0,0,12.18,6.1A41.734,41.734,0,0,0,27.629,59.5a66.634,66.634,0,0,0,17.315-2.586c5.988-1.594,12.1-3.744,18.563-6.019,15.008-5.282,32.019-11.268,51.613-11.268,3.121,0,6.265.153,9.381.456V2.5H2.5M0,0H127V42.877a94.185,94.185,0,0,0-11.881-.751C79.623,42.126,53.39,62,27.629,62,18.489,62,9.412,59.5,0,52.722Z" transform="translate(1020 1358.48)" fill="#007a64"/>
  </g>
</svg>
