<svg xmlns="http://www.w3.org/2000/svg" width="126" height="50" viewBox="0 0 126 50">
  <g transform="translate(-1020 -941)">
    <rect id="t6-s1" width="126" height="50" rx="25" transform="translate(1020 941)" fill="#e6fffb"/>
    <path id="t6-s1_-_Outline" data-name="t6-s1 - Outline" d="M25,2.5a22.507,22.507,0,0,0-8.757,43.233A22.357,22.357,0,0,0,25,47.5h76a22.507,22.507,0,0,0,8.757-43.233A22.357,22.357,0,0,0,101,2.5H25M25,0h76a25,25,0,0,1,0,50H25A25,25,0,0,1,25,0Z" transform="translate(1020 941)" fill="#007a64"/>
  </g>
</svg>
